%FSTAX23Y23*%
%MOIN*%
%SFA1B1*%

%IPPOS*%
%AMD18*
4,1,8,-0.015700,-0.035500,0.015700,-0.035500,0.035500,-0.015700,0.035500,0.015700,0.015700,0.035500,-0.015700,0.035500,-0.035500,0.015700,-0.035500,-0.015700,-0.015700,-0.035500,0.0*
1,1,0.039500,-0.015700,-0.015700*
1,1,0.039500,0.015700,-0.015700*
1,1,0.039500,0.015700,0.015700*
1,1,0.039500,-0.015700,0.015700*
%
%ADD14C,0.045280*%
%ADD15R,0.045280X0.045280*%
%ADD16C,0.067060*%
%ADD17C,0.070990*%
G04~CAMADD=18~8~0.0~0.0~709.9~709.9~197.5~0.0~15~0.0~0.0~0.0~0.0~0~0.0~0.0~0.0~0.0~0~0.0~0.0~0.0~180.0~710.0~710.0*
%ADD18D18*%
%ADD19R,0.082000X0.082000*%
%ADD20C,0.082000*%
%ADD28R,0.043520X0.065280*%
%LNpcb_front-1*%
%LPD*%
G54D14*
X0289Y00791D03*
G54D15*
X0289Y00988D03*
G54D16*
X00915Y00698D03*
Y00875D03*
X00659Y00698D03*
Y00875D03*
G54D17*
X01818Y02018D03*
Y01918D03*
X01918Y02018D03*
X02018D03*
X01918Y01918D03*
X02018D03*
X02118Y02018D03*
Y01918D03*
X02218Y02018D03*
Y01918D03*
X02318Y02018D03*
Y01918D03*
X02418Y02018D03*
X01718Y01918D03*
X01618D03*
X01518D03*
X01718Y02018D03*
X01618D03*
X01518D03*
X01718Y00787D03*
X01818D03*
X02018D03*
X02118D03*
X01918D03*
G54D18*
X02418Y01918D03*
X02218Y00787D03*
G54D19*
X00708Y02578D03*
G54D20*
X00808Y02578D03*
X00908D03*
X01008D03*
X01108D03*
X01208D03*
X01308D03*
X01408D03*
X01508D03*
X01608D03*
X01708D03*
X01808D03*
X01908D03*
X02008D03*
X02108D03*
X02208D03*
G54D28*
X0081Y02685D03*
X00709D03*
M02*