%FSTAX23Y23*%
%MOIN*%
%SFA1B1*%

%IPPOS*%
%AMD25*
4,1,8,-0.015700,-0.031500,0.015700,-0.031500,0.031500,-0.015700,0.031500,0.015700,0.015700,0.031500,-0.015700,0.031500,-0.031500,0.015700,-0.031500,-0.015700,-0.015700,-0.031500,0.0*
1,1,0.031500,-0.015700,-0.015700*
1,1,0.031500,0.015700,-0.015700*
1,1,0.031500,0.015700,0.015700*
1,1,0.031500,-0.015700,0.015700*
%
%ADD14C,0.045280*%
%ADD15R,0.045280X0.045280*%
%ADD21C,0.110240*%
%ADD23C,0.059060*%
%ADD24C,0.062990*%
G04~CAMADD=25~8~0.0~0.0~629.9~629.9~157.5~0.0~15~0.0~0.0~0.0~0.0~0~0.0~0.0~0.0~0.0~0~0.0~0.0~0.0~180.0~630.0~630.0*
%ADD25D25*%
%ADD26R,0.074000X0.074000*%
%ADD27C,0.074000*%
%LNpcb_front-1*%
%LPD*%
G54D14*
X0289Y00791D03*
G54D15*
X0289Y00988D03*
G54D21*
X03346Y01496D03*
X0059Y01574D03*
Y01968D03*
X03149Y02362D03*
G54D23*
X00915Y00698D03*
Y00875D03*
X00659Y00698D03*
Y00875D03*
G54D24*
X01818Y02018D03*
Y01918D03*
X01918Y02018D03*
X02018D03*
X01918Y01918D03*
X02018D03*
X02118Y02018D03*
Y01918D03*
X02218Y02018D03*
Y01918D03*
X02318Y02018D03*
Y01918D03*
X02418Y02018D03*
X01718Y01918D03*
X01618D03*
X01518D03*
X01718Y02018D03*
X01618D03*
X01518D03*
X01718Y00787D03*
X01818D03*
X02018D03*
X02118D03*
X01918D03*
G54D25*
X02418Y01918D03*
X02218Y00787D03*
G54D26*
X00708Y02578D03*
G54D27*
X00808Y02578D03*
X00908D03*
X01008D03*
X01108D03*
X01208D03*
X01308D03*
X01408D03*
X01508D03*
X01608D03*
X01708D03*
X01808D03*
X01908D03*
X02008D03*
X02108D03*
X02208D03*
M02*