%FSTAX23Y23*%
%MOIN*%
%SFA1B1*%

%IPPOS*%
%ADD10C,0.007870*%
%ADD12C,0.010000*%
%ADD29C,0.005910*%
%ADD30C,0.009840*%
%ADD31R,0.177170X0.031500*%
%LNpcb_front-1*%
%LPD*%
G54D10*
X02623Y01791D02*
Y02145D01*
X01313Y01791D02*
X02623D01*
X01313Y02145D02*
X02623D01*
X01313Y01791D02*
Y02145D01*
X01662Y00734D02*
Y0084D01*
X02274*
Y00734D02*
Y0084D01*
X01662Y00734D02*
X02274D01*
X00743Y0265D02*
X00776D01*
X00743Y02719D02*
X00776D01*
G54D12*
X02152Y01745D02*
X02158Y01751D01*
X02171*
X02178Y01745*
Y01719*
X02171Y01712*
X02158*
X02152Y01719*
X02139Y01712D02*
Y01751D01*
X02112Y01712*
Y01751*
X02099Y01732D02*
X02073D01*
X0206Y01712D02*
Y01751D01*
X0204*
X02034Y01745*
Y01732*
X0204Y01725*
X0206*
X01994Y01745D02*
X02001Y01751D01*
X02014*
X0202Y01745*
Y01719*
X02014Y01712*
X02001*
X01994Y01719*
X01981Y01751D02*
Y01712D01*
X01961*
X01955Y01719*
Y01725*
X01961Y01732*
X01981*
X01961*
X01955Y01738*
Y01745*
X01961Y01751*
X01981*
X01942Y01732D02*
X01916D01*
X01902Y01751D02*
Y01712D01*
X01883*
X01876Y01719*
Y01745*
X01883Y01751*
X01902*
X01843D02*
X01856D01*
X01863Y01745*
Y01719*
X01856Y01712*
X01843*
X01837Y01719*
Y01745*
X01843Y01751*
X01824D02*
Y01712D01*
X01811Y01725*
X01797Y01712*
Y01751*
X01784Y01712D02*
Y01751D01*
X01758Y01712*
Y01751*
X02102Y00688D02*
X02109Y00695D01*
X02122*
X02129Y00688*
Y00662*
X02122Y00656*
X02109*
X02102Y00662*
X02089Y00656D02*
Y00695D01*
X02063Y00656*
Y00695*
X0205Y00675D02*
X02024D01*
X0201Y00695D02*
Y00656D01*
X01991*
X01984Y00662*
Y00669*
X01991Y00675*
X0201*
X01991*
X01984Y00682*
Y00688*
X01991Y00695*
X0201*
X01951D02*
X01965D01*
X01971Y00688*
Y00662*
X01965Y00656*
X01951*
X01945Y00662*
Y00688*
X01951Y00695*
X01932D02*
X01905D01*
X01919*
Y00656*
X01873Y00695D02*
X01886D01*
X01892Y00688*
Y00662*
X01886Y00656*
X01873*
X01866Y00662*
Y00688*
X01873Y00695*
X01853Y00656D02*
Y00695D01*
X01827Y00656*
Y00695*
X00895Y02697D02*
X00902Y02704D01*
X00915*
X00922Y02697*
Y02671*
X00915Y02665*
X00902*
X00895Y02671*
X00882Y02665D02*
X00869D01*
X00876*
Y02704*
X00882Y02697*
X03002Y00594D02*
Y00555D01*
X02982*
X02975Y00561*
Y00568*
X02982Y00574*
X03002*
X02982*
X02975Y00581*
Y00587*
X02982Y00594*
X03002*
X02962D02*
Y00561D01*
X02956Y00555*
X02942*
X02936Y00561*
Y00594*
X02923D02*
X02897D01*
Y00587*
X02923Y00561*
Y00555*
X02897*
X02883Y00594D02*
X02857D01*
Y00587*
X02883Y00561*
Y00555*
X02857*
X02818Y00594D02*
X02844D01*
Y00555*
X02818*
X02844Y00574D02*
X02831D01*
X02805Y00555D02*
Y00594D01*
X02785*
X02778Y00587*
Y00574*
X02785Y00568*
X02805*
X02792D02*
X02778Y00555D01*
G54D29*
X03147Y0089D02*
X03147Y009D01*
X03147Y00909*
X03146Y00919*
X03144Y00929*
X03143Y00939*
X0314Y00949*
X03138Y00959*
X03135Y00968*
X03132Y00978*
X03128Y00987*
X03124Y00996*
X0312Y01005*
X03115Y01014*
X0311Y01023*
X03105Y01031*
X03099Y01039*
X03093Y01047*
X03087Y01055*
X0308Y01063*
X03074Y0107*
X03066Y01077*
X03059Y01084*
X03051Y0109*
X03043Y01096*
X03035Y01102*
X03027Y01108*
X03018Y01113*
X0301Y01118*
X03001Y01122*
X02992Y01126*
X02982Y0113*
X02973Y01133*
X02963Y01137*
X02954Y01139*
X02944Y01142*
X02934Y01143*
X02924Y01145*
X02914Y01146*
X02904Y01147*
X02895Y01147*
X02885*
X02875Y01147*
X02865Y01146*
X02855Y01145*
X02845Y01143*
X02835Y01142*
X02825Y01139*
X02816Y01137*
X02806Y01133*
X02797Y0113*
X02787Y01126*
X02778Y01122*
X02769Y01118*
X02761Y01113*
X02752Y01108*
X02744Y01102*
X02736Y01096*
X02728Y0109*
X0272Y01084*
X02713Y01077*
X02705Y0107*
X02699Y01063*
X02692Y01055*
X02686Y01047*
X0268Y01039*
X02674Y01031*
X02669Y01023*
X02664Y01014*
X02659Y01005*
X02655Y00996*
X02651Y00987*
X02647Y00978*
X02644Y00968*
X02641Y00959*
X02639Y00949*
X02636Y00939*
X02635Y00929*
X02633Y00919*
X02632Y00909*
X02632Y009*
X02632Y0089*
X02632Y0088*
X02632Y0087*
X02633Y0086*
X02635Y0085*
X02636Y0084*
X02639Y0083*
X02641Y0082*
X02644Y00811*
X02647Y00801*
X02651Y00792*
X02655Y00783*
X02659Y00774*
X02664Y00765*
X02669Y00756*
X02674Y00748*
X0268Y0074*
X02686Y00732*
X02692Y00724*
X02699Y00716*
X02705Y00709*
X02713Y00702*
X0272Y00695*
X02728Y00689*
X02736Y00683*
X02744Y00677*
X02752Y00671*
X02761Y00666*
X02769Y00661*
X02778Y00657*
X02787Y00653*
X02797Y00649*
X02806Y00646*
X02816Y00642*
X02825Y0064*
X02835Y00637*
X02845Y00636*
X02855Y00634*
X02865Y00633*
X02875Y00632*
X02885Y00632*
X02895*
X02905Y00632*
X02914Y00633*
X02924Y00634*
X02934Y00636*
X02944Y00637*
X02954Y0064*
X02963Y00642*
X02973Y00646*
X02982Y00649*
X02992Y00653*
X03001Y00657*
X0301Y00661*
X03018Y00666*
X03027Y00671*
X03035Y00677*
X03043Y00683*
X03051Y00689*
X03059Y00695*
X03066Y00702*
X03074Y00709*
X0308Y00716*
X03087Y00724*
X03093Y00732*
X03099Y0074*
X03105Y00748*
X0311Y00756*
X03115Y00765*
X0312Y00774*
X03124Y00783*
X03128Y00792*
X03132Y00801*
X03135Y00811*
X03138Y0082*
X0314Y0083*
X03143Y0084*
X03144Y0085*
X03146Y0086*
X03147Y0087*
X03147Y0088*
X03147Y0089*
G54D30*
X02297Y00787D02*
X02289Y00791D01*
Y00783*
X02297Y00787*
G54D31*
X01968Y01807D03*
M02*