%FSTAX23Y23*%
%MOIN*%
%SFA1B1*%

%IPPOS*%
%AMD25*
4,1,8,-0.015700,-0.031500,0.015700,-0.031500,0.031500,-0.015700,0.031500,0.015700,0.015700,0.031500,-0.015700,0.031500,-0.031500,0.015700,-0.031500,-0.015700,-0.015700,-0.031500,0.0*
1,1,0.031500,-0.015700,-0.015700*
1,1,0.031500,0.015700,-0.015700*
1,1,0.031500,0.015700,0.015700*
1,1,0.031500,-0.015700,0.015700*
%
%ADD14C,0.045280*%
%ADD15R,0.045280X0.045280*%
%ADD22C,0.015000*%
%ADD23C,0.059060*%
%ADD24C,0.062990*%
G04~CAMADD=25~8~0.0~0.0~629.9~629.9~157.5~0.0~15~0.0~0.0~0.0~0.0~0~0.0~0.0~0.0~0.0~0~0.0~0.0~0.0~180.0~630.0~630.0*
%ADD25D25*%
%ADD26R,0.074000X0.074000*%
%ADD27C,0.074000*%
%ADD28R,0.043520X0.065280*%
%LNpcb_front-1*%
%LPD*%
G36*
X03622Y00433D02*
X00314D01*
Y02795*
X03622*
Y00433*
G37*
%LNpcb_front-2*%
%LPC*%
G36*
X00741Y02727D02*
X00714D01*
Y0269*
X00741*
Y02727*
G37*
G36*
X00704D02*
X00677D01*
Y0269*
X00704*
Y02727*
G37*
G36*
X03452Y02663D02*
X03437D01*
X03436Y02663*
X03435Y02663*
X0342Y0266*
X0342Y0266*
X03419*
X03405Y02654*
X03404Y02653*
X03404Y02653*
X03391Y02645*
X0339Y02644*
X0339Y02644*
X03379Y02633*
X03378Y02632*
X03378Y02632*
X03369Y02619*
X03369Y02618*
X03369Y02618*
X03363Y02604*
Y02603*
X03362Y02602*
X03359Y02587*
X0336Y02587*
X03359Y02586*
Y0257*
X0336Y0257*
X03359Y02569*
X03362Y02554*
X03363Y02553*
Y02553*
X03369Y02539*
X03369Y02538*
X03369Y02537*
X03378Y02525*
X03378Y02524*
X03379Y02524*
X0339Y02513*
X0339Y02512*
X03391Y02512*
X03404Y02503*
X03404Y02503*
X03405Y02503*
X03419Y02497*
X0342*
X0342Y02496*
X03435Y02493*
X03436Y02493*
X03437Y02493*
X03452*
X03453Y02493*
X03453Y02493*
X03469Y02496*
X03469Y02497*
X0347*
X03484Y02503*
X03485Y02503*
X03485Y02503*
X03498Y02512*
X03498Y02512*
X03499Y02513*
X0351Y02524*
X0351Y02524*
X03511Y02525*
X03519Y02537*
X0352Y02538*
X0352Y02539*
X03526Y02553*
Y02553*
X03526Y02554*
X03529Y02569*
X03529Y0257*
X0353Y0257*
Y02586*
X03529Y02587*
X03529Y02587*
X03526Y02602*
X03526Y02603*
Y02604*
X0352Y02618*
X0352Y02618*
X03519Y02619*
X03511Y02632*
X0351Y02632*
X0351Y02633*
X03499Y02644*
X03498Y02644*
X03498Y02645*
X03485Y02653*
X03485Y02653*
X03484Y02654*
X0347Y0266*
X03469*
X03469Y0266*
X03453Y02663*
X03453Y02663*
X03452Y02663*
G37*
G36*
X00499D02*
X00484D01*
X00483Y02663*
X00483Y02663*
X00467Y0266*
X00467Y0266*
X00466*
X00452Y02654*
X00451Y02653*
X00451Y02653*
X00438Y02645*
X00438Y02644*
X00437Y02644*
X00426Y02633*
X00426Y02632*
X00425Y02632*
X00417Y02619*
X00416Y02618*
X00416Y02618*
X0041Y02604*
Y02603*
X0041Y02602*
X00407Y02587*
X00407Y02587*
X00406Y02586*
Y0257*
X00407Y0257*
X00407Y02569*
X0041Y02554*
X0041Y02553*
Y02553*
X00416Y02539*
X00416Y02538*
X00417Y02537*
X00425Y02525*
X00426Y02524*
X00426Y02524*
X00437Y02513*
X00438Y02512*
X00438Y02512*
X00451Y02503*
X00451Y02503*
X00452Y02503*
X00466Y02497*
X00467*
X00467Y02496*
X00483Y02493*
X00483Y02493*
X00484Y02493*
X00499*
X005Y02493*
X00501Y02493*
X00516Y02496*
X00516Y02497*
X00517*
X00531Y02503*
X00532Y02503*
X00532Y02503*
X00545Y02512*
X00546Y02512*
X00546Y02513*
X00557Y02524*
X00558Y02524*
X00558Y02525*
X00567Y02537*
X00567Y02538*
X00567Y02539*
X00573Y02553*
Y02553*
X00574Y02554*
X00577Y02569*
X00577Y0257*
X00577Y0257*
Y02586*
X00577Y02587*
X00577Y02587*
X00574Y02602*
X00573Y02603*
Y02604*
X00567Y02618*
X00567Y02618*
X00567Y02619*
X00558Y02632*
X00558Y02632*
X00557Y02633*
X00546Y02644*
X00546Y02644*
X00545Y02645*
X00532Y02653*
X00532Y02653*
X00531Y02654*
X00517Y0266*
X00516*
X00516Y0266*
X00501Y02663*
X005Y02663*
X00499Y02663*
G37*
G36*
X00741Y0268D02*
X00714D01*
Y02642*
X00741*
Y0268*
G37*
G36*
X00704D02*
X00677D01*
Y02642*
X00704*
Y0268*
G37*
G36*
X02213Y02625D02*
Y02583D01*
X02255*
X02254Y02591*
X02249Y02602*
X02242Y02612*
X02232Y02619*
X0222Y02624*
X02213Y02625*
G37*
G36*
X02203D02*
X02196Y02624D01*
X02184Y02619*
X02175Y02612*
X02167Y02602*
X02162Y02591*
X02161Y02583*
X02203*
Y02625*
G37*
G36*
X00755Y02625D02*
X00713D01*
Y02583*
X00755*
Y02625*
G37*
G36*
X00703D02*
X00661D01*
Y02583*
X00703*
Y02625*
G37*
G36*
X02008Y02622D02*
X01997Y0262D01*
X01987Y02616*
X01978Y02609*
X01971Y026*
X01966Y02589*
X01965Y02578*
X01966Y02567*
X01971Y02557*
X01978Y02548*
X01987Y02541*
X01997Y02536*
X02008Y02535*
X02019Y02536*
X0203Y02541*
X02039Y02548*
X02046Y02557*
X0205Y02567*
X02051Y02578*
X0205Y02589*
X02046Y026*
X02039Y02609*
X0203Y02616*
X02019Y0262*
X02008Y02622*
G37*
G36*
X01908D02*
X01897Y0262D01*
X01887Y02616*
X01878Y02609*
X01871Y026*
X01866Y02589*
X01865Y02578*
X01866Y02567*
X01871Y02557*
X01878Y02548*
X01887Y02541*
X01897Y02536*
X01908Y02535*
X01919Y02536*
X0193Y02541*
X01939Y02548*
X01946Y02557*
X0195Y02567*
X01951Y02578*
X0195Y02589*
X01946Y026*
X01939Y02609*
X0193Y02616*
X01919Y0262*
X01908Y02622*
G37*
G36*
X01808D02*
X01797Y0262D01*
X01787Y02616*
X01778Y02609*
X01771Y026*
X01766Y02589*
X01765Y02578*
X01766Y02567*
X01771Y02557*
X01778Y02548*
X01787Y02541*
X01797Y02536*
X01808Y02535*
X01819Y02536*
X0183Y02541*
X01839Y02548*
X01846Y02557*
X0185Y02567*
X01851Y02578*
X0185Y02589*
X01846Y026*
X01839Y02609*
X0183Y02616*
X01819Y0262*
X01808Y02622*
G37*
G36*
X01708D02*
X01697Y0262D01*
X01687Y02616*
X01678Y02609*
X01671Y026*
X01666Y02589*
X01665Y02578*
X01666Y02567*
X01671Y02557*
X01678Y02548*
X01687Y02541*
X01697Y02536*
X01708Y02535*
X01719Y02536*
X0173Y02541*
X01739Y02548*
X01746Y02557*
X0175Y02567*
X01751Y02578*
X0175Y02589*
X01746Y026*
X01739Y02609*
X0173Y02616*
X01719Y0262*
X01708Y02622*
G37*
G36*
X01608D02*
X01597Y0262D01*
X01587Y02616*
X01578Y02609*
X01571Y026*
X01566Y02589*
X01565Y02578*
X01566Y02567*
X01571Y02557*
X01578Y02548*
X01587Y02541*
X01597Y02536*
X01608Y02535*
X01619Y02536*
X0163Y02541*
X01639Y02548*
X01646Y02557*
X0165Y02567*
X01651Y02578*
X0165Y02589*
X01646Y026*
X01639Y02609*
X0163Y02616*
X01619Y0262*
X01608Y02622*
G37*
G36*
X01508D02*
X01497Y0262D01*
X01487Y02616*
X01478Y02609*
X01471Y026*
X01466Y02589*
X01465Y02578*
X01466Y02567*
X01471Y02557*
X01478Y02548*
X01487Y02541*
X01497Y02536*
X01508Y02535*
X01519Y02536*
X0153Y02541*
X01539Y02548*
X01546Y02557*
X0155Y02567*
X01551Y02578*
X0155Y02589*
X01546Y026*
X01539Y02609*
X0153Y02616*
X01519Y0262*
X01508Y02622*
G37*
G36*
X01408D02*
X01397Y0262D01*
X01387Y02616*
X01378Y02609*
X01371Y026*
X01366Y02589*
X01365Y02578*
X01366Y02567*
X01371Y02557*
X01378Y02548*
X01387Y02541*
X01397Y02536*
X01408Y02535*
X01419Y02536*
X0143Y02541*
X01439Y02548*
X01446Y02557*
X0145Y02567*
X01451Y02578*
X0145Y02589*
X01446Y026*
X01439Y02609*
X0143Y02616*
X01419Y0262*
X01408Y02622*
G37*
G36*
X01308D02*
X01297Y0262D01*
X01287Y02616*
X01278Y02609*
X01271Y026*
X01266Y02589*
X01265Y02578*
X01266Y02567*
X01271Y02557*
X01278Y02548*
X01287Y02541*
X01297Y02536*
X01308Y02535*
X01319Y02536*
X0133Y02541*
X01339Y02548*
X01346Y02557*
X0135Y02567*
X01351Y02578*
X0135Y02589*
X01346Y026*
X01339Y02609*
X0133Y02616*
X01319Y0262*
X01308Y02622*
G37*
G36*
X01208D02*
X01197Y0262D01*
X01187Y02616*
X01178Y02609*
X01171Y026*
X01166Y02589*
X01165Y02578*
X01166Y02567*
X01171Y02557*
X01178Y02548*
X01187Y02541*
X01197Y02536*
X01208Y02535*
X01219Y02536*
X0123Y02541*
X01239Y02548*
X01246Y02557*
X0125Y02567*
X01251Y02578*
X0125Y02589*
X01246Y026*
X01239Y02609*
X0123Y02616*
X01219Y0262*
X01208Y02622*
G37*
G36*
X01108D02*
X01097Y0262D01*
X01087Y02616*
X01078Y02609*
X01071Y026*
X01066Y02589*
X01065Y02578*
X01066Y02567*
X01071Y02557*
X01078Y02548*
X01087Y02541*
X01097Y02536*
X01108Y02535*
X01119Y02536*
X0113Y02541*
X01139Y02548*
X01146Y02557*
X0115Y02567*
X01151Y02578*
X0115Y02589*
X01146Y026*
X01139Y02609*
X0113Y02616*
X01119Y0262*
X01108Y02622*
G37*
G36*
X01008D02*
X00997Y0262D01*
X00987Y02616*
X00978Y02609*
X00971Y026*
X00966Y02589*
X00965Y02578*
X00966Y02567*
X00971Y02557*
X00978Y02548*
X00987Y02541*
X00997Y02536*
X01008Y02535*
X01019Y02536*
X0103Y02541*
X01039Y02548*
X01046Y02557*
X0105Y02567*
X01051Y02578*
X0105Y02589*
X01046Y026*
X01039Y02609*
X0103Y02616*
X01019Y0262*
X01008Y02622*
G37*
G36*
X02255Y02573D02*
X02213D01*
Y02531*
X0222Y02532*
X02232Y02537*
X02242Y02545*
X02249Y02555*
X02254Y02566*
X02255Y02573*
G37*
G36*
X02203D02*
X02161D01*
X02162Y02566*
X02167Y02555*
X02175Y02545*
X02184Y02537*
X02196Y02532*
X02203Y02531*
Y02573*
G37*
G36*
X00755D02*
X00713D01*
Y02531*
X00755*
Y02573*
G37*
G36*
X00703D02*
X00661D01*
Y02531*
X00703*
Y02573*
G37*
G36*
X00837Y02723D02*
X00782D01*
Y02646*
X00795*
Y02619*
X00787Y02616*
X00778Y02609*
X00771Y026*
X00766Y02589*
X00765Y02578*
X00766Y02567*
X00771Y02557*
X00778Y02548*
X00787Y02541*
X00797Y02536*
X00808Y02535*
X00819Y02536*
X0083Y02541*
X00839Y02548*
X00846Y02557*
X0085Y02567*
X00851Y02578*
X0085Y02589*
X00846Y026*
X00839Y02609*
X0083Y02616*
X00823Y02619*
Y02646*
X00837*
Y02671*
X01996*
X0207Y02597*
X02066Y02589*
X02065Y02578*
X02066Y02567*
X02071Y02557*
X02078Y02548*
X02087Y02541*
X02094Y02537*
Y02144*
X02069Y02118*
X02005*
X01999Y02117*
X01995Y02114*
X01933Y02052*
X01928Y02054*
X01918Y02056*
X01908Y02054*
X01899Y02051*
X01891Y02045*
X01885Y02037*
X01882Y02028*
X0188Y02018*
X01882Y02008*
X01885Y01999*
X01891Y01991*
X01899Y01985*
X01908Y01982*
X01918Y0198*
X01928Y01982*
X01937Y01985*
X01945Y01991*
X01951Y01999*
X01954Y02008*
X01956Y02018*
X01954Y02028*
X01952Y02033*
X0201Y02091*
X02075*
X0208Y02092*
X02084Y02095*
X02118Y02129*
X02121Y02133*
X02122Y02138*
Y02537*
X0213Y02541*
X02139Y02548*
X02146Y02557*
X0215Y02567*
X02151Y02578*
X0215Y02589*
X02146Y026*
X02139Y02609*
X0213Y02616*
X02119Y0262*
X02108Y02622*
X02097Y0262*
X02089Y02617*
X02012Y02694*
X02007Y02697*
X02002Y02698*
X00837*
Y02723*
G37*
G36*
X01723Y02059D02*
Y02023D01*
X01759*
X01758Y02029*
X01754Y02039*
X01748Y02048*
X01739Y02054*
X01729Y02058*
X01723Y02059*
G37*
G36*
X01713D02*
X01707Y02058D01*
X01697Y02054*
X01688Y02048*
X01682Y02039*
X01678Y02029*
X01677Y02023*
X01713*
Y02059*
G37*
G36*
X02418Y02056D02*
X02408Y02054D01*
X02399Y02051*
X02391Y02045*
X02385Y02037*
X02382Y02028*
X0238Y02018*
X02382Y02008*
X02384Y02003*
X02363Y01983*
X0236Y01978*
X02359Y01973*
Y01928*
X02354Y01928*
X02351Y01937*
X02345Y01945*
X02337Y01951*
X02328Y01954*
X02318Y01956*
X02308Y01954*
X02299Y01951*
X02291Y01945*
X02288Y01941*
X02283Y01942*
Y01964*
X02303Y01984*
X02308Y01982*
X02318Y0198*
X02328Y01982*
X02337Y01985*
X02345Y01991*
X02351Y01999*
X02354Y02008*
X02356Y02018*
X02354Y02028*
X02351Y02037*
X02345Y02045*
X02337Y02051*
X02328Y02054*
X02318Y02056*
X02308Y02054*
X02299Y02051*
X02291Y02045*
X02285Y02037*
X02282Y02028*
X0228Y02018*
X02282Y02008*
X02284Y02003*
X0226Y01979*
X02257Y01975*
X02256Y0197*
Y01937*
X02251Y01936*
X02251Y01937*
X02245Y01945*
X02237Y01951*
X02228Y01954*
X02218Y01956*
X02208Y01954*
X02199Y01951*
X02191Y01945*
X02186Y01938*
X02181Y0194*
Y01962*
X02203Y01984*
X02208Y01982*
X02218Y0198*
X02228Y01982*
X02237Y01985*
X02245Y01991*
X02251Y01999*
X02254Y02008*
X02256Y02018*
X02254Y02028*
X02251Y02037*
X02245Y02045*
X02237Y02051*
X02228Y02054*
X02218Y02056*
X02208Y02054*
X02199Y02051*
X02191Y02045*
X02185Y02037*
X02182Y02028*
X0218Y02018*
X02182Y02008*
X02184Y02003*
X02158Y01977*
X02155Y01973*
X02154Y01968*
Y01941*
X02149Y01939*
X02145Y01945*
X02137Y01951*
X02128Y01954*
X02118Y01956*
X02108Y01954*
X02099Y01951*
X02091Y01945*
X02088Y01941*
X02083Y01942*
Y01964*
X02103Y01984*
X02108Y01982*
X02118Y0198*
X02128Y01982*
X02137Y01985*
X02145Y01991*
X02151Y01999*
X02154Y02008*
X02156Y02018*
X02154Y02028*
X02151Y02037*
X02145Y02045*
X02137Y02051*
X02128Y02054*
X02118Y02056*
X02108Y02054*
X02099Y02051*
X02091Y02045*
X02085Y02037*
X02082Y02028*
X0208Y02018*
X02082Y02008*
X02084Y02003*
X0206Y01979*
X02057Y01975*
X02056Y0197*
Y01937*
X02051Y01936*
X02051Y01937*
X02045Y01945*
X02037Y01951*
X02028Y01954*
X02018Y01956*
X02008Y01954*
X01999Y01951*
X01991Y01945*
X01988Y01941*
X01983Y01942*
Y01964*
X02003Y01984*
X02008Y01982*
X02018Y0198*
X02028Y01982*
X02037Y01985*
X02045Y01991*
X02051Y01999*
X02054Y02008*
X02056Y02018*
X02054Y02028*
X02051Y02037*
X02045Y02045*
X02037Y02051*
X02028Y02054*
X02018Y02056*
X02008Y02054*
X01999Y02051*
X01991Y02045*
X01985Y02037*
X01982Y02028*
X0198Y02018*
X01982Y02008*
X01984Y02003*
X0196Y01979*
X01957Y01975*
X01956Y0197*
Y01937*
X01951Y01936*
X01951Y01937*
X01945Y01945*
X01937Y01951*
X01928Y01954*
X01918Y01956*
X01908Y01954*
X01899Y01951*
X01891Y01945*
X01885Y01937*
X01882Y01928*
X0188Y01918*
X01882Y01908*
X01885Y01899*
X01891Y01891*
X01899Y01885*
X01908Y01882*
X01918Y0188*
X01928Y01882*
X01937Y01885*
X01945Y01891*
X01951Y01899*
X01951Y019*
X01956Y01899*
Y0118*
X01805Y01029*
X01802Y01025*
X01801Y0102*
Y0082*
X01799Y0082*
X01791Y00814*
X01785Y00806*
X01782Y00797*
X0178Y00787*
X01782Y00777*
X01785Y00768*
X01791Y0076*
X01799Y00754*
X01808Y0075*
X01818Y00749*
X01828Y0075*
X01837Y00754*
X01845Y0076*
X01851Y00768*
X01854Y00777*
X01856Y00787*
X01854Y00797*
X01851Y00806*
X01845Y00814*
X01837Y0082*
X01828Y00823*
Y01014*
X01979Y01165*
X01982Y01169*
X01983Y01175*
Y01894*
X01988Y01895*
X01991Y01891*
X01999Y01885*
X02008Y01882*
X02018Y0188*
X02028Y01882*
X02037Y01885*
X02045Y01891*
X02051Y01899*
X02051Y019*
X02056Y01899*
Y01145*
X01908Y00998*
X01905Y00993*
X01904Y00988*
Y00822*
X01899Y0082*
X01891Y00814*
X01885Y00806*
X01882Y00797*
X0188Y00787*
X01882Y00777*
X01885Y00768*
X01891Y0076*
X01899Y00754*
X01908Y0075*
X01918Y00749*
X01928Y0075*
X01937Y00754*
X01945Y0076*
X01951Y00768*
X01954Y00777*
X01956Y00787*
X01954Y00797*
X01951Y00806*
X01945Y00814*
X01937Y0082*
X01932Y00822*
Y00982*
X02079Y0113*
X02082Y01134*
X02083Y0114*
Y01894*
X02088Y01895*
X02091Y01891*
X02099Y01885*
X02108Y01882*
X02118Y0188*
X02128Y01882*
X02137Y01885*
X02145Y01891*
X02149Y01897*
X02154Y01895*
Y01123*
X0201Y00979*
X02007Y00975*
X02006Y0097*
Y00822*
X01999Y0082*
X01991Y00814*
X01985Y00806*
X01982Y00797*
X0198Y00787*
X01982Y00777*
X01985Y00768*
X01991Y0076*
X01999Y00754*
X02008Y0075*
X02018Y00749*
X02028Y0075*
X02037Y00754*
X02045Y0076*
X02051Y00768*
X02054Y00777*
X02056Y00787*
X02054Y00797*
X02051Y00806*
X02045Y00814*
X02037Y0082*
X02033Y00821*
Y00964*
X02177Y01108*
X0218Y01112*
X02181Y01118*
Y01896*
X02186Y01898*
X02191Y01891*
X02199Y01885*
X02208Y01882*
X02218Y0188*
X02228Y01882*
X02237Y01885*
X02245Y01891*
X02251Y01899*
X02251Y019*
X02256Y01899*
Y0106*
X0211Y00914*
X02107Y0091*
X02106Y00905*
Y00822*
X02099Y0082*
X02091Y00814*
X02085Y00806*
X02082Y00797*
X0208Y00787*
X02082Y00777*
X02085Y00768*
X02091Y0076*
X02099Y00754*
X02108Y0075*
X02118Y00749*
X02128Y0075*
X02137Y00754*
X02145Y0076*
X02151Y00768*
X02154Y00777*
X02156Y00787*
X02154Y00797*
X02151Y00806*
X02145Y00814*
X02137Y0082*
X02133Y00821*
Y00899*
X02279Y01045*
X02282Y01049*
X02283Y01055*
Y01894*
X02288Y01895*
X02291Y01891*
X02299Y01885*
X02308Y01882*
X02318Y0188*
X02328Y01882*
X02337Y01885*
X02345Y01891*
X02351Y01899*
X02354Y01908*
X02359Y01908*
Y01009*
X02208Y00858*
X02205Y00853*
X02204Y00848*
Y00825*
X02202*
X02194Y00823*
X02187Y00818*
X02182Y00811*
X0218Y00803*
Y00771*
X02182Y00763*
X02187Y00756*
X02194Y00751*
X02202Y00749*
X02234*
X02242Y00751*
X02249Y00756*
X02254Y00763*
X02256Y00771*
Y00803*
X02254Y00811*
X02249Y00818*
X02242Y00823*
X02234Y00825*
X02232*
Y00842*
X02383Y00993*
X02386Y00998*
X02387Y01003*
Y01881*
X02391Y01884*
X02394Y01882*
X02402Y0188*
X02434*
X02442Y01882*
X02449Y01887*
X02454Y01894*
X02456Y01902*
Y01934*
X02454Y01942*
X02449Y01949*
X02442Y01954*
X02434Y01956*
X02402*
X02394Y01954*
X02391Y01952*
X02387Y01955*
Y01967*
X02403Y01984*
X02408Y01982*
X02418Y0198*
X02428Y01982*
X02437Y01985*
X02445Y01991*
X02451Y01999*
X02454Y02008*
X02456Y02018*
X02454Y02028*
X02451Y02037*
X02445Y02045*
X02437Y02051*
X02428Y02054*
X02418Y02056*
G37*
G36*
X00908Y02622D02*
X00897Y0262D01*
X00887Y02616*
X00878Y02609*
X00871Y026*
X00866Y02589*
X00865Y02578*
X00866Y02567*
X00871Y02557*
X00878Y02548*
X00887Y02541*
X00894Y02537*
Y02506*
X00896Y02501*
X00899Y02496*
X00919Y02476*
X00923Y02473*
X00928Y02472*
X01148*
X01251Y02369*
Y02315*
X01252Y02309*
X01255Y02305*
X01455Y02105*
X01459Y02102*
X01465Y02101*
X01716*
X01784Y02033*
X01782Y02028*
X0178Y02018*
X01782Y02008*
X01785Y01999*
X01791Y01991*
X01799Y01985*
X01808Y01982*
X01818Y0198*
X01828Y01982*
X01837Y01985*
X01845Y01991*
X01851Y01999*
X01854Y02008*
X01856Y02018*
X01854Y02028*
X01851Y02037*
X01845Y02045*
X01837Y02051*
X01828Y02054*
X01818Y02056*
X01808Y02054*
X01803Y02052*
X01731Y02124*
X01727Y02127*
X01722Y02128*
X0147*
X01278Y0232*
Y02375*
X01277Y0238*
X01274Y02384*
X01163Y02495*
X01159Y02498*
X01153Y02499*
X00934*
X00922Y02512*
Y02537*
X0093Y02541*
X00939Y02548*
X00946Y02557*
X0095Y02567*
X00951Y02578*
X0095Y02589*
X00946Y026*
X00939Y02609*
X0093Y02616*
X00919Y0262*
X00908Y02622*
G37*
G36*
X01618Y02056D02*
X01608Y02054D01*
X01599Y02051*
X01591Y02045*
X01585Y02037*
X01582Y02028*
X0158Y02018*
X01582Y02008*
X01585Y01999*
X01591Y01991*
X01599Y01985*
X01608Y01982*
X01618Y0198*
X01628Y01982*
X01637Y01985*
X01645Y01991*
X01651Y01999*
X01654Y02008*
X01656Y02018*
X01654Y02028*
X01651Y02037*
X01645Y02045*
X01637Y02051*
X01628Y02054*
X01618Y02056*
G37*
G36*
X01518D02*
X01508Y02054D01*
X01499Y02051*
X01491Y02045*
X01485Y02037*
X01483Y02032*
X01308*
X01303Y02031*
X01298Y02028*
X009Y01629*
X00897Y01625*
X00896Y0162*
Y00906*
X0089Y00901*
X00884Y00893*
X00882Y00889*
X00692*
X0069Y00893*
X00684Y00901*
X00677Y00906*
X00668Y0091*
X00659Y00911*
X0065Y0091*
X00641Y00906*
X00634Y00901*
X00628Y00893*
X00624Y00885*
X00623Y00875*
X00624Y00866*
X00628Y00858*
X00634Y0085*
X00641Y00845*
X0065Y00841*
X00659Y0084*
X00668Y00841*
X00677Y00845*
X00684Y0085*
X0069Y00858*
X00692Y00862*
X00882*
X00884Y00858*
X0089Y0085*
X00897Y00845*
X00906Y00841*
X00915Y0084*
X00924Y00841*
X00933Y00845*
X0094Y0085*
X00946Y00858*
X00949Y00866*
X00951Y00875*
X00949Y00885*
X00946Y00893*
X0094Y00901*
X00933Y00906*
X00924Y0091*
X00923Y0091*
Y01614*
X01314Y02004*
X01483*
X01485Y01999*
X01491Y01991*
X01499Y01985*
X01508Y01982*
X01518Y0198*
X01528Y01982*
X01537Y01985*
X01545Y01991*
X01551Y01999*
X01554Y02008*
X01556Y02018*
X01554Y02028*
X01551Y02037*
X01545Y02045*
X01537Y02051*
X01528Y02054*
X01518Y02056*
G37*
G36*
X01759Y02013D02*
X01723D01*
Y01977*
X01729Y01978*
X01739Y01982*
X01748Y01988*
X01754Y01997*
X01758Y02007*
X01759Y02013*
G37*
G36*
X01713D02*
X01677D01*
X01678Y02007*
X01682Y01997*
X01688Y01988*
X01697Y01982*
X01707Y01978*
X01713Y01977*
Y02013*
G37*
G36*
X01818Y01956D02*
X01808Y01954D01*
X01799Y01951*
X01791Y01945*
X01785Y01937*
X01782Y01928*
X0178Y01918*
X01782Y01908*
X01785Y01899*
X01791Y01891*
X01799Y01885*
X01808Y01882*
X01818Y0188*
X01828Y01882*
X01837Y01885*
X01845Y01891*
X01851Y01899*
X01854Y01908*
X01856Y01918*
X01854Y01928*
X01851Y01937*
X01845Y01945*
X01837Y01951*
X01828Y01954*
X01818Y01956*
G37*
G36*
X01718D02*
X01708Y01954D01*
X01699Y01951*
X01691Y01945*
X01685Y01937*
X01682Y01928*
X0168Y01918*
X01682Y01908*
X01685Y01899*
X01691Y01891*
X01699Y01885*
X01708Y01882*
X01718Y0188*
X01728Y01882*
X01737Y01885*
X01745Y01891*
X01751Y01899*
X01754Y01908*
X01756Y01918*
X01754Y01928*
X01751Y01937*
X01745Y01945*
X01737Y01951*
X01728Y01954*
X01718Y01956*
G37*
G36*
X01618D02*
X01608Y01954D01*
X01599Y01951*
X01591Y01945*
X01585Y01937*
X01582Y01928*
X0158Y01918*
X01582Y01908*
X01585Y01899*
X01591Y01891*
X01599Y01885*
X01608Y01882*
X01618Y0188*
X01628Y01882*
X01637Y01885*
X01645Y01891*
X01651Y01899*
X01654Y01908*
X01656Y01918*
X01654Y01928*
X01651Y01937*
X01645Y01945*
X01637Y01951*
X01628Y01954*
X01618Y01956*
G37*
G36*
X01518D02*
X01508Y01954D01*
X01499Y01951*
X01491Y01945*
X01485Y01937*
X01482Y01928*
X0148Y01918*
X01482Y01908*
X01485Y01899*
X01491Y01891*
X01499Y01885*
X01508Y01882*
X01518Y0188*
X01528Y01882*
X01537Y01885*
X01545Y01891*
X01551Y01899*
X01554Y01908*
X01556Y01918*
X01554Y01928*
X01551Y01937*
X01545Y01945*
X01537Y01951*
X01528Y01954*
X01518Y01956*
G37*
G36*
X03452Y01443D02*
X03437D01*
X03436Y01443*
X03435Y01443*
X0342Y0144*
X0342Y01439*
X03419*
X03405Y01433*
X03404Y01433*
X03404Y01433*
X03391Y01424*
X0339Y01424*
X0339Y01423*
X03379Y01412*
X03378Y01412*
X03378Y01412*
X03369Y01399*
X03369Y01398*
X03369Y01398*
X03363Y01383*
Y01383*
X03362Y01382*
X03359Y01367*
X0336Y01366*
X03359Y01366*
Y0135*
X0336Y01349*
X03359Y01349*
X03362Y01334*
X03363Y01333*
Y01332*
X03369Y01318*
X03369Y01318*
X03369Y01317*
X03378Y01304*
X03378Y01304*
X03379Y01303*
X0339Y01292*
X0339Y01292*
X03391Y01291*
X03404Y01283*
X03404Y01283*
X03405Y01282*
X03419Y01276*
X0342*
X0342Y01276*
X03435Y01273*
X03436Y01273*
X03437Y01273*
X03452*
X03453Y01273*
X03453Y01273*
X03469Y01276*
X03469Y01276*
X0347*
X03484Y01282*
X03485Y01283*
X03485Y01283*
X03498Y01291*
X03498Y01292*
X03499Y01292*
X0351Y01303*
X0351Y01304*
X03511Y01304*
X03519Y01317*
X0352Y01318*
X0352Y01318*
X03526Y01332*
Y01333*
X03526Y01334*
X03529Y01349*
X03529Y01349*
X0353Y0135*
Y01366*
X03529Y01366*
X03529Y01367*
X03526Y01382*
X03526Y01383*
Y01383*
X0352Y01398*
X0352Y01398*
X03519Y01399*
X03511Y01412*
X0351Y01412*
X0351Y01412*
X03499Y01423*
X03498Y01424*
X03498Y01424*
X03485Y01433*
X03485Y01433*
X03484Y01433*
X0347Y01439*
X03469*
X03469Y0144*
X03453Y01443*
X03453Y01443*
X03452Y01443*
G37*
G36*
X00499D02*
X00484D01*
X00483Y01443*
X00483Y01443*
X00467Y0144*
X00467Y01439*
X00466*
X00452Y01433*
X00451Y01433*
X00451Y01433*
X00438Y01424*
X00438Y01424*
X00437Y01423*
X00426Y01412*
X00426Y01412*
X00425Y01412*
X00417Y01399*
X00416Y01398*
X00416Y01398*
X0041Y01383*
Y01383*
X0041Y01382*
X00407Y01367*
X00407Y01366*
X00406Y01366*
Y0135*
X00407Y01349*
X00407Y01349*
X0041Y01334*
X0041Y01333*
Y01332*
X00416Y01318*
X00416Y01318*
X00417Y01317*
X00425Y01304*
X00426Y01304*
X00426Y01303*
X00437Y01292*
X00438Y01292*
X00438Y01291*
X00451Y01283*
X00451Y01283*
X00452Y01282*
X00466Y01276*
X00467*
X00467Y01276*
X00483Y01273*
X00483Y01273*
X00484Y01273*
X00499*
X005Y01273*
X00501Y01273*
X00516Y01276*
X00516Y01276*
X00517*
X00531Y01282*
X00532Y01283*
X00532Y01283*
X00545Y01291*
X00546Y01292*
X00546Y01292*
X00557Y01303*
X00558Y01304*
X00558Y01304*
X00567Y01317*
X00567Y01318*
X00567Y01318*
X00573Y01332*
Y01333*
X00574Y01334*
X00577Y01349*
X00577Y01349*
X00577Y0135*
Y01366*
X00577Y01366*
X00577Y01367*
X00574Y01382*
X00573Y01383*
Y01383*
X00567Y01398*
X00567Y01398*
X00567Y01399*
X00558Y01412*
X00558Y01412*
X00557Y01412*
X00546Y01423*
X00546Y01424*
X00545Y01424*
X00532Y01433*
X00532Y01433*
X00531Y01433*
X00517Y01439*
X00516*
X00516Y0144*
X00501Y01443*
X005Y01443*
X00499Y01443*
G37*
G36*
X02918Y01016D02*
X02861D01*
Y00959*
X02918*
Y01016*
G37*
G36*
X02895Y00823D02*
Y00796D01*
X02922*
X02921Y008*
X02918Y00808*
X02913Y00814*
X02906Y0082*
X02898Y00823*
X02895Y00823*
G37*
G36*
X02885D02*
X02881Y00823D01*
X02873Y0082*
X02866Y00814*
X02861Y00808*
X02858Y008*
X02857Y00796*
X02885*
Y00823*
G37*
G36*
X01723Y00828D02*
Y00792D01*
X01759*
X01758Y00798*
X01754Y00808*
X01748Y00817*
X01739Y00823*
X01729Y00827*
X01723Y00828*
G37*
G36*
X01713D02*
X01707Y00827D01*
X01697Y00823*
X01688Y00817*
X01682Y00808*
X01678Y00798*
X01677Y00792*
X01713*
Y00828*
G37*
G36*
X02922Y00786D02*
X02895D01*
Y00759*
X02898Y00759*
X02906Y00763*
X02913Y00768*
X02918Y00775*
X02921Y00783*
X02922Y00786*
G37*
G36*
X02885D02*
X02857D01*
X02858Y00783*
X02861Y00775*
X02866Y00768*
X02873Y00763*
X02881Y00759*
X02885Y00759*
Y00786*
G37*
G36*
X01759Y00782D02*
X01723D01*
Y00746*
X01729Y00746*
X01739Y00751*
X01748Y00757*
X01754Y00766*
X01758Y00776*
X01759Y00782*
G37*
G36*
X01713D02*
X01677D01*
X01678Y00776*
X01682Y00766*
X01688Y00757*
X01697Y00751*
X01707Y00746*
X01713Y00746*
Y00782*
G37*
G36*
X0092Y00738D02*
Y00703D01*
X00954*
X00953Y00709*
X00949Y00718*
X00943Y00727*
X00935Y00733*
X00925Y00737*
X0092Y00738*
G37*
G36*
X0091D02*
X00905Y00737D01*
X00895Y00733*
X00887Y00727*
X0088Y00718*
X00876Y00709*
X00876Y00703*
X0091*
Y00738*
G37*
G36*
X00664D02*
Y00703D01*
X00698*
X00697Y00709*
X00693Y00718*
X00687Y00727*
X00679Y00733*
X00669Y00737*
X00664Y00738*
G37*
G36*
X00654D02*
X00649Y00737D01*
X00639Y00733*
X00631Y00727*
X00624Y00718*
X0062Y00709*
X0062Y00703*
X00654*
Y00738*
G37*
G36*
X00954Y00693D02*
X0092D01*
Y00659*
X00925Y0066*
X00935Y00664*
X00943Y0067*
X00949Y00678*
X00953Y00688*
X00954Y00693*
G37*
G36*
X0091D02*
X00876D01*
X00876Y00688*
X0088Y00678*
X00887Y0067*
X00895Y00664*
X00905Y0066*
X0091Y00659*
Y00693*
G37*
G36*
X00698D02*
X00664D01*
Y00659*
X00669Y0066*
X00679Y00664*
X00687Y0067*
X00693Y00678*
X00697Y00688*
X00698Y00693*
G37*
G36*
X00654D02*
X0062D01*
X0062Y00688*
X00624Y00678*
X00631Y0067*
X00639Y00664*
X00649Y0066*
X00654Y00659*
Y00693*
G37*
%LNpcb_front-3*%
%LPD*%
G54D14*
X0289Y00791D03*
G54D15*
X0289Y00988D03*
G54D22*
X00659Y00875D02*
X00915D01*
X0091Y00881D02*
Y0162D01*
Y00881D02*
X00915Y00875D01*
X01308Y02018D02*
X01518D01*
X0091Y0162D02*
X01308Y02018D01*
X00908Y02506D02*
X00928Y02486D01*
X00908Y02506D02*
Y02578D01*
X00928Y02486D02*
X01153D01*
X01265Y02375*
Y02315D02*
Y02375D01*
Y02315D02*
X01465Y02115D01*
X01722*
X01818Y02018*
X01815Y0079D02*
Y0102D01*
Y0079D02*
X01818Y00787D01*
X0197Y01175D02*
Y0197D01*
X01815Y0102D02*
X0197Y01175D01*
Y0197D02*
X02018Y02018D01*
X01918Y00787D02*
Y00988D01*
X0207Y0114*
Y0197*
X02118Y02018*
X0202Y00788D02*
Y0097D01*
X02018Y00787D02*
X0202Y00788D01*
X02168Y01118D02*
Y01968D01*
X0202Y0097D02*
X02168Y01118D01*
Y01968D02*
X02218Y02018D01*
X02118Y00787D02*
X0212Y00788D01*
Y00905*
X0227Y01055*
Y0197*
X02318Y02018*
X02218Y00787D02*
Y00848D01*
X02373Y01003D02*
Y01973D01*
X02218Y00848D02*
X02373Y01003D01*
Y01973D02*
X02418Y02018D01*
X02002Y02685D02*
X02108Y02578D01*
X0081Y02685D02*
X02002D01*
X02005Y02105D02*
X02075D01*
X01918Y02018D02*
X02005Y02105D01*
X02075D02*
X02108Y02138D01*
Y02578*
X00809Y02579D02*
Y02684D01*
X0081Y02685*
X00808Y02578D02*
X00809Y02579D01*
G54D23*
X00915Y00698D03*
Y00875D03*
X00659Y00698D03*
Y00875D03*
G54D24*
X01818Y02018D03*
Y01918D03*
X01918Y02018D03*
X02018D03*
X01918Y01918D03*
X02018D03*
X02118Y02018D03*
Y01918D03*
X02218Y02018D03*
Y01918D03*
X02318Y02018D03*
Y01918D03*
X02418Y02018D03*
X01718Y01918D03*
X01618D03*
X01518D03*
X01718Y02018D03*
X01618D03*
X01518D03*
X01718Y00787D03*
X01818D03*
X02018D03*
X02118D03*
X01918D03*
G54D25*
X02418Y01918D03*
X02218Y00787D03*
G54D26*
X00708Y02578D03*
G54D27*
X00808Y02578D03*
X00908D03*
X01008D03*
X01108D03*
X01208D03*
X01308D03*
X01408D03*
X01508D03*
X01608D03*
X01708D03*
X01808D03*
X01908D03*
X02008D03*
X02108D03*
X02208D03*
G54D28*
X0081Y02685D03*
X00709D03*
M02*