%FSTAX23Y23*%
%MOIN*%
%SFA1B1*%

%IPPOS*%
%ADD10C,0.007870*%
%ADD11C,0.005000*%
%ADD12C,0.010000*%
%LNpcb_front-1*%
%LPD*%
G54D10*
X00368Y02578D02*
X0036D01*
X00368*
X00683Y00665D02*
X00891D01*
X00909Y0074D02*
Y00834D01*
X00665Y0074D02*
Y00834D01*
X00683Y00909D02*
X00891D01*
G54D11*
X00393Y02677D02*
X03543D01*
Y01259D02*
Y02677D01*
X00393Y01259D02*
X03543D01*
X00393D02*
Y02677D01*
G54D12*
X00696Y00587D02*
Y00626D01*
X00715*
X00722Y00619*
Y00606*
X00715Y006*
X00696*
X00709D02*
X00722Y00587D01*
X00761Y00626D02*
X00735D01*
Y00587*
X00761*
X00735Y00606D02*
X00748D01*
X008Y00619D02*
X00794Y00626D01*
X00781*
X00774Y00619*
Y00613*
X00781Y00606*
X00794*
X008Y006*
Y00593*
X00794Y00587*
X00781*
X00774Y00593*
X0084Y00626D02*
X00814D01*
Y00587*
X0084*
X00814Y00606D02*
X00827D01*
X00853Y00626D02*
X00879D01*
X00866*
Y00587*
X01749Y02757D02*
Y02718D01*
X01775*
X01814Y0275D02*
X01808Y02757D01*
X01794*
X01788Y0275*
Y02724*
X01794Y02718*
X01808*
X01814Y02724*
X01827Y02757D02*
Y02718D01*
X01847*
X01853Y02724*
Y0275*
X01847Y02757*
X01827*
X01906D02*
Y02718D01*
X01926*
X01932Y02724*
Y0275*
X01926Y02757*
X01906*
X01945D02*
X01958D01*
X01952*
Y02718*
X01945*
X01958*
X02004Y0275D02*
X01998Y02757D01*
X01985*
X01978Y0275*
Y02744*
X01985Y02737*
X01998*
X02004Y02731*
Y02724*
X01998Y02718*
X01985*
X01978Y02724*
X02017Y02718D02*
Y02757D01*
X02037*
X02044Y0275*
Y02737*
X02037Y02731*
X02017*
X02057Y02757D02*
Y02718D01*
X02083*
X02096D02*
Y02744D01*
X02109Y02757*
X02122Y02744*
Y02718*
Y02737*
X02096*
X02136Y02757D02*
Y0275D01*
X02149Y02737*
X02162Y0275*
Y02757*
X02149Y02737D02*
Y02718D01*
M02*