%FSTAX23Y23*%
%MOIN*%
%SFA1B1*%

%IPPOS*%
%AMD25*
4,1,8,-0.015700,-0.031500,0.015700,-0.031500,0.031500,-0.015700,0.031500,0.015700,0.015700,0.031500,-0.015700,0.031500,-0.031500,0.015700,-0.031500,-0.015700,-0.015700,-0.031500,0.0*
1,1,0.031500,-0.015700,-0.015700*
1,1,0.031500,0.015700,-0.015700*
1,1,0.031500,0.015700,0.015700*
1,1,0.031500,-0.015700,0.015700*
%
%ADD14C,0.045280*%
%ADD15R,0.045280X0.045280*%
%ADD21C,0.110240*%
%ADD22C,0.015000*%
%ADD23C,0.059060*%
%ADD24C,0.062990*%
G04~CAMADD=25~8~0.0~0.0~629.9~629.9~157.5~0.0~15~0.0~0.0~0.0~0.0~0~0.0~0.0~0.0~0.0~0~0.0~0.0~0.0~180.0~630.0~630.0*
%ADD25D25*%
%ADD26R,0.074000X0.074000*%
%ADD27C,0.074000*%
%LNpcb_front-1*%
%LPD*%
G36*
X03622Y00433D02*
X00314D01*
Y02795*
X03622*
Y00433*
G37*
%LNpcb_front-2*%
%LPC*%
G36*
X03452Y02663D02*
X03437D01*
X03436Y02663*
X03435Y02663*
X0342Y0266*
X0342Y0266*
X03419*
X03405Y02654*
X03404Y02653*
X03404Y02653*
X03391Y02645*
X0339Y02644*
X0339Y02644*
X03379Y02633*
X03378Y02632*
X03378Y02632*
X03369Y02619*
X03369Y02618*
X03369Y02618*
X03363Y02604*
Y02603*
X03362Y02602*
X03359Y02587*
X0336Y02587*
X03359Y02586*
Y0257*
X0336Y0257*
X03359Y02569*
X03362Y02554*
X03363Y02553*
Y02553*
X03369Y02539*
X03369Y02538*
X03369Y02537*
X03378Y02525*
X03378Y02524*
X03379Y02524*
X0339Y02513*
X0339Y02512*
X03391Y02512*
X03404Y02503*
X03404Y02503*
X03405Y02503*
X03419Y02497*
X0342*
X0342Y02496*
X03435Y02493*
X03436Y02493*
X03437Y02493*
X03452*
X03453Y02493*
X03453Y02493*
X03469Y02496*
X03469Y02497*
X0347*
X03484Y02503*
X03485Y02503*
X03485Y02503*
X03498Y02512*
X03498Y02512*
X03499Y02513*
X0351Y02524*
X0351Y02524*
X03511Y02525*
X03519Y02537*
X0352Y02538*
X0352Y02539*
X03526Y02553*
Y02553*
X03526Y02554*
X03529Y02569*
X03529Y0257*
X0353Y0257*
Y02586*
X03529Y02587*
X03529Y02587*
X03526Y02602*
X03526Y02603*
Y02604*
X0352Y02618*
X0352Y02618*
X03519Y02619*
X03511Y02632*
X0351Y02632*
X0351Y02633*
X03499Y02644*
X03498Y02644*
X03498Y02645*
X03485Y02653*
X03485Y02653*
X03484Y02654*
X0347Y0266*
X03469*
X03469Y0266*
X03453Y02663*
X03453Y02663*
X03452Y02663*
G37*
G36*
X00499D02*
X00484D01*
X00483Y02663*
X00483Y02663*
X00467Y0266*
X00467Y0266*
X00466*
X00452Y02654*
X00451Y02653*
X00451Y02653*
X00438Y02645*
X00438Y02644*
X00437Y02644*
X00426Y02633*
X00426Y02632*
X00425Y02632*
X00417Y02619*
X00416Y02618*
X00416Y02618*
X0041Y02604*
Y02603*
X0041Y02602*
X00407Y02587*
X00407Y02587*
X00406Y02586*
Y0257*
X00407Y0257*
X00407Y02569*
X0041Y02554*
X0041Y02553*
Y02553*
X00416Y02539*
X00416Y02538*
X00417Y02537*
X00425Y02525*
X00426Y02524*
X00426Y02524*
X00437Y02513*
X00438Y02512*
X00438Y02512*
X00451Y02503*
X00451Y02503*
X00452Y02503*
X00466Y02497*
X00467*
X00467Y02496*
X00483Y02493*
X00483Y02493*
X00484Y02493*
X00499*
X005Y02493*
X00501Y02493*
X00516Y02496*
X00516Y02497*
X00517*
X00531Y02503*
X00532Y02503*
X00532Y02503*
X00545Y02512*
X00546Y02512*
X00546Y02513*
X00557Y02524*
X00558Y02524*
X00558Y02525*
X00567Y02537*
X00567Y02538*
X00567Y02539*
X00573Y02553*
Y02553*
X00574Y02554*
X00577Y02569*
X00577Y0257*
X00577Y0257*
Y02586*
X00577Y02587*
X00577Y02587*
X00574Y02602*
X00573Y02603*
Y02604*
X00567Y02618*
X00567Y02618*
X00567Y02619*
X00558Y02632*
X00558Y02632*
X00557Y02633*
X00546Y02644*
X00546Y02644*
X00545Y02645*
X00532Y02653*
X00532Y02653*
X00531Y02654*
X00517Y0266*
X00516*
X00516Y0266*
X00501Y02663*
X005Y02663*
X00499Y02663*
G37*
G36*
X02213Y02625D02*
Y02583D01*
X02255*
X02254Y02591*
X02249Y02602*
X02242Y02612*
X02232Y02619*
X0222Y02624*
X02213Y02625*
G37*
G36*
X02203D02*
X02196Y02624D01*
X02184Y02619*
X02175Y02612*
X02167Y02602*
X02162Y02591*
X02161Y02583*
X02203*
Y02625*
G37*
G36*
X00755Y02625D02*
X00713D01*
Y02583*
X00755*
Y02625*
G37*
G36*
X00703D02*
X00661D01*
Y02583*
X00703*
Y02625*
G37*
G36*
X02108Y02622D02*
X02097Y0262D01*
X02087Y02616*
X02078Y02609*
X02071Y026*
X02066Y02589*
X02065Y02578*
X02066Y02567*
X02071Y02557*
X02078Y02548*
X02087Y02541*
X02097Y02536*
X02108Y02535*
X02119Y02536*
X0213Y02541*
X02139Y02548*
X02146Y02557*
X0215Y02567*
X02151Y02578*
X0215Y02589*
X02146Y026*
X02139Y02609*
X0213Y02616*
X02119Y0262*
X02108Y02622*
G37*
G36*
X01108D02*
X01097Y0262D01*
X01087Y02616*
X01078Y02609*
X01071Y026*
X01066Y02589*
X01065Y02578*
X01066Y02567*
X01071Y02557*
X01078Y02548*
X01087Y02541*
X01097Y02536*
X01108Y02535*
X01119Y02536*
X0113Y02541*
X01139Y02548*
X01146Y02557*
X0115Y02567*
X01151Y02578*
X0115Y02589*
X01146Y026*
X01139Y02609*
X0113Y02616*
X01119Y0262*
X01108Y02622*
G37*
G36*
X00908D02*
X00897Y0262D01*
X00887Y02616*
X00878Y02609*
X00871Y026*
X00866Y02589*
X00865Y02578*
X00866Y02567*
X00871Y02557*
X00878Y02548*
X00887Y02541*
X00897Y02536*
X00908Y02535*
X00919Y02536*
X0093Y02541*
X00939Y02548*
X00946Y02557*
X0095Y02567*
X00951Y02578*
X0095Y02589*
X00946Y026*
X00939Y02609*
X0093Y02616*
X00919Y0262*
X00908Y02622*
G37*
G36*
X00808D02*
X00797Y0262D01*
X00787Y02616*
X00778Y02609*
X00771Y026*
X00766Y02589*
X00765Y02578*
X00766Y02567*
X00771Y02557*
X00778Y02548*
X00787Y02541*
X00797Y02536*
X00808Y02535*
X00819Y02536*
X0083Y02541*
X00839Y02548*
X00846Y02557*
X0085Y02567*
X00851Y02578*
X0085Y02589*
X00846Y026*
X00839Y02609*
X0083Y02616*
X00819Y0262*
X00808Y02622*
G37*
G36*
X02255Y02573D02*
X02213D01*
Y02531*
X0222Y02532*
X02232Y02537*
X02242Y02545*
X02249Y02555*
X02254Y02566*
X02255Y02573*
G37*
G36*
X02203D02*
X02161D01*
X02162Y02566*
X02167Y02555*
X02175Y02545*
X02184Y02537*
X02196Y02532*
X02203Y02531*
Y02573*
G37*
G36*
X00755D02*
X00713D01*
Y02531*
X00755*
Y02573*
G37*
G36*
X00703D02*
X00661D01*
Y02531*
X00703*
Y02573*
G37*
G36*
X03154Y02427D02*
Y02367D01*
X03214*
X03213Y02374*
X0321Y02387*
X03204Y02398*
X03195Y02408*
X03185Y02416*
X03174Y02422*
X03162Y02426*
X03154Y02427*
G37*
G36*
X03144D02*
X03136Y02426D01*
X03124Y02422*
X03113Y02416*
X03103Y02408*
X03095Y02398*
X03089Y02387*
X03085Y02374*
X03084Y02367*
X03144*
Y02427*
G37*
G36*
X03214Y02357D02*
X03154D01*
Y02297*
X03162Y02298*
X03174Y02301*
X03185Y02307*
X03195Y02315*
X03204Y02325*
X0321Y02337*
X03213Y02349*
X03214Y02357*
G37*
G36*
X03144D02*
X03084D01*
X03085Y02349*
X03089Y02337*
X03095Y02325*
X03103Y02315*
X03113Y02307*
X03124Y02301*
X03136Y02298*
X03144Y02297*
Y02357*
G37*
G36*
X01723Y02059D02*
Y02023D01*
X01759*
X01758Y02029*
X01754Y02039*
X01748Y02048*
X01739Y02054*
X01729Y02058*
X01723Y02059*
G37*
G36*
X01713D02*
X01707Y02058D01*
X01697Y02054*
X01688Y02048*
X01682Y02039*
X01678Y02029*
X01677Y02023*
X01713*
Y02059*
G37*
G36*
X02418Y02056D02*
X02408Y02054D01*
X02399Y02051*
X02391Y02045*
X02385Y02037*
X02382Y02028*
X0238Y02018*
X02382Y02008*
X02385Y01999*
X02391Y01991*
X02399Y01985*
X02408Y01982*
X02418Y0198*
X02428Y01982*
X02437Y01985*
X02445Y01991*
X02451Y01999*
X02454Y02008*
X02456Y02018*
X02454Y02028*
X02451Y02037*
X02445Y02045*
X02437Y02051*
X02428Y02054*
X02418Y02056*
G37*
G36*
X02318D02*
X02308Y02054D01*
X02299Y02051*
X02291Y02045*
X02285Y02037*
X02282Y02028*
X0228Y02018*
X02282Y02008*
X02285Y01999*
X02291Y01991*
X02299Y01985*
X02308Y01982*
X02318Y0198*
X02328Y01982*
X02337Y01985*
X02345Y01991*
X02351Y01999*
X02354Y02008*
X02356Y02018*
X02354Y02028*
X02351Y02037*
X02345Y02045*
X02337Y02051*
X02328Y02054*
X02318Y02056*
G37*
G36*
X02218D02*
X02208Y02054D01*
X02199Y02051*
X02191Y02045*
X02185Y02037*
X02182Y02028*
X0218Y02018*
X02182Y02008*
X02185Y01999*
X02191Y01991*
X02199Y01985*
X02208Y01982*
X02218Y0198*
X02228Y01982*
X02237Y01985*
X02245Y01991*
X02251Y01999*
X02254Y02008*
X02256Y02018*
X02254Y02028*
X02251Y02037*
X02245Y02045*
X02237Y02051*
X02228Y02054*
X02218Y02056*
G37*
G36*
X02118D02*
X02108Y02054D01*
X02099Y02051*
X02091Y02045*
X02085Y02037*
X02082Y02028*
X0208Y02018*
X02082Y02008*
X02085Y01999*
X02091Y01991*
X02099Y01985*
X02108Y01982*
X02118Y0198*
X02128Y01982*
X02137Y01985*
X02145Y01991*
X02151Y01999*
X02154Y02008*
X02156Y02018*
X02154Y02028*
X02151Y02037*
X02145Y02045*
X02137Y02051*
X02128Y02054*
X02118Y02056*
G37*
G36*
X02018D02*
X02008Y02054D01*
X01999Y02051*
X01991Y02045*
X01985Y02037*
X01982Y02028*
X0198Y02018*
X01982Y02008*
X01985Y01999*
X01991Y01991*
X01999Y01985*
X02008Y01982*
X02018Y0198*
X02028Y01982*
X02037Y01985*
X02045Y01991*
X02051Y01999*
X02054Y02008*
X02056Y02018*
X02054Y02028*
X02051Y02037*
X02045Y02045*
X02037Y02051*
X02028Y02054*
X02018Y02056*
G37*
G36*
X01918D02*
X01908Y02054D01*
X01899Y02051*
X01891Y02045*
X01885Y02037*
X01882Y02028*
X0188Y02018*
X01882Y02008*
X01885Y01999*
X01891Y01991*
X01899Y01985*
X01908Y01982*
X01918Y0198*
X01928Y01982*
X01937Y01985*
X01945Y01991*
X01951Y01999*
X01954Y02008*
X01956Y02018*
X01954Y02028*
X01951Y02037*
X01945Y02045*
X01937Y02051*
X01928Y02054*
X01918Y02056*
G37*
G36*
X01818D02*
X01808Y02054D01*
X01799Y02051*
X01791Y02045*
X01785Y02037*
X01782Y02028*
X0178Y02018*
X01782Y02008*
X01785Y01999*
X01791Y01991*
X01799Y01985*
X01808Y01982*
X01818Y0198*
X01828Y01982*
X01837Y01985*
X01845Y01991*
X01851Y01999*
X01854Y02008*
X01856Y02018*
X01854Y02028*
X01851Y02037*
X01845Y02045*
X01837Y02051*
X01828Y02054*
X01818Y02056*
G37*
G36*
X01518D02*
X01508Y02054D01*
X01499Y02051*
X01491Y02045*
X01485Y02037*
X01482Y02028*
X0148Y02018*
X01482Y02008*
X01485Y01999*
X01491Y01991*
X01499Y01985*
X01508Y01982*
X01518Y0198*
X01528Y01982*
X01537Y01985*
X01545Y01991*
X01551Y01999*
X01554Y02008*
X01556Y02018*
X01554Y02028*
X01551Y02037*
X01545Y02045*
X01537Y02051*
X01528Y02054*
X01518Y02056*
G37*
G36*
X01759Y02013D02*
X01723D01*
Y01977*
X01729Y01978*
X01739Y01982*
X01748Y01988*
X01754Y01997*
X01758Y02007*
X01759Y02013*
G37*
G36*
X01713D02*
X01677D01*
X01678Y02007*
X01682Y01997*
X01688Y01988*
X01697Y01982*
X01707Y01978*
X01713Y01977*
Y02013*
G37*
G36*
X00595Y02033D02*
Y01973D01*
X00655*
X00654Y01981*
X00651Y01993*
X00644Y02004*
X00636Y02014*
X00626Y02022*
X00615Y02028*
X00603Y02032*
X00595Y02033*
G37*
G36*
X00585D02*
X00577Y02032D01*
X00565Y02028*
X00554Y02022*
X00544Y02014*
X00536Y02004*
X0053Y01993*
X00526Y01981*
X00525Y01973*
X00585*
Y02033*
G37*
G36*
X01308Y02622D02*
X01297Y0262D01*
X01287Y02616*
X01278Y02609*
X01271Y026*
X01266Y02589*
X01265Y02578*
X01266Y02567*
X01271Y02557*
X01278Y02548*
X01287Y02541*
X01294Y02537*
Y02341*
X01296Y02336*
X01299Y02331*
X0147Y0216*
X01474Y02157*
X0148Y02156*
X02424*
X02521Y02059*
Y0196*
X02492Y01932*
X02456*
Y01934*
X02454Y01942*
X02449Y01949*
X02442Y01954*
X02434Y01956*
X02402*
X02394Y01954*
X02387Y01949*
X02382Y01942*
X0238Y01934*
Y01902*
X02382Y01894*
X02387Y01887*
X02394Y01882*
X02402Y0188*
X02434*
X02442Y01882*
X02449Y01887*
X02454Y01894*
X02456Y01902*
Y01904*
X02498*
X02503Y01905*
X02508Y01908*
X02544Y01945*
X02547Y01949*
X02548Y01955*
Y02065*
X02547Y0207*
X02544Y02074*
X02439Y02179*
X02435Y02182*
X0243Y02183*
X01485*
X01322Y02347*
Y02537*
X0133Y02541*
X01339Y02548*
X01346Y02557*
X0135Y02567*
X01351Y02578*
X0135Y02589*
X01346Y026*
X01339Y02609*
X0133Y02616*
X01319Y0262*
X01308Y02622*
G37*
G36*
X00655Y01963D02*
X00595D01*
Y01903*
X00603Y01904*
X00615Y01908*
X00626Y01914*
X00636Y01922*
X00644Y01932*
X00651Y01943*
X00654Y01955*
X00655Y01963*
G37*
G36*
X00585D02*
X00525D01*
X00526Y01955*
X0053Y01943*
X00536Y01932*
X00544Y01922*
X00554Y01914*
X00565Y01908*
X00577Y01904*
X00585Y01903*
Y01963*
G37*
G36*
X01208Y02622D02*
X01197Y0262D01*
X01187Y02616*
X01178Y02609*
X01171Y026*
X01166Y02589*
X01165Y02578*
X01166Y02567*
X01171Y02557*
X01178Y02548*
X01187Y02541*
X01194Y02537*
Y02228*
X01196Y02223*
X01199Y02218*
X01484Y01933*
X01482Y01928*
X0148Y01918*
X01482Y01908*
X01485Y01899*
X01491Y01891*
X01499Y01885*
X01508Y01882*
X01518Y0188*
X01528Y01882*
X01537Y01885*
X01545Y01891*
X01551Y01899*
X01554Y01908*
X01556Y01918*
X01554Y01928*
X01551Y01937*
X01545Y01945*
X01537Y01951*
X01528Y01954*
X01518Y01956*
X01508Y01954*
X01503Y01952*
X01222Y02234*
Y02537*
X0123Y02541*
X01239Y02548*
X01246Y02557*
X0125Y02567*
X01251Y02578*
X0125Y02589*
X01246Y026*
X01239Y02609*
X0123Y02616*
X01219Y0262*
X01208Y02622*
G37*
G36*
X01408D02*
X01397Y0262D01*
X01387Y02616*
X01378Y02609*
X01371Y026*
X01366Y02589*
X01365Y02578*
X01366Y02567*
X01371Y02557*
X01378Y02548*
X01387Y02541*
X01394Y02537*
Y02346*
X01396Y02341*
X01399Y02336*
X0152Y02215*
X01524Y02212*
X0153Y02211*
X02464*
X02571Y02104*
Y0192*
X02514Y01863*
X02392*
X02352Y01903*
X02354Y01908*
X02356Y01918*
X02354Y01928*
X02351Y01937*
X02345Y01945*
X02337Y01951*
X02328Y01954*
X02318Y01956*
X02308Y01954*
X02299Y01951*
X02291Y01945*
X02285Y01937*
X02282Y01928*
X0228Y01918*
X02282Y01908*
X02285Y01899*
X02291Y01891*
X02299Y01885*
X02308Y01882*
X02318Y0188*
X02328Y01882*
X02333Y01884*
X02377Y0184*
X02381Y01837*
X02387Y01836*
X0252*
X02525Y01837*
X02529Y0184*
X02594Y01905*
X02597Y01909*
X02598Y01915*
Y0211*
X02597Y02115*
X02594Y02119*
X02479Y02234*
X02475Y02237*
X0247Y02238*
X01535*
X01422Y02352*
Y02537*
X0143Y02541*
X01439Y02548*
X01446Y02557*
X0145Y02567*
X01451Y02578*
X0145Y02589*
X01446Y026*
X01439Y02609*
X0143Y02616*
X01419Y0262*
X01408Y02622*
G37*
G36*
X01508D02*
X01497Y0262D01*
X01487Y02616*
X01478Y02609*
X01471Y026*
X01466Y02589*
X01465Y02578*
X01466Y02567*
X01471Y02557*
X01478Y02548*
X01487Y02541*
X01494Y02537*
Y02356*
X01496Y02351*
X01499Y02346*
X01575Y0227*
X01579Y02267*
X01585Y02266*
X02489*
X02626Y02129*
Y01865*
X02584Y01823*
X02332*
X02252Y01903*
X02254Y01908*
X02256Y01918*
X02254Y01928*
X02251Y01937*
X02245Y01945*
X02237Y01951*
X02228Y01954*
X02218Y01956*
X02208Y01954*
X02199Y01951*
X02191Y01945*
X02185Y01937*
X02182Y01928*
X0218Y01918*
X02182Y01908*
X02185Y01899*
X02191Y01891*
X02199Y01885*
X02208Y01882*
X02218Y0188*
X02228Y01882*
X02233Y01884*
X02317Y018*
X02321Y01797*
X02327Y01796*
X0259*
X02595Y01797*
X02599Y018*
X02649Y0185*
X02652Y01854*
X02653Y0186*
Y02135*
X02652Y0214*
X02649Y02144*
X02504Y02289*
X025Y02292*
X02495Y02293*
X0159*
X01522Y02362*
Y02537*
X0153Y02541*
X01539Y02548*
X01546Y02557*
X0155Y02567*
X01551Y02578*
X0155Y02589*
X01546Y026*
X01539Y02609*
X0153Y02616*
X01519Y0262*
X01508Y02622*
G37*
G36*
X01608D02*
X01597Y0262D01*
X01587Y02616*
X01578Y02609*
X01571Y026*
X01566Y02589*
X01565Y02578*
X01566Y02567*
X01571Y02557*
X01578Y02548*
X01587Y02541*
X01594Y02537*
Y02371*
X01596Y02366*
X01599Y02361*
X01635Y02325*
X01639Y02322*
X01645Y02321*
X02519*
X02681Y02159*
Y0183*
X02634Y01783*
X02272*
X02152Y01903*
X02154Y01908*
X02156Y01918*
X02154Y01928*
X02151Y01937*
X02145Y01945*
X02137Y01951*
X02128Y01954*
X02118Y01956*
X02108Y01954*
X02099Y01951*
X02091Y01945*
X02085Y01937*
X02082Y01928*
X0208Y01918*
X02082Y01908*
X02085Y01899*
X02091Y01891*
X02099Y01885*
X02108Y01882*
X02118Y0188*
X02128Y01882*
X02133Y01884*
X02257Y0176*
X02261Y01757*
X02267Y01756*
X0264*
X02645Y01757*
X02649Y0176*
X02704Y01815*
X02707Y01819*
X02708Y01825*
Y02165*
X02707Y0217*
X02704Y02174*
X02534Y02344*
X0253Y02347*
X02525Y02348*
X0165*
X01622Y02377*
Y02537*
X0163Y02541*
X01639Y02548*
X01646Y02557*
X0165Y02567*
X01651Y02578*
X0165Y02589*
X01646Y026*
X01639Y02609*
X0163Y02616*
X01619Y0262*
X01608Y02622*
G37*
G36*
X01708D02*
X01697Y0262D01*
X01687Y02616*
X01678Y02609*
X01671Y026*
X01666Y02589*
X01665Y02578*
X01666Y02567*
X01671Y02557*
X01678Y02548*
X01687Y02541*
X01694Y02537*
Y02421*
X01696Y02416*
X01699Y02411*
X0174Y0237*
X01744Y02367*
X0175Y02366*
X02579*
X02731Y02214*
Y01795*
X02659Y01723*
X02232*
X02052Y01903*
X02054Y01908*
X02056Y01918*
X02054Y01928*
X02051Y01937*
X02045Y01945*
X02037Y01951*
X02028Y01954*
X02018Y01956*
X02008Y01954*
X01999Y01951*
X01991Y01945*
X01985Y01937*
X01982Y01928*
X0198Y01918*
X01982Y01908*
X01985Y01899*
X01991Y01891*
X01999Y01885*
X02008Y01882*
X02018Y0188*
X02028Y01882*
X02033Y01884*
X02217Y017*
X02221Y01697*
X02227Y01696*
X02665*
X0267Y01697*
X02674Y017*
X02754Y0178*
X02757Y01784*
X02758Y0179*
Y0222*
X02757Y02225*
X02754Y02229*
X02594Y02389*
X0259Y02392*
X02585Y02393*
X01755*
X01722Y02427*
Y02537*
X0173Y02541*
X01739Y02548*
X01746Y02557*
X0175Y02567*
X01751Y02578*
X0175Y02589*
X01746Y026*
X01739Y02609*
X0173Y02616*
X01719Y0262*
X01708Y02622*
G37*
G36*
X01808D02*
X01797Y0262D01*
X01787Y02616*
X01778Y02609*
X01771Y026*
X01766Y02589*
X01765Y02578*
X01766Y02567*
X01771Y02557*
X01778Y02548*
X01787Y02541*
X01794Y02537*
Y02441*
X01796Y02436*
X01799Y02431*
X0181Y0242*
X01814Y02417*
X0182Y02416*
X02604*
X02776Y02244*
Y0176*
X02689Y01673*
X02182*
X01952Y01903*
X01954Y01908*
X01956Y01918*
X01954Y01928*
X01951Y01937*
X01945Y01945*
X01937Y01951*
X01928Y01954*
X01918Y01956*
X01908Y01954*
X01899Y01951*
X01891Y01945*
X01885Y01937*
X01882Y01928*
X0188Y01918*
X01882Y01908*
X01885Y01899*
X01891Y01891*
X01899Y01885*
X01908Y01882*
X01918Y0188*
X01928Y01882*
X01933Y01884*
X02167Y0165*
X02171Y01647*
X02177Y01646*
X02695*
X027Y01647*
X02704Y0165*
X02799Y01745*
X02802Y01749*
X02803Y01755*
Y0225*
X02802Y02255*
X02799Y02259*
X02619Y02439*
X02615Y02442*
X0261Y02443*
X01825*
X01822Y02447*
Y02537*
X0183Y02541*
X01839Y02548*
X01846Y02557*
X0185Y02567*
X01851Y02578*
X0185Y02589*
X01846Y026*
X01839Y02609*
X0183Y02616*
X01819Y0262*
X01808Y02622*
G37*
G36*
X01908D02*
X01897Y0262D01*
X01887Y02616*
X01878Y02609*
X01871Y026*
X01866Y02589*
X01865Y02578*
X01866Y02567*
X01871Y02557*
X01878Y02548*
X01887Y02541*
X01894Y02537*
Y02491*
X01896Y02486*
X01899Y02481*
X01925Y02455*
X01929Y02452*
X01935Y02451*
X02634*
X02821Y02264*
Y0173*
X02709Y01618*
X02137*
X01852Y01903*
X01854Y01908*
X01856Y01918*
X01854Y01928*
X01851Y01937*
X01845Y01945*
X01837Y01951*
X01828Y01954*
X01818Y01956*
X01808Y01954*
X01799Y01951*
X01791Y01945*
X01785Y01937*
X01782Y01928*
X0178Y01918*
X01782Y01908*
X01785Y01899*
X01791Y01891*
X01799Y01885*
X01808Y01882*
X01818Y0188*
X01828Y01882*
X01833Y01884*
X02122Y01595*
X02126Y01592*
X02132Y01591*
X02715*
X0272Y01592*
X02724Y01595*
X02844Y01715*
X02847Y01719*
X02848Y01725*
Y0227*
X02847Y02275*
X02844Y02279*
X02649Y02474*
X02645Y02477*
X0264Y02478*
X0194*
X01922Y02497*
Y02537*
X0193Y02541*
X01939Y02548*
X01946Y02557*
X0195Y02567*
X01951Y02578*
X0195Y02589*
X01946Y026*
X01939Y02609*
X0193Y02616*
X01919Y0262*
X01908Y02622*
G37*
G36*
X00595Y01639D02*
Y01579D01*
X00655*
X00654Y01587*
X00651Y01599*
X00644Y01611*
X00636Y01621*
X00626Y01629*
X00615Y01635*
X00603Y01638*
X00595Y01639*
G37*
G36*
X00585D02*
X00577Y01638D01*
X00565Y01635*
X00554Y01629*
X00544Y01621*
X00536Y01611*
X0053Y01599*
X00526Y01587*
X00525Y01579*
X00585*
Y01639*
G37*
G36*
X02008Y02622D02*
X01997Y0262D01*
X01987Y02616*
X01978Y02609*
X01971Y026*
X01966Y02589*
X01965Y02578*
X01966Y02567*
X01971Y02557*
X01978Y02548*
X01987Y02541*
X01997Y02536*
X02002Y02536*
Y02519*
X02003Y02514*
X02006Y02509*
X0202Y02495*
X02024Y02492*
X0203Y02491*
X02671*
X02877Y02285*
Y01706*
X02744Y01573*
X02082*
X01752Y01903*
X01754Y01908*
X01756Y01918*
X01754Y01928*
X01751Y01937*
X01745Y01945*
X01737Y01951*
X01728Y01954*
X01718Y01956*
X01708Y01954*
X01699Y01951*
X01692Y01945*
X01688Y01946*
X01687Y01946*
Y01963*
X01686Y01968*
X01683Y01973*
X01652Y02003*
X01654Y02008*
X01656Y02018*
X01654Y02028*
X01651Y02037*
X01645Y02045*
X01637Y02051*
X01628Y02054*
X01618Y02056*
X01608Y02054*
X01599Y02051*
X01591Y02045*
X01585Y02037*
X01582Y02028*
X0158Y02018*
X01582Y02008*
X01585Y01999*
X01591Y01991*
X01599Y01985*
X01608Y01982*
X01618Y0198*
X01628Y01982*
X01633Y01984*
X01659Y01957*
Y01928*
X01654Y01928*
X01651Y01937*
X01645Y01945*
X01637Y01951*
X01628Y01954*
X01618Y01956*
X01608Y01954*
X01599Y01951*
X01591Y01945*
X01585Y01937*
X01582Y01928*
X0158Y01918*
X01582Y01908*
X01584Y01903*
X01449Y01768*
X0133*
X01022Y02077*
Y02537*
X0103Y02541*
X01039Y02548*
X01046Y02557*
X0105Y02567*
X01051Y02578*
X0105Y02589*
X01046Y026*
X01039Y02609*
X0103Y02616*
X01019Y0262*
X01008Y02622*
X00997Y0262*
X00987Y02616*
X00978Y02609*
X00971Y026*
X00966Y02589*
X00965Y02578*
X00966Y02567*
X00971Y02557*
X00978Y02548*
X00987Y02541*
X00994Y02537*
Y02071*
X00996Y02066*
X00999Y02061*
X01315Y01745*
X01319Y01742*
X01325Y01741*
X01455*
X0146Y01742*
X01464Y01745*
X01603Y01884*
X01608Y01882*
X01618Y0188*
X01628Y01882*
X01637Y01885*
X01645Y01891*
X01651Y01899*
X01654Y01908*
X01659Y01908*
Y01851*
X0166Y01846*
X01663Y01841*
X02015Y0149*
X02019Y01487*
X02025Y01486*
X02754*
X02871Y01369*
Y01016*
X02861*
Y00959*
X02918*
Y01016*
X02898*
Y01375*
X02897Y0138*
X02894Y01384*
X02769Y01509*
X02765Y01512*
X0276Y01513*
X0203*
X01687Y01857*
Y0189*
X01688Y0189*
X01692Y01891*
X01699Y01885*
X01708Y01882*
X01718Y0188*
X01728Y01882*
X01733Y01884*
X02067Y0155*
X02071Y01547*
X02077Y01546*
X0275*
X02755Y01547*
X02759Y0155*
X029Y01691*
X02903Y01695*
X02904Y017*
Y02291*
X02903Y02296*
X029Y02301*
X02686Y02514*
X02682Y02517*
X02677Y02518*
X02035*
X02029Y02524*
Y0254*
X0203Y02541*
X02039Y02548*
X02046Y02557*
X0205Y02567*
X02051Y02578*
X0205Y02589*
X02046Y026*
X02039Y02609*
X0203Y02616*
X02019Y0262*
X02008Y02622*
G37*
G36*
X00655Y01569D02*
X00595D01*
Y01509*
X00603Y0151*
X00615Y01514*
X00626Y0152*
X00636Y01528*
X00644Y01538*
X00651Y01549*
X00654Y01562*
X00655Y01569*
G37*
G36*
X00585D02*
X00525D01*
X00526Y01562*
X0053Y01549*
X00536Y01538*
X00544Y01528*
X00554Y0152*
X00565Y01514*
X00577Y0151*
X00585Y01509*
Y01569*
G37*
G36*
X03351Y01561D02*
Y01501D01*
X03411*
X0341Y01508*
X03406Y01521*
X034Y01532*
X03392Y01542*
X03382Y0155*
X03371Y01556*
X03359Y0156*
X03351Y01561*
G37*
G36*
X03341D02*
X03333Y0156D01*
X03321Y01556*
X0331Y0155*
X033Y01542*
X03292Y01532*
X03286Y01521*
X03282Y01508*
X03281Y01501*
X03341*
Y01561*
G37*
G36*
X03452Y01443D02*
X03437D01*
X03436Y01443*
X03435Y01443*
X0342Y0144*
X0342Y01439*
X03419*
X03405Y01433*
X03404Y01433*
X03404Y01433*
X03391Y01424*
X0339Y01424*
X0339Y01423*
X03379Y01412*
X03378Y01412*
X03378Y01412*
X03369Y01399*
X03369Y01398*
X03369Y01398*
X03363Y01383*
Y01383*
X03362Y01382*
X03359Y01367*
X0336Y01366*
X03359Y01366*
Y0135*
X0336Y01349*
X03359Y01349*
X03362Y01334*
X03363Y01333*
Y01332*
X03369Y01318*
X03369Y01318*
X03369Y01317*
X03378Y01304*
X03378Y01304*
X03379Y01303*
X0339Y01292*
X0339Y01292*
X03391Y01291*
X03404Y01283*
X03404Y01283*
X03405Y01282*
X03419Y01276*
X0342*
X0342Y01276*
X03435Y01273*
X03436Y01273*
X03437Y01273*
X03452*
X03453Y01273*
X03453Y01273*
X03469Y01276*
X03469Y01276*
X0347*
X03484Y01282*
X03485Y01283*
X03485Y01283*
X03498Y01291*
X03498Y01292*
X03499Y01292*
X0351Y01303*
X0351Y01304*
X03511Y01304*
X03519Y01317*
X0352Y01318*
X0352Y01318*
X03526Y01332*
Y01333*
X03526Y01334*
X03529Y01349*
X03529Y01349*
X0353Y0135*
Y01366*
X03529Y01366*
X03529Y01367*
X03526Y01382*
X03526Y01383*
Y01383*
X0352Y01398*
X0352Y01398*
X03519Y01399*
X03511Y01412*
X0351Y01412*
X0351Y01412*
X03499Y01423*
X03498Y01424*
X03498Y01424*
X03485Y01433*
X03485Y01433*
X03484Y01433*
X0347Y01439*
X03469*
X03469Y0144*
X03453Y01443*
X03453Y01443*
X03452Y01443*
G37*
G36*
X00499D02*
X00484D01*
X00483Y01443*
X00483Y01443*
X00467Y0144*
X00467Y01439*
X00466*
X00452Y01433*
X00451Y01433*
X00451Y01433*
X00438Y01424*
X00438Y01424*
X00437Y01423*
X00426Y01412*
X00426Y01412*
X00425Y01412*
X00417Y01399*
X00416Y01398*
X00416Y01398*
X0041Y01383*
Y01383*
X0041Y01382*
X00407Y01367*
X00407Y01366*
X00406Y01366*
Y0135*
X00407Y01349*
X00407Y01349*
X0041Y01334*
X0041Y01333*
Y01332*
X00416Y01318*
X00416Y01318*
X00417Y01317*
X00425Y01304*
X00426Y01304*
X00426Y01303*
X00437Y01292*
X00438Y01292*
X00438Y01291*
X00451Y01283*
X00451Y01283*
X00452Y01282*
X00466Y01276*
X00467*
X00467Y01276*
X00483Y01273*
X00483Y01273*
X00484Y01273*
X00499*
X005Y01273*
X00501Y01273*
X00516Y01276*
X00516Y01276*
X00517*
X00531Y01282*
X00532Y01283*
X00532Y01283*
X00545Y01291*
X00546Y01292*
X00546Y01292*
X00557Y01303*
X00558Y01304*
X00558Y01304*
X00567Y01317*
X00567Y01318*
X00567Y01318*
X00573Y01332*
Y01333*
X00574Y01334*
X00577Y01349*
X00577Y01349*
X00577Y0135*
Y01366*
X00577Y01366*
X00577Y01367*
X00574Y01382*
X00573Y01383*
Y01383*
X00567Y01398*
X00567Y01398*
X00567Y01399*
X00558Y01412*
X00558Y01412*
X00557Y01412*
X00546Y01423*
X00546Y01424*
X00545Y01424*
X00532Y01433*
X00532Y01433*
X00531Y01433*
X00517Y01439*
X00516*
X00516Y0144*
X00501Y01443*
X005Y01443*
X00499Y01443*
G37*
G36*
X03411Y01491D02*
X03351D01*
Y01431*
X03359Y01431*
X03371Y01435*
X03382Y01441*
X03392Y01449*
X034Y01459*
X03406Y01471*
X0341Y01483*
X03411Y01491*
G37*
G36*
X03341D02*
X03281D01*
X03282Y01483*
X03286Y01471*
X03292Y01459*
X033Y01449*
X0331Y01441*
X03321Y01435*
X03333Y01431*
X03341Y01431*
Y01491*
G37*
G36*
X00915Y00911D02*
X00906Y0091D01*
X00897Y00906*
X0089Y00901*
X00884Y00893*
X0088Y00885*
X00879Y00875*
X0088Y00866*
X00884Y00858*
X0089Y0085*
X00897Y00845*
X00906Y00841*
X00915Y0084*
X00924Y00841*
X00933Y00845*
X0094Y0085*
X00946Y00858*
X00949Y00866*
X00951Y00875*
X00949Y00885*
X00946Y00893*
X0094Y00901*
X00933Y00906*
X00924Y0091*
X00915Y00911*
G37*
G36*
X00659D02*
X0065Y0091D01*
X00641Y00906*
X00634Y00901*
X00628Y00893*
X00624Y00885*
X00623Y00875*
X00624Y00866*
X00628Y00858*
X00634Y0085*
X00641Y00845*
X0065Y00841*
X00659Y0084*
X00668Y00841*
X00677Y00845*
X00684Y0085*
X0069Y00858*
X00693Y00866*
X00695Y00875*
X00693Y00885*
X0069Y00893*
X00684Y00901*
X00677Y00906*
X00668Y0091*
X00659Y00911*
G37*
G36*
X02895Y00823D02*
Y00796D01*
X02922*
X02921Y008*
X02918Y00808*
X02913Y00814*
X02906Y0082*
X02898Y00823*
X02895Y00823*
G37*
G36*
X02885D02*
X02881Y00823D01*
X02873Y0082*
X02866Y00814*
X02861Y00808*
X02858Y008*
X02857Y00796*
X02885*
Y00823*
G37*
G36*
X01723Y00828D02*
Y00792D01*
X01759*
X01758Y00798*
X01754Y00808*
X01748Y00817*
X01739Y00823*
X01729Y00827*
X01723Y00828*
G37*
G36*
X01713D02*
X01707Y00827D01*
X01697Y00823*
X01688Y00817*
X01682Y00808*
X01678Y00798*
X01677Y00792*
X01713*
Y00828*
G37*
G36*
X02922Y00786D02*
X02895D01*
Y00759*
X02898Y00759*
X02906Y00763*
X02913Y00768*
X02918Y00775*
X02921Y00783*
X02922Y00786*
G37*
G36*
X02885D02*
X02857D01*
X02858Y00783*
X02861Y00775*
X02866Y00768*
X02873Y00763*
X02881Y00759*
X02885Y00759*
Y00786*
G37*
G36*
X02118Y00825D02*
X02108Y00823D01*
X02099Y0082*
X02091Y00814*
X02085Y00806*
X02082Y00797*
X0208Y00787*
X02082Y00777*
X02085Y00768*
X02091Y0076*
X02099Y00754*
X02108Y0075*
X02118Y00749*
X02128Y0075*
X02137Y00754*
X02145Y0076*
X02151Y00768*
X02154Y00777*
X02156Y00787*
X02154Y00797*
X02151Y00806*
X02145Y00814*
X02137Y0082*
X02128Y00823*
X02118Y00825*
G37*
G36*
X02018D02*
X02008Y00823D01*
X01999Y0082*
X01991Y00814*
X01985Y00806*
X01982Y00797*
X0198Y00787*
X01982Y00777*
X01985Y00768*
X01991Y0076*
X01999Y00754*
X02008Y0075*
X02018Y00749*
X02028Y0075*
X02037Y00754*
X02045Y0076*
X02051Y00768*
X02054Y00777*
X02056Y00787*
X02054Y00797*
X02051Y00806*
X02045Y00814*
X02037Y0082*
X02028Y00823*
X02018Y00825*
G37*
G36*
X01918D02*
X01908Y00823D01*
X01899Y0082*
X01891Y00814*
X01885Y00806*
X01882Y00797*
X0188Y00787*
X01882Y00777*
X01885Y00768*
X01891Y0076*
X01899Y00754*
X01908Y0075*
X01918Y00749*
X01928Y0075*
X01937Y00754*
X01945Y0076*
X01951Y00768*
X01954Y00777*
X01956Y00787*
X01954Y00797*
X01951Y00806*
X01945Y00814*
X01937Y0082*
X01928Y00823*
X01918Y00825*
G37*
G36*
X01818D02*
X01808Y00823D01*
X01799Y0082*
X01791Y00814*
X01785Y00806*
X01782Y00797*
X0178Y00787*
X01782Y00777*
X01785Y00768*
X01791Y0076*
X01799Y00754*
X01808Y0075*
X01818Y00749*
X01828Y0075*
X01837Y00754*
X01845Y0076*
X01851Y00768*
X01854Y00777*
X01856Y00787*
X01854Y00797*
X01851Y00806*
X01845Y00814*
X01837Y0082*
X01828Y00823*
X01818Y00825*
G37*
G36*
X02234Y00825D02*
X02202D01*
X02194Y00823*
X02187Y00818*
X02182Y00811*
X0218Y00803*
Y00771*
X02182Y00763*
X02187Y00756*
X02194Y00751*
X02202Y00749*
X02234*
X02242Y00751*
X02249Y00756*
X02254Y00763*
X02256Y00771*
Y00803*
X02254Y00811*
X02249Y00818*
X02242Y00823*
X02234Y00825*
G37*
G36*
X01759Y00782D02*
X01723D01*
Y00746*
X01729Y00746*
X01739Y00751*
X01748Y00757*
X01754Y00766*
X01758Y00776*
X01759Y00782*
G37*
G36*
X01713D02*
X01677D01*
X01678Y00776*
X01682Y00766*
X01688Y00757*
X01697Y00751*
X01707Y00746*
X01713Y00746*
Y00782*
G37*
G36*
X0092Y00738D02*
Y00703D01*
X00954*
X00953Y00709*
X00949Y00718*
X00943Y00727*
X00935Y00733*
X00925Y00737*
X0092Y00738*
G37*
G36*
X0091D02*
X00905Y00737D01*
X00895Y00733*
X00887Y00727*
X0088Y00718*
X00876Y00709*
X00876Y00703*
X0091*
Y00738*
G37*
G36*
X00664D02*
Y00703D01*
X00698*
X00697Y00709*
X00693Y00718*
X00687Y00727*
X00679Y00733*
X00669Y00737*
X00664Y00738*
G37*
G36*
X00654D02*
X00649Y00737D01*
X00639Y00733*
X00631Y00727*
X00624Y00718*
X0062Y00709*
X0062Y00703*
X00654*
Y00738*
G37*
G36*
X00954Y00693D02*
X0092D01*
Y00659*
X00925Y0066*
X00935Y00664*
X00943Y0067*
X00949Y00678*
X00953Y00688*
X00954Y00693*
G37*
G36*
X0091D02*
X00876D01*
X00876Y00688*
X0088Y00678*
X00887Y0067*
X00895Y00664*
X00905Y0066*
X0091Y00659*
Y00693*
G37*
G36*
X00698D02*
X00664D01*
Y00659*
X00669Y0066*
X00679Y00664*
X00687Y0067*
X00693Y00678*
X00697Y00688*
X00698Y00693*
G37*
G36*
X00654D02*
X0062D01*
X0062Y00688*
X00624Y00678*
X00631Y0067*
X00639Y00664*
X00649Y0066*
X00654Y00659*
Y00693*
G37*
%LNpcb_front-3*%
%LPD*%
G54D14*
X0289Y00791D03*
G54D15*
X0289Y00988D03*
G54D21*
X03346Y01496D03*
X0059Y01574D03*
Y01968D03*
X03149Y02362D03*
G54D22*
X01325Y01755D02*
X01455D01*
X01618Y01918*
X01008Y02071D02*
X01325Y01755D01*
X01008Y02071D02*
Y02578D01*
X01208Y02228D02*
X01518Y01918D01*
X01208Y02228D02*
Y02578D01*
X02885Y00993D02*
Y01375D01*
Y00993D02*
X0289Y00988D01*
X0276Y015D02*
X02885Y01375D01*
X01673Y01851D02*
X02025Y015D01*
X0276*
X01918Y01918D02*
X02177Y0166D01*
X01718Y01918D02*
X02077Y0156D01*
X02132Y01605D02*
X02715D01*
X01818Y01918D02*
X02132Y01605D01*
X02177Y0166D02*
X02695D01*
X02077Y0156D02*
X0275D01*
X01673Y01851D02*
Y01963D01*
X01618Y02018D02*
X01673Y01963D01*
X01308Y02341D02*
X0148Y0217D01*
X0243*
X02535Y02065*
X02715Y01605D02*
X02835Y01725D01*
Y0227*
X0275Y0156D02*
X0289Y017D01*
Y02291*
X02677Y02505D02*
X0289Y02291D01*
X0203Y02505D02*
X02677D01*
X02015Y02519D02*
Y02571D01*
Y02519D02*
X0203Y02505D01*
X02008Y02578D02*
X02015Y02571D01*
X0264Y02465D02*
X02835Y0227D01*
X01935Y02465D02*
X0264D01*
X01908Y02491D02*
X01935Y02465D01*
X01908Y02491D02*
Y02578D01*
X0279Y01755D02*
Y0225D01*
X02695Y0166D02*
X0279Y01755D01*
X0261Y0243D02*
X0279Y0225D01*
X0182Y0243D02*
X0261D01*
X01808Y02441D02*
Y02578D01*
Y02441D02*
X0182Y0243D01*
X02227Y0171D02*
X02665D01*
X02018Y01918D02*
X02227Y0171D01*
X02665D02*
X02745Y0179D01*
Y0222*
X02585Y0238D02*
X02745Y0222D01*
X0175Y0238D02*
X02585D01*
X01708Y02421D02*
X0175Y0238D01*
X01708Y02421D02*
Y02578D01*
X02267Y0177D02*
X0264D01*
X02118Y01918D02*
X02267Y0177D01*
X0264D02*
X02695Y01825D01*
Y02165*
X02525Y02335D02*
X02695Y02165D01*
X01645Y02335D02*
X02525D01*
X01608Y02371D02*
X01645Y02335D01*
X01608Y02371D02*
Y02578D01*
X02327Y0181D02*
X0259D01*
X02218Y01918D02*
X02327Y0181D01*
X0259D02*
X0264Y0186D01*
Y02135*
X01585Y0228D02*
X02495D01*
X0264Y02135*
X01508Y02356D02*
X01585Y0228D01*
X01508Y02356D02*
Y02578D01*
X02387Y0185D02*
X0252D01*
X02318Y01918D02*
X02387Y0185D01*
X02585Y01915D02*
Y0211D01*
X0252Y0185D02*
X02585Y01915D01*
X0247Y02225D02*
X02585Y0211D01*
X0153Y02225D02*
X0247D01*
X01408Y02346D02*
X0153Y02225D01*
X01408Y02346D02*
Y02578D01*
X02418Y01918D02*
X02498D01*
X02535Y01955D02*
Y02065D01*
X02498Y01918D02*
X02535Y01955D01*
X01308Y02341D02*
Y02578D01*
G54D23*
X00915Y00698D03*
Y00875D03*
X00659Y00698D03*
Y00875D03*
G54D24*
X01818Y02018D03*
Y01918D03*
X01918Y02018D03*
X02018D03*
X01918Y01918D03*
X02018D03*
X02118Y02018D03*
Y01918D03*
X02218Y02018D03*
Y01918D03*
X02318Y02018D03*
Y01918D03*
X02418Y02018D03*
X01718Y01918D03*
X01618D03*
X01518D03*
X01718Y02018D03*
X01618D03*
X01518D03*
X01718Y00787D03*
X01818D03*
X02018D03*
X02118D03*
X01918D03*
G54D25*
X02418Y01918D03*
X02218Y00787D03*
G54D26*
X00708Y02578D03*
G54D27*
X00808Y02578D03*
X00908D03*
X01008D03*
X01108D03*
X01208D03*
X01308D03*
X01408D03*
X01508D03*
X01608D03*
X01708D03*
X01808D03*
X01908D03*
X02008D03*
X02108D03*
X02208D03*
M02*