G04*
G04 #@! TF.GenerationSoftware,Altium Limited,Altium Designer,21.3.2 (30)*
G04*
G04 Layer_Color=8421504*
%FSLAX25Y25*%
%MOIN*%
G70*
G04*
G04 #@! TF.SameCoordinates,394D426F-0CA9-4E3C-942C-AD562F4B4749*
G04*
G04*
G04 #@! TF.FilePolarity,Positive*
G04*
G01*
G75*
%ADD20R,0.04352X0.06528*%
%ADD21R,0.09843X0.03937*%
%ADD22O,0.08071X0.02362*%
%ADD23O,0.02362X0.08071*%
D20*
X167975Y171000D02*
D03*
X178025D02*
D03*
X318975Y89500D02*
D03*
X329025D02*
D03*
X234975Y105000D02*
D03*
X245025D02*
D03*
D21*
X276287Y116776D02*
D03*
Y126618D02*
D03*
D22*
X203543Y153543D02*
D03*
Y150394D02*
D03*
Y147244D02*
D03*
Y144095D02*
D03*
Y140945D02*
D03*
Y137795D02*
D03*
Y134646D02*
D03*
Y131496D02*
D03*
Y128347D02*
D03*
Y125197D02*
D03*
Y122047D02*
D03*
X158661D02*
D03*
Y125197D02*
D03*
Y128347D02*
D03*
Y131496D02*
D03*
Y134646D02*
D03*
Y137795D02*
D03*
Y140945D02*
D03*
Y144095D02*
D03*
Y147244D02*
D03*
Y150394D02*
D03*
Y153543D02*
D03*
D23*
X196850Y115354D02*
D03*
X193701D02*
D03*
X190551D02*
D03*
X187402D02*
D03*
X184252D02*
D03*
X181102D02*
D03*
X177953D02*
D03*
X174803D02*
D03*
X171653D02*
D03*
X168504D02*
D03*
X165354D02*
D03*
Y160236D02*
D03*
X168504D02*
D03*
X171653D02*
D03*
X174803D02*
D03*
X177953D02*
D03*
X181102D02*
D03*
X184252D02*
D03*
X187402D02*
D03*
X190551D02*
D03*
X193701D02*
D03*
X196850D02*
D03*
M02*
