G04*
G04 #@! TF.GenerationSoftware,Altium Limited,Altium Designer,21.3.2 (30)*
G04*
G04 Layer_Color=32768*
%FSLAX25Y25*%
%MOIN*%
G70*
G04*
G04 #@! TF.SameCoordinates,394D426F-0CA9-4E3C-942C-AD562F4B4749*
G04*
G04*
G04 #@! TF.FilePolarity,Positive*
G04*
G01*
G75*
%ADD10C,0.00787*%
%ADD17C,0.00394*%
%ADD76C,0.00197*%
D10*
X268000Y105783D02*
G03*
X268000Y83342I0J-11220D01*
G01*
D02*
G03*
X268000Y105783I0J11220D01*
G01*
X28937Y165354D02*
G03*
X6496Y165354I-11220J0D01*
G01*
D02*
G03*
X28937Y165354I11220J0D01*
G01*
X216283Y180500D02*
G03*
X193842Y180500I-11220J0D01*
G01*
D02*
G03*
X216283Y180500I11220J0D01*
G01*
X298500Y74279D02*
G03*
X298500Y96720I0J11220D01*
G01*
D02*
G03*
X298500Y74279I0J-11220D01*
G01*
X268500Y57717D02*
G03*
X268500Y80158I0J11220D01*
G01*
D02*
G03*
X268500Y57717I0J-11220D01*
G01*
X165405Y174839D02*
X180595D01*
Y167161D02*
Y174839D01*
X165405Y167161D02*
X180595D01*
X165405D02*
Y174839D01*
X270972Y114413D02*
X310047D01*
X270972D02*
Y128980D01*
X310047D01*
Y114413D02*
Y128980D01*
X313347Y97224D02*
Y138996D01*
X324449D01*
Y97224D02*
Y138996D01*
X313347Y97224D02*
X324449D01*
X109488Y209744D02*
Y230217D01*
X70512Y209744D02*
X109488D01*
X70512D02*
Y230217D01*
X109488D01*
X146181Y2461D02*
Y71161D01*
Y2461D02*
X208150D01*
Y71161D01*
X146181D02*
X208150D01*
X187902Y78185D02*
Y88815D01*
Y78185D02*
X213098D01*
Y88815D01*
X187902D02*
X213098D01*
X174098Y78185D02*
Y88815D01*
X148902D02*
X174098D01*
X148902Y78185D02*
Y88815D01*
Y78185D02*
X174098D01*
X331595Y85661D02*
Y93339D01*
X316405D02*
X331595D01*
X316405Y85661D02*
Y93339D01*
Y85661D02*
X331595D01*
X117618Y5020D02*
X142224D01*
Y97342D01*
X117618D02*
X142224D01*
X117618Y5020D02*
Y97342D01*
X247595Y101161D02*
Y108839D01*
X232405D02*
X247595D01*
X232405Y101161D02*
Y108839D01*
Y101161D02*
X247595D01*
D17*
X248031Y132000D02*
X251969D01*
X250000Y130032D02*
Y133968D01*
X135547Y179134D02*
Y183071D01*
X133579Y181102D02*
X137516D01*
X181000Y97031D02*
Y100969D01*
X179032Y99000D02*
X182968D01*
X179134Y137795D02*
X183071D01*
X181102Y135827D02*
Y139764D01*
D76*
X263055Y172500D02*
G03*
X263055Y172500I-9055J0D01*
G01*
X269094Y111331D02*
Y152669D01*
X230906Y111331D02*
Y152669D01*
Y111331D02*
X269094D01*
X230906Y152669D02*
X269094D01*
X82677Y92520D02*
Y96457D01*
X80709Y94488D02*
X84646D01*
X76595Y68110D02*
Y120866D01*
X88760D01*
Y68110D02*
Y120866D01*
X76595Y68110D02*
X88760D01*
X122161Y175453D02*
X148933D01*
X122161D02*
Y190748D01*
X148933D01*
Y175453D02*
Y190748D01*
X243425Y193504D02*
Y231102D01*
X110906D02*
X243425D01*
X110906Y193504D02*
Y231102D01*
Y193504D02*
X243425D01*
X175197Y212598D02*
X179134D01*
X177165Y210630D02*
Y214567D01*
X234252Y51181D02*
X238189D01*
X236221Y49213D02*
Y53150D01*
X255512Y2362D02*
Y100000D01*
X216929Y2362D02*
X255512D01*
X216929D02*
Y100000D01*
X255512D01*
X158263Y89455D02*
Y108545D01*
X203736D01*
Y89455D02*
Y108545D01*
X158263Y89455D02*
X203736D01*
X254000Y170531D02*
Y174469D01*
X252031Y172500D02*
X255968D01*
X152756Y109449D02*
Y166142D01*
X209449Y109449D02*
Y166142D01*
X152756Y109449D02*
X209449D01*
X152756Y166142D02*
X209449D01*
M02*
