G04*
G04 #@! TF.GenerationSoftware,Altium Limited,Altium Designer,21.3.2 (30)*
G04*
G04 Layer_Color=16711935*
%FSLAX25Y25*%
%MOIN*%
G70*
G04*
G04 #@! TF.SameCoordinates,394D426F-0CA9-4E3C-942C-AD562F4B4749*
G04*
G04*
G04 #@! TF.FilePolarity,Positive*
G04*
G01*
G75*
%ADD10C,0.00787*%
%ADD13C,0.00591*%
%ADD17C,0.00394*%
%ADD75R,0.17717X0.02854*%
D10*
X166701Y174150D02*
X179299D01*
Y167850D02*
Y174150D01*
X166701Y167850D02*
X179299D01*
X166701D02*
Y174150D01*
X285244Y117760D02*
X309653D01*
X285244D02*
Y125634D01*
X309653D01*
Y117760D02*
Y125634D01*
X313740Y97618D02*
Y138602D01*
X324055D01*
Y97618D02*
Y138602D01*
X313740Y97618D02*
X324055D01*
X109095Y210138D02*
Y229823D01*
X70906Y210138D02*
X109095D01*
X70906D02*
Y229823D01*
X109095D01*
X146181Y3347D02*
X208150D01*
X201279Y2854D02*
Y70768D01*
X153051D02*
X201279D01*
X153051Y2854D02*
Y70768D01*
Y2854D02*
X201279D01*
X193413Y78579D02*
Y88421D01*
Y78579D02*
X207587D01*
Y88421D01*
X193413D02*
X207587D01*
X168587Y78579D02*
Y88421D01*
X154413D02*
X168587D01*
X154413Y78579D02*
Y88421D01*
Y78579D02*
X168587D01*
X330299Y86350D02*
Y92650D01*
X317701D02*
X330299D01*
X317701Y86350D02*
Y92650D01*
Y86350D02*
X330299D01*
X118012Y5413D02*
X141831D01*
Y96949D01*
X118012D02*
X141831D01*
X118012Y5413D02*
Y96949D01*
X246299Y101850D02*
Y108150D01*
X233701D02*
X246299D01*
X233701Y101850D02*
Y108150D01*
Y101850D02*
X246299D01*
D13*
X278827Y94563D02*
G03*
X278827Y94563I-10827J0D01*
G01*
X28543Y165354D02*
G03*
X28543Y165354I-10827J0D01*
G01*
X215890Y180500D02*
G03*
X215890Y180500I-10827J0D01*
G01*
X309327Y85500D02*
G03*
X309327Y85500I-10827J0D01*
G01*
X279327Y68937D02*
G03*
X279327Y68937I-10827J0D01*
G01*
D17*
X262598Y116055D02*
G03*
X262598Y116055I-1969J0D01*
G01*
X143162Y175848D02*
G03*
X127932Y175848I-7615J5254D01*
G01*
X194189Y89846D02*
G03*
X194189Y108153I0J9154D01*
G01*
X168500Y106283D02*
G03*
X168500Y91716I0J-7283D01*
G01*
X193500D02*
G03*
X193500Y106283I0J7283D01*
G01*
X167811Y108153D02*
G03*
X167811Y89846I0J-9154D01*
G01*
X199213Y153937D02*
G03*
X199213Y153937I-1969J0D01*
G01*
X264173Y112512D02*
Y151488D01*
X235827Y112512D02*
Y151488D01*
Y112512D02*
X264173D01*
X235827Y151488D02*
X264173D01*
X77677Y69488D02*
Y119488D01*
X87677Y69488D02*
Y119488D01*
X77677Y69488D02*
X87677D01*
X77677Y119488D02*
X87677D01*
X127932Y175848D02*
X143162D01*
X242244Y195177D02*
Y230020D01*
X112087D02*
X242244D01*
X112087Y195177D02*
Y230020D01*
Y195177D02*
X242244D01*
X217717Y3150D02*
Y99213D01*
Y3150D02*
X254724D01*
Y99213D01*
X217717D02*
X254724D01*
X167614Y106283D02*
X193500D01*
X167614Y91716D02*
X193500D01*
X167811Y108153D02*
X194189D01*
X167811Y89846D02*
X194189D01*
X161417Y118110D02*
Y157480D01*
X200787Y118110D02*
Y157480D01*
X161417Y118110D02*
X200787D01*
X161417Y157480D02*
X200787D01*
D75*
X177165Y228592D02*
D03*
M02*
