G04*
G04 #@! TF.GenerationSoftware,Altium Limited,Altium Designer,21.3.2 (30)*
G04*
G04 Layer_Color=16711935*
%FSLAX25Y25*%
%MOIN*%
G70*
G04*
G04 #@! TF.SameCoordinates,394D426F-0CA9-4E3C-942C-AD562F4B4749*
G04*
G04*
G04 #@! TF.FilePolarity,Negative*
G04*
G01*
G75*
%ADD20R,0.04352X0.06528*%
%ADD28R,0.04724X0.04724*%
%ADD29C,0.04724*%
%ADD32R,0.05984X0.05984*%
%ADD33C,0.05984*%
%ADD34R,0.04528X0.04528*%
%ADD35C,0.04528*%
%ADD40R,0.05591X0.05591*%
%ADD42C,0.05591*%
%ADD43C,0.13780*%
%ADD44R,0.04724X0.04724*%
%ADD46R,0.05512X0.05512*%
%ADD47C,0.05512*%
%ADD51C,0.05906*%
%ADD52C,0.06299*%
%ADD58R,0.05906X0.05118*%
%ADD59R,0.06528X0.04352*%
%ADD60R,0.05118X0.05906*%
%ADD61R,0.06528X0.03764*%
%ADD62R,0.07992X0.05512*%
%ADD63R,0.08898X0.08504*%
%ADD64R,0.06614X0.06693*%
%ADD65R,0.06299X0.06299*%
%ADD66C,0.06693*%
G04:AMPARAMS|DCode=67|XSize=66.93mil|YSize=66.93mil|CornerRadius=17.72mil|HoleSize=0mil|Usage=FLASHONLY|Rotation=90.000|XOffset=0mil|YOffset=0mil|HoleType=Round|Shape=RoundedRectangle|*
%AMROUNDEDRECTD67*
21,1,0.06693,0.03150,0,0,90.0*
21,1,0.03150,0.06693,0,0,90.0*
1,1,0.03543,0.01575,0.01575*
1,1,0.03543,0.01575,-0.01575*
1,1,0.03543,-0.01575,-0.01575*
1,1,0.03543,-0.01575,0.01575*
%
%ADD67ROUNDEDRECTD67*%
%ADD68R,0.05906X0.05906*%
G04:AMPARAMS|DCode=69|XSize=66.93mil|YSize=66.93mil|CornerRadius=17.72mil|HoleSize=0mil|Usage=FLASHONLY|Rotation=180.000|XOffset=0mil|YOffset=0mil|HoleType=Round|Shape=RoundedRectangle|*
%AMROUNDEDRECTD69*
21,1,0.06693,0.03150,0,0,180.0*
21,1,0.03150,0.06693,0,0,180.0*
1,1,0.03543,-0.01575,0.01575*
1,1,0.03543,0.01575,0.01575*
1,1,0.03543,0.01575,-0.01575*
1,1,0.03543,-0.01575,-0.01575*
%
%ADD69ROUNDEDRECTD69*%
%ADD70C,0.09252*%
%ADD71C,0.05118*%
%ADD72C,0.06394*%
%ADD73C,0.02756*%
D20*
X138096Y41339D02*
D03*
X128046D02*
D03*
X21353Y133071D02*
D03*
X31403D02*
D03*
D28*
X268000Y90626D02*
D03*
X298500Y81563D02*
D03*
X268500Y65000D02*
D03*
D29*
X268000Y98500D02*
D03*
X13780Y165354D02*
D03*
X201126Y180500D02*
D03*
X298500Y89437D02*
D03*
X210343Y83500D02*
D03*
X151657D02*
D03*
X268500Y72874D02*
D03*
D32*
X318898Y103110D02*
D03*
D33*
Y113110D02*
D03*
Y123110D02*
D03*
Y133110D02*
D03*
D34*
X100000Y212500D02*
D03*
D35*
X90000Y222500D02*
D03*
X80000Y212500D02*
D03*
D40*
X182087Y62362D02*
D03*
D42*
Y54488D02*
D03*
X172244D02*
D03*
Y62362D02*
D03*
D43*
X200866Y43819D02*
D03*
X153465D02*
D03*
D44*
X21654Y165354D02*
D03*
X209000Y180500D02*
D03*
X190657Y83500D02*
D03*
X171343D02*
D03*
D46*
X123622Y51181D02*
D03*
D47*
X137795Y70866D02*
D03*
Y31496D02*
D03*
D51*
X135547Y181102D02*
D03*
X145783D02*
D03*
D52*
X265000Y127000D02*
D03*
Y137000D02*
D03*
Y147000D02*
D03*
X235000Y117000D02*
D03*
Y127000D02*
D03*
Y137000D02*
D03*
Y147000D02*
D03*
X254000Y167500D02*
D03*
Y177500D02*
D03*
D58*
X225500Y139102D02*
D03*
Y126898D02*
D03*
X214500Y128102D02*
D03*
Y115898D02*
D03*
D59*
X172000Y190475D02*
D03*
Y200525D02*
D03*
X73000Y35025D02*
D03*
Y24975D02*
D03*
X93000Y64025D02*
D03*
Y53975D02*
D03*
D60*
X241898Y137000D02*
D03*
X254102D02*
D03*
X241898Y146500D02*
D03*
X254102D02*
D03*
X125787Y61024D02*
D03*
X137992D02*
D03*
X21457Y124016D02*
D03*
X33661D02*
D03*
D61*
X70500Y84279D02*
D03*
Y94721D02*
D03*
X82500Y35221D02*
D03*
Y24779D02*
D03*
D62*
Y49756D02*
D03*
Y64244D02*
D03*
D63*
X227500Y48354D02*
D03*
Y67646D02*
D03*
D64*
X245500Y53453D02*
D03*
Y67547D02*
D03*
D65*
X265000Y117000D02*
D03*
D66*
X82677Y94488D02*
D03*
Y84488D02*
D03*
Y104488D02*
D03*
Y114488D02*
D03*
X162165Y207598D02*
D03*
Y217598D02*
D03*
X172165Y207598D02*
D03*
X182165D02*
D03*
X172165Y217598D02*
D03*
X182165D02*
D03*
X192165Y207598D02*
D03*
Y217598D02*
D03*
X202165Y207598D02*
D03*
Y217598D02*
D03*
X212165Y207598D02*
D03*
Y217598D02*
D03*
X222165Y207598D02*
D03*
X152165Y217598D02*
D03*
X142165D02*
D03*
X132165D02*
D03*
X152165Y207598D02*
D03*
X142165D02*
D03*
X132165D02*
D03*
D67*
X82677Y74488D02*
D03*
D68*
X125311Y181102D02*
D03*
D69*
X222165Y217598D02*
D03*
D70*
X236221Y80709D02*
D03*
Y21654D02*
D03*
D71*
X171394Y99000D02*
D03*
X190606D02*
D03*
D72*
X13780Y103110D02*
D03*
Y113228D02*
D03*
Y122992D02*
D03*
Y133110D02*
D03*
D73*
X182500Y167500D02*
D03*
X184500Y172500D02*
D03*
X163000Y168500D02*
D03*
X142000Y107000D02*
D03*
X138000Y123500D02*
D03*
X115000Y149500D02*
D03*
X132000D02*
D03*
X115000Y154500D02*
D03*
X131500D02*
D03*
X147000Y144000D02*
D03*
Y115500D02*
D03*
X131000Y110000D02*
D03*
X131500Y118500D02*
D03*
X147000Y109500D02*
D03*
X214500Y128102D02*
D03*
X225500Y139102D02*
D03*
X211500Y147000D02*
D03*
Y153500D02*
D03*
Y160500D02*
D03*
X173668Y170000D02*
D03*
X183000Y181000D02*
D03*
X184000Y184500D02*
D03*
X187500Y175500D02*
D03*
X190500Y178000D02*
D03*
X179000Y185000D02*
D03*
X178500Y189500D02*
D03*
X21353Y124120D02*
D03*
X70500Y94721D02*
D03*
X82500Y24779D02*
D03*
X21353Y133071D02*
D03*
X172000Y200525D02*
D03*
X254102Y146500D02*
D03*
Y137000D02*
D03*
X227500Y67646D02*
D03*
X245500Y67547D02*
D03*
M02*
