G04*
G04 #@! TF.GenerationSoftware,Altium Limited,Altium Designer,21.3.2 (30)*
G04*
G04 Layer_Color=255*
%FSLAX25Y25*%
%MOIN*%
G70*
G04*
G04 #@! TF.SameCoordinates,394D426F-0CA9-4E3C-942C-AD562F4B4749*
G04*
G04*
G04 #@! TF.FilePolarity,Positive*
G04*
G01*
G75*
%ADD20R,0.04352X0.06528*%
%ADD21R,0.09843X0.03937*%
%ADD22O,0.08071X0.02362*%
%ADD23O,0.02362X0.08071*%
%ADD28R,0.04724X0.04724*%
%ADD29C,0.04724*%
%ADD32R,0.05984X0.05984*%
%ADD33C,0.05984*%
%ADD34R,0.04528X0.04528*%
%ADD35C,0.04528*%
%ADD40R,0.05591X0.05591*%
%ADD42C,0.05591*%
%ADD43C,0.13780*%
%ADD44R,0.04724X0.04724*%
%ADD46R,0.05512X0.05512*%
%ADD47C,0.05512*%
%ADD50R,0.05906X0.05906*%
%ADD51C,0.05906*%
%ADD52C,0.06299*%
G04:AMPARAMS|DCode=53|XSize=62.99mil|YSize=62.99mil|CornerRadius=15.75mil|HoleSize=0mil|Usage=FLASHONLY|Rotation=90.000|XOffset=0mil|YOffset=0mil|HoleType=Round|Shape=RoundedRectangle|*
%AMROUNDEDRECTD53*
21,1,0.06299,0.03150,0,0,90.0*
21,1,0.03150,0.06299,0,0,90.0*
1,1,0.03150,0.01575,0.01575*
1,1,0.03150,0.01575,-0.01575*
1,1,0.03150,-0.01575,-0.01575*
1,1,0.03150,-0.01575,0.01575*
%
%ADD53ROUNDEDRECTD53*%
G04:AMPARAMS|DCode=54|XSize=62.99mil|YSize=62.99mil|CornerRadius=15.75mil|HoleSize=0mil|Usage=FLASHONLY|Rotation=180.000|XOffset=0mil|YOffset=0mil|HoleType=Round|Shape=RoundedRectangle|*
%AMROUNDEDRECTD54*
21,1,0.06299,0.03150,0,0,180.0*
21,1,0.03150,0.06299,0,0,180.0*
1,1,0.03150,-0.01575,0.01575*
1,1,0.03150,0.01575,0.01575*
1,1,0.03150,0.01575,-0.01575*
1,1,0.03150,-0.01575,-0.01575*
%
%ADD54ROUNDEDRECTD54*%
%ADD55C,0.08858*%
%ADD56C,0.06000*%
D20*
X167975Y171000D02*
D03*
X178025D02*
D03*
X318975Y89500D02*
D03*
X329025D02*
D03*
X234975Y105000D02*
D03*
X245025D02*
D03*
D21*
X276287Y116776D02*
D03*
Y126618D02*
D03*
D22*
X203543Y153543D02*
D03*
Y150394D02*
D03*
Y147244D02*
D03*
Y144095D02*
D03*
Y140945D02*
D03*
Y137795D02*
D03*
Y134646D02*
D03*
Y131496D02*
D03*
Y128347D02*
D03*
Y125197D02*
D03*
Y122047D02*
D03*
X158661D02*
D03*
Y125197D02*
D03*
Y128347D02*
D03*
Y131496D02*
D03*
Y134646D02*
D03*
Y137795D02*
D03*
Y140945D02*
D03*
Y144095D02*
D03*
Y147244D02*
D03*
Y150394D02*
D03*
Y153543D02*
D03*
D23*
X196850Y115354D02*
D03*
X193701D02*
D03*
X190551D02*
D03*
X187402D02*
D03*
X184252D02*
D03*
X181102D02*
D03*
X177953D02*
D03*
X174803D02*
D03*
X171653D02*
D03*
X168504D02*
D03*
X165354D02*
D03*
Y160236D02*
D03*
X168504D02*
D03*
X171653D02*
D03*
X174803D02*
D03*
X177953D02*
D03*
X181102D02*
D03*
X184252D02*
D03*
X187402D02*
D03*
X190551D02*
D03*
X193701D02*
D03*
X196850D02*
D03*
D28*
X268000Y90626D02*
D03*
X298500Y81563D02*
D03*
X268500Y65000D02*
D03*
D29*
X268000Y98500D02*
D03*
X171394Y99000D02*
D03*
X190606D02*
D03*
X13780Y165354D02*
D03*
X201126Y180500D02*
D03*
X298500Y89437D02*
D03*
X210343Y83500D02*
D03*
X151657D02*
D03*
X268500Y72874D02*
D03*
D32*
X318898Y103110D02*
D03*
D33*
Y113110D02*
D03*
Y123110D02*
D03*
Y133110D02*
D03*
D34*
X100000Y212500D02*
D03*
D35*
X90000Y222500D02*
D03*
X80000Y212500D02*
D03*
D40*
X182087Y62362D02*
D03*
D42*
Y54488D02*
D03*
X172244D02*
D03*
Y62362D02*
D03*
D43*
X200866Y43819D02*
D03*
X153465D02*
D03*
D44*
X21654Y165354D02*
D03*
X209000Y180500D02*
D03*
X190657Y83500D02*
D03*
X171343D02*
D03*
D46*
X125311Y181102D02*
D03*
X123622Y51181D02*
D03*
D47*
X135547Y181102D02*
D03*
X145783D02*
D03*
X137795Y70866D02*
D03*
Y31496D02*
D03*
D50*
X265000Y117000D02*
D03*
D51*
Y127000D02*
D03*
Y137000D02*
D03*
Y147000D02*
D03*
X235000Y117000D02*
D03*
Y127000D02*
D03*
Y137000D02*
D03*
Y147000D02*
D03*
X254000Y167500D02*
D03*
Y177500D02*
D03*
D52*
X82677Y94488D02*
D03*
Y84488D02*
D03*
Y104488D02*
D03*
Y114488D02*
D03*
X162165Y207598D02*
D03*
Y217598D02*
D03*
X172165Y207598D02*
D03*
X182165D02*
D03*
X172165Y217598D02*
D03*
X182165D02*
D03*
X192165Y207598D02*
D03*
Y217598D02*
D03*
X202165Y207598D02*
D03*
Y217598D02*
D03*
X212165Y207598D02*
D03*
Y217598D02*
D03*
X222165Y207598D02*
D03*
X152165Y217598D02*
D03*
X142165D02*
D03*
X132165D02*
D03*
X152165Y207598D02*
D03*
X142165D02*
D03*
X132165D02*
D03*
D53*
X82677Y74488D02*
D03*
D54*
X222165Y217598D02*
D03*
D55*
X236221Y80709D02*
D03*
Y21654D02*
D03*
D56*
X13780Y103110D02*
D03*
Y113228D02*
D03*
Y122992D02*
D03*
Y133110D02*
D03*
M02*
