G04*
G04 #@! TF.GenerationSoftware,Altium Limited,Altium Designer,21.3.2 (30)*
G04*
G04 Layer_Color=65535*
%FSLAX25Y25*%
%MOIN*%
G70*
G04*
G04 #@! TF.SameCoordinates,394D426F-0CA9-4E3C-942C-AD562F4B4749*
G04*
G04*
G04 #@! TF.FilePolarity,Positive*
G04*
G01*
G75*
%ADD10C,0.00787*%
%ADD11C,0.00984*%
%ADD12C,0.02362*%
%ADD13C,0.00591*%
%ADD14C,0.00500*%
%ADD15C,0.01000*%
%ADD16C,0.00600*%
%ADD17C,0.00394*%
%ADD18R,0.17717X0.03150*%
%ADD19R,0.06000X0.49000*%
D10*
X252500Y112315D02*
G03*
X247500Y112315I-2500J0D01*
G01*
X143930Y185017D02*
G03*
X127371Y185433I-8383J-3914D01*
G01*
X143161Y175846D02*
G03*
X143931Y177189I-7614J5256D01*
G01*
X127371Y176773D02*
G03*
X127933Y175846I8177J4329D01*
G01*
X194189Y89846D02*
G03*
X194189Y108153I0J9154D01*
G01*
X167811D02*
G03*
X167811Y89846I0J-9154D01*
G01*
X171332Y167555D02*
X174668D01*
X171332Y174445D02*
X174668D01*
X260433Y112315D02*
Y151685D01*
X239567Y112315D02*
Y151685D01*
X252500Y112315D02*
X260433D01*
X239567D02*
X247500D01*
X239567Y151685D02*
X260433D01*
X285244Y117760D02*
X309653D01*
X285244D02*
Y125634D01*
X309653D01*
Y117760D02*
Y125634D01*
X262094Y86098D02*
X273905D01*
X77382Y120079D02*
X87972D01*
X77382Y68898D02*
Y120079D01*
Y68898D02*
X87972D01*
Y120079D01*
X313740Y97618D02*
Y138602D01*
X324055D01*
Y97618D02*
Y138602D01*
X313740Y97618D02*
X324055D01*
X109095Y210138D02*
Y229823D01*
X70906Y210138D02*
X76260D01*
X103740D02*
X109095D01*
X70906D02*
Y229823D01*
X109095D01*
X127933Y175847D02*
X143161D01*
X242638Y194882D02*
Y230315D01*
X111693D02*
X242638D01*
X111693Y194882D02*
X242638D01*
X111693D02*
Y230315D01*
X217717Y3150D02*
Y99213D01*
Y3150D02*
X254724D01*
Y99213D01*
X217717D02*
X254724D01*
X167811Y108153D02*
X194189D01*
X167811Y89846D02*
X194189D01*
X153051Y52185D02*
Y70768D01*
Y5118D02*
Y35453D01*
X201279Y52185D02*
Y70768D01*
Y5118D02*
Y35453D01*
X153051Y70768D02*
X201279D01*
X26181Y159449D02*
Y171260D01*
X213528Y174594D02*
Y186406D01*
X292595Y77035D02*
X304405D01*
X164370Y121063D02*
Y154528D01*
X197835Y121063D02*
Y154528D01*
X164370Y121063D02*
X197835D01*
X164370Y154528D02*
X197835D01*
X193413Y87339D02*
Y88421D01*
Y78579D02*
Y79661D01*
Y78579D02*
X207587D01*
Y87339D02*
Y88421D01*
Y78579D02*
Y79661D01*
X193413Y88421D02*
X207587D01*
X168587Y78579D02*
Y79661D01*
Y87339D02*
Y88421D01*
X154413D02*
X168587D01*
X154413Y78579D02*
Y79661D01*
Y87339D02*
Y88421D01*
Y78579D02*
X168587D01*
X322332Y86055D02*
X325668D01*
X322332Y92945D02*
X325668D01*
X262595Y60472D02*
X274406D01*
X118012Y5413D02*
X141831D01*
Y75098D02*
Y96949D01*
Y35728D02*
Y66634D01*
Y5413D02*
Y27264D01*
X118012Y96949D02*
X141831D01*
X118012Y5413D02*
Y96949D01*
X238332Y101555D02*
X241668D01*
X238332Y108445D02*
X241668D01*
D11*
X265492Y111882D02*
G03*
X265492Y111882I-492J0D01*
G01*
X319390Y95256D02*
G03*
X319390Y95256I-492J0D01*
G01*
X120882Y181102D02*
G03*
X120882Y181102I-492J0D01*
G01*
X204134Y62362D02*
G03*
X204134Y62362I-492J0D01*
G01*
X200689Y160236D02*
G03*
X200689Y160236I-492J0D01*
G01*
X116634Y51181D02*
G03*
X116634Y51181I-492J0D01*
G01*
D12*
X257677Y116252D02*
G03*
X257677Y116252I-1181J0D01*
G01*
X195079Y150591D02*
G03*
X195079Y150591I-1181J0D01*
G01*
D13*
X278827Y94563D02*
G03*
X278827Y94563I-10827J0D01*
G01*
X249278Y179168D02*
G03*
X251168Y164614I4722J-6786D01*
G01*
X256832D02*
G03*
X258722Y179168I-2832J7768D01*
G01*
X28543Y165354D02*
G03*
X28543Y165354I-10827J0D01*
G01*
X215890Y180500D02*
G03*
X215890Y180500I-10827J0D01*
G01*
X309327Y85500D02*
G03*
X309327Y85500I-10827J0D01*
G01*
X279327Y68937D02*
G03*
X279327Y68937I-10827J0D01*
G01*
X249278Y179168D02*
X250260D01*
X257740D02*
X258722D01*
D14*
X311417Y78740D02*
X350787D01*
X311417Y157480D02*
X350787D01*
Y78740D02*
Y157480D01*
X311417Y78740D02*
Y157480D01*
X61024Y9843D02*
X112205D01*
X61024Y179134D02*
X112205D01*
Y9843D02*
Y179134D01*
X61024Y9843D02*
Y179134D01*
D15*
X2953Y93504D02*
Y142717D01*
X24606Y93504D02*
Y142717D01*
X2953D02*
X24606D01*
X2953Y93504D02*
X24606D01*
X90500Y113000D02*
Y116936D01*
X92468D01*
X93124Y116280D01*
Y114968D01*
X92468Y114312D01*
X90500D01*
X97060Y116280D02*
X96404Y116936D01*
X95092D01*
X94436Y116280D01*
Y113656D01*
X95092Y113000D01*
X96404D01*
X97060Y113656D01*
Y114968D01*
X95748D01*
X100995Y116280D02*
X100339Y116936D01*
X99027D01*
X98371Y116280D01*
Y113656D01*
X99027Y113000D01*
X100339D01*
X100995Y113656D01*
X90500Y102000D02*
Y105936D01*
X92468D01*
X93124Y105280D01*
Y103968D01*
X92468Y103312D01*
X90500D01*
X97060Y105280D02*
X96404Y105936D01*
X95092D01*
X94436Y105280D01*
Y102656D01*
X95092Y102000D01*
X96404D01*
X97060Y102656D01*
Y103968D01*
X95748D01*
X98371Y105936D02*
Y102000D01*
X100339D01*
X100995Y102656D01*
Y105280D01*
X100339Y105936D01*
X98371D01*
X90500Y85936D02*
Y83312D01*
X91812Y82000D01*
X93124Y83312D01*
Y85936D01*
X97060Y85280D02*
X96404Y85936D01*
X95092D01*
X94436Y85280D01*
Y82656D01*
X95092Y82000D01*
X96404D01*
X97060Y82656D01*
X100995Y85280D02*
X100339Y85936D01*
X99027D01*
X98371Y85280D01*
Y82656D01*
X99027Y82000D01*
X100339D01*
X100995Y82656D01*
X93124Y95280D02*
X92468Y95936D01*
X91156D01*
X90500Y95280D01*
Y92656D01*
X91156Y92000D01*
X92468D01*
X93124Y92656D01*
Y93968D01*
X91812D01*
X94436Y92000D02*
Y95936D01*
X97060Y92000D01*
Y95936D01*
X98371D02*
Y92000D01*
X100339D01*
X100995Y92656D01*
Y95280D01*
X100339Y95936D01*
X98371D01*
X90500Y75936D02*
Y73312D01*
X91812Y72000D01*
X93124Y73312D01*
Y75936D01*
X94436Y72000D02*
Y75936D01*
X96404D01*
X97060Y75280D01*
Y73968D01*
X96404Y73312D01*
X94436D01*
X98371Y72000D02*
Y75936D01*
X100339D01*
X100995Y75280D01*
Y73968D01*
X100339Y73312D01*
X98371D01*
X327000Y131000D02*
Y134936D01*
X328968D01*
X329624Y134280D01*
Y132968D01*
X328968Y132312D01*
X327000D01*
X328312D02*
X329624Y131000D01*
X330936Y134936D02*
X333560Y131000D01*
Y134936D02*
X330936Y131000D01*
X327000Y124936D02*
X329624D01*
X328312D01*
Y121000D01*
X330936Y124936D02*
X333560Y121000D01*
Y124936D02*
X330936Y121000D01*
X329624Y114280D02*
X328968Y114936D01*
X327656D01*
X327000Y114280D01*
Y111656D01*
X327656Y111000D01*
X328968D01*
X329624Y111656D01*
Y112968D01*
X328312D01*
X330936Y111000D02*
Y114936D01*
X333560Y111000D01*
Y114936D01*
X334872D02*
Y111000D01*
X336839D01*
X337495Y111656D01*
Y114280D01*
X336839Y114936D01*
X334872D01*
X327000Y104936D02*
Y102312D01*
X328312Y101000D01*
X329624Y102312D01*
Y104936D01*
X333560Y104280D02*
X332904Y104936D01*
X331592D01*
X330936Y104280D01*
Y101656D01*
X331592Y101000D01*
X332904D01*
X333560Y101656D01*
X337495Y104280D02*
X336839Y104936D01*
X335527D01*
X334872Y104280D01*
Y101656D01*
X335527Y101000D01*
X336839D01*
X337495Y101656D01*
X21779Y139610D02*
Y140610D01*
X22779D01*
Y139610D01*
X21779D01*
X296224Y70280D02*
X295568Y70936D01*
X294256D01*
X293600Y70280D01*
Y67656D01*
X294256Y67000D01*
X295568D01*
X296224Y67656D01*
X297536Y67000D02*
X298848D01*
X298192D01*
Y70936D01*
X297536Y70280D01*
X302783Y67000D02*
Y70936D01*
X300816Y68968D01*
X303439D01*
X280704Y106312D02*
X280048Y106968D01*
X278736D01*
X278080Y106312D01*
Y103688D01*
X278736Y103032D01*
X280048D01*
X280704Y103688D01*
X282016Y103032D02*
X283328D01*
X282672D01*
Y106968D01*
X282016Y106312D01*
X285296D02*
X285952Y106968D01*
X287264D01*
X287920Y106312D01*
Y105656D01*
X287264Y105000D01*
X286608D01*
X287264D01*
X287920Y104344D01*
Y103688D01*
X287264Y103032D01*
X285952D01*
X285296Y103688D01*
X15424Y183280D02*
X14768Y183936D01*
X13456D01*
X12800Y183280D01*
Y180656D01*
X13456Y180000D01*
X14768D01*
X15424Y180656D01*
X16736Y180000D02*
X18048D01*
X17392D01*
Y183936D01*
X16736Y183280D01*
X22639Y180000D02*
X20016D01*
X22639Y182624D01*
Y183280D01*
X21983Y183936D01*
X20672D01*
X20016Y183280D01*
X222324Y181780D02*
X221668Y182436D01*
X220356D01*
X219700Y181780D01*
Y179156D01*
X220356Y178500D01*
X221668D01*
X222324Y179156D01*
X223636Y178500D02*
X224948D01*
X224292D01*
Y182436D01*
X223636Y181780D01*
X226916Y178500D02*
X228227D01*
X227572D01*
Y182436D01*
X226916Y181780D01*
X301220Y111468D02*
Y110812D01*
X302532Y109500D01*
X303844Y110812D01*
Y111468D01*
X302532Y109500D02*
Y107532D01*
X307780D02*
X305156D01*
X307780Y110156D01*
Y110812D01*
X307124Y111468D01*
X305812D01*
X305156Y110812D01*
X206800Y100936D02*
Y100280D01*
X208112Y98968D01*
X209424Y100280D01*
Y100936D01*
X208112Y98968D02*
Y97000D01*
X210736D02*
X212048D01*
X211392D01*
Y100936D01*
X210736Y100280D01*
X158805Y76468D02*
Y73844D01*
X160117Y72532D01*
X161429Y73844D01*
Y76468D01*
X162741D02*
X164053D01*
X163397D01*
Y72532D01*
X162741D01*
X164053D01*
X166021D02*
Y76468D01*
X168645Y72532D01*
Y76468D01*
X173892Y74500D02*
X176516D01*
X184388Y76468D02*
X181764D01*
Y74500D01*
X183076Y75156D01*
X183732D01*
X184388Y74500D01*
Y73188D01*
X183732Y72532D01*
X182420D01*
X181764Y73188D01*
X185699Y75156D02*
X187011Y72532D01*
X188323Y75156D01*
X192259Y76468D02*
Y72532D01*
X190291D01*
X189635Y73188D01*
Y74500D01*
X190291Y75156D01*
X192259D01*
X196195D02*
X194227D01*
X193571Y74500D01*
Y73188D01*
X194227Y72532D01*
X196195D01*
X144400Y139736D02*
Y136456D01*
X145056Y135800D01*
X146368D01*
X147024Y136456D01*
Y139736D01*
X148336Y135800D02*
X149648D01*
X148992D01*
Y139736D01*
X148336Y139080D01*
X134224Y169056D02*
Y171680D01*
X133568Y172336D01*
X132256D01*
X131600Y171680D01*
Y169056D01*
X132256Y168400D01*
X133568D01*
X132912Y169712D02*
X134224Y168400D01*
X133568D02*
X134224Y169056D01*
X135536Y168400D02*
X136848D01*
X136192D01*
Y172336D01*
X135536Y171680D01*
X80612Y186468D02*
X81924D01*
X81268D01*
Y182532D01*
X80612D01*
X81924D01*
X86516Y185812D02*
X85860Y186468D01*
X84548D01*
X83892Y185812D01*
Y183188D01*
X84548Y182532D01*
X85860D01*
X86516Y183188D01*
X90452Y185812D02*
X89796Y186468D01*
X88484D01*
X87828Y185812D01*
Y185156D01*
X88484Y184500D01*
X89796D01*
X90452Y183844D01*
Y183188D01*
X89796Y182532D01*
X88484D01*
X87828Y183188D01*
X91764Y182532D02*
Y186468D01*
X93732D01*
X94388Y185812D01*
Y184500D01*
X93732Y183844D01*
X91764D01*
X321817Y163968D02*
Y160032D01*
Y162000D01*
X324440D01*
Y163968D01*
Y160032D01*
X328376Y163312D02*
X327720Y163968D01*
X326408D01*
X325752Y163312D01*
Y160688D01*
X326408Y160032D01*
X327720D01*
X328376Y160688D01*
X329688Y162000D02*
X332312D01*
X333624Y163312D02*
X334280Y163968D01*
X335592D01*
X336248Y163312D01*
Y160688D01*
X335592Y160032D01*
X334280D01*
X333624Y160688D01*
Y163312D01*
X340183Y163968D02*
X338872Y163312D01*
X337560Y162000D01*
Y160688D01*
X338215Y160032D01*
X339527D01*
X340183Y160688D01*
Y161344D01*
X339527Y162000D01*
X337560D01*
X260101Y10968D02*
X257477D01*
Y9000D01*
X258789D01*
X257477D01*
Y7032D01*
X261413Y10968D02*
Y7688D01*
X262069Y7032D01*
X263381D01*
X264037Y7688D01*
Y10968D01*
X267973Y10312D02*
X267317Y10968D01*
X266005D01*
X265349Y10312D01*
Y9656D01*
X266005Y9000D01*
X267317D01*
X267973Y8344D01*
Y7688D01*
X267317Y7032D01*
X266005D01*
X265349Y7688D01*
X271908Y10968D02*
X269285D01*
Y7032D01*
X271908D01*
X269285Y9000D02*
X270596D01*
X279780Y10968D02*
X277156D01*
Y9000D01*
X278468Y9656D01*
X279124D01*
X279780Y9000D01*
Y7688D01*
X279124Y7032D01*
X277812D01*
X277156Y7688D01*
X281092Y10312D02*
X281748Y10968D01*
X283060D01*
X283716Y10312D01*
Y7688D01*
X283060Y7032D01*
X281748D01*
X281092Y7688D01*
Y10312D01*
X285027D02*
X285683Y10968D01*
X286995D01*
X287651Y10312D01*
Y7688D01*
X286995Y7032D01*
X285683D01*
X285027Y7688D01*
Y10312D01*
X288963Y7032D02*
Y9656D01*
X289619D01*
X290275Y9000D01*
Y7032D01*
Y9000D01*
X290931Y9656D01*
X291587Y9000D01*
Y7032D01*
X292899D02*
Y9656D01*
X294211Y10968D01*
X295523Y9656D01*
Y7032D01*
Y9000D01*
X292899D01*
X239200Y159736D02*
Y155800D01*
X241168D01*
X241824Y156456D01*
Y159080D01*
X241168Y159736D01*
X239200D01*
X245760Y159080D02*
X245104Y159736D01*
X243792D01*
X243136Y159080D01*
Y158424D01*
X243792Y157768D01*
X245104D01*
X245760Y157112D01*
Y156456D01*
X245104Y155800D01*
X243792D01*
X243136Y156456D01*
X247072Y155800D02*
X248383D01*
X247727D01*
Y159736D01*
X247072Y159080D01*
X250351D02*
X251007Y159736D01*
X252319D01*
X252975Y159080D01*
Y158424D01*
X252319Y157768D01*
X251663D01*
X252319D01*
X252975Y157112D01*
Y156456D01*
X252319Y155800D01*
X251007D01*
X250351Y156456D01*
X254287Y159080D02*
X254943Y159736D01*
X256255D01*
X256911Y159080D01*
Y156456D01*
X256255Y155800D01*
X254943D01*
X254287Y156456D01*
Y159080D01*
X258223Y159736D02*
X260847D01*
Y159080D01*
X258223Y156456D01*
Y155800D01*
X7726Y151227D02*
Y147291D01*
X9694D01*
X10350Y147947D01*
Y150571D01*
X9694Y151227D01*
X7726D01*
X11662D02*
Y147291D01*
Y149259D01*
X14286D01*
Y151227D01*
Y147291D01*
X15597Y151227D02*
X18221D01*
X16909D01*
Y147291D01*
X19533D02*
X20845D01*
X20189D01*
Y151227D01*
X19533Y150571D01*
X22813Y147291D02*
X24125D01*
X23469D01*
Y151227D01*
X22813Y150571D01*
X120324Y103980D02*
X119668Y104636D01*
X118356D01*
X117700Y103980D01*
Y101356D01*
X118356Y100700D01*
X119668D01*
X120324Y101356D01*
X121636Y100700D02*
Y104636D01*
X123604D01*
X124260Y103980D01*
Y102668D01*
X123604Y102012D01*
X121636D01*
X122948D02*
X124260Y100700D01*
X128195D02*
X125572D01*
X128195Y103324D01*
Y103980D01*
X127539Y104636D01*
X126227D01*
X125572Y103980D01*
X129507D02*
X130163Y104636D01*
X131475D01*
X132131Y103980D01*
Y101356D01*
X131475Y100700D01*
X130163D01*
X129507Y101356D01*
Y103980D01*
X133443D02*
X134099Y104636D01*
X135411D01*
X136067Y103980D01*
Y103324D01*
X135411Y102668D01*
X134755D01*
X135411D01*
X136067Y102012D01*
Y101356D01*
X135411Y100700D01*
X134099D01*
X133443Y101356D01*
X140003Y100700D02*
X137379D01*
X140003Y103324D01*
Y103980D01*
X139347Y104636D01*
X138035D01*
X137379Y103980D01*
X249124Y213580D02*
X248468Y214236D01*
X247156D01*
X246500Y213580D01*
Y210956D01*
X247156Y210300D01*
X248468D01*
X249124Y210956D01*
X250436Y210300D02*
Y214236D01*
X253060Y210300D01*
Y214236D01*
X254372Y212268D02*
X256995D01*
X258307Y210300D02*
Y214236D01*
X260275D01*
X260931Y213580D01*
Y212268D01*
X260275Y211612D01*
X258307D01*
X264867Y213580D02*
X264211Y214236D01*
X262899D01*
X262243Y213580D01*
Y210956D01*
X262899Y210300D01*
X264211D01*
X264867Y210956D01*
X266179Y214236D02*
Y210300D01*
X268147D01*
X268802Y210956D01*
Y211612D01*
X268147Y212268D01*
X266179D01*
X268147D01*
X268802Y212924D01*
Y213580D01*
X268147Y214236D01*
X266179D01*
X270114Y212268D02*
X272738D01*
X276674Y214236D02*
X274050D01*
Y212268D01*
X275362D01*
X274050D01*
Y210300D01*
X277986D02*
Y214236D01*
X279954D01*
X280610Y213580D01*
Y212268D01*
X279954Y211612D01*
X277986D01*
X279298D02*
X280610Y210300D01*
X283890Y214236D02*
X282578D01*
X281922Y213580D01*
Y210956D01*
X282578Y210300D01*
X283890D01*
X284545Y210956D01*
Y213580D01*
X283890Y214236D01*
X285857Y210300D02*
Y214236D01*
X288481Y210300D01*
Y214236D01*
X289793D02*
X292417D01*
X291105D01*
Y210300D01*
X337624Y90780D02*
X336968Y91436D01*
X335656D01*
X335000Y90780D01*
Y88156D01*
X335656Y87500D01*
X336968D01*
X337624Y88156D01*
X338936D02*
X339592Y87500D01*
X340904D01*
X341560Y88156D01*
Y90780D01*
X340904Y91436D01*
X339592D01*
X338936Y90780D01*
Y90124D01*
X339592Y89468D01*
X341560D01*
X225124Y106280D02*
X224468Y106936D01*
X223156D01*
X222500Y106280D01*
Y103656D01*
X223156Y103000D01*
X224468D01*
X225124Y103656D01*
X226436Y106936D02*
X229060D01*
Y106280D01*
X226436Y103656D01*
Y103000D01*
X209844Y76312D02*
X209188Y76968D01*
X207876D01*
X207220Y76312D01*
Y73688D01*
X207876Y73032D01*
X209188D01*
X209844Y73688D01*
X213124Y73032D02*
Y76968D01*
X211156Y75000D01*
X213780D01*
X148844Y94312D02*
X148188Y94968D01*
X146876D01*
X146220Y94312D01*
Y91688D01*
X146876Y91032D01*
X148188D01*
X148844Y91688D01*
X150156Y94312D02*
X150812Y94968D01*
X152124D01*
X152780Y94312D01*
Y93656D01*
X152124Y93000D01*
X151468D01*
X152124D01*
X152780Y92344D01*
Y91688D01*
X152124Y91032D01*
X150812D01*
X150156Y91688D01*
X155344Y171812D02*
X154688Y172468D01*
X153376D01*
X152720Y171812D01*
Y169188D01*
X153376Y168532D01*
X154688D01*
X155344Y169188D01*
X159280Y168532D02*
X156656D01*
X159280Y171156D01*
Y171812D01*
X158624Y172468D01*
X157312D01*
X156656Y171812D01*
X268524Y53680D02*
X267868Y54336D01*
X266556D01*
X265900Y53680D01*
Y51056D01*
X266556Y50400D01*
X267868D01*
X268524Y51056D01*
X269836Y50400D02*
X271148D01*
X270492D01*
Y54336D01*
X269836Y53680D01*
X61664Y205299D02*
Y201363D01*
X63632D01*
X64288Y202019D01*
Y202675D01*
X63632Y203331D01*
X61664D01*
X63632D01*
X64288Y203987D01*
Y204643D01*
X63632Y205299D01*
X61664D01*
X65600Y201363D02*
Y205299D01*
X67568D01*
X68224Y204643D01*
Y203331D01*
X67568Y202675D01*
X65600D01*
X66912D02*
X68224Y201363D01*
X69536Y205299D02*
X70848D01*
X70192D01*
Y201363D01*
X69536D01*
X70848D01*
X72816Y205299D02*
Y201363D01*
X75440D01*
X76752Y205299D02*
Y201363D01*
X79375D01*
X82655Y205299D02*
X81343D01*
X80687Y204643D01*
Y202019D01*
X81343Y201363D01*
X82655D01*
X83311Y202019D01*
Y204643D01*
X82655Y205299D01*
X88559D02*
Y201363D01*
X91183D01*
X95118Y204643D02*
X94462Y205299D01*
X93150D01*
X92494Y204643D01*
Y202019D01*
X93150Y201363D01*
X94462D01*
X95118Y202019D01*
X96430Y205299D02*
Y201363D01*
X98398D01*
X99054Y202019D01*
Y204643D01*
X98398Y205299D01*
X96430D01*
X266200Y168900D02*
X267512D01*
X266856D01*
Y172836D01*
X266200Y172180D01*
X269480Y172836D02*
Y168900D01*
Y170868D01*
X272104D01*
Y172836D01*
Y168900D01*
X273415Y171524D02*
X276039D01*
X273415Y168900D01*
X276039D01*
D16*
X71986Y115658D02*
Y112992D01*
X73985D01*
X73318Y114325D01*
Y114991D01*
X73985Y115658D01*
X75318D01*
X75984Y114991D01*
Y113659D01*
X75318Y112992D01*
X75984Y74016D02*
Y75349D01*
Y74682D01*
X71986D01*
X72652Y74016D01*
D17*
X258301Y162849D02*
X261000D01*
X259650Y161500D02*
Y164199D01*
D18*
X177165Y228740D02*
D03*
D19*
X5780Y118110D02*
D03*
M02*
