M48
;Layer_Color=9474304
;FILE_FORMAT=2:5
INCH,LZ
;TYPE=PLATED
T1F00S00C0.01181
T2F00S00C0.02559
T3F00S00C0.02756
T4F00S00C0.03000
T5F00S00C0.03543
T6F00S00C0.03622
T7F00S00C0.03937
T8F00S00C0.04016
T9F00S00C0.04331
T10F00S00C0.05906
T11F00S00C0.09055
%
T01
X00825Y0024779
X00705Y0094721
X0131Y011
X01315Y01185
X0138Y01235
X0147Y01155
Y01095
X0142Y0107
X0147Y0144
X0132Y01495
X01315Y01545
X0115
Y01495
X0021353Y0133071
Y012412
X02145Y0128102
X02115Y0147
Y01535
X02255Y0139102
X0254102Y0137
Y01465
X02455Y0067547
X02275Y0067646
X02115Y01605
X01825Y01675
X01845Y01725
X01875Y01755
X01905Y0178
X0183Y0181
X0184Y01845
X0179Y0185
X01785Y01895
X0172Y0200525
X0173668Y017
X0163Y01685
T02
X008Y02125
X01
X009Y02225
T03
X0151657Y00835
X0171343
X0171394Y0099
X0190606
X0190657Y00835
X0210343
X0268Y0090626
Y00985
X02685Y0072874
Y0065
X02985Y0081563
Y0089437
X0209Y01805
X0201126
X0021654Y0165354
X001378
T04
X001378Y010311
Y0113228
Y0122992
Y013311
T05
X0137795Y0031496
X0123622Y0051181
X0137795Y0070866
X0235Y0117
Y0127
Y0137
Y0147
X0265
Y0137
Y0127
Y0117
X0145783Y0181102
X0135547
X0125311
T06
X0172244Y0054488
Y0062362
X0182087
Y0054488
T07
X0254Y01675
Y01775
T08
X0318898Y010311
Y011311
Y012311
Y013311
T09
X0082677Y0074488
Y0084488
Y0094488
Y0104488
Y0114488
X0162165Y0207598
Y0217598
X0172165
Y0207598
X0182165
Y0217598
X0192165
Y0207598
X0202165
Y0217598
X0212165
Y0207598
X0222165
Y0217598
X0152165
X0142165
X0132165
Y0207598
X0142165
X0152165
T10
X0236221Y0021654
Y0080709
T11
X0153465Y0043819
X0200866
M30
