G04*
G04 #@! TF.GenerationSoftware,Altium Limited,Altium Designer,21.3.2 (30)*
G04*
G04 Layer_Color=8388736*
%FSLAX25Y25*%
%MOIN*%
G70*
G04*
G04 #@! TF.SameCoordinates,C5F37314-CDAC-41E9-AC7F-4832BFE522EA*
G04*
G04*
G04 #@! TF.FilePolarity,Negative*
G04*
G01*
G75*
%ADD13C,0.11824*%
%ADD14C,0.04528*%
%ADD15R,0.04528X0.04528*%
%ADD16C,0.06706*%
%ADD17C,0.07099*%
G04:AMPARAMS|DCode=18|XSize=70.99mil|YSize=70.99mil|CornerRadius=19.75mil|HoleSize=0mil|Usage=FLASHONLY|Rotation=180.000|XOffset=0mil|YOffset=0mil|HoleType=Round|Shape=RoundedRectangle|*
%AMROUNDEDRECTD18*
21,1,0.07099,0.03150,0,0,180.0*
21,1,0.03150,0.07099,0,0,180.0*
1,1,0.03950,-0.01575,0.01575*
1,1,0.03950,0.01575,0.01575*
1,1,0.03950,0.01575,-0.01575*
1,1,0.03950,-0.01575,-0.01575*
%
%ADD18ROUNDEDRECTD18*%
%ADD19R,0.08200X0.08200*%
%ADD20C,0.08200*%
D13*
X334646Y149606D02*
D03*
X59055Y157480D02*
D03*
Y196850D02*
D03*
X314961Y236221D02*
D03*
D14*
X289000Y79158D02*
D03*
D15*
Y98843D02*
D03*
D16*
X91535Y69882D02*
D03*
Y87598D02*
D03*
X65945Y69882D02*
D03*
Y87598D02*
D03*
D17*
X181850Y201850D02*
D03*
Y191850D02*
D03*
X191850Y201850D02*
D03*
X201850D02*
D03*
X191850Y191850D02*
D03*
X201850D02*
D03*
X211850Y201850D02*
D03*
Y191850D02*
D03*
X221850Y201850D02*
D03*
Y191850D02*
D03*
X231850Y201850D02*
D03*
Y191850D02*
D03*
X241850Y201850D02*
D03*
X171850Y191850D02*
D03*
X161850D02*
D03*
X151850D02*
D03*
X171850Y201850D02*
D03*
X161850D02*
D03*
X151850D02*
D03*
X171850Y78740D02*
D03*
X181850D02*
D03*
X201850D02*
D03*
X211850D02*
D03*
X191850D02*
D03*
D18*
X241850Y191850D02*
D03*
X221850Y78740D02*
D03*
D19*
X70866Y257874D02*
D03*
D20*
X80866D02*
D03*
X90866D02*
D03*
X100866D02*
D03*
X110866D02*
D03*
X120866D02*
D03*
X130866D02*
D03*
X140866D02*
D03*
X150866D02*
D03*
X160866D02*
D03*
X170866D02*
D03*
X180866D02*
D03*
X190866D02*
D03*
X200866D02*
D03*
X210866D02*
D03*
X220866D02*
D03*
M02*
