M48
;Layer_Color=9474304
;FILE_FORMAT=2:5
INCH,TZ
;TYPE=PLATED
T1F00S00C0.02559
T2F00S00C0.03937
T3F00S00C0.04000
T4F00S00C0.04331
%
T01
X289000Y79158
Y98843
T02
X65945Y69882
Y87598
X91535
Y69882
T03
X160866Y257874
X170866
X180866
X190866
X200866
X210866
X220866
X150866
X140866
X130866
X120866
X110866
X100866
X90866
X80866
X70866
T04
X171850Y78740
X181850
X191850
X201850
X211850
X221850
Y191850
X211850
X201850
Y201850
X191850
X181850
Y191850
X191850
X171850
X161850
Y201850
X171850
X211850
X221850
X231850
Y191850
X241850
Y201850
X151850
Y191850
M30
