G04*
G04 #@! TF.GenerationSoftware,Altium Limited,Altium Designer,21.3.2 (30)*
G04*
G04 Layer_Color=8388736*
%FSLAX25Y25*%
%MOIN*%
G70*
G04*
G04 #@! TF.SameCoordinates,C5F37314-CDAC-41E9-AC7F-4832BFE522EA*
G04*
G04*
G04 #@! TF.FilePolarity,Positive*
G04*
G01*
G75*
%ADD10C,0.00787*%
%ADD29C,0.00591*%
%ADD32C,0.00394*%
%ADD33R,0.17717X0.02854*%
D10*
X69685Y271654D02*
X82284D01*
X69685Y265354D02*
Y271654D01*
Y265354D02*
X82284D01*
Y271654D01*
D29*
X314787Y89000D02*
X314768Y90000D01*
X314710Y90998D01*
X314613Y91994D01*
X314478Y92985D01*
X314304Y93970D01*
X314092Y94947D01*
X313843Y95916D01*
X313556Y96874D01*
X313232Y97820D01*
X312872Y98753D01*
X312476Y99671D01*
X312045Y100573D01*
X311578Y101458D01*
X311078Y102324D01*
X310545Y103170D01*
X309979Y103995D01*
X309382Y104797D01*
X308754Y105576D01*
X308097Y106329D01*
X307410Y107057D01*
X306696Y107757D01*
X305956Y108429D01*
X305190Y109072D01*
X304399Y109685D01*
X303586Y110266D01*
X302750Y110816D01*
X301894Y111332D01*
X301018Y111816D01*
X300124Y112265D01*
X299214Y112678D01*
X298288Y113057D01*
X297348Y113399D01*
X296396Y113704D01*
X295432Y113972D01*
X294459Y114203D01*
X293478Y114396D01*
X292490Y114550D01*
X291496Y114666D01*
X290499Y114744D01*
X289500Y114783D01*
X288500D01*
X287501Y114744D01*
X286504Y114666D01*
X285510Y114550D01*
X284522Y114396D01*
X283541Y114203D01*
X282568Y113972D01*
X281604Y113704D01*
X280652Y113399D01*
X279712Y113057D01*
X278786Y112678D01*
X277876Y112265D01*
X276982Y111816D01*
X276106Y111332D01*
X275250Y110816D01*
X274414Y110266D01*
X273601Y109685D01*
X272810Y109072D01*
X272044Y108429D01*
X271304Y107757D01*
X270590Y107057D01*
X269903Y106329D01*
X269246Y105576D01*
X268618Y104797D01*
X268021Y103995D01*
X267455Y103170D01*
X266922Y102324D01*
X266422Y101458D01*
X265955Y100573D01*
X265524Y99671D01*
X265128Y98753D01*
X264768Y97820D01*
X264444Y96873D01*
X264157Y95915D01*
X263908Y94947D01*
X263696Y93970D01*
X263522Y92985D01*
X263387Y91994D01*
X263290Y90998D01*
X263232Y90000D01*
X263213Y89000D01*
X263232Y88000D01*
X263290Y87002D01*
X263387Y86006D01*
X263522Y85015D01*
X263696Y84030D01*
X263908Y83053D01*
X264157Y82085D01*
X264444Y81126D01*
X264768Y80180D01*
X265128Y79247D01*
X265524Y78329D01*
X265956Y77426D01*
X266422Y76542D01*
X266922Y75676D01*
X267455Y74830D01*
X268021Y74005D01*
X268618Y73203D01*
X269246Y72424D01*
X269903Y71671D01*
X270590Y70943D01*
X271304Y70243D01*
X272044Y69571D01*
X272811Y68928D01*
X273601Y68315D01*
X274415Y67734D01*
X275250Y67184D01*
X276106Y66667D01*
X276982Y66184D01*
X277876Y65735D01*
X278786Y65321D01*
X279712Y64943D01*
X280652Y64601D01*
X281604Y64296D01*
X282568Y64028D01*
X283541Y63797D01*
X284522Y63604D01*
X285510Y63450D01*
X286504Y63334D01*
X287501Y63256D01*
X288500Y63217D01*
X289500D01*
X290500Y63256D01*
X291497Y63334D01*
X292490Y63450D01*
X293478Y63604D01*
X294460Y63797D01*
X295433Y64028D01*
X296396Y64296D01*
X297348Y64601D01*
X298288Y64943D01*
X299214Y65322D01*
X300125Y65736D01*
X301018Y66184D01*
X301894Y66668D01*
X302750Y67184D01*
X303586Y67734D01*
X304399Y68316D01*
X305190Y68928D01*
X305956Y69571D01*
X306697Y70243D01*
X307411Y70943D01*
X308097Y71671D01*
X308754Y72424D01*
X309382Y73203D01*
X309980Y74005D01*
X310545Y74830D01*
X311079Y75676D01*
X311578Y76542D01*
X312045Y77427D01*
X312476Y78329D01*
X312872Y79247D01*
X313232Y80180D01*
X313556Y81127D01*
X313843Y82085D01*
X314092Y83053D01*
X314304Y84031D01*
X314478Y85016D01*
X314613Y86007D01*
X314710Y87002D01*
X314768Y88000D01*
X314787Y89000D01*
D32*
X261929Y179429D02*
Y214272D01*
X131772Y179429D02*
X261929D01*
X131772D02*
Y214272D01*
X261929D01*
D33*
X196850Y180856D02*
D03*
M02*
