G04*
G04 #@! TF.GenerationSoftware,Altium Limited,Altium Designer,21.3.2 (30)*
G04*
G04 Layer_Color=32896*
%FSLAX25Y25*%
%MOIN*%
G70*
G04*
G04 #@! TF.SameCoordinates,C5F37314-CDAC-41E9-AC7F-4832BFE522EA*
G04*
G04*
G04 #@! TF.FilePolarity,Positive*
G04*
G01*
G75*
%ADD10C,0.00787*%
%ADD12C,0.01000*%
%ADD29C,0.00591*%
%ADD30C,0.00984*%
%ADD31R,0.17717X0.03150*%
D10*
X262323Y179134D02*
Y214567D01*
X131378Y179134D02*
X262323D01*
X131378Y214567D02*
X262323D01*
X131378Y179134D02*
Y214567D01*
X166260Y73445D02*
Y84035D01*
X227441D01*
Y73445D02*
Y84035D01*
X166260Y73445D02*
X227441D01*
X74317Y265059D02*
X77652D01*
X74317Y271949D02*
X77652D01*
D12*
X215217Y174540D02*
X215873Y175196D01*
X217185D01*
X217841Y174540D01*
Y171916D01*
X217185Y171260D01*
X215873D01*
X215217Y171916D01*
X213905Y171260D02*
Y175196D01*
X211281Y171260D01*
Y175196D01*
X209969Y173228D02*
X207346D01*
X206034Y171260D02*
Y175196D01*
X204066D01*
X203410Y174540D01*
Y173228D01*
X204066Y172572D01*
X206034D01*
X199474Y174540D02*
X200130Y175196D01*
X201442D01*
X202098Y174540D01*
Y171916D01*
X201442Y171260D01*
X200130D01*
X199474Y171916D01*
X198162Y175196D02*
Y171260D01*
X196194D01*
X195538Y171916D01*
Y172572D01*
X196194Y173228D01*
X198162D01*
X196194D01*
X195538Y173884D01*
Y174540D01*
X196194Y175196D01*
X198162D01*
X194227Y173228D02*
X191603D01*
X190291Y175196D02*
Y171260D01*
X188323D01*
X187667Y171916D01*
Y174540D01*
X188323Y175196D01*
X190291D01*
X184387D02*
X185699D01*
X186355Y174540D01*
Y171916D01*
X185699Y171260D01*
X184387D01*
X183731Y171916D01*
Y174540D01*
X184387Y175196D01*
X182419D02*
Y171260D01*
X181107Y172572D01*
X179796Y171260D01*
Y175196D01*
X178484Y171260D02*
Y175196D01*
X175860Y171260D01*
Y175196D01*
X210276Y68880D02*
X210932Y69536D01*
X212244D01*
X212900Y68880D01*
Y66256D01*
X212244Y65600D01*
X210932D01*
X210276Y66256D01*
X208964Y65600D02*
Y69536D01*
X206340Y65600D01*
Y69536D01*
X205029Y67568D02*
X202405D01*
X201093Y69536D02*
Y65600D01*
X199125D01*
X198469Y66256D01*
Y66912D01*
X199125Y67568D01*
X201093D01*
X199125D01*
X198469Y68224D01*
Y68880D01*
X199125Y69536D01*
X201093D01*
X195189D02*
X196501D01*
X197157Y68880D01*
Y66256D01*
X196501Y65600D01*
X195189D01*
X194533Y66256D01*
Y68880D01*
X195189Y69536D01*
X193221D02*
X190597D01*
X191909D01*
Y65600D01*
X187318Y69536D02*
X188630D01*
X189286Y68880D01*
Y66256D01*
X188630Y65600D01*
X187318D01*
X186662Y66256D01*
Y68880D01*
X187318Y69536D01*
X185350Y65600D02*
Y69536D01*
X182726Y65600D01*
Y69536D01*
X89576Y269780D02*
X90232Y270436D01*
X91544D01*
X92200Y269780D01*
Y267156D01*
X91544Y266500D01*
X90232D01*
X89576Y267156D01*
X88264Y266500D02*
X86952D01*
X87608D01*
Y270436D01*
X88264Y269780D01*
X300200Y59436D02*
Y55500D01*
X298232D01*
X297576Y56156D01*
Y56812D01*
X298232Y57468D01*
X300200D01*
X298232D01*
X297576Y58124D01*
Y58780D01*
X298232Y59436D01*
X300200D01*
X296264D02*
Y56156D01*
X295608Y55500D01*
X294296D01*
X293640Y56156D01*
Y59436D01*
X292329D02*
X289705D01*
Y58780D01*
X292329Y56156D01*
Y55500D01*
X289705D01*
X288393Y59436D02*
X285769D01*
Y58780D01*
X288393Y56156D01*
Y55500D01*
X285769D01*
X281833Y59436D02*
X284457D01*
Y55500D01*
X281833D01*
X284457Y57468D02*
X283145D01*
X280521Y55500D02*
Y59436D01*
X278553D01*
X277898Y58780D01*
Y57468D01*
X278553Y56812D01*
X280521D01*
X279209D02*
X277898Y55500D01*
D29*
X314787Y89000D02*
X314768Y90000D01*
X314710Y90998D01*
X314613Y91994D01*
X314478Y92985D01*
X314304Y93970D01*
X314092Y94947D01*
X313843Y95916D01*
X313556Y96874D01*
X313232Y97820D01*
X312872Y98753D01*
X312476Y99671D01*
X312045Y100573D01*
X311578Y101458D01*
X311078Y102324D01*
X310545Y103170D01*
X309979Y103995D01*
X309382Y104797D01*
X308754Y105576D01*
X308097Y106329D01*
X307410Y107057D01*
X306696Y107757D01*
X305956Y108429D01*
X305190Y109072D01*
X304399Y109685D01*
X303586Y110266D01*
X302750Y110816D01*
X301894Y111332D01*
X301018Y111816D01*
X300124Y112265D01*
X299214Y112678D01*
X298288Y113057D01*
X297348Y113399D01*
X296396Y113704D01*
X295432Y113972D01*
X294459Y114203D01*
X293478Y114396D01*
X292490Y114550D01*
X291496Y114666D01*
X290499Y114744D01*
X289500Y114783D01*
X288500D01*
X287501Y114744D01*
X286504Y114666D01*
X285510Y114550D01*
X284522Y114396D01*
X283541Y114203D01*
X282568Y113972D01*
X281604Y113704D01*
X280652Y113399D01*
X279712Y113057D01*
X278786Y112678D01*
X277876Y112265D01*
X276982Y111816D01*
X276106Y111332D01*
X275250Y110816D01*
X274414Y110266D01*
X273601Y109685D01*
X272810Y109072D01*
X272044Y108429D01*
X271304Y107757D01*
X270590Y107057D01*
X269903Y106329D01*
X269246Y105576D01*
X268618Y104797D01*
X268021Y103995D01*
X267455Y103170D01*
X266922Y102324D01*
X266422Y101458D01*
X265955Y100573D01*
X265524Y99671D01*
X265128Y98753D01*
X264768Y97820D01*
X264444Y96873D01*
X264157Y95915D01*
X263908Y94947D01*
X263696Y93970D01*
X263522Y92985D01*
X263387Y91994D01*
X263290Y90998D01*
X263232Y90000D01*
X263213Y89000D01*
X263232Y88000D01*
X263290Y87002D01*
X263387Y86006D01*
X263522Y85015D01*
X263696Y84030D01*
X263908Y83053D01*
X264157Y82085D01*
X264444Y81126D01*
X264768Y80180D01*
X265128Y79247D01*
X265524Y78329D01*
X265956Y77426D01*
X266422Y76542D01*
X266922Y75676D01*
X267455Y74830D01*
X268021Y74005D01*
X268618Y73203D01*
X269246Y72424D01*
X269903Y71671D01*
X270590Y70943D01*
X271304Y70243D01*
X272044Y69571D01*
X272811Y68928D01*
X273601Y68315D01*
X274415Y67734D01*
X275250Y67184D01*
X276106Y66667D01*
X276982Y66184D01*
X277876Y65735D01*
X278786Y65321D01*
X279712Y64943D01*
X280652Y64601D01*
X281604Y64296D01*
X282568Y64028D01*
X283541Y63797D01*
X284522Y63604D01*
X285510Y63450D01*
X286504Y63334D01*
X287501Y63256D01*
X288500Y63217D01*
X289500D01*
X290500Y63256D01*
X291497Y63334D01*
X292490Y63450D01*
X293478Y63604D01*
X294460Y63797D01*
X295433Y64028D01*
X296396Y64296D01*
X297348Y64601D01*
X298288Y64943D01*
X299214Y65322D01*
X300125Y65736D01*
X301018Y66184D01*
X301894Y66668D01*
X302750Y67184D01*
X303586Y67734D01*
X304399Y68316D01*
X305190Y68928D01*
X305956Y69571D01*
X306697Y70243D01*
X307411Y70943D01*
X308097Y71671D01*
X308754Y72424D01*
X309382Y73203D01*
X309980Y74005D01*
X310545Y74830D01*
X311079Y75676D01*
X311578Y76542D01*
X312045Y77427D01*
X312476Y78329D01*
X312872Y79247D01*
X313232Y80180D01*
X313556Y81127D01*
X313843Y82085D01*
X314092Y83053D01*
X314304Y84031D01*
X314478Y85016D01*
X314613Y86007D01*
X314710Y87002D01*
X314768Y88000D01*
X314787Y89000D01*
D30*
X229705Y78740D02*
X228966Y79166D01*
Y78314D01*
X229705Y78740D01*
D31*
X196850Y180709D02*
D03*
M02*
