G04*
G04 #@! TF.GenerationSoftware,Altium Limited,Altium Designer,21.3.2 (30)*
G04*
G04 Layer_Color=65535*
%FSLAX25Y25*%
%MOIN*%
G70*
G04*
G04 #@! TF.SameCoordinates,C5F37314-CDAC-41E9-AC7F-4832BFE522EA*
G04*
G04*
G04 #@! TF.FilePolarity,Positive*
G04*
G01*
G75*
%ADD10C,0.00787*%
%ADD11C,0.00500*%
%ADD12C,0.01000*%
D10*
X36811Y257874D02*
X36024D01*
X36811D01*
X68307Y66535D02*
X89173D01*
X90945Y74016D02*
Y83465D01*
X66535Y74016D02*
Y83465D01*
X68307Y90945D02*
X89173D01*
D11*
X39370Y267717D02*
X354331D01*
Y125984D02*
Y267717D01*
X39370Y125984D02*
X354331D01*
X39370D02*
Y267717D01*
D12*
X69600Y58700D02*
Y62636D01*
X71568D01*
X72224Y61980D01*
Y60668D01*
X71568Y60012D01*
X69600D01*
X70912D02*
X72224Y58700D01*
X76160Y62636D02*
X73536D01*
Y58700D01*
X76160D01*
X73536Y60668D02*
X74848D01*
X80095Y61980D02*
X79439Y62636D01*
X78127D01*
X77472Y61980D01*
Y61324D01*
X78127Y60668D01*
X79439D01*
X80095Y60012D01*
Y59356D01*
X79439Y58700D01*
X78127D01*
X77472Y59356D01*
X84031Y62636D02*
X81407D01*
Y58700D01*
X84031D01*
X81407Y60668D02*
X82719D01*
X85343Y62636D02*
X87967D01*
X86655D01*
Y58700D01*
X174900Y275736D02*
Y271800D01*
X177524D01*
X181460Y275080D02*
X180804Y275736D01*
X179492D01*
X178836Y275080D01*
Y272456D01*
X179492Y271800D01*
X180804D01*
X181460Y272456D01*
X182772Y275736D02*
Y271800D01*
X184739D01*
X185395Y272456D01*
Y275080D01*
X184739Y275736D01*
X182772D01*
X190643D02*
Y271800D01*
X192611D01*
X193267Y272456D01*
Y275080D01*
X192611Y275736D01*
X190643D01*
X194579D02*
X195891D01*
X195235D01*
Y271800D01*
X194579D01*
X195891D01*
X200482Y275080D02*
X199826Y275736D01*
X198514D01*
X197859Y275080D01*
Y274424D01*
X198514Y273768D01*
X199826D01*
X200482Y273112D01*
Y272456D01*
X199826Y271800D01*
X198514D01*
X197859Y272456D01*
X201794Y271800D02*
Y275736D01*
X203762D01*
X204418Y275080D01*
Y273768D01*
X203762Y273112D01*
X201794D01*
X205730Y275736D02*
Y271800D01*
X208354D01*
X209666D02*
Y274424D01*
X210978Y275736D01*
X212290Y274424D01*
Y271800D01*
Y273768D01*
X209666D01*
X213601Y275736D02*
Y275080D01*
X214913Y273768D01*
X216225Y275080D01*
Y275736D01*
X214913Y273768D02*
Y271800D01*
M02*
