G04*
G04 #@! TF.GenerationSoftware,Altium Limited,Altium Designer,21.3.2 (30)*
G04*
G04 Layer_Physical_Order=2*
G04 Layer_Color=16711680*
%FSLAX25Y25*%
%MOIN*%
G70*
G04*
G04 #@! TF.SameCoordinates,C5F37314-CDAC-41E9-AC7F-4832BFE522EA*
G04*
G04*
G04 #@! TF.FilePolarity,Positive*
G04*
G01*
G75*
%ADD14C,0.04528*%
%ADD15R,0.04528X0.04528*%
%ADD22C,0.01500*%
%ADD23C,0.05906*%
%ADD24C,0.06299*%
G04:AMPARAMS|DCode=25|XSize=62.99mil|YSize=62.99mil|CornerRadius=15.75mil|HoleSize=0mil|Usage=FLASHONLY|Rotation=180.000|XOffset=0mil|YOffset=0mil|HoleType=Round|Shape=RoundedRectangle|*
%AMROUNDEDRECTD25*
21,1,0.06299,0.03150,0,0,180.0*
21,1,0.03150,0.06299,0,0,180.0*
1,1,0.03150,-0.01575,0.01575*
1,1,0.03150,0.01575,0.01575*
1,1,0.03150,0.01575,-0.01575*
1,1,0.03150,-0.01575,-0.01575*
%
%ADD25ROUNDEDRECTD25*%
%ADD26R,0.07400X0.07400*%
%ADD27C,0.07400*%
%ADD28R,0.04352X0.06528*%
G36*
X362205Y43307D02*
X31496D01*
Y279528D01*
X362205D01*
Y43307D01*
D02*
G37*
%LPC*%
G36*
X74135Y272768D02*
X71459D01*
Y269004D01*
X74135D01*
Y272768D01*
D02*
G37*
G36*
X70459D02*
X67783D01*
Y269004D01*
X70459D01*
Y272768D01*
D02*
G37*
G36*
X345264Y266387D02*
X343713D01*
X343652Y266362D01*
X343588Y266375D01*
X342067Y266072D01*
X342012Y266036D01*
X341947D01*
X340514Y265442D01*
X340468Y265396D01*
X340403Y265383D01*
X339114Y264522D01*
X339077Y264467D01*
X339017Y264442D01*
X337920Y263345D01*
X337895Y263285D01*
X337841Y263248D01*
X336979Y261959D01*
X336966Y261895D01*
X336920Y261848D01*
X336326Y260415D01*
Y260350D01*
X336290Y260296D01*
X335987Y258774D01*
X336000Y258710D01*
X335975Y258649D01*
Y257099D01*
X336000Y257038D01*
X335987Y256974D01*
X336290Y255452D01*
X336326Y255398D01*
Y255333D01*
X336920Y253900D01*
X336966Y253853D01*
X336979Y253789D01*
X337841Y252500D01*
X337895Y252463D01*
X337920Y252403D01*
X339017Y251306D01*
X339077Y251281D01*
X339114Y251226D01*
X340403Y250365D01*
X340468Y250352D01*
X340514Y250306D01*
X341947Y249712D01*
X342012D01*
X342067Y249676D01*
X343588Y249373D01*
X343652Y249386D01*
X343713Y249361D01*
X345264D01*
X345324Y249386D01*
X345388Y249373D01*
X346910Y249676D01*
X346964Y249712D01*
X347030D01*
X348463Y250306D01*
X348509Y250352D01*
X348573Y250365D01*
X349863Y251226D01*
X349899Y251281D01*
X349960Y251306D01*
X351056Y252403D01*
X351081Y252463D01*
X351136Y252500D01*
X351997Y253789D01*
X352010Y253853D01*
X352057Y253900D01*
X352650Y255333D01*
Y255398D01*
X352687Y255452D01*
X352989Y256974D01*
X352976Y257038D01*
X353001Y257099D01*
Y258649D01*
X352976Y258710D01*
X352989Y258774D01*
X352687Y260296D01*
X352650Y260350D01*
Y260415D01*
X352057Y261848D01*
X352010Y261895D01*
X351997Y261959D01*
X351136Y263248D01*
X351081Y263285D01*
X351056Y263345D01*
X349960Y264442D01*
X349899Y264467D01*
X349863Y264522D01*
X348573Y265383D01*
X348509Y265396D01*
X348463Y265442D01*
X347030Y266036D01*
X346964D01*
X346910Y266072D01*
X345388Y266375D01*
X345324Y266362D01*
X345264Y266387D01*
D02*
G37*
G36*
X49988D02*
X48437D01*
X48377Y266362D01*
X48312Y266375D01*
X46791Y266072D01*
X46737Y266036D01*
X46671D01*
X45238Y265442D01*
X45192Y265396D01*
X45128Y265383D01*
X43838Y264522D01*
X43802Y264467D01*
X43741Y264442D01*
X42644Y263345D01*
X42619Y263285D01*
X42565Y263248D01*
X41703Y261959D01*
X41690Y261895D01*
X41644Y261848D01*
X41051Y260415D01*
Y260350D01*
X41014Y260296D01*
X40712Y258774D01*
X40724Y258710D01*
X40699Y258649D01*
Y257099D01*
X40724Y257038D01*
X40712Y256974D01*
X41014Y255452D01*
X41051Y255398D01*
Y255333D01*
X41644Y253900D01*
X41690Y253853D01*
X41703Y253789D01*
X42565Y252500D01*
X42619Y252463D01*
X42644Y252403D01*
X43741Y251306D01*
X43802Y251281D01*
X43838Y251226D01*
X45128Y250365D01*
X45192Y250352D01*
X45238Y250306D01*
X46671Y249712D01*
X46737D01*
X46791Y249676D01*
X48312Y249373D01*
X48377Y249386D01*
X48437Y249361D01*
X49988D01*
X50049Y249386D01*
X50113Y249373D01*
X51634Y249676D01*
X51688Y249712D01*
X51754D01*
X53187Y250306D01*
X53233Y250352D01*
X53298Y250365D01*
X54587Y251226D01*
X54624Y251281D01*
X54684Y251306D01*
X55781Y252403D01*
X55806Y252463D01*
X55860Y252500D01*
X56722Y253789D01*
X56735Y253853D01*
X56781Y253900D01*
X57375Y255333D01*
Y255398D01*
X57411Y255452D01*
X57714Y256974D01*
X57701Y257038D01*
X57726Y257099D01*
Y258649D01*
X57701Y258710D01*
X57714Y258774D01*
X57411Y260296D01*
X57375Y260350D01*
Y260415D01*
X56781Y261848D01*
X56735Y261895D01*
X56722Y261959D01*
X55860Y263248D01*
X55806Y263285D01*
X55781Y263345D01*
X54684Y264442D01*
X54624Y264467D01*
X54587Y264522D01*
X53298Y265383D01*
X53233Y265396D01*
X53187Y265442D01*
X51754Y266036D01*
X51688D01*
X51634Y266072D01*
X50113Y266375D01*
X50049Y266362D01*
X49988Y266387D01*
D02*
G37*
G36*
X74135Y268004D02*
X71459D01*
Y264240D01*
X74135D01*
Y268004D01*
D02*
G37*
G36*
X70459D02*
X67783D01*
Y264240D01*
X70459D01*
Y268004D01*
D02*
G37*
G36*
X221366Y262549D02*
Y258374D01*
X225541D01*
X225445Y259101D01*
X224972Y260244D01*
X224218Y261226D01*
X223236Y261980D01*
X222093Y262453D01*
X221366Y262549D01*
D02*
G37*
G36*
X220366D02*
X219639Y262453D01*
X218496Y261980D01*
X217514Y261226D01*
X216761Y260244D01*
X216287Y259101D01*
X216191Y258374D01*
X220366D01*
Y262549D01*
D02*
G37*
G36*
X75566Y262574D02*
X71366D01*
Y258374D01*
X75566D01*
Y262574D01*
D02*
G37*
G36*
X70366D02*
X66166D01*
Y258374D01*
X70366D01*
Y262574D01*
D02*
G37*
G36*
X200866Y262202D02*
X199746Y262054D01*
X198702Y261622D01*
X197806Y260934D01*
X197118Y260038D01*
X196686Y258994D01*
X196539Y257874D01*
X196686Y256754D01*
X197118Y255710D01*
X197806Y254814D01*
X198702Y254126D01*
X199746Y253694D01*
X200866Y253546D01*
X201986Y253694D01*
X203030Y254126D01*
X203926Y254814D01*
X204614Y255710D01*
X205046Y256754D01*
X205194Y257874D01*
X205046Y258994D01*
X204614Y260038D01*
X203926Y260934D01*
X203030Y261622D01*
X201986Y262054D01*
X200866Y262202D01*
D02*
G37*
G36*
X190866D02*
X189746Y262054D01*
X188702Y261622D01*
X187806Y260934D01*
X187118Y260038D01*
X186686Y258994D01*
X186539Y257874D01*
X186686Y256754D01*
X187118Y255710D01*
X187806Y254814D01*
X188702Y254126D01*
X189746Y253694D01*
X190866Y253546D01*
X191986Y253694D01*
X193030Y254126D01*
X193926Y254814D01*
X194614Y255710D01*
X195046Y256754D01*
X195194Y257874D01*
X195046Y258994D01*
X194614Y260038D01*
X193926Y260934D01*
X193030Y261622D01*
X191986Y262054D01*
X190866Y262202D01*
D02*
G37*
G36*
X180866D02*
X179746Y262054D01*
X178702Y261622D01*
X177806Y260934D01*
X177118Y260038D01*
X176686Y258994D01*
X176539Y257874D01*
X176686Y256754D01*
X177118Y255710D01*
X177806Y254814D01*
X178702Y254126D01*
X179746Y253694D01*
X180866Y253546D01*
X181986Y253694D01*
X183030Y254126D01*
X183926Y254814D01*
X184614Y255710D01*
X185046Y256754D01*
X185194Y257874D01*
X185046Y258994D01*
X184614Y260038D01*
X183926Y260934D01*
X183030Y261622D01*
X181986Y262054D01*
X180866Y262202D01*
D02*
G37*
G36*
X170866D02*
X169746Y262054D01*
X168702Y261622D01*
X167806Y260934D01*
X167118Y260038D01*
X166686Y258994D01*
X166539Y257874D01*
X166686Y256754D01*
X167118Y255710D01*
X167806Y254814D01*
X168702Y254126D01*
X169746Y253694D01*
X170866Y253546D01*
X171986Y253694D01*
X173030Y254126D01*
X173926Y254814D01*
X174614Y255710D01*
X175046Y256754D01*
X175194Y257874D01*
X175046Y258994D01*
X174614Y260038D01*
X173926Y260934D01*
X173030Y261622D01*
X171986Y262054D01*
X170866Y262202D01*
D02*
G37*
G36*
X160866D02*
X159746Y262054D01*
X158702Y261622D01*
X157806Y260934D01*
X157118Y260038D01*
X156686Y258994D01*
X156539Y257874D01*
X156686Y256754D01*
X157118Y255710D01*
X157806Y254814D01*
X158702Y254126D01*
X159746Y253694D01*
X160866Y253546D01*
X161986Y253694D01*
X163030Y254126D01*
X163926Y254814D01*
X164614Y255710D01*
X165046Y256754D01*
X165194Y257874D01*
X165046Y258994D01*
X164614Y260038D01*
X163926Y260934D01*
X163030Y261622D01*
X161986Y262054D01*
X160866Y262202D01*
D02*
G37*
G36*
X150866D02*
X149746Y262054D01*
X148702Y261622D01*
X147806Y260934D01*
X147118Y260038D01*
X146686Y258994D01*
X146539Y257874D01*
X146686Y256754D01*
X147118Y255710D01*
X147806Y254814D01*
X148702Y254126D01*
X149746Y253694D01*
X150866Y253546D01*
X151986Y253694D01*
X153030Y254126D01*
X153926Y254814D01*
X154614Y255710D01*
X155046Y256754D01*
X155194Y257874D01*
X155046Y258994D01*
X154614Y260038D01*
X153926Y260934D01*
X153030Y261622D01*
X151986Y262054D01*
X150866Y262202D01*
D02*
G37*
G36*
X140866D02*
X139746Y262054D01*
X138702Y261622D01*
X137806Y260934D01*
X137118Y260038D01*
X136686Y258994D01*
X136539Y257874D01*
X136686Y256754D01*
X137118Y255710D01*
X137806Y254814D01*
X138702Y254126D01*
X139746Y253694D01*
X140866Y253546D01*
X141986Y253694D01*
X143030Y254126D01*
X143926Y254814D01*
X144614Y255710D01*
X145046Y256754D01*
X145194Y257874D01*
X145046Y258994D01*
X144614Y260038D01*
X143926Y260934D01*
X143030Y261622D01*
X141986Y262054D01*
X140866Y262202D01*
D02*
G37*
G36*
X130866D02*
X129746Y262054D01*
X128702Y261622D01*
X127806Y260934D01*
X127118Y260038D01*
X126686Y258994D01*
X126539Y257874D01*
X126686Y256754D01*
X127118Y255710D01*
X127806Y254814D01*
X128702Y254126D01*
X129746Y253694D01*
X130866Y253546D01*
X131986Y253694D01*
X133030Y254126D01*
X133926Y254814D01*
X134614Y255710D01*
X135046Y256754D01*
X135194Y257874D01*
X135046Y258994D01*
X134614Y260038D01*
X133926Y260934D01*
X133030Y261622D01*
X131986Y262054D01*
X130866Y262202D01*
D02*
G37*
G36*
X120866D02*
X119746Y262054D01*
X118702Y261622D01*
X117806Y260934D01*
X117118Y260038D01*
X116686Y258994D01*
X116539Y257874D01*
X116686Y256754D01*
X117118Y255710D01*
X117806Y254814D01*
X118702Y254126D01*
X119746Y253694D01*
X120866Y253546D01*
X121986Y253694D01*
X123030Y254126D01*
X123926Y254814D01*
X124614Y255710D01*
X125046Y256754D01*
X125194Y257874D01*
X125046Y258994D01*
X124614Y260038D01*
X123926Y260934D01*
X123030Y261622D01*
X121986Y262054D01*
X120866Y262202D01*
D02*
G37*
G36*
X110866D02*
X109746Y262054D01*
X108702Y261622D01*
X107806Y260934D01*
X107118Y260038D01*
X106686Y258994D01*
X106539Y257874D01*
X106686Y256754D01*
X107118Y255710D01*
X107806Y254814D01*
X108702Y254126D01*
X109746Y253694D01*
X110866Y253546D01*
X111986Y253694D01*
X113030Y254126D01*
X113926Y254814D01*
X114614Y255710D01*
X115046Y256754D01*
X115194Y257874D01*
X115046Y258994D01*
X114614Y260038D01*
X113926Y260934D01*
X113030Y261622D01*
X111986Y262054D01*
X110866Y262202D01*
D02*
G37*
G36*
X100866D02*
X99746Y262054D01*
X98702Y261622D01*
X97806Y260934D01*
X97118Y260038D01*
X96686Y258994D01*
X96539Y257874D01*
X96686Y256754D01*
X97118Y255710D01*
X97806Y254814D01*
X98702Y254126D01*
X99746Y253694D01*
X100866Y253546D01*
X101986Y253694D01*
X103030Y254126D01*
X103926Y254814D01*
X104614Y255710D01*
X105046Y256754D01*
X105194Y257874D01*
X105046Y258994D01*
X104614Y260038D01*
X103926Y260934D01*
X103030Y261622D01*
X101986Y262054D01*
X100866Y262202D01*
D02*
G37*
G36*
X225541Y257374D02*
X221366D01*
Y253199D01*
X222093Y253295D01*
X223236Y253769D01*
X224218Y254522D01*
X224972Y255504D01*
X225445Y256647D01*
X225541Y257374D01*
D02*
G37*
G36*
X220366D02*
X216191D01*
X216287Y256647D01*
X216761Y255504D01*
X217514Y254522D01*
X218496Y253769D01*
X219639Y253295D01*
X220366Y253199D01*
Y257374D01*
D02*
G37*
G36*
X75566D02*
X71366D01*
Y253174D01*
X75566D01*
Y257374D01*
D02*
G37*
G36*
X70366D02*
X66166D01*
Y253174D01*
X70366D01*
Y257374D01*
D02*
G37*
G36*
X83776Y272359D02*
X78243D01*
Y264649D01*
X79571D01*
Y261982D01*
X78702Y261622D01*
X77806Y260934D01*
X77118Y260038D01*
X76686Y258994D01*
X76539Y257874D01*
X76686Y256754D01*
X77118Y255710D01*
X77806Y254814D01*
X78702Y254126D01*
X79746Y253694D01*
X80866Y253546D01*
X81986Y253694D01*
X83030Y254126D01*
X83926Y254814D01*
X84614Y255710D01*
X85046Y256754D01*
X85194Y257874D01*
X85046Y258994D01*
X84614Y260038D01*
X83926Y260934D01*
X83030Y261622D01*
X82305Y261922D01*
Y264649D01*
X83776D01*
Y267137D01*
X199670D01*
X207016Y259791D01*
X206686Y258994D01*
X206539Y257874D01*
X206686Y256754D01*
X207118Y255710D01*
X207806Y254814D01*
X208702Y254126D01*
X209499Y253796D01*
Y214432D01*
X206934Y211867D01*
X200500D01*
X199977Y211763D01*
X199533Y211467D01*
X193346Y205279D01*
X192827Y205494D01*
X191850Y205623D01*
X190874Y205494D01*
X189964Y205117D01*
X189183Y204518D01*
X188583Y203737D01*
X188207Y202827D01*
X188078Y201850D01*
X188207Y200874D01*
X188583Y199964D01*
X189183Y199183D01*
X189964Y198583D01*
X190874Y198206D01*
X191850Y198078D01*
X192827Y198206D01*
X193737Y198583D01*
X194518Y199183D01*
X195117Y199964D01*
X195494Y200874D01*
X195623Y201850D01*
X195494Y202827D01*
X195279Y203346D01*
X201066Y209133D01*
X207500D01*
X208023Y209237D01*
X208467Y209534D01*
X211833Y212900D01*
X212129Y213343D01*
X212233Y213866D01*
Y253796D01*
X213030Y254126D01*
X213926Y254814D01*
X214614Y255710D01*
X215046Y256754D01*
X215194Y257874D01*
X215046Y258994D01*
X214614Y260038D01*
X213926Y260934D01*
X213030Y261622D01*
X211986Y262054D01*
X210866Y262202D01*
X209746Y262054D01*
X208949Y261724D01*
X201203Y269470D01*
X200759Y269767D01*
X200236Y269871D01*
X83776D01*
Y272359D01*
D02*
G37*
G36*
X172350Y205970D02*
Y202350D01*
X175970D01*
X175893Y202934D01*
X175475Y203943D01*
X174810Y204810D01*
X173943Y205475D01*
X172934Y205893D01*
X172350Y205970D01*
D02*
G37*
G36*
X171350Y205970D02*
X170767Y205893D01*
X169758Y205475D01*
X168891Y204810D01*
X168226Y203943D01*
X167808Y202934D01*
X167731Y202350D01*
X171350D01*
Y205970D01*
D02*
G37*
G36*
X241850Y205623D02*
X240874Y205494D01*
X239964Y205117D01*
X239183Y204518D01*
X238583Y203737D01*
X238207Y202827D01*
X238078Y201850D01*
X238207Y200874D01*
X238422Y200355D01*
X236394Y198327D01*
X236098Y197883D01*
X235993Y197360D01*
Y192866D01*
X235494Y192827D01*
X235117Y193737D01*
X234518Y194518D01*
X233737Y195117D01*
X232827Y195494D01*
X231850Y195623D01*
X230874Y195494D01*
X229964Y195117D01*
X229183Y194518D01*
X228867Y194106D01*
X228367Y194276D01*
Y196434D01*
X230355Y198422D01*
X230874Y198206D01*
X231850Y198078D01*
X232827Y198206D01*
X233737Y198583D01*
X234518Y199183D01*
X235117Y199964D01*
X235494Y200874D01*
X235623Y201850D01*
X235494Y202827D01*
X235117Y203737D01*
X234518Y204518D01*
X233737Y205117D01*
X232827Y205494D01*
X231850Y205623D01*
X230874Y205494D01*
X229964Y205117D01*
X229183Y204518D01*
X228583Y203737D01*
X228206Y202827D01*
X228078Y201850D01*
X228206Y200874D01*
X228422Y200355D01*
X226033Y197967D01*
X225737Y197523D01*
X225633Y197000D01*
Y193798D01*
X225133Y193699D01*
X225117Y193737D01*
X224518Y194518D01*
X223737Y195117D01*
X222827Y195494D01*
X221850Y195623D01*
X220874Y195494D01*
X219964Y195117D01*
X219183Y194518D01*
X218685Y193869D01*
X218185Y194033D01*
Y196252D01*
X220355Y198422D01*
X220874Y198206D01*
X221850Y198078D01*
X222827Y198206D01*
X223737Y198583D01*
X224518Y199183D01*
X225117Y199964D01*
X225494Y200874D01*
X225623Y201850D01*
X225494Y202827D01*
X225117Y203737D01*
X224518Y204518D01*
X223737Y205117D01*
X222827Y205494D01*
X221850Y205623D01*
X220874Y205494D01*
X219964Y205117D01*
X219183Y204518D01*
X218583Y203737D01*
X218207Y202827D01*
X218078Y201850D01*
X218207Y200874D01*
X218422Y200355D01*
X215851Y197784D01*
X215555Y197341D01*
X215451Y196818D01*
Y194123D01*
X214951Y193954D01*
X214518Y194518D01*
X213737Y195117D01*
X212827Y195494D01*
X211850Y195623D01*
X210874Y195494D01*
X209964Y195117D01*
X209183Y194518D01*
X208867Y194106D01*
X208367Y194276D01*
Y196434D01*
X210355Y198422D01*
X210874Y198206D01*
X211850Y198078D01*
X212827Y198206D01*
X213737Y198583D01*
X214518Y199183D01*
X215117Y199964D01*
X215494Y200874D01*
X215623Y201850D01*
X215494Y202827D01*
X215117Y203737D01*
X214518Y204518D01*
X213737Y205117D01*
X212827Y205494D01*
X211850Y205623D01*
X210874Y205494D01*
X209964Y205117D01*
X209183Y204518D01*
X208583Y203737D01*
X208207Y202827D01*
X208078Y201850D01*
X208207Y200874D01*
X208422Y200355D01*
X206033Y197967D01*
X205737Y197523D01*
X205633Y197000D01*
Y193798D01*
X205133Y193699D01*
X205117Y193737D01*
X204518Y194518D01*
X203737Y195117D01*
X202827Y195494D01*
X201850Y195623D01*
X200874Y195494D01*
X199964Y195117D01*
X199183Y194518D01*
X198867Y194106D01*
X198367Y194276D01*
Y196434D01*
X200355Y198422D01*
X200874Y198206D01*
X201850Y198078D01*
X202827Y198206D01*
X203737Y198583D01*
X204518Y199183D01*
X205117Y199964D01*
X205494Y200874D01*
X205623Y201850D01*
X205494Y202827D01*
X205117Y203737D01*
X204518Y204518D01*
X203737Y205117D01*
X202827Y205494D01*
X201850Y205623D01*
X200874Y205494D01*
X199964Y205117D01*
X199183Y204518D01*
X198583Y203737D01*
X198206Y202827D01*
X198078Y201850D01*
X198206Y200874D01*
X198422Y200355D01*
X196034Y197967D01*
X195737Y197523D01*
X195633Y197000D01*
Y193798D01*
X195133Y193699D01*
X195117Y193737D01*
X194518Y194518D01*
X193737Y195117D01*
X192827Y195494D01*
X191850Y195623D01*
X190874Y195494D01*
X189964Y195117D01*
X189183Y194518D01*
X188583Y193737D01*
X188207Y192827D01*
X188078Y191850D01*
X188207Y190874D01*
X188583Y189964D01*
X189183Y189183D01*
X189964Y188583D01*
X190874Y188207D01*
X191850Y188078D01*
X192827Y188207D01*
X193737Y188583D01*
X194518Y189183D01*
X195117Y189964D01*
X195133Y190002D01*
X195633Y189903D01*
Y118066D01*
X180534Y102966D01*
X180237Y102523D01*
X180133Y102000D01*
Y82077D01*
X179964Y82007D01*
X179183Y81408D01*
X178583Y80626D01*
X178207Y79716D01*
X178078Y78740D01*
X178207Y77764D01*
X178583Y76854D01*
X179183Y76073D01*
X179964Y75473D01*
X180874Y75096D01*
X181850Y74968D01*
X182827Y75096D01*
X183737Y75473D01*
X184518Y76073D01*
X185117Y76854D01*
X185494Y77764D01*
X185623Y78740D01*
X185494Y79716D01*
X185117Y80626D01*
X184518Y81408D01*
X183737Y82007D01*
X182867Y82367D01*
Y101434D01*
X197967Y116534D01*
X198263Y116977D01*
X198367Y117500D01*
Y189425D01*
X198867Y189595D01*
X199183Y189183D01*
X199964Y188583D01*
X200874Y188207D01*
X201850Y188078D01*
X202827Y188207D01*
X203737Y188583D01*
X204518Y189183D01*
X205117Y189964D01*
X205133Y190002D01*
X205633Y189903D01*
Y114566D01*
X190884Y99817D01*
X190588Y99374D01*
X190484Y98850D01*
Y82222D01*
X189964Y82007D01*
X189183Y81408D01*
X188583Y80626D01*
X188207Y79716D01*
X188078Y78740D01*
X188207Y77764D01*
X188583Y76854D01*
X189183Y76073D01*
X189964Y75473D01*
X190874Y75096D01*
X191850Y74968D01*
X192827Y75096D01*
X193737Y75473D01*
X194518Y76073D01*
X195117Y76854D01*
X195494Y77764D01*
X195623Y78740D01*
X195494Y79716D01*
X195117Y80626D01*
X194518Y81408D01*
X193737Y82007D01*
X193217Y82222D01*
Y98284D01*
X207966Y113033D01*
X208263Y113477D01*
X208367Y114000D01*
Y189425D01*
X208867Y189595D01*
X209183Y189183D01*
X209964Y188583D01*
X210874Y188207D01*
X211850Y188078D01*
X212827Y188207D01*
X213737Y188583D01*
X214518Y189183D01*
X214951Y189747D01*
X215451Y189577D01*
Y112384D01*
X201033Y97966D01*
X200737Y97523D01*
X200633Y97000D01*
Y82284D01*
X199964Y82007D01*
X199183Y81408D01*
X198583Y80626D01*
X198206Y79716D01*
X198078Y78740D01*
X198206Y77764D01*
X198583Y76854D01*
X199183Y76073D01*
X199964Y75473D01*
X200874Y75096D01*
X201850Y74968D01*
X202827Y75096D01*
X203737Y75473D01*
X204518Y76073D01*
X205117Y76854D01*
X205494Y77764D01*
X205623Y78740D01*
X205494Y79716D01*
X205117Y80626D01*
X204518Y81408D01*
X203737Y82007D01*
X203367Y82160D01*
Y96434D01*
X217784Y110851D01*
X218081Y111295D01*
X218185Y111818D01*
Y189668D01*
X218685Y189832D01*
X219183Y189183D01*
X219964Y188583D01*
X220874Y188207D01*
X221850Y188078D01*
X222827Y188207D01*
X223737Y188583D01*
X224518Y189183D01*
X225117Y189964D01*
X225133Y190002D01*
X225633Y189903D01*
Y106066D01*
X211034Y91466D01*
X210737Y91023D01*
X210633Y90500D01*
Y82284D01*
X209964Y82007D01*
X209183Y81408D01*
X208583Y80626D01*
X208207Y79716D01*
X208078Y78740D01*
X208207Y77764D01*
X208583Y76854D01*
X209183Y76073D01*
X209964Y75473D01*
X210874Y75096D01*
X211850Y74968D01*
X212827Y75096D01*
X213737Y75473D01*
X214518Y76073D01*
X215117Y76854D01*
X215494Y77764D01*
X215623Y78740D01*
X215494Y79716D01*
X215117Y80626D01*
X214518Y81408D01*
X213737Y82007D01*
X213367Y82160D01*
Y89934D01*
X227966Y104534D01*
X228263Y104977D01*
X228367Y105500D01*
Y189425D01*
X228867Y189595D01*
X229183Y189183D01*
X229964Y188583D01*
X230874Y188207D01*
X231850Y188078D01*
X232827Y188207D01*
X233737Y188583D01*
X234518Y189183D01*
X235117Y189964D01*
X235494Y190874D01*
X235993Y190835D01*
Y100926D01*
X220884Y85817D01*
X220588Y85374D01*
X220484Y84850D01*
Y82523D01*
X220276D01*
X219431Y82355D01*
X218714Y81876D01*
X218236Y81160D01*
X218068Y80315D01*
Y77165D01*
X218236Y76320D01*
X218714Y75604D01*
X219431Y75126D01*
X220276Y74958D01*
X223425D01*
X224270Y75126D01*
X224986Y75604D01*
X225465Y76320D01*
X225633Y77165D01*
Y80315D01*
X225465Y81160D01*
X224986Y81876D01*
X224270Y82355D01*
X223425Y82523D01*
X223217D01*
Y84284D01*
X238327Y99394D01*
X238623Y99837D01*
X238727Y100360D01*
Y188176D01*
X239168Y188411D01*
X239431Y188236D01*
X240276Y188068D01*
X243425D01*
X244270Y188236D01*
X244986Y188715D01*
X245465Y189431D01*
X245633Y190276D01*
Y193425D01*
X245465Y194270D01*
X244986Y194986D01*
X244270Y195465D01*
X243425Y195633D01*
X240276D01*
X239431Y195465D01*
X239168Y195289D01*
X238727Y195525D01*
Y196794D01*
X240355Y198422D01*
X240874Y198206D01*
X241850Y198078D01*
X242827Y198206D01*
X243737Y198583D01*
X244518Y199183D01*
X245117Y199964D01*
X245494Y200874D01*
X245623Y201850D01*
X245494Y202827D01*
X245117Y203737D01*
X244518Y204518D01*
X243737Y205117D01*
X242827Y205494D01*
X241850Y205623D01*
D02*
G37*
G36*
X90866Y262202D02*
X89746Y262054D01*
X88702Y261622D01*
X87806Y260934D01*
X87118Y260038D01*
X86686Y258994D01*
X86539Y257874D01*
X86686Y256754D01*
X87118Y255710D01*
X87806Y254814D01*
X88702Y254126D01*
X89499Y253796D01*
Y250634D01*
X89603Y250111D01*
X89900Y249667D01*
X91912Y247656D01*
X92355Y247359D01*
X92878Y247255D01*
X114812D01*
X125133Y236934D01*
Y231500D01*
X125237Y230977D01*
X125533Y230534D01*
X145534Y210533D01*
X145977Y210237D01*
X146500Y210133D01*
X171635D01*
X178422Y203346D01*
X178207Y202827D01*
X178078Y201850D01*
X178207Y200874D01*
X178583Y199964D01*
X179183Y199183D01*
X179964Y198583D01*
X180874Y198206D01*
X181850Y198078D01*
X182827Y198206D01*
X183737Y198583D01*
X184518Y199183D01*
X185117Y199964D01*
X185494Y200874D01*
X185623Y201850D01*
X185494Y202827D01*
X185117Y203737D01*
X184518Y204518D01*
X183737Y205117D01*
X182827Y205494D01*
X181850Y205623D01*
X180874Y205494D01*
X180355Y205279D01*
X173167Y212467D01*
X172724Y212763D01*
X172201Y212867D01*
X147066D01*
X127867Y232066D01*
Y237500D01*
X127763Y238023D01*
X127466Y238467D01*
X116344Y249588D01*
X115901Y249885D01*
X115378Y249989D01*
X93444D01*
X92233Y251200D01*
Y253796D01*
X93030Y254126D01*
X93926Y254814D01*
X94614Y255710D01*
X95046Y256754D01*
X95194Y257874D01*
X95046Y258994D01*
X94614Y260038D01*
X93926Y260934D01*
X93030Y261622D01*
X91986Y262054D01*
X90866Y262202D01*
D02*
G37*
G36*
X161850Y205623D02*
X160874Y205494D01*
X159964Y205117D01*
X159183Y204518D01*
X158583Y203737D01*
X158206Y202827D01*
X158078Y201850D01*
X158206Y200874D01*
X158583Y199964D01*
X159183Y199183D01*
X159964Y198583D01*
X160874Y198206D01*
X161850Y198078D01*
X162827Y198206D01*
X163737Y198583D01*
X164518Y199183D01*
X165117Y199964D01*
X165494Y200874D01*
X165623Y201850D01*
X165494Y202827D01*
X165117Y203737D01*
X164518Y204518D01*
X163737Y205117D01*
X162827Y205494D01*
X161850Y205623D01*
D02*
G37*
G36*
X151850D02*
X150874Y205494D01*
X149964Y205117D01*
X149183Y204518D01*
X148583Y203737D01*
X148368Y203217D01*
X130850D01*
X130327Y203113D01*
X129884Y202817D01*
X90034Y162967D01*
X89737Y162523D01*
X89633Y162000D01*
Y90605D01*
X89008Y90126D01*
X88440Y89385D01*
X88266Y88965D01*
X69214D01*
X69040Y89385D01*
X68472Y90126D01*
X67732Y90693D01*
X66870Y91050D01*
X65945Y91172D01*
X65020Y91050D01*
X64158Y90693D01*
X63418Y90126D01*
X62850Y89385D01*
X62493Y88523D01*
X62371Y87598D01*
X62493Y86673D01*
X62850Y85812D01*
X63418Y85071D01*
X64158Y84503D01*
X65020Y84146D01*
X65945Y84025D01*
X66870Y84146D01*
X67732Y84503D01*
X68472Y85071D01*
X69040Y85812D01*
X69214Y86232D01*
X88266D01*
X88440Y85812D01*
X89008Y85071D01*
X89749Y84503D01*
X90610Y84146D01*
X91535Y84025D01*
X92460Y84146D01*
X93322Y84503D01*
X94063Y85071D01*
X94630Y85812D01*
X94987Y86673D01*
X95109Y87598D01*
X94987Y88523D01*
X94630Y89385D01*
X94063Y90126D01*
X93322Y90693D01*
X92460Y91050D01*
X92367Y91063D01*
Y161434D01*
X131416Y200484D01*
X148368D01*
X148583Y199964D01*
X149183Y199183D01*
X149964Y198583D01*
X150874Y198206D01*
X151850Y198078D01*
X152827Y198206D01*
X153737Y198583D01*
X154518Y199183D01*
X155117Y199964D01*
X155494Y200874D01*
X155623Y201850D01*
X155494Y202827D01*
X155117Y203737D01*
X154518Y204518D01*
X153737Y205117D01*
X152827Y205494D01*
X151850Y205623D01*
D02*
G37*
G36*
X175970Y201350D02*
X172350D01*
Y197731D01*
X172934Y197808D01*
X173943Y198226D01*
X174810Y198891D01*
X175475Y199758D01*
X175893Y200767D01*
X175970Y201350D01*
D02*
G37*
G36*
X171350D02*
X167731D01*
X167808Y200767D01*
X168226Y199758D01*
X168891Y198891D01*
X169758Y198226D01*
X170767Y197808D01*
X171350Y197731D01*
Y201350D01*
D02*
G37*
G36*
X181850Y195623D02*
X180874Y195494D01*
X179964Y195117D01*
X179183Y194518D01*
X178583Y193737D01*
X178207Y192827D01*
X178078Y191850D01*
X178207Y190874D01*
X178583Y189964D01*
X179183Y189183D01*
X179964Y188583D01*
X180874Y188207D01*
X181850Y188078D01*
X182827Y188207D01*
X183737Y188583D01*
X184518Y189183D01*
X185117Y189964D01*
X185494Y190874D01*
X185623Y191850D01*
X185494Y192827D01*
X185117Y193737D01*
X184518Y194518D01*
X183737Y195117D01*
X182827Y195494D01*
X181850Y195623D01*
D02*
G37*
G36*
X171850D02*
X170874Y195494D01*
X169964Y195117D01*
X169183Y194518D01*
X168583Y193737D01*
X168207Y192827D01*
X168078Y191850D01*
X168207Y190874D01*
X168583Y189964D01*
X169183Y189183D01*
X169964Y188583D01*
X170874Y188207D01*
X171850Y188078D01*
X172827Y188207D01*
X173737Y188583D01*
X174518Y189183D01*
X175117Y189964D01*
X175494Y190874D01*
X175623Y191850D01*
X175494Y192827D01*
X175117Y193737D01*
X174518Y194518D01*
X173737Y195117D01*
X172827Y195494D01*
X171850Y195623D01*
D02*
G37*
G36*
X161850D02*
X160874Y195494D01*
X159964Y195117D01*
X159183Y194518D01*
X158583Y193737D01*
X158206Y192827D01*
X158078Y191850D01*
X158206Y190874D01*
X158583Y189964D01*
X159183Y189183D01*
X159964Y188583D01*
X160874Y188207D01*
X161850Y188078D01*
X162827Y188207D01*
X163737Y188583D01*
X164518Y189183D01*
X165117Y189964D01*
X165494Y190874D01*
X165623Y191850D01*
X165494Y192827D01*
X165117Y193737D01*
X164518Y194518D01*
X163737Y195117D01*
X162827Y195494D01*
X161850Y195623D01*
D02*
G37*
G36*
X151850D02*
X150874Y195494D01*
X149964Y195117D01*
X149183Y194518D01*
X148583Y193737D01*
X148206Y192827D01*
X148078Y191850D01*
X148206Y190874D01*
X148583Y189964D01*
X149183Y189183D01*
X149964Y188583D01*
X150874Y188207D01*
X151850Y188078D01*
X152827Y188207D01*
X153737Y188583D01*
X154518Y189183D01*
X155117Y189964D01*
X155494Y190874D01*
X155623Y191850D01*
X155494Y192827D01*
X155117Y193737D01*
X154518Y194518D01*
X153737Y195117D01*
X152827Y195494D01*
X151850Y195623D01*
D02*
G37*
G36*
X345264Y144340D02*
X343713D01*
X343652Y144315D01*
X343588Y144328D01*
X342067Y144025D01*
X342012Y143989D01*
X341947D01*
X340514Y143395D01*
X340468Y143349D01*
X340403Y143336D01*
X339114Y142474D01*
X339077Y142420D01*
X339017Y142395D01*
X337920Y141298D01*
X337895Y141238D01*
X337841Y141201D01*
X336979Y139912D01*
X336966Y139847D01*
X336920Y139801D01*
X336326Y138368D01*
Y138303D01*
X336290Y138248D01*
X335987Y136727D01*
X336000Y136663D01*
X335975Y136602D01*
Y135051D01*
X336000Y134991D01*
X335987Y134926D01*
X336290Y133405D01*
X336326Y133351D01*
Y133285D01*
X336920Y131852D01*
X336966Y131806D01*
X336979Y131742D01*
X337841Y130452D01*
X337895Y130416D01*
X337920Y130355D01*
X339017Y129259D01*
X339077Y129234D01*
X339114Y129179D01*
X340403Y128317D01*
X340468Y128305D01*
X340514Y128258D01*
X341947Y127665D01*
X342012D01*
X342067Y127628D01*
X343588Y127326D01*
X343652Y127339D01*
X343713Y127313D01*
X345264D01*
X345324Y127339D01*
X345388Y127326D01*
X346910Y127628D01*
X346964Y127665D01*
X347030D01*
X348463Y128258D01*
X348509Y128305D01*
X348573Y128317D01*
X349863Y129179D01*
X349899Y129234D01*
X349960Y129259D01*
X351056Y130355D01*
X351081Y130416D01*
X351136Y130452D01*
X351997Y131742D01*
X352010Y131806D01*
X352057Y131852D01*
X352650Y133285D01*
Y133351D01*
X352687Y133405D01*
X352989Y134926D01*
X352976Y134991D01*
X353001Y135051D01*
Y136602D01*
X352976Y136663D01*
X352989Y136727D01*
X352687Y138248D01*
X352650Y138303D01*
Y138368D01*
X352057Y139801D01*
X352010Y139847D01*
X351997Y139912D01*
X351136Y141201D01*
X351081Y141238D01*
X351056Y141298D01*
X349960Y142395D01*
X349899Y142420D01*
X349863Y142474D01*
X348573Y143336D01*
X348509Y143349D01*
X348463Y143395D01*
X347030Y143989D01*
X346964D01*
X346910Y144025D01*
X345388Y144328D01*
X345324Y144315D01*
X345264Y144340D01*
D02*
G37*
G36*
X49988D02*
X48437D01*
X48377Y144315D01*
X48312Y144328D01*
X46791Y144025D01*
X46737Y143989D01*
X46671D01*
X45238Y143395D01*
X45192Y143349D01*
X45128Y143336D01*
X43838Y142474D01*
X43802Y142420D01*
X43741Y142395D01*
X42644Y141298D01*
X42619Y141238D01*
X42565Y141201D01*
X41703Y139912D01*
X41690Y139847D01*
X41644Y139801D01*
X41051Y138368D01*
Y138303D01*
X41014Y138248D01*
X40712Y136727D01*
X40724Y136663D01*
X40699Y136602D01*
Y135051D01*
X40724Y134991D01*
X40712Y134926D01*
X41014Y133405D01*
X41051Y133351D01*
Y133285D01*
X41644Y131852D01*
X41690Y131806D01*
X41703Y131742D01*
X42565Y130452D01*
X42619Y130416D01*
X42644Y130355D01*
X43741Y129259D01*
X43802Y129234D01*
X43838Y129179D01*
X45128Y128317D01*
X45192Y128305D01*
X45238Y128258D01*
X46671Y127665D01*
X46737D01*
X46791Y127628D01*
X48312Y127326D01*
X48377Y127339D01*
X48437Y127313D01*
X49988D01*
X50049Y127339D01*
X50113Y127326D01*
X51634Y127628D01*
X51688Y127665D01*
X51754D01*
X53187Y128258D01*
X53233Y128305D01*
X53298Y128317D01*
X54587Y129179D01*
X54624Y129234D01*
X54684Y129259D01*
X55781Y130355D01*
X55806Y130416D01*
X55860Y130452D01*
X56722Y131742D01*
X56735Y131806D01*
X56781Y131852D01*
X57375Y133285D01*
Y133351D01*
X57411Y133405D01*
X57714Y134926D01*
X57701Y134991D01*
X57726Y135051D01*
Y136602D01*
X57701Y136663D01*
X57714Y136727D01*
X57411Y138248D01*
X57375Y138303D01*
Y138368D01*
X56781Y139801D01*
X56735Y139847D01*
X56722Y139912D01*
X55860Y141201D01*
X55806Y141238D01*
X55781Y141298D01*
X54684Y142395D01*
X54624Y142420D01*
X54587Y142474D01*
X53298Y143336D01*
X53233Y143349D01*
X53187Y143395D01*
X51754Y143989D01*
X51688D01*
X51634Y144025D01*
X50113Y144328D01*
X50049Y144315D01*
X49988Y144340D01*
D02*
G37*
G36*
X291854Y101697D02*
X286146D01*
Y95988D01*
X291854D01*
Y101697D01*
D02*
G37*
G36*
X289500Y82384D02*
Y79658D01*
X292226D01*
X292180Y80010D01*
X291851Y80803D01*
X291328Y81485D01*
X290646Y82008D01*
X289852Y82337D01*
X289500Y82384D01*
D02*
G37*
G36*
X288500D02*
X288148Y82337D01*
X287354Y82008D01*
X286672Y81485D01*
X286149Y80803D01*
X285820Y80010D01*
X285774Y79658D01*
X288500D01*
Y82384D01*
D02*
G37*
G36*
X172350Y82860D02*
Y79240D01*
X175970D01*
X175893Y79823D01*
X175475Y80833D01*
X174810Y81700D01*
X173943Y82365D01*
X172934Y82783D01*
X172350Y82860D01*
D02*
G37*
G36*
X171350Y82860D02*
X170767Y82783D01*
X169758Y82365D01*
X168891Y81700D01*
X168226Y80833D01*
X167808Y79823D01*
X167731Y79240D01*
X171350D01*
Y82860D01*
D02*
G37*
G36*
X292226Y78658D02*
X289500D01*
Y75931D01*
X289852Y75978D01*
X290646Y76307D01*
X291328Y76830D01*
X291851Y77512D01*
X292180Y78306D01*
X292226Y78658D01*
D02*
G37*
G36*
X288500D02*
X285774D01*
X285820Y78306D01*
X286149Y77512D01*
X286672Y76830D01*
X287354Y76307D01*
X288148Y75978D01*
X288500Y75931D01*
Y78658D01*
D02*
G37*
G36*
X175970Y78240D02*
X172350D01*
Y74621D01*
X172934Y74697D01*
X173943Y75116D01*
X174810Y75781D01*
X175475Y76648D01*
X175893Y77657D01*
X175970Y78240D01*
D02*
G37*
G36*
X171350D02*
X167731D01*
X167808Y77657D01*
X168226Y76648D01*
X168891Y75781D01*
X169758Y75116D01*
X170767Y74697D01*
X171350Y74621D01*
Y78240D01*
D02*
G37*
G36*
X92035Y73803D02*
Y70382D01*
X95456D01*
X95386Y70914D01*
X94988Y71875D01*
X94355Y72701D01*
X93529Y73335D01*
X92567Y73733D01*
X92035Y73803D01*
D02*
G37*
G36*
X91035D02*
X90504Y73733D01*
X89542Y73335D01*
X88716Y72701D01*
X88083Y71875D01*
X87684Y70914D01*
X87614Y70382D01*
X91035D01*
Y73803D01*
D02*
G37*
G36*
X66445D02*
Y70382D01*
X69866D01*
X69796Y70914D01*
X69398Y71875D01*
X68764Y72701D01*
X67938Y73335D01*
X66977Y73733D01*
X66445Y73803D01*
D02*
G37*
G36*
X65445D02*
X64913Y73733D01*
X63951Y73335D01*
X63126Y72701D01*
X62492Y71875D01*
X62094Y70914D01*
X62024Y70382D01*
X65445D01*
Y73803D01*
D02*
G37*
G36*
X95456Y69382D02*
X92035D01*
Y65961D01*
X92567Y66031D01*
X93529Y66429D01*
X94355Y67063D01*
X94988Y67888D01*
X95386Y68850D01*
X95456Y69382D01*
D02*
G37*
G36*
X91035D02*
X87614D01*
X87684Y68850D01*
X88083Y67888D01*
X88716Y67063D01*
X89542Y66429D01*
X90504Y66031D01*
X91035Y65961D01*
Y69382D01*
D02*
G37*
G36*
X69866D02*
X66445D01*
Y65961D01*
X66977Y66031D01*
X67938Y66429D01*
X68764Y67063D01*
X69398Y67888D01*
X69796Y68850D01*
X69866Y69382D01*
D02*
G37*
G36*
X65445D02*
X62024D01*
X62094Y68850D01*
X62492Y67888D01*
X63126Y67063D01*
X63951Y66429D01*
X64913Y66031D01*
X65445Y65961D01*
Y69382D01*
D02*
G37*
%LPD*%
D14*
X289000Y79158D02*
D03*
D15*
Y98843D02*
D03*
D22*
X65945Y87598D02*
X91535D01*
X91000Y88134D02*
Y162000D01*
Y88134D02*
X91535Y87598D01*
X130850Y201850D02*
X151850D01*
X91000Y162000D02*
X130850Y201850D01*
X90866Y250634D02*
X92878Y248622D01*
X90866Y250634D02*
Y257874D01*
X92878Y248622D02*
X115378D01*
X126500Y237500D01*
Y231500D02*
Y237500D01*
Y231500D02*
X146500Y211500D01*
X172201D01*
X181850Y201850D01*
X181500Y79090D02*
Y102000D01*
Y79090D02*
X181850Y78740D01*
X197000Y117500D02*
Y197000D01*
X181500Y102000D02*
X197000Y117500D01*
Y197000D02*
X201850Y201850D01*
X191850Y78740D02*
Y98850D01*
X207000Y114000D01*
Y197000D01*
X211850Y201850D01*
X202000Y78890D02*
Y97000D01*
X201850Y78740D02*
X202000Y78890D01*
X216818Y111818D02*
Y196818D01*
X202000Y97000D02*
X216818Y111818D01*
Y196818D02*
X221850Y201850D01*
X211850Y78740D02*
X212000Y78890D01*
Y90500D01*
X227000Y105500D01*
Y197000D01*
X231850Y201850D01*
X221850Y78740D02*
Y84850D01*
X237360Y100360D02*
Y197360D01*
X221850Y84850D02*
X237360Y100360D01*
Y197360D02*
X241850Y201850D01*
X200236Y268504D02*
X210866Y257874D01*
X81009Y268504D02*
X200236D01*
X200500Y210500D02*
X207500D01*
X191850Y201850D02*
X200500Y210500D01*
X207500D02*
X210866Y213866D01*
Y257874D01*
X80938Y257946D02*
Y268432D01*
X81009Y268504D01*
X80866Y257874D02*
X80938Y257946D01*
D23*
X91535Y69882D02*
D03*
Y87598D02*
D03*
X65945Y69882D02*
D03*
Y87598D02*
D03*
D24*
X181850Y201850D02*
D03*
Y191850D02*
D03*
X191850Y201850D02*
D03*
X201850D02*
D03*
X191850Y191850D02*
D03*
X201850D02*
D03*
X211850Y201850D02*
D03*
Y191850D02*
D03*
X221850Y201850D02*
D03*
Y191850D02*
D03*
X231850Y201850D02*
D03*
Y191850D02*
D03*
X241850Y201850D02*
D03*
X171850Y191850D02*
D03*
X161850D02*
D03*
X151850D02*
D03*
X171850Y201850D02*
D03*
X161850D02*
D03*
X151850D02*
D03*
X171850Y78740D02*
D03*
X181850D02*
D03*
X201850D02*
D03*
X211850D02*
D03*
X191850D02*
D03*
D25*
X241850Y191850D02*
D03*
X221850Y78740D02*
D03*
D26*
X70866Y257874D02*
D03*
D27*
X80866D02*
D03*
X90866D02*
D03*
X100866D02*
D03*
X110866D02*
D03*
X120866D02*
D03*
X130866D02*
D03*
X140866D02*
D03*
X150866D02*
D03*
X160866D02*
D03*
X170866D02*
D03*
X180866D02*
D03*
X190866D02*
D03*
X200866D02*
D03*
X210866D02*
D03*
X220866D02*
D03*
D28*
X81009Y268504D02*
D03*
X70959D02*
D03*
M02*
