G04*
G04 #@! TF.GenerationSoftware,Altium Limited,Altium Designer,21.3.2 (30)*
G04*
G04 Layer_Color=32896*
%FSLAX25Y25*%
%MOIN*%
G70*
G04*
G04 #@! TF.SameCoordinates,C5F37314-CDAC-41E9-AC7F-4832BFE522EA*
G04*
G04*
G04 #@! TF.FilePolarity,Positive*
G04*
G01*
G75*
%ADD10C,0.00787*%
G36*
X289699Y87952D02*
X289691Y87875D01*
X289687Y87806D01*
X289680Y87744D01*
X289672Y87698D01*
X289668Y87664D01*
X289661Y87641D01*
Y87633D01*
X289641Y87575D01*
X289622Y87522D01*
X289603Y87472D01*
X289584Y87433D01*
X289564Y87399D01*
X289549Y87376D01*
X289541Y87360D01*
X289538Y87357D01*
X289503Y87318D01*
X289465Y87280D01*
X289426Y87249D01*
X289388Y87222D01*
X289353Y87203D01*
X289326Y87184D01*
X289307Y87176D01*
X289300Y87172D01*
X289242Y87145D01*
X289184Y87126D01*
X289127Y87115D01*
X289077Y87103D01*
X289035Y87099D01*
X289000Y87095D01*
X288977D01*
X288969D01*
X288889Y87099D01*
X288816Y87115D01*
X288754Y87134D01*
X288697Y87157D01*
X288651Y87184D01*
X288616Y87203D01*
X288597Y87218D01*
X288589Y87222D01*
X288531Y87272D01*
X288485Y87330D01*
X288447Y87387D01*
X288412Y87445D01*
X288389Y87495D01*
X288370Y87537D01*
X288366Y87552D01*
X288363Y87564D01*
X288359Y87572D01*
Y87575D01*
X288324Y87510D01*
X288286Y87456D01*
X288251Y87410D01*
X288213Y87372D01*
X288182Y87345D01*
X288155Y87322D01*
X288140Y87310D01*
X288132Y87307D01*
X288078Y87276D01*
X288021Y87257D01*
X287971Y87241D01*
X287925Y87230D01*
X287883Y87222D01*
X287852Y87218D01*
X287833D01*
X287825D01*
X287760Y87222D01*
X287698Y87234D01*
X287645Y87249D01*
X287595Y87268D01*
X287552Y87287D01*
X287518Y87303D01*
X287499Y87314D01*
X287491Y87318D01*
X287433Y87360D01*
X287387Y87403D01*
X287345Y87449D01*
X287310Y87495D01*
X287287Y87533D01*
X287268Y87564D01*
X287257Y87587D01*
X287253Y87591D01*
Y87595D01*
X287226Y87664D01*
X287207Y87740D01*
X287195Y87817D01*
X287184Y87890D01*
X287180Y87955D01*
Y87982D01*
X287176Y88009D01*
Y89000D01*
X289699D01*
Y87952D01*
D02*
G37*
G36*
X288777Y86627D02*
X288843Y86623D01*
X288904Y86615D01*
X288958Y86608D01*
X289012Y86600D01*
X289058Y86592D01*
X289100Y86581D01*
X289138Y86573D01*
X289173Y86565D01*
X289204Y86558D01*
X289227Y86550D01*
X289246Y86542D01*
X289257Y86539D01*
X289265Y86535D01*
X289269D01*
X289349Y86493D01*
X289422Y86443D01*
X289480Y86393D01*
X289530Y86339D01*
X289572Y86293D01*
X289599Y86251D01*
X289611Y86235D01*
X289614Y86228D01*
X289622Y86220D01*
Y86216D01*
X289661Y86128D01*
X289691Y86028D01*
X289710Y85932D01*
X289726Y85840D01*
X289730Y85797D01*
X289733Y85759D01*
X289737Y85725D01*
Y85694D01*
X289741Y85671D01*
Y85636D01*
X289733Y85506D01*
X289718Y85390D01*
X289710Y85337D01*
X289699Y85291D01*
X289684Y85245D01*
X289672Y85206D01*
X289661Y85172D01*
X289645Y85137D01*
X289634Y85110D01*
X289626Y85091D01*
X289614Y85072D01*
X289611Y85060D01*
X289603Y85053D01*
Y85049D01*
X289545Y84972D01*
X289488Y84903D01*
X289426Y84849D01*
X289369Y84807D01*
X289315Y84776D01*
X289277Y84753D01*
X289261Y84745D01*
X289250Y84741D01*
X289242Y84738D01*
X289238D01*
X289150Y84707D01*
X289050Y84688D01*
X288950Y84672D01*
X288854Y84661D01*
X288808Y84657D01*
X288766Y84653D01*
X288731D01*
X288697Y84649D01*
X288670D01*
X288651D01*
X288639D01*
X288635D01*
X287176D01*
Y84983D01*
X288635D01*
X288720D01*
X288800Y84991D01*
X288869Y84999D01*
X288935Y85006D01*
X288996Y85018D01*
X289046Y85033D01*
X289092Y85049D01*
X289134Y85060D01*
X289169Y85075D01*
X289200Y85091D01*
X289223Y85102D01*
X289242Y85118D01*
X289257Y85125D01*
X289269Y85133D01*
X289273Y85141D01*
X289277D01*
X289307Y85172D01*
X289330Y85210D01*
X289372Y85291D01*
X289399Y85375D01*
X289422Y85463D01*
X289434Y85540D01*
X289438Y85575D01*
Y85605D01*
X289442Y85632D01*
Y85667D01*
X289438Y85744D01*
X289430Y85813D01*
X289415Y85874D01*
X289399Y85928D01*
X289388Y85970D01*
X289372Y86001D01*
X289365Y86020D01*
X289361Y86028D01*
X289326Y86082D01*
X289288Y86124D01*
X289246Y86162D01*
X289207Y86189D01*
X289173Y86212D01*
X289146Y86228D01*
X289127Y86235D01*
X289119Y86239D01*
X289088Y86251D01*
X289054Y86258D01*
X288977Y86274D01*
X288896Y86281D01*
X288820Y86289D01*
X288747Y86293D01*
X288716Y86297D01*
X288689D01*
X288666D01*
X288651D01*
X288639D01*
X288635D01*
X287176D01*
Y86631D01*
X288635D01*
X288708D01*
X288777Y86627D01*
D02*
G37*
G36*
X289699Y82303D02*
X289403D01*
Y83916D01*
X289223Y83762D01*
X287472Y82345D01*
X287176D01*
Y84150D01*
X287472D01*
Y82745D01*
X287522Y82791D01*
X287575Y82841D01*
X287625Y82883D01*
X287671Y82925D01*
X287714Y82960D01*
X287744Y82987D01*
X287767Y83002D01*
X287771Y83010D01*
X287775D01*
X289392Y84296D01*
X289699D01*
Y82303D01*
D02*
G37*
G36*
Y80153D02*
X289403D01*
Y81765D01*
X289223Y81612D01*
X287472Y80195D01*
X287176D01*
Y82000D01*
X287472D01*
Y80594D01*
X287522Y80640D01*
X287575Y80690D01*
X287625Y80733D01*
X287671Y80775D01*
X287714Y80809D01*
X287744Y80836D01*
X287767Y80852D01*
X287771Y80859D01*
X287775D01*
X289392Y82146D01*
X289699D01*
Y80153D01*
D02*
G37*
G36*
Y77902D02*
X289403D01*
Y79450D01*
X288543D01*
Y78056D01*
X288247D01*
Y79450D01*
X287472D01*
Y77960D01*
X287176D01*
Y79784D01*
X289699D01*
Y77902D01*
D02*
G37*
G36*
Y77104D02*
X288578D01*
Y76674D01*
X288581Y76635D01*
Y76604D01*
X288585Y76578D01*
X288589Y76558D01*
Y76543D01*
X288593Y76535D01*
Y76531D01*
X288612Y76474D01*
X288635Y76428D01*
X288647Y76409D01*
X288654Y76393D01*
X288658Y76386D01*
X288662Y76382D01*
X288681Y76351D01*
X288708Y76324D01*
X288762Y76267D01*
X288789Y76247D01*
X288812Y76228D01*
X288827Y76217D01*
X288831Y76213D01*
X288881Y76174D01*
X288935Y76136D01*
X288992Y76094D01*
X289050Y76055D01*
X289100Y76021D01*
X289138Y75994D01*
X289154Y75986D01*
X289165Y75979D01*
X289173Y75971D01*
X289177D01*
X289699Y75637D01*
Y75218D01*
X289015Y75656D01*
X288942Y75706D01*
X288877Y75756D01*
X288820Y75802D01*
X288770Y75844D01*
X288731Y75879D01*
X288701Y75906D01*
X288685Y75925D01*
X288677Y75933D01*
X288654Y75959D01*
X288631Y75994D01*
X288589Y76059D01*
X288574Y76086D01*
X288562Y76109D01*
X288555Y76125D01*
X288551Y76132D01*
X288539Y76067D01*
X288528Y76005D01*
X288512Y75948D01*
X288493Y75898D01*
X288474Y75848D01*
X288455Y75806D01*
X288436Y75763D01*
X288416Y75729D01*
X288397Y75698D01*
X288382Y75671D01*
X288363Y75648D01*
X288351Y75629D01*
X288336Y75618D01*
X288328Y75606D01*
X288320Y75598D01*
X288286Y75568D01*
X288247Y75541D01*
X288171Y75495D01*
X288098Y75464D01*
X288025Y75445D01*
X287963Y75429D01*
X287936Y75426D01*
X287913D01*
X287894Y75422D01*
X287879D01*
X287871D01*
X287867D01*
X287790Y75426D01*
X287721Y75437D01*
X287656Y75456D01*
X287598Y75476D01*
X287552Y75495D01*
X287518Y75514D01*
X287495Y75525D01*
X287487Y75529D01*
X287426Y75572D01*
X287376Y75618D01*
X287333Y75664D01*
X287303Y75710D01*
X287276Y75748D01*
X287257Y75779D01*
X287249Y75802D01*
X287245Y75806D01*
Y75810D01*
X287234Y75844D01*
X287222Y75883D01*
X287207Y75963D01*
X287191Y76048D01*
X287184Y76128D01*
X287180Y76205D01*
Y76236D01*
X287176Y76267D01*
Y77438D01*
X289699D01*
Y77104D01*
D02*
G37*
G36*
X72544Y271019D02*
X72586Y270958D01*
X72632Y270900D01*
X72678Y270846D01*
X72720Y270804D01*
X72755Y270770D01*
X72778Y270746D01*
X72782Y270743D01*
X72786Y270739D01*
X72859Y270677D01*
X72935Y270620D01*
X73012Y270570D01*
X73081Y270528D01*
X73143Y270493D01*
X73170Y270481D01*
X73193Y270470D01*
X73208Y270458D01*
X73223Y270451D01*
X73231Y270447D01*
X73235D01*
Y270144D01*
X73181Y270167D01*
X73124Y270194D01*
X73070Y270216D01*
X73020Y270243D01*
X72978Y270266D01*
X72943Y270286D01*
X72920Y270301D01*
X72916Y270305D01*
X72912D01*
X72847Y270343D01*
X72789Y270386D01*
X72739Y270420D01*
X72697Y270455D01*
X72663Y270481D01*
X72636Y270501D01*
X72620Y270516D01*
X72617Y270520D01*
Y268546D01*
X72306D01*
Y271080D01*
X72509D01*
X72544Y271019D01*
D02*
G37*
G36*
X74921Y271104D02*
X75036Y271088D01*
X75139Y271061D01*
X75186Y271050D01*
X75228Y271035D01*
X75266Y271019D01*
X75305Y271008D01*
X75335Y270992D01*
X75358Y270981D01*
X75381Y270973D01*
X75397Y270965D01*
X75405Y270958D01*
X75408D01*
X75504Y270896D01*
X75593Y270823D01*
X75666Y270750D01*
X75723Y270677D01*
X75773Y270612D01*
X75792Y270585D01*
X75808Y270562D01*
X75819Y270539D01*
X75827Y270524D01*
X75835Y270516D01*
Y270512D01*
X75884Y270401D01*
X75923Y270282D01*
X75946Y270167D01*
X75965Y270059D01*
X75973Y270009D01*
X75977Y269967D01*
X75981Y269925D01*
Y269890D01*
X75984Y269863D01*
Y269844D01*
Y269829D01*
Y269825D01*
X75981Y269690D01*
X75965Y269568D01*
X75942Y269452D01*
X75931Y269399D01*
X75919Y269353D01*
X75907Y269306D01*
X75896Y269268D01*
X75884Y269233D01*
X75873Y269203D01*
X75865Y269180D01*
X75858Y269164D01*
X75854Y269153D01*
Y269149D01*
X75800Y269038D01*
X75735Y268942D01*
X75673Y268857D01*
X75608Y268792D01*
X75554Y268738D01*
X75508Y268700D01*
X75489Y268688D01*
X75477Y268677D01*
X75470Y268673D01*
X75466Y268669D01*
X75416Y268638D01*
X75362Y268615D01*
X75255Y268573D01*
X75143Y268546D01*
X75036Y268523D01*
X74990Y268519D01*
X74944Y268512D01*
X74905Y268508D01*
X74871D01*
X74840Y268504D01*
X74802D01*
X74729Y268508D01*
X74660Y268512D01*
X74533Y268538D01*
X74475Y268554D01*
X74418Y268573D01*
X74368Y268592D01*
X74322Y268611D01*
X74279Y268631D01*
X74245Y268650D01*
X74214Y268669D01*
X74187Y268684D01*
X74164Y268700D01*
X74149Y268711D01*
X74141Y268715D01*
X74137Y268719D01*
X74087Y268761D01*
X74041Y268807D01*
X73965Y268907D01*
X73895Y269011D01*
X73845Y269114D01*
X73822Y269161D01*
X73807Y269203D01*
X73792Y269245D01*
X73776Y269276D01*
X73769Y269306D01*
X73761Y269326D01*
X73757Y269341D01*
Y269345D01*
X74091Y269429D01*
X74122Y269318D01*
X74160Y269218D01*
X74206Y269138D01*
X74249Y269068D01*
X74291Y269018D01*
X74325Y268980D01*
X74348Y268957D01*
X74352Y268953D01*
X74356Y268949D01*
X74433Y268896D01*
X74510Y268857D01*
X74590Y268827D01*
X74663Y268807D01*
X74729Y268796D01*
X74759Y268792D01*
X74782D01*
X74802Y268788D01*
X74828D01*
X74913Y268792D01*
X74994Y268807D01*
X75067Y268827D01*
X75128Y268846D01*
X75182Y268869D01*
X75224Y268884D01*
X75239Y268892D01*
X75251Y268899D01*
X75255Y268903D01*
X75258D01*
X75328Y268953D01*
X75385Y269011D01*
X75435Y269068D01*
X75477Y269130D01*
X75508Y269180D01*
X75527Y269226D01*
X75535Y269241D01*
X75543Y269253D01*
X75546Y269260D01*
Y269264D01*
X75577Y269356D01*
X75600Y269452D01*
X75616Y269548D01*
X75627Y269637D01*
X75631Y269675D01*
X75635Y269710D01*
Y269744D01*
X75639Y269771D01*
Y269794D01*
Y269810D01*
Y269821D01*
Y269825D01*
X75635Y269917D01*
X75627Y270005D01*
X75616Y270086D01*
X75600Y270159D01*
X75585Y270220D01*
X75581Y270247D01*
X75573Y270266D01*
X75570Y270286D01*
X75566Y270297D01*
X75562Y270305D01*
Y270309D01*
X75527Y270393D01*
X75485Y270470D01*
X75439Y270531D01*
X75397Y270585D01*
X75354Y270627D01*
X75320Y270658D01*
X75297Y270677D01*
X75293Y270685D01*
X75289D01*
X75213Y270731D01*
X75132Y270766D01*
X75051Y270793D01*
X74974Y270808D01*
X74905Y270819D01*
X74878Y270823D01*
X74852D01*
X74832Y270827D01*
X74805D01*
X74713Y270823D01*
X74633Y270808D01*
X74560Y270789D01*
X74502Y270766D01*
X74452Y270739D01*
X74418Y270720D01*
X74395Y270704D01*
X74387Y270700D01*
X74325Y270647D01*
X74275Y270585D01*
X74229Y270516D01*
X74195Y270451D01*
X74168Y270393D01*
X74156Y270366D01*
X74145Y270343D01*
X74137Y270324D01*
X74133Y270309D01*
X74130Y270301D01*
Y270297D01*
X73799Y270374D01*
X73845Y270497D01*
X73872Y270554D01*
X73899Y270604D01*
X73930Y270654D01*
X73961Y270700D01*
X73988Y270739D01*
X74018Y270777D01*
X74045Y270808D01*
X74072Y270835D01*
X74099Y270862D01*
X74118Y270881D01*
X74137Y270896D01*
X74149Y270908D01*
X74156Y270912D01*
X74160Y270915D01*
X74210Y270950D01*
X74260Y270981D01*
X74314Y271008D01*
X74368Y271031D01*
X74475Y271065D01*
X74575Y271088D01*
X74621Y271096D01*
X74663Y271100D01*
X74702Y271104D01*
X74733Y271107D01*
X74759Y271111D01*
X74798D01*
X74921Y271104D01*
D02*
G37*
%LPC*%
G36*
X288240Y88666D02*
X287472D01*
Y88071D01*
X287479Y87990D01*
X287483Y87925D01*
X287491Y87871D01*
X287499Y87833D01*
X287502Y87806D01*
X287510Y87787D01*
Y87783D01*
X287525Y87744D01*
X287545Y87710D01*
X287568Y87679D01*
X287587Y87656D01*
X287610Y87637D01*
X287625Y87621D01*
X287637Y87614D01*
X287641Y87610D01*
X287679Y87591D01*
X287717Y87575D01*
X287752Y87564D01*
X287787Y87556D01*
X287817Y87552D01*
X287840Y87549D01*
X287860D01*
X287863D01*
X287913Y87552D01*
X287955Y87560D01*
X287994Y87568D01*
X288025Y87579D01*
X288052Y87595D01*
X288071Y87602D01*
X288082Y87610D01*
X288086Y87614D01*
X288117Y87641D01*
X288144Y87671D01*
X288167Y87702D01*
X288182Y87733D01*
X288197Y87764D01*
X288205Y87787D01*
X288209Y87802D01*
X288213Y87806D01*
X288221Y87848D01*
X288228Y87894D01*
X288232Y87948D01*
X288236Y88002D01*
X288240Y88048D01*
Y88666D01*
D02*
G37*
G36*
X289403D02*
X288535D01*
Y88002D01*
X288543Y87925D01*
X288547Y87863D01*
X288555Y87810D01*
X288562Y87771D01*
X288570Y87740D01*
X288574Y87725D01*
X288578Y87717D01*
X288597Y87671D01*
X288620Y87633D01*
X288643Y87598D01*
X288670Y87572D01*
X288693Y87549D01*
X288708Y87529D01*
X288723Y87522D01*
X288727Y87518D01*
X288766Y87491D01*
X288808Y87472D01*
X288850Y87460D01*
X288889Y87449D01*
X288919Y87445D01*
X288946Y87441D01*
X288962D01*
X288969D01*
X289015Y87445D01*
X289054Y87449D01*
X289092Y87456D01*
X289123Y87464D01*
X289150Y87476D01*
X289169Y87483D01*
X289180Y87487D01*
X289184Y87491D01*
X289215Y87510D01*
X289246Y87533D01*
X289269Y87552D01*
X289288Y87575D01*
X289307Y87595D01*
X289319Y87606D01*
X289323Y87618D01*
X289326Y87621D01*
X289357Y87683D01*
X289376Y87744D01*
X289384Y87771D01*
X289388Y87794D01*
X289392Y87810D01*
Y87813D01*
X289395Y87840D01*
X289399Y87875D01*
X289403Y87952D01*
Y88666D01*
D02*
G37*
G36*
X288290Y77104D02*
X287456D01*
Y76309D01*
X287460Y76209D01*
X287475Y76125D01*
X287491Y76055D01*
X287514Y75998D01*
X287533Y75955D01*
X287552Y75921D01*
X287568Y75906D01*
X287572Y75898D01*
X287618Y75856D01*
X287667Y75821D01*
X287717Y75798D01*
X287764Y75783D01*
X287806Y75775D01*
X287837Y75767D01*
X287860D01*
X287863D01*
X287867D01*
X287913Y75771D01*
X287955Y75779D01*
X287994Y75790D01*
X288025Y75802D01*
X288055Y75813D01*
X288075Y75825D01*
X288090Y75833D01*
X288094Y75836D01*
X288128Y75863D01*
X288159Y75894D01*
X288186Y75929D01*
X288209Y75959D01*
X288224Y75986D01*
X288236Y76009D01*
X288240Y76025D01*
X288244Y76032D01*
X288259Y76082D01*
X288270Y76140D01*
X288278Y76201D01*
X288282Y76259D01*
X288286Y76309D01*
X288290Y76351D01*
Y77104D01*
D02*
G37*
%LPD*%
D10*
X68389Y272342D02*
X83579D01*
X68389Y264665D02*
Y272342D01*
Y264665D02*
X83579D01*
Y272342D01*
M02*
