G04*
G04 #@! TF.GenerationSoftware,Altium Limited,Altium Designer,21.3.2 (30)*
G04*
G04 Layer_Color=0*
%FSLAX25Y25*%
%MOIN*%
G70*
G04*
G04 #@! TF.SameCoordinates,C5F37314-CDAC-41E9-AC7F-4832BFE522EA*
G04*
G04*
G04 #@! TF.FilePolarity,Positive*
G04*
G01*
G75*
%ADD10C,0.00787*%
%ADD34C,0.00197*%
D10*
X289000Y62819D02*
X290003Y62838D01*
X291004Y62896D01*
X292003Y62992D01*
X292997Y63126D01*
X293985Y63298D01*
X294966Y63508D01*
X295937Y63755D01*
X296899Y64039D01*
X297850Y64360D01*
X298787Y64717D01*
X299710Y65110D01*
X300617Y65537D01*
X301507Y66000D01*
X302379Y66496D01*
X303231Y67024D01*
X304063Y67586D01*
X304872Y68178D01*
X305658Y68802D01*
X306419Y69454D01*
X307155Y70136D01*
X307864Y70845D01*
X308546Y71581D01*
X309198Y72342D01*
X309822Y73128D01*
X310414Y73938D01*
X310976Y74769D01*
X311505Y75621D01*
X312000Y76493D01*
X312463Y77383D01*
X312890Y78290D01*
X313283Y79213D01*
X313640Y80151D01*
X313961Y81101D01*
X314245Y82063D01*
X314492Y83035D01*
X314702Y84016D01*
X314874Y85004D01*
X315008Y85998D01*
X315104Y86996D01*
X315162Y87997D01*
X315181Y89000D01*
X315162Y90003D01*
X315104Y91004D01*
X315008Y92003D01*
X314874Y92997D01*
X314702Y93985D01*
X314492Y94966D01*
X314245Y95938D01*
X313961Y96899D01*
X313640Y97850D01*
X313283Y98787D01*
X312890Y99710D01*
X312462Y100617D01*
X312000Y101507D01*
X311504Y102379D01*
X310975Y103231D01*
X310414Y104063D01*
X309822Y104872D01*
X309198Y105658D01*
X308545Y106419D01*
X307864Y107155D01*
X307155Y107864D01*
X306419Y108546D01*
X305657Y109199D01*
X304872Y109822D01*
X304062Y110414D01*
X303231Y110976D01*
X302379Y111505D01*
X301507Y112001D01*
X300617Y112463D01*
X299710Y112891D01*
X298787Y113283D01*
X297849Y113640D01*
X296899Y113961D01*
X295937Y114245D01*
X294965Y114492D01*
X293984Y114702D01*
X292996Y114874D01*
X292002Y115008D01*
X291004Y115104D01*
X290002Y115162D01*
X289000Y115181D01*
X287997Y115162D01*
X286996Y115104D01*
X285998Y115008D01*
X285003Y114874D01*
X284015Y114702D01*
X283034Y114492D01*
X282063Y114245D01*
X281101Y113961D01*
X280150Y113640D01*
X279213Y113283D01*
X278290Y112890D01*
X277383Y112463D01*
X276493Y112000D01*
X275621Y111504D01*
X274769Y110976D01*
X273938Y110414D01*
X273128Y109822D01*
X272342Y109198D01*
X271581Y108546D01*
X270845Y107864D01*
X270136Y107155D01*
X269454Y106419D01*
X268801Y105657D01*
X268178Y104872D01*
X267586Y104062D01*
X267024Y103231D01*
X266495Y102379D01*
X266000Y101507D01*
X265537Y100617D01*
X265110Y99710D01*
X264717Y98787D01*
X264360Y97850D01*
X264039Y96899D01*
X263755Y95938D01*
X263508Y94965D01*
X263298Y93985D01*
X263126Y92997D01*
X262992Y92002D01*
X262896Y91004D01*
X262838Y90003D01*
X262819Y89000D01*
X262838Y87997D01*
X262896Y86996D01*
X262992Y85997D01*
X263126Y85003D01*
X263298Y84015D01*
X263508Y83034D01*
X263755Y82062D01*
X264039Y81100D01*
X264360Y80150D01*
X264717Y79213D01*
X265110Y78290D01*
X265537Y77383D01*
X266000Y76493D01*
X266496Y75621D01*
X267025Y74769D01*
X267586Y73937D01*
X268178Y73128D01*
X268802Y72342D01*
X269455Y71581D01*
X270136Y70845D01*
X270845Y70136D01*
X271581Y69454D01*
X272343Y68801D01*
X273129Y68178D01*
X273938Y67586D01*
X274769Y67024D01*
X275621Y66495D01*
X276493Y66000D01*
X277383Y65537D01*
X278290Y65110D01*
X279213Y64717D01*
X280151Y64360D01*
X281101Y64039D01*
X282063Y63755D01*
X283035Y63507D01*
X284015Y63298D01*
X285004Y63126D01*
X285998Y62992D01*
X286996Y62896D01*
X287997Y62838D01*
X289000Y62819D01*
X68389Y272342D02*
X83579D01*
X68389Y264665D02*
Y272342D01*
Y264665D02*
X83579D01*
Y272342D01*
D34*
X263110Y178347D02*
Y215945D01*
X130591Y178347D02*
X263110D01*
X130591D02*
Y215945D01*
X263110D01*
X194882Y196850D02*
X198819D01*
X196850Y194882D02*
Y198819D01*
X165472Y84823D02*
X228228D01*
X165472Y72658D02*
Y84823D01*
Y72658D02*
X228228D01*
Y84823D01*
M02*
