%FSTAX23Y23*%
%MOIN*%
%SFA1B1*%

%IPPOS*%
%AMD53*
4,1,8,-0.031500,0.015700,-0.031500,-0.015700,-0.015700,-0.031500,0.015700,-0.031500,0.031500,-0.015700,0.031500,0.015700,0.015700,0.031500,-0.015700,0.031500,-0.031500,0.015700,0.0*
1,1,0.031500,-0.015700,0.015700*
1,1,0.031500,-0.015700,-0.015700*
1,1,0.031500,0.015700,-0.015700*
1,1,0.031500,0.015700,0.015700*
%
%AMD54*
4,1,8,-0.015700,-0.031500,0.015700,-0.031500,0.031500,-0.015700,0.031500,0.015700,0.015700,0.031500,-0.015700,0.031500,-0.031500,0.015700,-0.031500,-0.015700,-0.015700,-0.031500,0.0*
1,1,0.031500,-0.015700,-0.015700*
1,1,0.031500,0.015700,-0.015700*
1,1,0.031500,0.015700,0.015700*
1,1,0.031500,-0.015700,0.015700*
%
%ADD20R,0.043520X0.065280*%
%ADD21R,0.098430X0.039370*%
%ADD26R,0.047240X0.047240*%
%ADD27C,0.047240*%
%ADD30R,0.059840X0.059840*%
%ADD31C,0.059840*%
%ADD32R,0.045280X0.045280*%
%ADD33C,0.045280*%
%ADD38R,0.055910X0.055910*%
%ADD40C,0.055910*%
%ADD41C,0.137800*%
%ADD42R,0.047240X0.047240*%
%ADD44R,0.055120X0.055120*%
%ADD45C,0.055120*%
%ADD47O,0.080710X0.023620*%
%ADD48O,0.023620X0.080710*%
%ADD50R,0.059060X0.059060*%
%ADD51C,0.059060*%
%ADD52C,0.062990*%
G04~CAMADD=53~8~0.0~0.0~629.9~629.9~157.5~0.0~15~0.0~0.0~0.0~0.0~0~0.0~0.0~0.0~0.0~0~0.0~0.0~0.0~90.0~630.0~630.0*
%ADD53D53*%
G04~CAMADD=54~8~0.0~0.0~629.9~629.9~157.5~0.0~15~0.0~0.0~0.0~0.0~0~0.0~0.0~0.0~0.0~0~0.0~0.0~0.0~180.0~630.0~630.0*
%ADD54D54*%
%ADD55C,0.088580*%
%ADD56C,0.060000*%
%LNpcb_down-1*%
%LPD*%
G54D20*
X01679Y0171D03*
X0178D03*
X03189Y00895D03*
X0329D03*
X02349Y0105D03*
X0245D03*
G54D21*
X02762Y01167D03*
Y01266D03*
G54D26*
X0268Y00906D03*
X02985Y00815D03*
X02685Y0065D03*
G54D27*
X0268Y00985D03*
X01713Y0099D03*
X01906D03*
X00137Y01653D03*
X02011Y01805D03*
X02985Y00894D03*
X02103Y00835D03*
X01516D03*
X02685Y00728D03*
G54D30*
X03188Y01031D03*
G54D31*
X03188Y01131D03*
Y01231D03*
Y01331D03*
G54D32*
X01Y02125D03*
G54D33*
X009Y02225D03*
X008Y02125D03*
G54D38*
X0182Y00623D03*
G54D40*
X0182Y00544D03*
X01722D03*
Y00623D03*
G54D41*
X02008Y00438D03*
X01534D03*
G54D42*
X00216Y01653D03*
X0209Y01805D03*
X01906Y00835D03*
X01713D03*
G54D44*
X01253Y01811D03*
X01236Y00511D03*
G54D45*
X01355Y01811D03*
X01457D03*
X01377Y00708D03*
Y00314D03*
G54D47*
X02035Y01535D03*
Y01503D03*
Y01472D03*
Y0144D03*
Y01409D03*
Y01377D03*
Y01346D03*
Y01314D03*
Y01283D03*
Y01251D03*
Y0122D03*
X01586D03*
Y01251D03*
Y01283D03*
Y01314D03*
Y01346D03*
Y01377D03*
Y01409D03*
Y0144D03*
Y01472D03*
Y01503D03*
Y01535D03*
G54D48*
X01968Y01153D03*
X01937D03*
X01905D03*
X01874D03*
X01842D03*
X01811D03*
X01779D03*
X01748D03*
X01716D03*
X01685D03*
X01653D03*
Y01602D03*
X01685D03*
X01716D03*
X01748D03*
X01779D03*
X01811D03*
X01842D03*
X01874D03*
X01905D03*
X01937D03*
X01968D03*
G54D50*
X0265Y0117D03*
G54D51*
X0265Y0127D03*
Y0137D03*
Y0147D03*
X0235Y0117D03*
Y0127D03*
Y0137D03*
Y0147D03*
X0254Y01675D03*
Y01775D03*
G54D52*
X00826Y00944D03*
Y00844D03*
Y01044D03*
Y01144D03*
X01621Y02075D03*
Y02175D03*
X01721Y02075D03*
X01821D03*
X01721Y02175D03*
X01821D03*
X01921Y02075D03*
Y02175D03*
X02021Y02075D03*
Y02175D03*
X02121Y02075D03*
Y02175D03*
X02221Y02075D03*
X01521Y02175D03*
X01421D03*
X01321D03*
X01521Y02075D03*
X01421D03*
X01321D03*
G54D53*
X00826Y00744D03*
G54D54*
X02221Y02175D03*
G54D55*
X02362Y00807D03*
Y00216D03*
G54D56*
X00137Y01031D03*
Y01132D03*
Y01229D03*
Y01331D03*
M02*