%FSTAX23Y23*%
%MOIN*%
%SFA1B1*%

%IPPOS*%
%ADD10C,0.007870*%
%LNpcb_down-1*%
%LPD*%
G54D10*
X0222Y01263D02*
Y01396D01*
Y01263D02*
X02289D01*
Y01396*
X0222D02*
X02289D01*
X0211Y01153D02*
Y01286D01*
Y01153D02*
X02179D01*
Y01286*
X0211D02*
X02179D01*
X01688Y02017D02*
X01751D01*
Y01892D02*
Y02017D01*
X01688Y01892D02*
X01751D01*
X01688D02*
Y02017D01*
X02546Y01335D02*
Y01404D01*
X02413Y01335D02*
X02546D01*
X02413D02*
Y01404D01*
X02546*
Y0143D02*
Y01499D01*
X02413Y0143D02*
X02546D01*
X02413D02*
Y01499D01*
X02546*
X01385Y00575D02*
Y00644D01*
X01251Y00575D02*
X01385D01*
X01251D02*
Y00644D01*
X01385*
X01267Y00381D02*
Y00444D01*
X01393*
Y00381D02*
Y00444D01*
X01267Y00381D02*
X01393D01*
X00698Y00237D02*
X00761D01*
X00698D02*
Y00362D01*
X00761*
Y00237D02*
Y00362D01*
X00898Y00527D02*
X00961D01*
X00898D02*
Y00652D01*
X00961*
Y00527D02*
Y00652D01*
X00673Y00957D02*
X00736D01*
Y00832D02*
Y00957D01*
X00673Y00832D02*
X00736D01*
X00673D02*
Y00957D01*
X00793Y00237D02*
X00856D01*
X00793D02*
Y00362D01*
X00856*
Y00237D02*
Y00362D01*
X00791Y00643D02*
X00858D01*
Y00496D02*
Y00643D01*
X00791Y00496D02*
X00858D01*
X00791D02*
Y00643D01*
X00342Y01205D02*
Y01274D01*
X00208Y01205D02*
X00342D01*
X00208D02*
Y01274D01*
X00342*
X00326Y01299D02*
Y01362D01*
X002Y01299D02*
X00326D01*
X002D02*
Y01362D01*
X00326*
X02197Y00673D02*
X02352D01*
Y00486D02*
Y00673D01*
X02197Y00486D02*
X02352D01*
X02197D02*
Y00673D01*
X024Y00693D02*
X02509D01*
Y00516D02*
Y00693D01*
X024Y00516D02*
X02509D01*
X024D02*
Y00693D01*
M02*