%FSTAX23Y23*%
%MOIN*%
%SFA1B1*%

%IPPOS*%
%AMD53*
4,1,8,-0.031500,0.015700,-0.031500,-0.015700,-0.015700,-0.031500,0.015700,-0.031500,0.031500,-0.015700,0.031500,0.015700,0.015700,0.031500,-0.015700,0.031500,-0.031500,0.015700,0.0*
1,1,0.031500,-0.015700,0.015700*
1,1,0.031500,-0.015700,-0.015700*
1,1,0.031500,0.015700,-0.015700*
1,1,0.031500,0.015700,0.015700*
%
%AMD54*
4,1,8,-0.015700,-0.031500,0.015700,-0.031500,0.031500,-0.015700,0.031500,0.015700,0.015700,0.031500,-0.015700,0.031500,-0.031500,0.015700,-0.031500,-0.015700,-0.015700,-0.031500,0.0*
1,1,0.031500,-0.015700,-0.015700*
1,1,0.031500,0.015700,-0.015700*
1,1,0.031500,0.015700,0.015700*
1,1,0.031500,-0.015700,0.015700*
%
%ADD14C,0.005000*%
%ADD15C,0.010000*%
%ADD20R,0.043520X0.065280*%
%ADD26R,0.047240X0.047240*%
%ADD27C,0.047240*%
%ADD30R,0.059840X0.059840*%
%ADD31C,0.059840*%
%ADD32R,0.045280X0.045280*%
%ADD33C,0.045280*%
%ADD38R,0.055910X0.055910*%
%ADD40C,0.055910*%
%ADD41C,0.137800*%
%ADD42R,0.047240X0.047240*%
%ADD44R,0.055120X0.055120*%
%ADD45C,0.055120*%
%ADD50R,0.059060X0.059060*%
%ADD51C,0.059060*%
%ADD52C,0.062990*%
G04~CAMADD=53~8~0.0~0.0~629.9~629.9~157.5~0.0~15~0.0~0.0~0.0~0.0~0~0.0~0.0~0.0~0.0~0~0.0~0.0~0.0~90.0~630.0~630.0*
%ADD53D53*%
G04~CAMADD=54~8~0.0~0.0~629.9~629.9~157.5~0.0~15~0.0~0.0~0.0~0.0~0~0.0~0.0~0.0~0.0~0~0.0~0.0~0.0~180.0~630.0~630.0*
%ADD54D54*%
%ADD55C,0.088580*%
%ADD56C,0.060000*%
%ADD57C,0.023620*%
%ADD58R,0.059060X0.051180*%
%ADD59R,0.065280X0.043520*%
%ADD60R,0.051180X0.059060*%
%ADD61R,0.065280X0.037640*%
%ADD62R,0.079920X0.055120*%
%ADD63R,0.088980X0.085040*%
%ADD64R,0.066140X0.066930*%
%LNpcb_down-1*%
%LPD*%
G36*
X03382Y02347D02*
X03405Y0234D01*
X03428Y02331*
X03449Y02319*
X03468Y02304*
X03485Y02287*
X035Y02268*
X03512Y02247*
X03521Y02224*
X03528Y02201*
X03531Y02177*
Y02165*
Y00196*
Y00184*
X03528Y0016*
X03521Y00137*
X03512Y00114*
X035Y00093*
X03485Y00074*
X03468Y00057*
X03449Y00042*
X03428Y0003*
X03405Y00021*
X03382Y00015*
X03358Y00012*
X00184*
X0016Y00015*
X00137Y00021*
X00114Y0003*
X00093Y00042*
X00074Y00057*
X00057Y00074*
X00042Y00093*
X0003Y00114*
X00021Y00137*
X00015Y0016*
X00012Y00184*
Y00196*
Y02165*
Y02177*
X00015Y02201*
X00021Y02224*
X0003Y02247*
X00042Y02268*
X00057Y02287*
X00074Y02304*
X00093Y02319*
X00114Y02331*
X00137Y0234*
X0016Y02347*
X00184Y0235*
X03358*
X03382Y02347*
G37*
%LNpcb_down-2*%
%LPC*%
G36*
X0164Y02267D02*
X0093D01*
X00925Y02266*
X0092Y02264*
X00912Y02255*
X00908Y02256*
X009Y02257*
X00891Y02256*
X00883Y02253*
X00876Y02248*
X00871Y02241*
X00868Y02233*
X00867Y02225*
X00868Y02216*
X00871Y02208*
X00876Y02201*
X00883Y02196*
X00891Y02193*
X009Y02192*
X00908Y02193*
X00916Y02196*
X00923Y02201*
X00928Y02208*
X00931Y02216*
X00932Y02225*
X00931Y02233*
X0093Y02237*
X00935Y02242*
X01634*
X01652Y02224*
Y02211*
X01647Y02208*
X01642Y02212*
X01632Y02216*
X01621Y02217*
X0161Y02216*
X016Y02212*
X01592Y02205*
X01585Y02196*
X01581Y02186*
X01579Y02175*
X01581Y02165*
X01584Y02156*
X01565Y02138*
X01563Y02134*
X01562Y02129*
Y02099*
X0156Y02098*
X01557Y02097*
X01551Y02105*
X01542Y02112*
X01532Y02116*
X01526Y02117*
Y02075*
Y02034*
X01532Y02035*
X01542Y02039*
X01551Y02046*
X01557Y02054*
X0156Y02053*
X01562Y02052*
Y0184*
X01563Y01835*
X01565Y0183*
X0165Y01745*
X01655Y01743*
X01657Y01742*
X01657Y01737*
X01645*
X01482Y019*
Y0205*
X01487Y02052*
X01492Y02046*
X015Y02039*
X0151Y02035*
X01516Y02034*
Y02075*
Y02117*
X0151Y02116*
X015Y02112*
X01492Y02105*
X01487Y02099*
X01482Y02101*
Y02119*
X01502Y02138*
X0151Y02135*
X01521Y02134*
X01532Y02135*
X01542Y02139*
X01551Y02146*
X01557Y02155*
X01562Y02165*
X01563Y02175*
X01562Y02186*
X01557Y02196*
X01551Y02205*
X01542Y02212*
X01532Y02216*
X01521Y02217*
X0151Y02216*
X015Y02212*
X01492Y02205*
X01485Y02196*
X01481Y02186*
X01479Y02175*
X01481Y02165*
X01484Y02156*
X0146Y02133*
X01458Y02129*
X01457Y02124*
Y02105*
X01452Y02103*
X01451Y02105*
X01442Y02112*
X01432Y02116*
X01421Y02117*
X0141Y02116*
X014Y02112*
X01392Y02105*
X01387Y02099*
X01382Y02101*
Y02119*
X01402Y02138*
X0141Y02135*
X01421Y02134*
X01432Y02135*
X01442Y02139*
X01451Y02146*
X01457Y02155*
X01462Y02165*
X01463Y02175*
X01462Y02186*
X01457Y02196*
X01451Y02205*
X01442Y02212*
X01432Y02216*
X01421Y02217*
X0141Y02216*
X014Y02212*
X01392Y02205*
X01385Y02196*
X01381Y02186*
X01379Y02175*
X01381Y02165*
X01384Y02156*
X0136Y02133*
X01358Y02129*
X01357Y02124*
Y02105*
X01352Y02103*
X01351Y02105*
X01342Y02112*
X01332Y02116*
X01321Y02117*
X0131Y02116*
X013Y02112*
X01292Y02105*
X01285Y02096*
X01281Y02086*
X01279Y02075*
X01281Y02065*
X01285Y02055*
X01292Y02046*
X013Y02039*
X0131Y02035*
X01321Y02034*
X01332Y02035*
X01342Y02039*
X01351Y02046*
X01352Y02048*
X01357Y02046*
Y01895*
X01358Y0189*
X0136Y01885*
X01397Y01849*
Y01819*
X01392Y01819*
X01392Y0182*
X01388Y01829*
X01382Y01837*
X01374Y01843*
X01365Y01847*
X01355Y01848*
X01345Y01847*
X01336Y01843*
X01328Y01837*
X01322Y01829*
X01318Y0182*
X01317Y01811*
X01318Y01801*
X01322Y01792*
X01328Y01784*
X01336Y01778*
X01337Y01777*
Y01559*
X01332Y01558*
X0133Y0156*
X01323Y01565*
X01315Y01567*
X01306Y01565*
X01299Y0156*
X01297Y01557*
X01167*
X01165Y0156*
X01158Y01565*
X0115Y01567*
X01141Y01565*
X01134Y0156*
X01129Y01553*
X01127Y01545*
X01129Y01536*
X01134Y01529*
X01141Y01524*
X0115Y01522*
X01158Y01524*
X01165Y01529*
X01167Y01532*
X01297*
X01299Y01529*
X01306Y01524*
X01315Y01522*
X01323Y01524*
X0133Y01529*
X01332Y01531*
X01337Y0153*
Y01515*
X01332Y01513*
X01328Y01515*
X0132Y01517*
X01311Y01515*
X01304Y0151*
X01302Y01507*
X01167*
X01165Y0151*
X01158Y01515*
X0115Y01517*
X01141Y01515*
X01134Y0151*
X01129Y01503*
X01127Y01495*
X01129Y01486*
X01134Y01479*
X01141Y01474*
X0115Y01472*
X01158Y01474*
X01165Y01479*
X01167Y01482*
X01302*
X01304Y01479*
X01311Y01474*
X0132Y01472*
X01328Y01474*
X01332Y01476*
X01337Y01474*
Y01199*
X01332Y01198*
X0133Y012*
X01323Y01205*
X01315Y01207*
X01311Y01206*
X01102Y01415*
Y02044*
X01221Y02163*
X01282*
X01285Y02155*
X01292Y02146*
X013Y02139*
X0131Y02135*
X01321Y02134*
X01332Y02135*
X01342Y02139*
X01351Y02146*
X01357Y02155*
X01362Y02165*
X01363Y02175*
X01362Y02186*
X01357Y02196*
X01351Y02205*
X01342Y02212*
X01332Y02216*
X01321Y02217*
X0131Y02216*
X013Y02212*
X01292Y02205*
X01285Y02196*
X01282Y02188*
X01215*
X01211Y02187*
X01206Y02185*
X0108Y02059*
X01078Y02054*
X01077Y0205*
Y0141*
X01078Y01405*
X0108Y014*
X01293Y01188*
X01292Y01185*
X01294Y01176*
X01299Y01169*
X01306Y01164*
X01315Y01162*
X01323Y01164*
X0133Y01169*
X01332Y01171*
X01337Y0117*
Y0108*
X01338Y01075*
X0134Y0107*
X015Y0091*
X01505Y00908*
X0151Y00907*
X0208*
X02084Y00908*
X02089Y0091*
X02154Y00975*
X02156Y0098*
X02157Y00985*
Y01123*
X02184*
Y01194*
X02105*
Y01123*
X02132*
Y0099*
X02074Y00932*
X01515*
X01362Y01085*
Y01107*
X01367Y01107*
X01368Y01105*
X0137Y011*
X01398Y01073*
X01397Y0107*
X01399Y01061*
X01404Y01054*
X01411Y01049*
X0142Y01047*
X01428Y01049*
X01435Y01054*
X0144Y01061*
X01442Y0107*
X0144Y01078*
X01435Y01085*
X01428Y0109*
X0142Y01092*
X01416Y01091*
X01392Y01115*
Y01152*
X01397Y01152*
X01398Y0115*
X014Y01145*
X01448Y01098*
X01447Y01095*
X01449Y01086*
X01454Y01079*
X01461Y01074*
X0147Y01072*
X01478Y01074*
X01485Y01079*
X0149Y01086*
X01492Y01095*
X0149Y01103*
X01485Y0111*
X01478Y01115*
X0147Y01117*
X01466Y01116*
X01422Y0116*
Y01786*
X01427Y01788*
X01431Y01784*
X01438Y01778*
X01448Y01774*
X01452Y01773*
Y01811*
Y01848*
X01448Y01847*
X01438Y01843*
X01431Y01837*
X01427Y01833*
X01422Y01835*
Y01855*
X01421Y01859*
X01419Y01864*
X01382Y019*
Y0205*
X01387Y02052*
X01392Y02046*
X014Y02039*
X0141Y02035*
X01421Y02034*
X01432Y02035*
X01442Y02039*
X01451Y02046*
X01452Y02048*
X01457Y02046*
Y01895*
X01458Y0189*
X0146Y01885*
X0163Y01715*
X01635Y01713*
X0164Y01712*
X01713*
X01715Y01707*
X01714Y017*
X01716Y01691*
X0172Y01684*
X01728Y01679*
X01736Y01677*
X01745Y01679*
X01752Y01684*
X01754Y01687*
X01801*
X01804Y01682*
X01803Y0168*
X01846*
X01845Y01682*
X01848Y01687*
X02055*
X02059Y01688*
X02064Y0169*
X02231Y01858*
X02234Y01863*
X02235Y01867*
Y01957*
X02234Y01962*
X02234Y01963*
Y02036*
X02242Y02039*
X02251Y02046*
X02257Y02055*
X02262Y02065*
X02263Y02075*
X02262Y02086*
X02257Y02096*
X02251Y02105*
X02242Y02112*
X02232Y02116*
X02221Y02117*
X0221Y02116*
X022Y02112*
X02192Y02105*
X02185Y02096*
X02181Y02086*
X02179Y02075*
X02181Y02065*
X02185Y02055*
X02192Y02046*
X022Y02039*
X02208Y02036*
Y01959*
X02209Y01954*
X0221Y01953*
Y01873*
X02128Y01791*
X02123Y01793*
Y018*
X02095*
Y01771*
X02101*
X02103Y01766*
X02049Y01712*
X01868*
X01865Y01717*
X01867Y01725*
X01866Y01729*
X0187Y01733*
X01875Y01732*
X01883Y01734*
X0189Y01739*
X01895Y01746*
X01897Y01754*
X01897Y01755*
X01901Y01758*
X01905Y01757*
X01913Y01759*
X0192Y01764*
X01925Y01771*
X01927Y0178*
X01925Y01788*
X0192Y01795*
X01913Y018*
X01905Y01802*
X01896Y018*
X01889Y01795*
X01887Y01792*
X0185*
X01848Y01797*
X0185Y01801*
X01851Y01807*
X01855*
X0186Y01808*
X01864Y01811*
X02096Y02043*
X021Y02039*
X0211Y02035*
X02121Y02034*
X02132Y02035*
X02142Y02039*
X02151Y02046*
X02157Y02055*
X02162Y02065*
X02163Y02075*
X02162Y02086*
X02157Y02096*
X02151Y02105*
X02142Y02112*
X02132Y02116*
X02121Y02117*
X0211Y02116*
X021Y02112*
X02092Y02105*
X02085Y02096*
X02081Y02086*
X02079Y02075*
X02081Y02065*
X02081Y02064*
X02038Y02021*
X02033Y02023*
X02034Y02026*
Y02036*
X02042Y02039*
X02051Y02046*
X02057Y02055*
X02062Y02065*
X02063Y02075*
X02062Y02086*
X02057Y02096*
X02051Y02105*
X02042Y02112*
X02032Y02116*
X02021Y02117*
X0201Y02116*
X02Y02112*
X01992Y02105*
X01985Y02096*
X01981Y02086*
X01979Y02075*
X01981Y02065*
X01985Y02055*
X01992Y02046*
X02Y02039*
X02008Y02036*
X02008Y02031*
X01843Y01866*
X0184Y01867*
X01831Y01865*
X01828Y01863*
X01825Y01867*
X0193Y01972*
X01933Y01976*
X01934Y01981*
Y02036*
X01942Y02039*
X01951Y02046*
X01957Y02055*
X01962Y02065*
X01963Y02075*
X01962Y02086*
X01957Y02096*
X01951Y02105*
X01942Y02112*
X01932Y02116*
X01921Y02117*
X0191Y02116*
X019Y02112*
X01892Y02105*
X01885Y02096*
X01881Y02086*
X01879Y02075*
X01881Y02065*
X01885Y02055*
X01892Y02046*
X019Y02039*
X01908Y02036*
Y01986*
X01811Y01889*
X01806Y01891*
X01807Y01895*
X01806Y01898*
X0183Y01922*
X01833Y01926*
X01834Y01931*
Y02036*
X01842Y02039*
X01851Y02046*
X01857Y02055*
X01862Y02065*
X01863Y02075*
X01862Y02086*
X01857Y02096*
X01851Y02105*
X01842Y02112*
X01832Y02116*
X01821Y02117*
X0181Y02116*
X018Y02112*
X01792Y02105*
X01785Y02096*
X01781Y02086*
X01779Y02075*
X01781Y02065*
X01785Y02055*
X01792Y02046*
X018Y02039*
X01808Y02036*
Y01936*
X01788Y01916*
X01785Y01917*
X01776Y01915*
X01769Y0191*
X01767Y01908*
X01762Y01909*
Y01936*
X01725*
Y01904*
Y01872*
X01762*
Y0188*
X01767Y01881*
X01769Y01879*
X01776Y01874*
X01777Y01874*
X01778Y01868*
X01774Y01865*
X01769Y01858*
X01767Y0185*
X01769Y01841*
X01774Y01834*
X01781Y01829*
X0179Y01827*
X01798Y01829*
X01805Y01834*
X0181Y01841*
X01812Y0185*
X01811Y01853*
X01817Y01859*
X01821Y01856*
X01819Y01853*
X01817Y01845*
X01819Y01836*
X0182Y01835*
X01819Y01828*
X01814Y01825*
X01809Y01818*
X01807Y0181*
X01809Y01801*
X01811Y01797*
X01809Y01792*
X01693*
X01687Y01798*
Y01872*
X01715*
Y01904*
Y01936*
X01687*
Y01973*
X01762*
Y02037*
X01747*
X01745Y02042*
X01751Y02046*
X01757Y02055*
X01762Y02065*
X01763Y02075*
X01762Y02086*
X01757Y02096*
X01751Y02105*
X01742Y02112*
X01732Y02116*
X01721Y02117*
X0171Y02116*
X017Y02112*
X01692Y02106*
X01687Y02107*
Y02129*
X01699Y02141*
X017Y02139*
X0171Y02135*
X01721Y02134*
X01732Y02135*
X01742Y02139*
X01751Y02146*
X01757Y02155*
X01762Y02165*
X01763Y02175*
X01762Y02186*
X01757Y02196*
X01751Y02205*
X01742Y02212*
X01732Y02216*
X01721Y02217*
X0171Y02216*
X017Y02212*
X01692Y02205*
X01685Y02196*
X01682Y0219*
X01677Y02191*
Y0223*
X01676Y02234*
X01674Y02239*
X01649Y02264*
X01644Y02266*
X0164Y02267*
G37*
G36*
X02237Y02217D02*
X02205D01*
X02199Y02216*
X02192Y02214*
X02187Y0221*
X02183Y02204*
X0218Y02198*
X02179Y02191*
Y0216*
X0218Y02153*
X02183Y02147*
X02187Y02141*
X02192Y02137*
X02199Y02135*
X02205Y02134*
X02237*
X02244Y02135*
X0225Y02137*
X02255Y02141*
X02259Y02147*
X02262Y02153*
X02263Y0216*
Y02191*
X02262Y02198*
X02259Y02204*
X02255Y0221*
X0225Y02214*
X02244Y02216*
X02237Y02217*
G37*
G36*
X02121Y02217D02*
X0211Y02216D01*
X021Y02212*
X02092Y02205*
X02085Y02196*
X02081Y02186*
X02079Y02175*
X02081Y02165*
X02085Y02155*
X02092Y02146*
X021Y02139*
X0211Y02135*
X02121Y02134*
X02132Y02135*
X02142Y02139*
X02151Y02146*
X02157Y02155*
X02162Y02165*
X02163Y02175*
X02162Y02186*
X02157Y02196*
X02151Y02205*
X02142Y02212*
X02132Y02216*
X02121Y02217*
G37*
G36*
X02021D02*
X0201Y02216D01*
X02Y02212*
X01992Y02205*
X01985Y02196*
X01981Y02186*
X01979Y02175*
X01981Y02165*
X01985Y02155*
X01992Y02146*
X02Y02139*
X0201Y02135*
X02021Y02134*
X02032Y02135*
X02042Y02139*
X02051Y02146*
X02057Y02155*
X02062Y02165*
X02063Y02175*
X02062Y02186*
X02057Y02196*
X02051Y02205*
X02042Y02212*
X02032Y02216*
X02021Y02217*
G37*
G36*
X01921D02*
X0191Y02216D01*
X019Y02212*
X01892Y02205*
X01885Y02196*
X01881Y02186*
X01879Y02175*
X01881Y02165*
X01885Y02155*
X01892Y02146*
X019Y02139*
X0191Y02135*
X01921Y02134*
X01932Y02135*
X01942Y02139*
X01951Y02146*
X01957Y02155*
X01962Y02165*
X01963Y02175*
X01962Y02186*
X01957Y02196*
X01951Y02205*
X01942Y02212*
X01932Y02216*
X01921Y02217*
G37*
G36*
X01821D02*
X0181Y02216D01*
X018Y02212*
X01792Y02205*
X01785Y02196*
X01781Y02186*
X01779Y02175*
X01781Y02165*
X01785Y02155*
X01792Y02146*
X018Y02139*
X0181Y02135*
X01821Y02134*
X01832Y02135*
X01842Y02139*
X01851Y02146*
X01857Y02155*
X01862Y02165*
X01863Y02175*
X01862Y02186*
X01857Y02196*
X01851Y02205*
X01842Y02212*
X01832Y02216*
X01821Y02217*
G37*
G36*
X00805Y02157D02*
Y0213D01*
X00832*
X00831Y02133*
X00828Y02141*
X00823Y02148*
X00816Y02153*
X00808Y02156*
X00805Y02157*
G37*
G36*
X00795D02*
X00791Y02156D01*
X00783Y02153*
X00776Y02148*
X00771Y02141*
X00768Y02133*
X00767Y0213*
X00795*
Y02157*
G37*
G36*
X00832Y0212D02*
X00805D01*
Y02092*
X00808Y02093*
X00816Y02096*
X00823Y02101*
X00828Y02108*
X00831Y02116*
X00832Y0212*
G37*
G36*
X00795D02*
X00767D01*
X00768Y02116*
X00771Y02108*
X00776Y02101*
X00783Y02096*
X00791Y02093*
X00795Y02092*
Y0212*
G37*
G36*
X01032Y02157D02*
X00967D01*
Y02092*
X01032*
Y02157*
G37*
G36*
X03157Y02059D02*
X03141D01*
X0314Y02059*
X03139*
X03124Y02056*
X03123Y02055*
X03122Y02055*
X03107Y02049*
X03106Y02048*
X03105Y02048*
X03092Y02039*
X03091Y02038*
X0309Y02038*
X03079Y02027*
X03079Y02026*
X03078Y02025*
X03069Y02012*
X03069Y02011*
X03068Y0201*
X03062Y01996*
X03062Y01994*
X03062Y01993*
X03059Y01978*
Y01977*
X03058Y01976*
Y0196*
X03059Y01959*
Y01958*
X03062Y01943*
X03062Y01942*
X03062Y0194*
X03068Y01926*
X03069Y01925*
X03069Y01924*
X03078Y01911*
X03079Y0191*
X03079Y01909*
X0309Y01898*
X03091Y01898*
X03092Y01897*
X03105Y01888*
X03106Y01888*
X03107Y01887*
X03122Y01881*
X03123Y01881*
X03124Y0188*
X03139Y01877*
X0314*
X03141Y01877*
X03157*
X03158Y01877*
X03159*
X03174Y0188*
X03176Y01881*
X03177Y01881*
X03191Y01887*
X03192Y01888*
X03193Y01888*
X03206Y01897*
X03207Y01898*
X03208Y01898*
X03219Y01909*
X03219Y0191*
X0322Y01911*
X03229Y01924*
X03229Y01925*
X0323Y01926*
X03236Y0194*
X03236Y01942*
X03237Y01943*
X0324Y01958*
Y01959*
X0324Y0196*
Y01976*
X0324Y01977*
Y01978*
X03237Y01993*
X03236Y01994*
X03236Y01996*
X0323Y0201*
X03229Y02011*
X03229Y02012*
X0322Y02025*
X03219Y02026*
X03219Y02027*
X03208Y02038*
X03207Y02038*
X03206Y02039*
X03193Y02048*
X03192Y02048*
X03191Y02049*
X03177Y02055*
X03176Y02055*
X03174Y02056*
X03159Y02059*
X03158*
X03157Y02059*
G37*
G36*
X00401D02*
X00385D01*
X00384Y02059*
X00383*
X00368Y02056*
X00367Y02055*
X00366Y02055*
X00351Y02049*
X0035Y02048*
X00349Y02048*
X00336Y02039*
X00335Y02038*
X00334Y02038*
X00324Y02027*
X00323Y02026*
X00322Y02025*
X00313Y02012*
X00313Y02011*
X00312Y0201*
X00306Y01996*
X00306Y01994*
X00306Y01993*
X00303Y01978*
Y01977*
X00302Y01976*
Y0196*
X00303Y01959*
Y01958*
X00306Y01943*
X00306Y01942*
X00306Y0194*
X00312Y01926*
X00313Y01925*
X00313Y01924*
X00322Y01911*
X00323Y0191*
X00324Y01909*
X00334Y01898*
X00335Y01898*
X00336Y01897*
X00349Y01888*
X0035Y01888*
X00351Y01887*
X00366Y01881*
X00367Y01881*
X00368Y0188*
X00383Y01877*
X00384*
X00385Y01877*
X00401*
X00402Y01877*
X00403*
X00419Y0188*
X0042Y01881*
X00421Y01881*
X00435Y01887*
X00436Y01888*
X00437Y01888*
X0045Y01897*
X00451Y01898*
X00452Y01898*
X00463Y01909*
X00464Y0191*
X00464Y01911*
X00473Y01924*
X00473Y01925*
X00474Y01926*
X0048Y0194*
X0048Y01942*
X00481Y01943*
X00484Y01958*
Y01959*
X00484Y0196*
Y01976*
X00484Y01977*
Y01978*
X00481Y01993*
X0048Y01994*
X0048Y01996*
X00474Y0201*
X00473Y02011*
X00473Y02012*
X00464Y02025*
X00464Y02026*
X00463Y02027*
X00452Y02038*
X00451Y02038*
X0045Y02039*
X00437Y02048*
X00436Y02048*
X00435Y02049*
X00421Y02055*
X0042Y02055*
X00419Y02056*
X00403Y02059*
X00402*
X00401Y02059*
G37*
G36*
X01462Y01848D02*
Y01816D01*
X01495*
X01494Y0182*
X0149Y01829*
X01484Y01837*
X01476Y01843*
X01467Y01847*
X01462Y01848*
G37*
G36*
X02123Y01838D02*
X02095D01*
Y0181*
X02123*
Y01838*
G37*
G36*
X02085D02*
X02056D01*
Y0181*
X02085*
Y01838*
G37*
G36*
X01495Y01806D02*
X01462D01*
Y01773*
X01467Y01774*
X01476Y01778*
X01484Y01784*
X0149Y01792*
X01494Y01801*
X01495Y01806*
G37*
G36*
X0129Y01848D02*
X01215D01*
Y01773*
X0129*
Y01848*
G37*
G36*
X02085Y018D02*
X02056D01*
Y01771*
X02085*
Y018*
G37*
G36*
X02011Y01838D02*
X02002Y01837D01*
X01994Y01834*
X01987Y01828*
X01981Y01821*
X01978Y01813*
X01977Y01805*
X01978Y01796*
X01981Y01788*
X01987Y01781*
X01994Y01775*
X02002Y01772*
X02011Y01771*
X0202Y01772*
X02028Y01775*
X02035Y01781*
X0204Y01788*
X02044Y01796*
X02045Y01805*
X02044Y01813*
X0204Y01821*
X02035Y01828*
X02028Y01834*
X0202Y01837*
X02011Y01838*
G37*
G36*
X0254Y01814D02*
X02529Y01813D01*
X0252Y01809*
X02511Y01803*
X02505Y01794*
X02501Y01785*
X025Y01775*
X02501Y01764*
X02505Y01755*
X02511Y01746*
X0252Y0174*
X02529Y01736*
X0254Y01735*
X0255Y01736*
X02559Y0174*
X02568Y01746*
X02574Y01755*
X02578Y01764*
X02579Y01775*
X02578Y01785*
X02574Y01794*
X02568Y01803*
X02559Y01809*
X0255Y01813*
X0254Y01814*
G37*
G36*
X01635Y01706D02*
Y0169D01*
X01651*
X0165Y01693*
X01645Y017*
X01638Y01705*
X01635Y01706*
G37*
G36*
X01625D02*
X01621Y01705D01*
X01614Y017*
X01609Y01693*
X01608Y0169*
X01625*
Y01706*
G37*
G36*
X01651Y0168D02*
X01635D01*
Y01663*
X01638Y01664*
X01645Y01669*
X0165Y01676*
X01651Y0168*
G37*
G36*
X01625D02*
X01608D01*
X01609Y01676*
X01614Y01669*
X01621Y01664*
X01625Y01663*
Y0168*
G37*
G36*
X0025Y01687D02*
X00221D01*
Y01658*
X0025*
Y01687*
G37*
G36*
X00211D02*
X00182D01*
Y01658*
X00211*
Y01687*
G37*
G36*
X01846Y0167D02*
X0183D01*
Y01653*
X01833Y01654*
X0184Y01659*
X01845Y01666*
X01846Y0167*
G37*
G36*
X0182D02*
X01803D01*
X01804Y01666*
X01809Y01659*
X01816Y01654*
X0182Y01653*
Y0167*
G37*
G36*
X0254Y01714D02*
X02529Y01713D01*
X0252Y01709*
X02511Y01703*
X02505Y01694*
X02501Y01685*
X025Y01675*
X02501Y01664*
X02505Y01655*
X02511Y01646*
X0252Y0164*
X02529Y01636*
X0254Y01635*
X0255Y01636*
X02559Y0164*
X02568Y01646*
X02574Y01655*
X02578Y01664*
X02579Y01675*
X02578Y01685*
X02574Y01694*
X02568Y01703*
X02559Y01709*
X0255Y01713*
X0254Y01714*
G37*
G36*
X0025Y01648D02*
X00221D01*
Y01619*
X0025*
Y01648*
G37*
G36*
X00211D02*
X00182D01*
Y01619*
X00211*
Y01648*
G37*
G36*
X00137Y01687D02*
X00129Y01686D01*
X0012Y01682*
X00113Y01677*
X00108Y0167*
X00105Y01662*
X00103Y01653*
X00105Y01644*
X00108Y01636*
X00113Y01629*
X0012Y01624*
X00129Y0162*
X00137Y01619*
X00146Y0162*
X00154Y01624*
X00161Y01629*
X00167Y01636*
X0017Y01644*
X00171Y01653*
X0017Y01662*
X00167Y0167*
X00161Y01677*
X00154Y01682*
X00146Y01686*
X00137Y01687*
G37*
G36*
X0235Y01509D02*
X02339Y01508D01*
X0233Y01504*
X02321Y01498*
X02315Y01489*
X02312Y01482*
X02132*
X0213Y01485*
X02123Y0149*
X02115Y01492*
X02106Y0149*
X02099Y01485*
X02094Y01478*
X02092Y0147*
X02094Y01461*
X02099Y01454*
X02106Y01449*
X02115Y01447*
X02123Y01449*
X0213Y01454*
X02132Y01457*
X02312*
X02315Y0145*
X02321Y01441*
X0233Y01435*
X02339Y01431*
X0235Y0143*
X0236Y01431*
X02369Y01435*
X02378Y01441*
X02378Y01442*
X02383Y0144*
Y01425*
X02454*
Y01504*
X02383*
Y01499*
X02378Y01497*
X02378Y01498*
X02369Y01504*
X0236Y01508*
X0235Y01509*
G37*
G36*
X02655Y01509D02*
Y01475D01*
X02689*
X02688Y0148*
X02684Y01489*
X02678Y01498*
X02669Y01504*
X0266Y01508*
X02655Y01509*
G37*
G36*
X02645D02*
X02639Y01508D01*
X0263Y01504*
X02621Y01498*
X02615Y01489*
X02611Y0148*
X0261Y01475*
X02645*
Y01509*
G37*
G36*
X02689Y01465D02*
X02655D01*
Y0143*
X0266Y01431*
X02669Y01435*
X02678Y01441*
X02684Y0145*
X02688Y01459*
X02689Y01465*
G37*
G36*
X02645D02*
X0261D01*
X02611Y01459*
X02615Y0145*
X02621Y01441*
X0263Y01435*
X02639Y01431*
X02645Y0143*
Y01465*
G37*
G36*
X02294Y01426D02*
X02215D01*
Y01355*
X02294*
Y01426*
G37*
G36*
X00245Y01373D02*
X00181D01*
Y01341*
X00176Y01341*
Y01341*
X00172Y01351*
X00166Y01359*
X00157Y01366*
X00148Y0137*
X00137Y01371*
X00127Y0137*
X00117Y01366*
X00109Y01359*
X00102Y01351*
X00098Y01341*
X00097Y01331*
X00098Y0132*
X00102Y0131*
X00109Y01302*
X00117Y01296*
X00127Y01292*
X00137Y0129*
X00148Y01292*
X00157Y01296*
X00166Y01302*
X00172Y0131*
X00176Y0132*
Y0132*
X00181Y0132*
Y01288*
X00198*
Y01279*
X00178*
Y01248*
X00173Y01247*
X00172Y0125*
X00166Y01258*
X00157Y01264*
X00148Y01268*
X00137Y0127*
X00127Y01268*
X00117Y01264*
X00109Y01258*
X00102Y0125*
X00098Y0124*
X00097Y01229*
X00098Y01219*
X00102Y01209*
X00109Y01201*
X00117Y01194*
X00127Y0119*
X00137Y01189*
X00148Y0119*
X00155Y01194*
X00193Y01155*
X00197Y01153*
X00202Y01152*
X00265*
X0027Y01153*
X00274Y01155*
X00319Y012*
X00372*
Y01227*
X01164*
X01288Y01103*
X01287Y011*
X01289Y01091*
X01294Y01084*
X01301Y01079*
X0131Y01077*
X01318Y01079*
X01325Y01084*
X0133Y01091*
X01332Y011*
X0133Y01108*
X01325Y01115*
X01318Y0112*
X0131Y01122*
X01306Y01121*
X01178Y01249*
X01174Y01251*
X01169Y01252*
X00372*
Y01279*
X00301*
Y01218*
X0026Y01177*
X00208*
X00189Y01196*
X00191Y012*
X0025*
Y01279*
X00228*
Y01288*
X00245*
Y01373*
G37*
G36*
X00345D02*
X00319D01*
Y01335*
X00345*
Y01373*
G37*
G36*
X00309D02*
X00282D01*
Y01335*
X00309*
Y01373*
G37*
G36*
X0235Y01409D02*
X02339Y01408D01*
X0233Y01404*
X02321Y01398*
X02315Y01389*
X02311Y0138*
X0231Y0137*
X02311Y01359*
X02315Y0135*
X02321Y01341*
X0233Y01335*
X02339Y01331*
X0235Y0133*
X0236Y01331*
X02369Y01335*
X02378Y01341*
X02378Y01342*
X02383Y0134*
Y0133*
X02454*
Y01409*
X02383*
Y01399*
X02378Y01397*
X02378Y01398*
X02369Y01404*
X0236Y01408*
X0235Y01409*
G37*
G36*
X02115Y01557D02*
X02106Y01555D01*
X02099Y0155*
X02094Y01543*
X02092Y01535*
X02094Y01526*
X02099Y01519*
X02106Y01514*
X02115Y01512*
X02123Y01514*
X0213Y01519*
X02132Y01522*
X03134*
X03177Y01479*
Y01369*
X03168Y01365*
X0316Y01359*
X03154Y01351*
X0315Y01341*
X03148Y01331*
X0315Y0132*
X03154Y0131*
X0316Y01302*
X03168Y01296*
X03178Y01292*
X03188Y0129*
X03199Y01292*
X03209Y01296*
X03217Y01302*
X03223Y0131*
X03227Y0132*
X03229Y01331*
X03227Y01341*
X03223Y01351*
X03217Y01359*
X03209Y01365*
X03202Y01368*
Y01485*
X03201Y01489*
X03199Y01494*
X03149Y01544*
X03144Y01546*
X0314Y01547*
X02132*
X0213Y0155*
X02123Y01555*
X02115Y01557*
G37*
G36*
X00345Y01325D02*
X00319D01*
Y01288*
X00345*
Y01325*
G37*
G36*
X00309D02*
X00282D01*
Y01288*
X00309*
Y01325*
G37*
G36*
X0235Y01309D02*
X02339Y01308D01*
X0233Y01304*
X02321Y01298*
X02315Y01289*
X02312Y01282*
X02294*
Y01304*
X02215*
Y01233*
X02294*
Y01257*
X02312*
X02315Y0125*
X02321Y01241*
X0233Y01235*
X02339Y01231*
X0235Y0123*
X0236Y01231*
X02369Y01235*
X02378Y01241*
X02384Y0125*
X02388Y01259*
X02389Y0127*
X02388Y0128*
X02384Y01289*
X02378Y01298*
X02369Y01304*
X0236Y01308*
X0235Y01309*
G37*
G36*
X02115Y01627D02*
X02106Y01625D01*
X02099Y0162*
X02094Y01613*
X02092Y01605*
X02094Y01596*
X02099Y01589*
X02106Y01584*
X02115Y01582*
X02123Y01584*
X0213Y01589*
X02132Y01592*
X03184*
X03287Y01489*
Y01347*
X03206Y01266*
X03199Y0127*
X03188Y01271*
X03178Y0127*
X03168Y01265*
X0316Y01259*
X03154Y01251*
X0315Y01241*
X03148Y01231*
X0315Y0122*
X03154Y0121*
X0316Y01202*
X03168Y01196*
X03178Y01192*
X03188Y0119*
X03199Y01192*
X03209Y01196*
X03217Y01202*
X03223Y0121*
X03227Y0122*
X03229Y01231*
X03227Y01241*
X03224Y01248*
X03309Y01333*
X03311Y01337*
X03312Y01342*
Y01495*
X03311Y01499*
X03309Y01504*
X03199Y01614*
X03194Y01616*
X0319Y01617*
X02132*
X0213Y0162*
X02123Y01625*
X02115Y01627*
G37*
G36*
X02184Y01316D02*
X02105D01*
Y01245*
X02184*
Y01316*
G37*
G36*
X03193Y0117D02*
Y01136D01*
X03228*
X03227Y01141*
X03223Y01151*
X03217Y01159*
X03209Y01165*
X03199Y0117*
X03193Y0117*
G37*
G36*
X03183D02*
X03178Y0117D01*
X03168Y01165*
X0316Y01159*
X03154Y01151*
X0315Y01141*
X03149Y01136*
X03183*
Y0117*
G37*
G36*
X0147Y01462D02*
X01461Y0146D01*
X01454Y01455*
X01449Y01448*
X01447Y0144*
X01449Y01431*
X01454Y01424*
X01457Y01422*
Y01172*
X01454Y0117*
X01449Y01163*
X01447Y01155*
X01449Y01146*
X01454Y01139*
X01461Y01134*
X0147Y01132*
X01478Y01134*
X01485Y01139*
X0149Y01146*
X01492Y01155*
X0149Y01163*
X01485Y0117*
X01482Y01172*
Y01422*
X01485Y01424*
X0149Y01431*
X01492Y0144*
X0149Y01448*
X01485Y01455*
X01478Y0146*
X0147Y01462*
G37*
G36*
X0235Y01209D02*
X02339Y01208D01*
X0233Y01204*
X02321Y01198*
X02315Y01189*
X02311Y0118*
X0231Y0117*
X02311Y01159*
X02315Y0115*
X02321Y01141*
X0233Y01135*
X02339Y01131*
X0235Y0113*
X0236Y01131*
X02369Y01135*
X02378Y01141*
X02384Y0115*
X02388Y01159*
X02389Y0117*
X02388Y0118*
X02384Y01189*
X02378Y01198*
X02369Y01204*
X0236Y01208*
X0235Y01209*
G37*
G36*
X02576Y01504D02*
X02505D01*
Y01425*
X02525*
Y01409*
X02505*
Y0133*
X02546*
X02548Y01325*
X02505Y01283*
X02503Y01279*
X02502Y01274*
Y00955*
X02484Y00937*
X02275*
X0227Y00936*
X02265Y00934*
X02053Y00721*
X01413*
X0141Y00727*
X01404Y00735*
X01396Y00741*
X01387Y00745*
X01377Y00746*
X01368Y00745*
X01359Y00741*
X01351Y00735*
X01345Y00727*
X01341Y00718*
X0134Y00708*
X01341Y00698*
X01345Y00689*
X01351Y00681*
X01359Y00675*
X01365Y00673*
Y00649*
X01344*
Y0057*
X01368*
Y00456*
X01349*
Y0037*
X01365*
Y0035*
X01359Y00347*
X01351Y00341*
X01345Y00333*
X01341Y00324*
X0134Y00314*
X01341Y00305*
X01345Y00296*
X01351Y00288*
X01359Y00282*
X01368Y00278*
X01377Y00277*
X01387Y00278*
X01396Y00282*
X01404Y00288*
X0141Y00296*
X01414Y00305*
X01415Y00314*
X01414Y00324*
X0141Y00333*
X01404Y00341*
X01396Y00347*
X0139Y0035*
Y0037*
X01412*
Y00456*
X01393*
Y0057*
X01415*
Y00649*
X0139*
Y00673*
X01396Y00675*
X01404Y00681*
X0141Y00689*
X01413Y00695*
X02058*
X02063Y00696*
X02067Y00699*
X0228Y00912*
X0249*
X02494Y00913*
X02499Y00915*
X02524Y0094*
X02526Y00945*
X02527Y0095*
Y01268*
X02585Y01326*
X0259Y01324*
Y01105*
X0284*
Y0133*
X02669*
X02668Y01335*
X02669Y01335*
X02678Y01341*
X02684Y0135*
X02688Y01359*
X02689Y0137*
X02688Y0138*
X02684Y01389*
X02678Y01398*
X02669Y01404*
X0266Y01408*
X0265Y01409*
X02639Y01408*
X0263Y01404*
X02621Y01398*
X02615Y01389*
X02611Y0138*
X0261Y01372*
X026*
X02595Y01371*
X02591Y01368*
X02581Y01358*
X02576Y0136*
Y01409*
X02556*
Y01425*
X02576*
Y01504*
G37*
G36*
X00826Y01186D02*
X00815Y01185D01*
X00805Y01181*
X00797Y01174*
X0079Y01165*
X00786Y01155*
X00784Y01144*
X00786Y01134*
X0079Y01123*
X00797Y01115*
X00805Y01108*
X00815Y01104*
X00826Y01103*
X00837Y01104*
X00847Y01108*
X00856Y01115*
X00863Y01123*
X00867Y01134*
X00868Y01144*
X00867Y01155*
X00863Y01165*
X00856Y01174*
X00847Y01181*
X00837Y01185*
X00826Y01186*
G37*
G36*
X00137Y01172D02*
X00127Y01171D01*
X00117Y01167*
X00109Y0116*
X00102Y01152*
X00098Y01142*
X00097Y01132*
X00098Y01121*
X00102Y01112*
X00109Y01103*
X00117Y01097*
X00127Y01093*
X00137Y01091*
X00148Y01093*
X00157Y01097*
X00166Y01103*
X00172Y01112*
X00176Y01121*
X00178Y01132*
X00176Y01142*
X00172Y01152*
X00166Y0116*
X00157Y01167*
X00148Y01171*
X00137Y01172*
G37*
G36*
X03228Y01126D02*
X03193D01*
Y01091*
X03199Y01092*
X03209Y01096*
X03217Y01102*
X03223Y0111*
X03227Y0112*
X03228Y01126*
G37*
G36*
X03183D02*
X03149D01*
X0315Y0112*
X03154Y0111*
X0316Y01102*
X03168Y01096*
X03178Y01092*
X03183Y01091*
Y01126*
G37*
G36*
X00142Y0107D02*
Y01036D01*
X00177*
X00176Y01041*
X00172Y01051*
X00166Y01059*
X00157Y01066*
X00148Y0107*
X00142Y0107*
G37*
G36*
X00132D02*
X00127Y0107D01*
X00117Y01066*
X00109Y01059*
X00102Y01051*
X00098Y01041*
X00098Y01036*
X00132*
Y0107*
G37*
G36*
X00826Y01086D02*
X00815Y01085D01*
X00805Y01081*
X00797Y01074*
X0079Y01065*
X00786Y01055*
X00784Y01044*
X00786Y01034*
X0079Y01023*
X00797Y01015*
X00805Y01008*
X00815Y01004*
X00826Y01003*
X00837Y01004*
X00847Y01008*
X00856Y01015*
X00863Y01023*
X00867Y01034*
X00868Y01044*
X00867Y01055*
X00863Y01065*
X00856Y01074*
X00847Y01081*
X00837Y01085*
X00826Y01086*
G37*
G36*
X00177Y01026D02*
X00142D01*
Y00991*
X00148Y00992*
X00157Y00996*
X00166Y01002*
X00172Y0101*
X00176Y0102*
X00177Y01026*
G37*
G36*
X00132D02*
X00098D01*
X00098Y0102*
X00102Y0101*
X00109Y01002*
X00117Y00996*
X00127Y00992*
X00132Y00991*
Y01026*
G37*
G36*
X03228Y01071D02*
X03149D01*
Y00991*
X03228*
Y01071*
G37*
G36*
X01906Y01023D02*
X01897Y01022D01*
X01889Y01019*
X01882Y01013*
X01876Y01006*
X01873Y00998*
X01872Y0099*
X01873Y00981*
X01876Y00973*
X01882Y00966*
X01889Y0096*
X01897Y00957*
X01906Y00956*
X01914Y00957*
X01923Y0096*
X0193Y00966*
X01935Y00973*
X01938Y00981*
X01939Y0099*
X01938Y00998*
X01935Y01006*
X0193Y01013*
X01923Y01019*
X01914Y01022*
X01906Y01023*
G37*
G36*
X01713D02*
X01705Y01022D01*
X01696Y01019*
X01689Y01013*
X01684Y01006*
X01681Y00998*
X0168Y0099*
X01681Y00981*
X01684Y00973*
X01689Y00966*
X01696Y0096*
X01705Y00957*
X01713Y00956*
X01722Y00957*
X0173Y0096*
X01737Y00966*
X01743Y00973*
X01746Y00981*
X01747Y0099*
X01746Y00998*
X01743Y01006*
X01737Y01013*
X0173Y01019*
X01722Y01022*
X01713Y01023*
G37*
G36*
X0268Y01018D02*
X02671Y01017D01*
X02663Y01014*
X02656Y01008*
X0265Y01001*
X02647Y00993*
X02646Y00985*
X02647Y00976*
X0265Y00968*
X02656Y00961*
X02663Y00955*
X02671Y00952*
X0268Y00951*
X02688Y00952*
X02696Y00955*
X02703Y00961*
X02709Y00968*
X02712Y00976*
X02713Y00985*
X02712Y00993*
X02709Y01001*
X02703Y01008*
X02696Y01014*
X02688Y01017*
X0268Y01018*
G37*
G36*
X00831Y00986D02*
Y00949D01*
X00867*
X00867Y00955*
X00863Y00965*
X00856Y00974*
X00847Y00981*
X00837Y00985*
X00831Y00986*
G37*
G36*
X00821D02*
X00815Y00985D01*
X00805Y00981*
X00797Y00974*
X0079Y00965*
X00786Y00955*
X00785Y00949*
X00821*
Y00986*
G37*
G36*
X00747Y00976D02*
X00662D01*
Y00918*
X00747*
Y00976*
G37*
G36*
X02713Y00939D02*
X02685D01*
Y00911*
X02713*
Y00939*
G37*
G36*
X02675D02*
X02646D01*
Y00911*
X02675*
Y00939*
G37*
G36*
X00867D02*
X00831D01*
Y00903*
X00837Y00904*
X00847Y00908*
X00856Y00915*
X00863Y00923*
X00867Y00934*
X00867Y00939*
G37*
G36*
X00821D02*
X00785D01*
X00786Y00934*
X0079Y00923*
X00797Y00915*
X00805Y00908*
X00815Y00904*
X00821Y00903*
Y00939*
G37*
G36*
X02713Y00901D02*
X02685D01*
Y00872*
X02713*
Y00901*
G37*
G36*
X02675D02*
X02646D01*
Y00872*
X02675*
Y00901*
G37*
G36*
X02985Y00928D02*
X02976Y00927D01*
X02968Y00923*
X02961Y00918*
X02955Y00911*
X02952Y00903*
X02951Y00894*
X02952Y00885*
X02955Y00877*
X02961Y0087*
X02968Y00865*
X02976Y00861*
X02985Y0086*
X02993Y00861*
X03001Y00865*
X03008Y0087*
X03014Y00877*
X03017Y00885*
X03018Y00894*
X03017Y00903*
X03014Y00911*
X03008Y00918*
X03001Y00923*
X02993Y00927*
X02985Y00928*
G37*
G36*
X00826Y00886D02*
X00815Y00885D01*
X00805Y00881*
X00797Y00874*
X0079Y00865*
X00787Y00857*
X00747*
Y00871*
X00662*
Y00813*
X00747*
Y00832*
X00787*
X0079Y00823*
X00797Y00815*
X00805Y00808*
X00815Y00804*
X00826Y00803*
X00837Y00804*
X00847Y00808*
X00856Y00815*
X00863Y00823*
X00867Y00834*
X00868Y00844*
X00867Y00855*
X00863Y00865*
X00856Y00874*
X00847Y00881*
X00837Y00885*
X00826Y00886*
G37*
G36*
X01521Y00868D02*
Y0084D01*
X01549*
X01549Y00843*
X01545Y00851*
X0154Y00858*
X01533Y00864*
X01525Y00867*
X01521Y00868*
G37*
G36*
X02108D02*
Y0084D01*
X02136*
X02136Y00843*
X02132Y00851*
X02127Y00858*
X0212Y00864*
X02112Y00867*
X02108Y00868*
G37*
G36*
X02098D02*
X02094Y00867D01*
X02086Y00864*
X02079Y00858*
X02074Y00851*
X0207Y00843*
X0207Y0084*
X02098*
Y00868*
G37*
G36*
X01511D02*
X01507Y00867D01*
X01499Y00864*
X01492Y00858*
X01487Y00851*
X01483Y00843*
X01483Y0084*
X01511*
Y00868*
G37*
G36*
X03018Y00849D02*
X0299D01*
Y0082*
X03018*
Y00849*
G37*
G36*
X0298D02*
X02951D01*
Y0082*
X0298*
Y00849*
G37*
G36*
X01549Y0083D02*
X01521D01*
Y00801*
X01525Y00802*
X01533Y00805*
X0154Y00811*
X01545Y00818*
X01549Y00826*
X01549Y0083*
G37*
G36*
X02136D02*
X02108D01*
Y00801*
X02112Y00802*
X0212Y00805*
X02127Y00811*
X02132Y00818*
X02136Y00826*
X02136Y0083*
G37*
G36*
X02098D02*
X0207D01*
X0207Y00826*
X02074Y00818*
X02079Y00811*
X02086Y00805*
X02094Y00802*
X02098Y00801*
Y0083*
G37*
G36*
X01511D02*
X01483D01*
X01483Y00826*
X01487Y00818*
X01492Y00811*
X01499Y00805*
X01507Y00802*
X01511Y00801*
Y0083*
G37*
G36*
X0194Y00868D02*
X01872D01*
Y00801*
X0194*
Y00868*
G37*
G36*
X01747D02*
X01679D01*
Y00801*
X01747*
Y00868*
G37*
G36*
X03018Y0081D02*
X0299D01*
Y00782*
X03018*
Y0081*
G37*
G36*
X0298D02*
X02951D01*
Y00782*
X0298*
Y0081*
G37*
G36*
X02362Y00861D02*
X02348Y00859D01*
X02334Y00854*
X02323Y00845*
X02314Y00834*
X02309Y00821*
X02307Y00807*
X02309Y00792*
X02314Y00779*
X02323Y00768*
X02334Y00759*
X02348Y00754*
X02362Y00752*
X02376Y00754*
X02389Y00759*
X024Y00768*
X02409Y00779*
X02415Y00792*
X02416Y00807*
X02415Y00821*
X02409Y00834*
X024Y00845*
X02389Y00854*
X02376Y00859*
X02362Y00861*
G37*
G36*
X02685Y00762D02*
X02676Y00761D01*
X02668Y00758*
X02661Y00752*
X02655Y00745*
X02652Y00737*
X02651Y00728*
X02652Y00719*
X02655Y00711*
X02661Y00704*
X02668Y00699*
X02676Y00695*
X02685Y00694*
X02693Y00695*
X02701Y00699*
X02708Y00704*
X02714Y00711*
X02717Y00719*
X02718Y00728*
X02717Y00737*
X02714Y00745*
X02708Y00752*
X02701Y00758*
X02693Y00761*
X02685Y00762*
G37*
G36*
X02718Y00683D02*
X0269D01*
Y00655*
X02718*
Y00683*
G37*
G36*
X0268D02*
X02651D01*
Y00655*
X0268*
Y00683*
G37*
G36*
X02498Y00718D02*
X02411D01*
Y00632*
X02498*
Y00718*
G37*
G36*
X02329Y00728D02*
X0222D01*
Y00623*
X02329*
Y00728*
G37*
G36*
X02718Y00645D02*
X0269D01*
Y00616*
X02718*
Y00645*
G37*
G36*
X0268D02*
X02651D01*
Y00616*
X0268*
Y00645*
G37*
G36*
X01293Y00649D02*
X01262D01*
Y00615*
X01293*
Y00649*
G37*
G36*
X01252D02*
X01222D01*
Y00615*
X01252*
Y00649*
G37*
G36*
X00842Y00786D02*
X00811D01*
X00804Y00785*
X00798Y00783*
X00792Y00778*
X00788Y00773*
X00785Y00767*
X00785Y0076*
Y00729*
X00785Y00722*
X00788Y00716*
X00792Y0071*
X00798Y00706*
X00804Y00704*
X00811Y00703*
X00814*
Y0068*
X00775*
Y00604*
X00874*
Y00627*
X00887*
Y00608*
X00972*
Y00672*
X00887*
Y00652*
X00874*
Y0068*
X00839*
Y00703*
X00842*
X00849Y00704*
X00855Y00706*
X0086Y0071*
X00865Y00716*
X00867Y00722*
X00868Y00729*
Y0076*
X00867Y00767*
X00865Y00773*
X0086Y00778*
X00855Y00783*
X00849Y00785*
X00842Y00786*
G37*
G36*
X01293Y00605D02*
X01262D01*
Y0057*
X01293*
Y00605*
G37*
G36*
X01252D02*
X01222D01*
Y0057*
X01252*
Y00605*
G37*
G36*
X01858Y00661D02*
X01782D01*
Y00585*
X01807*
X01808Y0058*
X01801Y00578*
X01793Y00571*
X01787Y00564*
X01783Y00554*
X01783Y00549*
X0182*
X01858*
X01857Y00554*
X01854Y00564*
X01847Y00571*
X0184Y00578*
X01833Y0058*
X01834Y00585*
X01858*
Y00661*
G37*
G36*
X00972Y00571D02*
X00935D01*
Y00544*
X00972*
Y00571*
G37*
G36*
X00925D02*
X00887D01*
Y00544*
X00925*
Y00571*
G37*
G36*
X02498Y00577D02*
X0246D01*
Y00539*
X02498*
Y00577*
G37*
G36*
X0245D02*
X02411D01*
Y00539*
X0245*
Y00577*
G37*
G36*
X01273Y00549D02*
X01241D01*
Y00516*
X01273*
Y00549*
G37*
G36*
X01231D02*
X01198D01*
Y00516*
X01231*
Y00549*
G37*
G36*
X00972Y00534D02*
X00935D01*
Y00507*
X00972*
Y00534*
G37*
G36*
X00925D02*
X00887D01*
Y00507*
X00925*
Y00534*
G37*
G36*
X01815Y00539D02*
X01783D01*
X01783Y00534*
X01787Y00525*
X01793Y00517*
X01801Y00511*
X0181Y00507*
X01815Y00507*
Y00539*
G37*
G36*
X01858D02*
X01825D01*
Y00507*
X0183Y00507*
X0184Y00511*
X01847Y00517*
X01854Y00525*
X01857Y00534*
X01858Y00539*
G37*
G36*
X01722Y00661D02*
X01712Y0066D01*
X01703Y00656*
X01695Y0065*
X01689Y00642*
X01685Y00633*
X01684Y00623*
X01685Y00613*
X01689Y00604*
X01695Y00596*
X01703Y0059*
X01712Y00586*
X01712Y00585*
Y00582*
X01712Y00581*
X01703Y00578*
X01695Y00571*
X01689Y00564*
X01685Y00554*
X01684Y00544*
X01685Y00534*
X01689Y00525*
X01695Y00517*
X01703Y00511*
X01712Y00507*
X01722Y00506*
X01732Y00507*
X01741Y00511*
X01749Y00517*
X01755Y00525*
X01759Y00534*
X0176Y00544*
X01759Y00554*
X01755Y00564*
X01749Y00571*
X01741Y00578*
X01732Y00581*
X01732Y00582*
Y00585*
X01732Y00586*
X01741Y0059*
X01749Y00596*
X01755Y00604*
X01759Y00613*
X0176Y00623*
X01759Y00633*
X01755Y00642*
X01749Y0065*
X01741Y00656*
X01732Y0066*
X01722Y00661*
G37*
G36*
X02498Y00529D02*
X0246D01*
Y00491*
X02498*
Y00529*
G37*
G36*
X0245D02*
X02411D01*
Y00491*
X0245*
Y00529*
G37*
G36*
X02329Y00536D02*
X0228D01*
Y00488*
X02329*
Y00536*
G37*
G36*
X0227D02*
X0222D01*
Y00488*
X0227*
Y00536*
G37*
G36*
X01273Y00506D02*
X01241D01*
Y00474*
X01273*
Y00506*
G37*
G36*
X01231D02*
X01198D01*
Y00474*
X01231*
Y00506*
G37*
G36*
X02013Y00516D02*
Y00443D01*
X02087*
X02086Y00453*
X02081Y00468*
X02074Y00482*
X02064Y00494*
X02052Y00504*
X02039Y00511*
X02024Y00515*
X02013Y00516*
G37*
G36*
X01539D02*
Y00443D01*
X01613*
X01612Y00453*
X01607Y00468*
X016Y00482*
X0159Y00494*
X01578Y00504*
X01564Y00511*
X0155Y00515*
X01539Y00516*
G37*
G36*
X02003D02*
X01993Y00515D01*
X01978Y00511*
X01964Y00504*
X01952Y00494*
X01942Y00482*
X01935Y00468*
X0193Y00453*
X01929Y00443*
X02003*
Y00516*
G37*
G36*
X01529D02*
X01519Y00515D01*
X01504Y00511*
X0149Y00504*
X01478Y00494*
X01468Y00482*
X01461Y00468*
X01456Y00453*
X01455Y00443*
X01529*
Y00516*
G37*
G36*
X02329Y00478D02*
X0228D01*
Y00431*
X02329*
Y00478*
G37*
G36*
X0227D02*
X0222D01*
Y00431*
X0227*
Y00478*
G37*
G36*
X01312Y00456D02*
X01285D01*
Y00418*
X01312*
Y00456*
G37*
G36*
X01275D02*
X01248D01*
Y00418*
X01275*
Y00456*
G37*
G36*
X01312Y00408D02*
X01285D01*
Y0037*
X01312*
Y00408*
G37*
G36*
X01275D02*
X01248D01*
Y0037*
X01275*
Y00408*
G37*
G36*
X00874Y00535D02*
X00775D01*
Y0046*
X00812*
Y00381*
X00782*
Y00364*
X00772*
Y00382*
X00687*
Y00318*
X00772*
Y00339*
X00782*
Y00323*
X00867*
Y00381*
X00837*
Y0046*
X00874*
Y00535*
G37*
G36*
X01613Y00433D02*
X01539D01*
Y00359*
X0155Y0036*
X01564Y00364*
X01578Y00372*
X0159Y00382*
X016Y00394*
X01607Y00407*
X01612Y00422*
X01613Y00433*
G37*
G36*
X02087D02*
X02013D01*
Y00359*
X02024Y0036*
X02039Y00364*
X02052Y00372*
X02064Y00382*
X02074Y00394*
X02081Y00407*
X02086Y00422*
X02087Y00433*
G37*
G36*
X02003D02*
X01929D01*
X0193Y00422*
X01935Y00407*
X01942Y00394*
X01952Y00382*
X01964Y00372*
X01978Y00364*
X01993Y0036*
X02003Y00359*
Y00433*
G37*
G36*
X01529D02*
X01455D01*
X01456Y00422*
X01461Y00407*
X01468Y00394*
X01478Y00382*
X0149Y00372*
X01504Y00364*
X01519Y0036*
X01529Y00359*
Y00433*
G37*
G36*
X00401Y00484D02*
X00385D01*
X00384Y00484*
X00383*
X00368Y00481*
X00367Y0048*
X00366Y0048*
X00351Y00474*
X0035Y00473*
X00349Y00473*
X00336Y00464*
X00335Y00464*
X00334Y00463*
X00324Y00452*
X00323Y00451*
X00322Y0045*
X00313Y00437*
X00313Y00436*
X00312Y00435*
X00306Y00421*
X00306Y0042*
X00306Y00419*
X00303Y00403*
Y00402*
X00302Y00401*
Y00385*
X00303Y00384*
Y00383*
X00306Y00368*
X00306Y00367*
X00306Y00366*
X00312Y00351*
X00313Y0035*
X00313Y00349*
X00322Y00336*
X00323Y00335*
X00324Y00334*
X00334Y00324*
X00335Y00323*
X00336Y00322*
X00349Y00313*
X0035Y00313*
X00351Y00312*
X00366Y00306*
X00367Y00306*
X00368Y00306*
X00383Y00303*
X00384*
X00385Y00302*
X00401*
X00402Y00303*
X00403*
X00419Y00306*
X0042Y00306*
X00421Y00306*
X00435Y00312*
X00436Y00313*
X00437Y00313*
X0045Y00322*
X00451Y00323*
X00452Y00324*
X00463Y00334*
X00464Y00335*
X00464Y00336*
X00473Y00349*
X00473Y0035*
X00474Y00351*
X0048Y00366*
X0048Y00367*
X00481Y00368*
X00484Y00383*
Y00384*
X00484Y00385*
Y00401*
X00484Y00402*
Y00403*
X00481Y00419*
X0048Y0042*
X0048Y00421*
X00474Y00435*
X00473Y00436*
X00473Y00437*
X00464Y0045*
X00464Y00451*
X00463Y00452*
X00452Y00463*
X00451Y00464*
X0045Y00464*
X00437Y00473*
X00436Y00473*
X00435Y00474*
X00421Y0048*
X0042Y0048*
X00419Y00481*
X00403Y00484*
X00402*
X00401Y00484*
G37*
G36*
X03159Y00501D02*
X0314D01*
X03139Y00501*
X03137*
X03119Y00497*
X03118Y00496*
X03117Y00496*
X03099Y00489*
X03098Y00488*
X03097Y00488*
X03082Y00477*
X03081Y00477*
X0308Y00476*
X03066Y00463*
X03066Y00462*
X03065Y00461*
X03054Y00445*
X03054Y00444*
X03053Y00443*
X03046Y00426*
X03046Y00425*
X03045Y00423*
X03042Y00405*
Y00404*
X03042Y00403*
Y00384*
X03042Y00383*
Y00381*
X03045Y00363*
X03046Y00362*
X03046Y00361*
X03053Y00343*
X03054Y00342*
X03054Y00341*
X03065Y00326*
X03066Y00325*
X03066Y00324*
X0308Y0031*
X03081Y0031*
X03082Y00309*
X03097Y00299*
X03098Y00298*
X03099Y00297*
X03117Y0029*
X03118Y0029*
X03119Y0029*
X03137Y00286*
X03139*
X0314Y00286*
X03159*
X0316Y00286*
X03161*
X03179Y0029*
X0318Y0029*
X03182Y0029*
X03199Y00297*
X032Y00298*
X03201Y00299*
X03217Y00309*
X03218Y0031*
X03219Y0031*
X03232Y00324*
X03232Y00325*
X03233Y00326*
X03244Y00341*
X03244Y00342*
X03245Y00343*
X03252Y00361*
X03252Y00362*
X03253Y00363*
X03256Y00381*
Y00383*
X03257Y00384*
Y00403*
X03256Y00404*
Y00405*
X03253Y00423*
X03252Y00425*
X03252Y00426*
X03245Y00443*
X03244Y00444*
X03244Y00445*
X03233Y00461*
X03232Y00462*
X03232Y00463*
X03219Y00476*
X03218Y00477*
X03217Y00477*
X03201Y00488*
X032Y00488*
X03199Y00489*
X03182Y00496*
X0318Y00496*
X03179Y00497*
X03161Y00501*
X0316*
X03159Y00501*
G37*
G36*
X00772Y00281D02*
X00735D01*
Y00254*
X00772*
Y00281*
G37*
G36*
X00725D02*
X00687D01*
Y00254*
X00725*
Y00281*
G37*
G36*
X00867Y00276D02*
X00782D01*
Y00218*
X00867*
Y00276*
G37*
G36*
X00772Y00244D02*
X00735D01*
Y00217*
X00772*
Y00244*
G37*
G36*
X00725D02*
X00687D01*
Y00217*
X00725*
Y00244*
G37*
G36*
X02362Y00271D02*
X02348Y00269D01*
X02334Y00263*
X02323Y00255*
X02314Y00243*
X02309Y0023*
X02307Y00216*
X02309Y00202*
X02314Y00189*
X02323Y00177*
X02334Y00169*
X02348Y00163*
X02362Y00161*
X02376Y00163*
X02389Y00169*
X024Y00177*
X02409Y00189*
X02415Y00202*
X02416Y00216*
X02415Y0023*
X02409Y00243*
X024Y00255*
X02389Y00263*
X02376Y00269*
X02362Y00271*
G37*
%LNpcb_down-3*%
%LPD*%
G54D14*
X02515Y0095D02*
Y01274D01*
X0249Y00925D02*
X02515Y0095D01*
X02275Y00925D02*
X0249D01*
X02515Y01274D02*
X026Y01359D01*
X02639*
X0265Y0137*
X0164Y01725D02*
X01845D01*
X01736Y017D02*
X02055D01*
X02222Y01867*
X00705Y00842D02*
X00707Y00844D01*
X00826*
X02058Y00708D02*
X02275Y00925D01*
X01377Y00708D02*
X02058D01*
X0138Y0111D02*
Y01235D01*
Y0111D02*
X0142Y0107D01*
X01377Y00612D02*
X01379Y0061D01*
X01377Y00612D02*
Y00708D01*
X0138Y00413D02*
Y00609D01*
X01379Y0061D02*
X0138Y00609D01*
X01377Y00314D02*
Y0041D01*
X0138Y00413*
X0115Y01495D02*
X0132D01*
X0135Y0108D02*
Y01805D01*
X01355Y01811*
X0135Y0108D02*
X0151Y0092D01*
X0115Y01545D02*
X01315D01*
X0073Y0035D02*
X00731Y00352D01*
X00825*
Y00497*
X0147Y01155D02*
Y0144D01*
X00336Y0124D02*
X01169D01*
X0131Y011*
X00137Y01229D02*
X00202Y01165D01*
X00265*
X00336Y01236*
Y0124*
X0109Y0205D02*
X01215Y02175D01*
X01321*
X0109Y0141D02*
Y0205D01*
Y0141D02*
X01315Y01185D01*
X0141Y01155D02*
X0147Y01095D01*
X0141Y01155D02*
Y01855D01*
X0137Y01895D02*
X0141Y01855D01*
X0137Y02124D02*
X01421Y02175D01*
X0137Y01895D02*
Y02124D01*
X00826Y00644D02*
Y00744D01*
X00825Y00642D02*
X00826Y00644D01*
X00827Y0064D02*
X0093D01*
X00825Y00642D02*
X00827Y0064D01*
X0093Y02255D02*
X0164D01*
X009Y02225D02*
X0093Y02255D01*
X0164D02*
X01665Y0223D01*
X01621Y02075D02*
X01627Y02081D01*
Y02114*
X01665Y02152*
Y0223*
X0151Y0092D02*
X0208D01*
X02145Y00985D02*
Y01158D01*
X0208Y0092D02*
X02145Y00985D01*
X02256Y0127D02*
X0235D01*
X02255Y01268D02*
X02256Y0127D01*
X0235Y0137D02*
X02418D01*
X02413Y0147D02*
X02418Y01465D01*
X0235Y0147D02*
X02413D01*
X02115D02*
X0235D01*
X0319Y01332D02*
Y01485D01*
X03188Y01331D02*
X0319Y01332D01*
X0314Y01535D02*
X0319Y01485D01*
X02115Y01535D02*
X0314D01*
X03188Y01231D02*
X033Y01342D01*
Y01495*
X0319Y01605D02*
X033Y01495D01*
X02115Y01605D02*
X0319D01*
X02221Y01959D02*
Y02075D01*
Y01959D02*
X02222Y01957D01*
Y01867D02*
Y01957D01*
X0147Y01895D02*
X0164Y01725D01*
X0211Y02075D02*
X02121D01*
X01855Y0182D02*
X0211Y02075D01*
X01835Y0181D02*
X01845Y0182D01*
X0183Y0181D02*
X01835D01*
X01845Y0182D02*
X01855D01*
X0184Y01845D02*
X02021Y02026D01*
X01675Y01792D02*
X01687Y0178D01*
X0166Y01755D02*
X01875D01*
X01687Y0178D02*
X01905D01*
X02021Y02026D02*
Y02075D01*
X01921Y01981D02*
Y02075D01*
X0179Y0185D02*
X01921Y01981D01*
X01785Y01895D02*
X01821Y01931D01*
Y02075*
X01675Y01792D02*
Y02135D01*
X01715Y02175D02*
X01721D01*
X01675Y02135D02*
X01715Y02175D01*
X01575Y0184D02*
Y02129D01*
X01621Y02175*
X01575Y0184D02*
X0166Y01755D01*
X0147Y02124D02*
X01521Y02175D01*
X0147Y01895D02*
Y02124D01*
G54D15*
X00213Y01241D02*
X00214Y0124D01*
X00213Y01241D02*
Y0133D01*
X02541Y0137D02*
Y01465D01*
G54D20*
X0138Y00413D03*
X0128D03*
X00213Y0133D03*
X00314D03*
G54D26*
X0268Y00906D03*
X02985Y00815D03*
X02685Y0065D03*
G54D27*
X0268Y00985D03*
X01713Y0099D03*
X01906D03*
X00137Y01653D03*
X02011Y01805D03*
X02985Y00894D03*
X02103Y00835D03*
X01516D03*
X02685Y00728D03*
G54D30*
X03188Y01031D03*
G54D31*
X03188Y01131D03*
Y01231D03*
Y01331D03*
G54D32*
X01Y02125D03*
G54D33*
X009Y02225D03*
X008Y02125D03*
G54D38*
X0182Y00623D03*
G54D40*
X0182Y00544D03*
X01722D03*
Y00623D03*
G54D41*
X02008Y00438D03*
X01534D03*
G54D42*
X00216Y01653D03*
X0209Y01805D03*
X01906Y00835D03*
X01713D03*
G54D44*
X01253Y01811D03*
X01236Y00511D03*
G54D45*
X01355Y01811D03*
X01457D03*
X01377Y00708D03*
Y00314D03*
G54D50*
X0265Y0117D03*
G54D51*
X0265Y0127D03*
Y0137D03*
Y0147D03*
X0235Y0117D03*
Y0127D03*
Y0137D03*
Y0147D03*
X0254Y01675D03*
Y01775D03*
G54D52*
X00826Y00944D03*
Y00844D03*
Y01044D03*
Y01144D03*
X01621Y02075D03*
Y02175D03*
X01721Y02075D03*
X01821D03*
X01721Y02175D03*
X01821D03*
X01921Y02075D03*
Y02175D03*
X02021Y02075D03*
Y02175D03*
X02121Y02075D03*
Y02175D03*
X02221Y02075D03*
X01521Y02175D03*
X01421D03*
X01321D03*
X01521Y02075D03*
X01421D03*
X01321D03*
G54D53*
X00826Y00744D03*
G54D54*
X02221Y02175D03*
G54D55*
X02362Y00807D03*
Y00216D03*
G54D56*
X00137Y01031D03*
Y01132D03*
Y01229D03*
Y01331D03*
G54D57*
X01825Y01675D03*
X01845Y01725D03*
X0163Y01685D03*
X0142Y0107D03*
X0138Y01235D03*
X0115Y01495D03*
X0132D03*
X0115Y01545D03*
X01315D03*
X0147Y0144D03*
Y01155D03*
X0131Y011D03*
X01315Y01185D03*
X0147Y01095D03*
X02145Y01281D03*
X02255Y01391D03*
X02115Y0147D03*
Y01535D03*
Y01605D03*
X01736Y017D03*
X0183Y0181D03*
X0184Y01845D03*
X01875Y01755D03*
X01905Y0178D03*
X0179Y0185D03*
X01785Y01895D03*
X00213Y01241D03*
X00705Y00947D03*
X00825Y00247D03*
X00213Y0133D03*
X0172Y02005D03*
X02541Y01465D03*
Y0137D03*
X02275Y00676D03*
X02455Y00675D03*
G54D58*
X02255Y01391D03*
Y01268D03*
X02145Y01281D03*
Y01158D03*
G54D59*
X0172Y01904D03*
Y02005D03*
X0073Y0035D03*
Y00249D03*
X0093Y0064D03*
Y00539D03*
G54D60*
X02418Y0137D03*
X02541D03*
X02418Y01465D03*
X02541D03*
X01257Y0061D03*
X01379D03*
X00214Y0124D03*
X00336D03*
G54D61*
X00705Y00842D03*
Y00947D03*
X00825Y00352D03*
Y00247D03*
G54D62*
X00825Y00497D03*
Y00642D03*
G54D63*
X02275Y00483D03*
Y00676D03*
G54D64*
X02455Y00534D03*
Y00675D03*
M02*