%FSTAX23Y23*%
%MOIN*%
%SFA1B1*%

%IPPOS*%
%ADD10C,0.007870*%
%ADD17C,0.003940*%
%ADD77C,0.001970*%
%LNpcb_down-1*%
%LPD*%
G54D10*
X0268Y01057D02*
X02669Y01057D01*
X02659Y01056*
X0265Y01053*
X0264Y0105*
X02631Y01046*
X02622Y01041*
X02614Y01036*
X02606Y0103*
X02598Y01023*
X02592Y01015*
X02586Y01007*
X02581Y00998*
X02576Y00989*
X02573Y0098*
X0257Y0097*
X02568Y0096*
X02567Y0095*
Y0094*
X02568Y0093*
X0257Y0092*
X02573Y0091*
X02576Y00901*
X02581Y00892*
X02586Y00883*
X02592Y00875*
X02598Y00868*
X02606Y00861*
X02614Y00854*
X02622Y00849*
X02631Y00844*
X0264Y0084*
X0265Y00837*
X02659Y00835*
X02669Y00833*
X0268Y00833*
X0269Y00833D01*
X027Y00835*
X02709Y00837*
X02719Y0084*
X02728Y00844*
X02737Y00849*
X02745Y00854*
X02753Y00861*
X02761Y00868*
X02767Y00875*
X02773Y00883*
X02778Y00892*
X02783Y00901*
X02786Y0091*
X02789Y0092*
X02791Y0093*
X02792Y0094*
Y0095*
X02791Y0096*
X02789Y0097*
X02786Y0098*
X02783Y00989*
X02778Y00998*
X02773Y01007*
X02767Y01015*
X02761Y01023*
X02753Y0103*
X02745Y01036*
X02737Y01041*
X02728Y01046*
X02719Y0105*
X02709Y01053*
X027Y01056*
X0269Y01057*
X0268Y01057*
X00289Y01653D02*
X00288Y01663D01*
X00287Y01673*
X00285Y01683*
X00282Y01692*
X00278Y01702*
X00273Y01711*
X00267Y01719*
X00261Y01727*
X00254Y01734*
X00247Y01741*
X00238Y01747*
X0023Y01752*
X00221Y01756*
X00211Y0176*
X00202Y01762*
X00192Y01764*
X00182Y01765*
X00172*
X00162Y01764*
X00152Y01762*
X00142Y0176*
X00133Y01756*
X00123Y01752*
X00115Y01747*
X00107Y01741*
X00099Y01734*
X00092Y01727*
X00086Y01719*
X0008Y01711*
X00076Y01702*
X00072Y01692*
X00069Y01683*
X00066Y01673*
X00065Y01663*
X00064Y01653*
X00065Y01643*
X00066Y01633*
X00069Y01623*
X00072Y01614*
X00076Y01604*
X0008Y01595*
X00086Y01587*
X00092Y01579*
X00099Y01572*
X00107Y01565*
X00115Y01559*
X00123Y01554*
X00133Y0155*
X00142Y01546*
X00152Y01544*
X00162Y01542*
X00172Y01541*
X00182*
X00192Y01542*
X00202Y01544*
X00211Y01546*
X00221Y0155*
X0023Y01554*
X00238Y01559*
X00247Y01565*
X00254Y01572*
X00261Y01579*
X00267Y01587*
X00273Y01595*
X00278Y01604*
X00282Y01614*
X00285Y01623*
X00287Y01633*
X00288Y01643*
X00289Y01653*
X02162Y01805D02*
X02162Y01815D01*
X02161Y01825*
X02158Y01834*
X02155Y01844*
X02151Y01853*
X02146Y01862*
X02141Y0187*
X02135Y01878*
X02128Y01886*
X0212Y01892*
X02112Y01898*
X02103Y01903*
X02094Y01908*
X02085Y01911*
X02075Y01914*
X02065Y01916*
X02055Y01917*
X02045*
X02035Y01916*
X02025Y01914*
X02015Y01911*
X02006Y01908*
X01997Y01903*
X01988Y01898*
X0198Y01892*
X01973Y01886*
X01966Y01878*
X01959Y0187*
X01954Y01862*
X01949Y01853*
X01945Y01844*
X01942Y01834*
X0194Y01825*
X01938Y01815*
X01938Y01805*
X01938Y01794*
X0194Y01784*
X01942Y01775*
X01945Y01765*
X01949Y01756*
X01954Y01747*
X01959Y01739*
X01966Y01731*
X01973Y01723*
X0198Y01717*
X01988Y01711*
X01997Y01706*
X02006Y01701*
X02015Y01698*
X02025Y01695*
X02035Y01693*
X02045Y01692*
X02055*
X02065Y01693*
X02075Y01695*
X02085Y01698*
X02094Y01701*
X02103Y01706*
X02112Y01711*
X0212Y01717*
X02128Y01723*
X02135Y01731*
X02141Y01739*
X02146Y01747*
X02151Y01756*
X02155Y01765*
X02158Y01775*
X02161Y01784*
X02162Y01794*
X02162Y01805*
X02985Y00742D02*
X02995Y00743D01*
X03005Y00744*
X03014Y00746*
X03024Y00749*
X03033Y00753*
X03042Y00758*
X0305Y00764*
X03058Y0077*
X03066Y00777*
X03072Y00785*
X03078Y00793*
X03083Y00801*
X03088Y0081*
X03091Y0082*
X03094Y0083*
X03096Y00839*
X03097Y00849*
Y0086*
X03096Y0087*
X03094Y00879*
X03091Y00889*
X03088Y00899*
X03083Y00908*
X03078Y00916*
X03072Y00924*
X03066Y00932*
X03058Y00939*
X0305Y00945*
X03042Y00951*
X03033Y00956*
X03024Y0096*
X03014Y00963*
X03005Y00965*
X02995Y00966*
X02985Y00967*
X02974Y00966D01*
X02964Y00965*
X02955Y00963*
X02945Y0096*
X02936Y00956*
X02927Y00951*
X02919Y00945*
X02911Y00939*
X02903Y00932*
X02897Y00924*
X02891Y00916*
X02886Y00908*
X02881Y00899*
X02878Y00889*
X02875Y00879*
X02873Y0087*
X02872Y0086*
Y00849*
X02873Y00839*
X02875Y0083*
X02878Y0082*
X02881Y0081*
X02886Y00801*
X02891Y00793*
X02897Y00785*
X02903Y00777*
X02911Y0077*
X02919Y00764*
X02927Y00758*
X02936Y00753*
X02945Y00749*
X02955Y00746*
X02964Y00744*
X02974Y00743*
X02985Y00742*
X02685Y00577D02*
X02695Y00577D01*
X02705Y00578*
X02714Y00581*
X02724Y00584*
X02733Y00588*
X02742Y00593*
X0275Y00598*
X02758Y00604*
X02766Y00611*
X02772Y00619*
X02778Y00627*
X02783Y00636*
X02788Y00645*
X02791Y00654*
X02794Y00664*
X02796Y00674*
X02797Y00684*
Y00694*
X02796Y00704*
X02794Y00714*
X02791Y00724*
X02788Y00733*
X02783Y00742*
X02778Y00751*
X02772Y00759*
X02766Y00766*
X02758Y00773*
X0275Y0078*
X02742Y00785*
X02733Y0079*
X02724Y00794*
X02714Y00797*
X02705Y00799*
X02695Y00801*
X02685Y00801*
X02674Y00801D01*
X02664Y00799*
X02655Y00797*
X02645Y00794*
X02636Y0079*
X02627Y00785*
X02619Y0078*
X02611Y00773*
X02603Y00766*
X02597Y00759*
X02591Y00751*
X02586Y00742*
X02581Y00733*
X02578Y00724*
X02575Y00714*
X02573Y00704*
X02572Y00694*
Y00684*
X02573Y00674*
X02575Y00664*
X02578Y00654*
X02581Y00645*
X02586Y00636*
X02591Y00627*
X02597Y00619*
X02603Y00611*
X02611Y00604*
X02619Y00598*
X02627Y00593*
X02636Y00588*
X02645Y00584*
X02655Y00581*
X02664Y00578*
X02674Y00577*
X02685Y00577*
X01654Y01748D02*
X01805D01*
Y01671D02*
Y01748D01*
X01654Y01671D02*
X01805D01*
X01654D02*
Y01748D01*
X02709Y01144D02*
X031D01*
X02709D02*
Y01289D01*
X031*
Y01144D02*
Y01289D01*
X03133Y00972D02*
Y01389D01*
X03244*
Y00972D02*
Y01389D01*
X03133Y00972D02*
X03244D01*
X01094Y02097D02*
Y02302D01*
X00705Y02097D02*
X01094D01*
X00705D02*
Y02302D01*
X01094*
X01461Y00024D02*
Y00711D01*
Y00024D02*
X02081D01*
Y00711*
X01461D02*
X02081D01*
X01879Y00781D02*
Y00888D01*
Y00781D02*
X0213D01*
Y00888*
X01879D02*
X0213D01*
X0174Y00781D02*
Y00888D01*
X01489D02*
X0174D01*
X01489Y00781D02*
Y00888D01*
Y00781D02*
X0174D01*
X03315Y00856D02*
Y00933D01*
X03164D02*
X03315D01*
X03164Y00856D02*
Y00933D01*
Y00856D02*
X03315D01*
X01176Y0005D02*
X01422D01*
Y00973*
X01176D02*
X01422D01*
X01176Y0005D02*
Y00973D01*
X02475Y01011D02*
Y01088D01*
X02324D02*
X02475D01*
X02324Y01011D02*
Y01088D01*
Y01011D02*
X02475D01*
G54D17*
X0248Y0132D02*
X02519D01*
X025Y013D02*
Y01339D01*
X01355Y01791D02*
Y0183D01*
X01335Y01811D02*
X01375D01*
X0181Y0097D02*
Y01009D01*
X0179Y0099D02*
X01829D01*
X01791Y01377D02*
X0183D01*
X01811Y01358D02*
Y01397D01*
G54D77*
X0263Y01725D02*
X0263Y01734D01*
X02628Y01744*
X02625Y01754*
X02621Y01763*
X02617Y01772*
X02611Y0178*
X02604Y01788*
X02597Y01794*
X02589Y018*
X0258Y01805*
X02571Y01809*
X02562Y01812*
X02552Y01814*
X02542Y01815*
X02532Y01815*
X02522Y01813*
X02512Y01811*
X02503Y01807*
X02494Y01803*
X02486Y01797*
X02478Y01791*
X02471Y01784*
X02465Y01776*
X0246Y01768*
X02456Y01759*
X02452Y01749*
X0245Y01739*
X02449Y01729*
Y0172*
X0245Y0171*
X02452Y017*
X02456Y0169*
X0246Y01681*
X02465Y01673*
X02471Y01665*
X02478Y01658*
X02486Y01652*
X02494Y01646*
X02503Y01642*
X02512Y01638*
X02522Y01636*
X02532Y01634*
X02542Y01634*
X02552Y01635*
X02562Y01637*
X02571Y0164*
X0258Y01644*
X02589Y01649*
X02597Y01655*
X02604Y01661*
X02611Y01669*
X02617Y01677*
X02621Y01686*
X02625Y01695*
X02628Y01705*
X0263Y01715*
X0263Y01725*
X0269Y01113D02*
Y01526D01*
X02309Y01113D02*
Y01526D01*
Y01113D02*
X0269D01*
X02309Y01526D02*
X0269D01*
X00826Y00925D02*
Y00964D01*
X00807Y00944D02*
X00846D01*
X00765Y00681D02*
Y01208D01*
X00887*
Y00681D02*
Y01208D01*
X00765Y00681D02*
X00887D01*
X01221Y01754D02*
X01489D01*
X01221D02*
Y01907D01*
X01489*
Y01754D02*
Y01907D01*
X02434Y01935D02*
Y02311D01*
X01109D02*
X02434D01*
X01109Y01935D02*
Y02311D01*
Y01935D02*
X02434D01*
X01751Y02125D02*
X01791D01*
X01771Y02106D02*
Y02145D01*
X02342Y00511D02*
X02381D01*
X02362Y00492D02*
Y00531D01*
X02555Y00023D02*
Y01D01*
X02169Y00023D02*
X02555D01*
X02169D02*
Y01D01*
X02555*
X01582Y00894D02*
Y01085D01*
X02037*
Y00894D02*
Y01085D01*
X01582Y00894D02*
X02037D01*
X0254Y01705D02*
Y01744D01*
X0252Y01725D02*
X02559D01*
X01527Y01094D02*
Y01661D01*
X02094Y01094D02*
Y01661D01*
X01527Y01094D02*
X02094D01*
X01527Y01661D02*
X02094D01*
M02*