%FSTAX23Y23*%
%MOIN*%
%SFA1B1*%

%IPPOS*%
%ADD10C,0.007870*%
%ADD11C,0.009840*%
%ADD15C,0.010000*%
%LNpcb_down-1*%
%LPD*%
G54D10*
X0222Y01309D02*
Y0135D01*
X02289Y01309D02*
Y0135D01*
X0211Y01199D02*
Y0124D01*
X02179Y01199D02*
Y0124D01*
X01685Y01938D02*
Y01971D01*
X01754Y01938D02*
Y01971D01*
X02459Y01335D02*
X025D01*
X02459Y01404D02*
X025D01*
X02459Y0143D02*
X025D01*
X02459Y01499D02*
X025D01*
X01298Y00575D02*
X01339D01*
X01298Y00644D02*
X01339D01*
X01314Y00378D02*
X01347D01*
X01314Y00447D02*
X01347D01*
X00764Y00283D02*
Y00316D01*
X00695Y00283D02*
Y00316D01*
X00964Y00573D02*
Y00606D01*
X00895Y00573D02*
Y00606D01*
X00736Y00876D02*
Y00913D01*
X00673Y00876D02*
Y00913D01*
X00793Y00281D02*
Y00318D01*
X00856Y00281D02*
Y00318D01*
X00858Y00539D02*
Y006D01*
X00791Y00539D02*
Y006D01*
X00254Y01205D02*
X00296D01*
X00254Y01274D02*
X00296D01*
X00247Y01365D02*
X0028D01*
X00247Y01296D02*
X0028D01*
X022Y00614D02*
X02349D01*
X02197Y00673D02*
X02215D01*
X02334D02*
X02352D01*
Y00486D02*
Y00673D01*
X02197Y00486D02*
X02215D01*
X02334D02*
X02352D01*
X02197D02*
Y00673D01*
X02403Y00624D02*
X02506D01*
X024Y00693D02*
X02407D01*
X02502D02*
X02509D01*
Y00516D02*
Y00693D01*
X024Y00516D02*
X02407D01*
X02502D02*
X02509D01*
X024D02*
Y00693D01*
G54D11*
X00829Y00691D02*
X00822Y00695D01*
Y00686*
X00829Y00691*
X02279Y00741D02*
X02272Y00745D01*
Y00737*
X02279Y00741*
G54D15*
X02288Y01166D02*
Y01205D01*
X02268*
X02261Y01198*
Y01185*
X02268Y01179*
X02288*
X02274D02*
X02261Y01166D01*
X02248Y01198D02*
X02242Y01205D01*
X02228*
X02222Y01198*
Y01192*
X02228Y01185*
X02235*
X02228*
X02222Y01179*
Y01172*
X02228Y01166*
X02242*
X02248Y01172*
X02178Y01056D02*
Y01095D01*
X02158*
X02151Y01088*
Y01075*
X02158Y01069*
X02178*
X02164D02*
X02151Y01056D01*
X02138Y01088D02*
X02132Y01095D01*
X02118*
X02112Y01088*
Y01082*
X02118Y01075*
X02112Y01069*
Y01062*
X02118Y01056*
X02132*
X02138Y01062*
Y01069*
X02132Y01075*
X02138Y01082*
Y01088*
X02132Y01075D02*
X02118D01*
X01864Y01967D02*
X01871Y01974D01*
X01884*
X01891Y01967*
Y01941*
X01884Y01935*
X01871*
X01864Y01941*
X01851Y01935D02*
X01838D01*
X01845*
Y01974*
X01851Y01967*
X01792Y01974D02*
X01818D01*
Y01954*
X01805Y01961*
X01799*
X01792Y01954*
Y01941*
X01799Y01935*
X01812*
X01818Y01941*
X00633Y00875D02*
Y00914D01*
X00613*
X00606Y00907*
Y00894*
X00613Y00888*
X00633*
X00619D02*
X00606Y00875D01*
X00593Y00914D02*
X00567D01*
Y00907*
X00593Y00881*
Y00875*
X00963Y0028D02*
Y00319D01*
X00943*
X00936Y00312*
Y00299*
X00943Y00293*
X00963*
X00949D02*
X00936Y0028D01*
X00897Y00319D02*
X0091Y00312D01*
X00923Y00299*
Y00286*
X00917Y0028*
X00903*
X00897Y00286*
Y00293*
X00903Y00299*
X00923*
X02461Y01537D02*
Y01576D01*
X02441*
X02434Y01569*
Y01556*
X02441Y0155*
X02461*
X02447D02*
X02434Y01537D01*
X02395Y01576D02*
X02421D01*
Y01556*
X02408Y01563*
X02401*
X02395Y01556*
Y01543*
X02401Y01537*
X02415*
X02421Y01543*
X02513Y01258D02*
Y01297D01*
X02493*
X02486Y0129*
Y01277*
X02493Y01271*
X02513*
X02499D02*
X02486Y01258D01*
X02453D02*
Y01297D01*
X02473Y01277*
X02447*
X01194Y00591D02*
Y0063D01*
X01174*
X01167Y00623*
Y0061*
X01174Y00604*
X01194*
X0118D02*
X01167Y00591D01*
X01128D02*
X01154D01*
X01128Y00617*
Y00623*
X01134Y0063*
X01148*
X01154Y00623*
X00453Y0122D02*
Y01259D01*
X00433*
X00426Y01252*
Y01239*
X00433Y01233*
X00453*
X00439D02*
X00426Y0122D01*
X00413D02*
X004D01*
X00407*
Y01259*
X00413Y01252*
X00858Y00432D02*
Y00393D01*
X00838*
X00831Y00399*
Y00425*
X00838Y00432*
X00858*
X00818Y00425D02*
X00812Y00432D01*
X00798*
X00792Y00425*
Y00419*
X00798Y00412*
X00805*
X00798*
X00792Y00406*
Y00399*
X00798Y00393*
X00812*
X00818Y00399*
X02308Y00403D02*
Y00364D01*
X02288*
X02281Y0037*
Y00396*
X02288Y00403*
X02308*
X02242Y00364D02*
X02268D01*
X02242Y0039*
Y00396*
X02248Y00403*
X02262*
X02268Y00396*
X02481Y00463D02*
Y00424D01*
X02461*
X02454Y0043*
Y00456*
X02461Y00463*
X02481*
X02441Y00424D02*
X02428D01*
X02435*
Y00463*
X02441Y00456*
X01074Y00602D02*
X01081Y00609D01*
X01094*
X01101Y00602*
Y00576*
X01094Y0057*
X01081*
X01074Y00576*
X01061Y0057D02*
X01048D01*
X01055*
Y00609*
X01061Y00602*
X01028D02*
X01022Y00609D01*
X01009*
X01002Y00602*
Y00576*
X01009Y0057*
X01022*
X01028Y00576*
Y00602*
X00631Y00312D02*
X00638Y00319D01*
X00651*
X00658Y00312*
Y00286*
X00651Y0028*
X00638*
X00631Y00286*
X00618Y00312D02*
X00612Y00319D01*
X00598*
X00592Y00312*
Y00306*
X00598Y00299*
X00592Y00293*
Y00286*
X00598Y0028*
X00612*
X00618Y00286*
Y00293*
X00612Y00299*
X00618Y00306*
Y00312*
X00612Y00299D02*
X00598D01*
X01194Y00426D02*
X01201Y00433D01*
X01214*
X01221Y00426*
Y004*
X01214Y00394*
X01201*
X01194Y004*
X01155Y00433D02*
X01168Y00426D01*
X01181Y00413*
Y004*
X01175Y00394*
X01161*
X01155Y004*
Y00407*
X01161Y00413*
X01181*
X00412Y01343D02*
X00419Y0135D01*
X00432*
X00439Y01343*
Y01317*
X00432Y01311*
X00419*
X00412Y01317*
X00373Y0135D02*
X00399D01*
Y0133*
X00386Y01337*
X00379*
X00373Y0133*
Y01317*
X00379Y01311*
X00393*
X00399Y01317*
M02*