M48
;Layer_Color=9474304
;FILE_FORMAT=2:5
INCH,TZ
;TYPE=PLATED
T1F00S00C0.01181
T2F00S00C0.02559
T3F00S00C0.02756
T4F00S00C0.03000
T5F00S00C0.03543
T6F00S00C0.03622
T7F00S00C0.03937
T8F00S00C0.04016
T9F00S00C0.04331
T10F00S00C0.05906
T11F00S00C0.09055
%
T01
X82500Y24779
X70500Y94721
X131000Y110000
X131500Y118500
X138000Y123500
X147000Y115500
Y109500
X142000Y107000
X147000Y144000
X132000Y149500
X131500Y154500
X115000
Y149500
X21353Y133071
Y124120
X214500Y128102
X211500Y147000
Y153500
X225500Y139102
X254102Y137000
Y146500
X245500Y67547
X227500Y67646
X211500Y160500
X182500Y167500
X184500Y172500
X187500Y175500
X190500Y178000
X183000Y181000
X184000Y184500
X179000Y185000
X178500Y189500
X172000Y200525
X173668Y170000
X163000Y168500
T02
X80000Y212500
X100000
X90000Y222500
T03
X151657Y83500
X171343
X171394Y99000
X190606
X190657Y83500
X210343
X268000Y90626
Y98500
X268500Y72874
Y65000
X298500Y81563
Y89437
X209000Y180500
X201126
X21654Y165354
X13780
T04
X13780Y103110
Y113228
Y122992
Y133110
T05
X137795Y31496
X123622Y51181
X137795Y70866
X235000Y117000
Y127000
Y137000
Y147000
X265000
Y137000
Y127000
Y117000
X145783Y181102
X135547
X125311
T06
X172244Y54488
Y62362
X182087
Y54488
T07
X254000Y167500
Y177500
T08
X318898Y103110
Y113110
Y123110
Y133110
T09
X82677Y74488
Y84488
Y94488
Y104488
Y114488
X162165Y207598
Y217598
X172165
Y207598
X182165
Y217598
X192165
Y207598
X202165
Y217598
X212165
Y207598
X222165
Y217598
X152165
X142165
X132165
Y207598
X142165
X152165
T10
X236221Y21654
Y80709
T11
X153465Y43819
X200866
M30
