G04*
G04 #@! TF.GenerationSoftware,Altium Limited,Altium Designer,21.3.2 (30)*
G04*
G04 Layer_Color=32768*
%FSLAX25Y25*%
%MOIN*%
G70*
G04*
G04 #@! TF.SameCoordinates,90E1903C-9E0C-4C1D-B8CF-915D6ECFEAAF*
G04*
G04*
G04 #@! TF.FilePolarity,Positive*
G04*
G01*
G75*
%ADD10C,0.00787*%
%ADD17C,0.00394*%
%ADD77C,0.00197*%
D10*
X268000Y105783D02*
X266994Y105738D01*
X265997Y105603D01*
X265015Y105379D01*
X264057Y105068D01*
X263132Y104672D01*
X262245Y104195D01*
X261405Y103640D01*
X260618Y103013D01*
X259890Y102317D01*
X259227Y101559D01*
X258636Y100744D01*
X258119Y99880D01*
X257682Y98973D01*
X257329Y98030D01*
X257061Y97060D01*
X256881Y96069D01*
X256791Y95066D01*
Y94060D01*
X256881Y93057D01*
X257061Y92066D01*
X257329Y91096D01*
X257682Y90153D01*
X258119Y89246D01*
X258636Y88382D01*
X259227Y87567D01*
X259890Y86809D01*
X260618Y86113D01*
X261405Y85486D01*
X262245Y84931D01*
X263132Y84454D01*
X264057Y84058D01*
X265015Y83747D01*
X265997Y83523D01*
X266994Y83388D01*
X268000Y83342D01*
X268000D02*
X269006Y83388D01*
X270004Y83523D01*
X270985Y83747D01*
X271943Y84058D01*
X272868Y84454D01*
X273755Y84931D01*
X274595Y85485D01*
X275382Y86113D01*
X276110Y86809D01*
X276772Y87567D01*
X277364Y88382D01*
X277881Y89246D01*
X278317Y90153D01*
X278671Y91096D01*
X278939Y92066D01*
X279119Y93057D01*
X279209Y94060D01*
Y95066D01*
X279119Y96069D01*
X278939Y97060D01*
X278671Y98030D01*
X278317Y98973D01*
X277881Y99880D01*
X277364Y100744D01*
X276772Y101559D01*
X276110Y102317D01*
X275382Y103013D01*
X274595Y103640D01*
X273755Y104195D01*
X272868Y104672D01*
X271943Y105068D01*
X270985Y105379D01*
X270004Y105603D01*
X269006Y105738D01*
X268000Y105783D01*
X28937Y165354D02*
X28892Y166360D01*
X28757Y167358D01*
X28533Y168339D01*
X28221Y169297D01*
X27826Y170223D01*
X27349Y171109D01*
X26794Y171950D01*
X26166Y172737D01*
X25471Y173464D01*
X24712Y174127D01*
X23898Y174719D01*
X23034Y175235D01*
X22127Y175672D01*
X21184Y176026D01*
X20213Y176294D01*
X19223Y176473D01*
X18220Y176564D01*
X17213D01*
X16210Y176473D01*
X15220Y176294D01*
X14249Y176026D01*
X13307Y175672D01*
X12399Y175235D01*
X11535Y174719D01*
X10721Y174127D01*
X9962Y173464D01*
X9267Y172737D01*
X8639Y171950D01*
X8084Y171109D01*
X7607Y170223D01*
X7211Y169297D01*
X6900Y168339D01*
X6676Y167358D01*
X6541Y166360D01*
X6496Y165354D01*
X6541Y164348D01*
X6676Y163351D01*
X6900Y162369D01*
X7211Y161412D01*
X7607Y160486D01*
X8084Y159599D01*
X8639Y158759D01*
X9267Y157972D01*
X9962Y157244D01*
X10721Y156582D01*
X11535Y155990D01*
X12399Y155474D01*
X13307Y155037D01*
X14249Y154683D01*
X15220Y154415D01*
X16210Y154235D01*
X17213Y154145D01*
X18220D01*
X19223Y154235D01*
X20213Y154415D01*
X21184Y154683D01*
X22126Y155037D01*
X23033Y155474D01*
X23898Y155990D01*
X24712Y156582D01*
X25471Y157244D01*
X26166Y157972D01*
X26794Y158759D01*
X27349Y159599D01*
X27826Y160486D01*
X28221Y161412D01*
X28533Y162369D01*
X28757Y163351D01*
X28892Y164348D01*
X28937Y165354D01*
X216283Y180500D02*
X216238Y181506D01*
X216103Y182503D01*
X215879Y183485D01*
X215568Y184443D01*
X215172Y185368D01*
X214695Y186255D01*
X214141Y187095D01*
X213513Y187882D01*
X212817Y188610D01*
X212059Y189272D01*
X211244Y189864D01*
X210380Y190381D01*
X209473Y190817D01*
X208530Y191171D01*
X207560Y191439D01*
X206569Y191619D01*
X205566Y191709D01*
X204560D01*
X203557Y191619D01*
X202566Y191439D01*
X201596Y191171D01*
X200653Y190817D01*
X199746Y190381D01*
X198882Y189864D01*
X198067Y189272D01*
X197309Y188610D01*
X196613Y187882D01*
X195985Y187095D01*
X195431Y186255D01*
X194954Y185368D01*
X194558Y184443D01*
X194247Y183485D01*
X194023Y182503D01*
X193888Y181506D01*
X193842Y180500D01*
X193888Y179494D01*
X194023Y178497D01*
X194247Y177515D01*
X194558Y176557D01*
X194954Y175632D01*
X195431Y174745D01*
X195985Y173905D01*
X196613Y173118D01*
X197309Y172390D01*
X198067Y171728D01*
X198882Y171136D01*
X199746Y170619D01*
X200653Y170183D01*
X201596Y169829D01*
X202566Y169561D01*
X203557Y169381D01*
X204560Y169291D01*
X205566D01*
X206569Y169381D01*
X207560Y169561D01*
X208530Y169829D01*
X209473Y170183D01*
X210380Y170619D01*
X211244Y171136D01*
X212059Y171728D01*
X212817Y172390D01*
X213513Y173118D01*
X214141Y173905D01*
X214695Y174745D01*
X215172Y175632D01*
X215568Y176557D01*
X215879Y177515D01*
X216103Y178497D01*
X216238Y179494D01*
X216283Y180500D01*
X298500Y74279D02*
X299506Y74325D01*
X300503Y74460D01*
X301485Y74684D01*
X302443Y74995D01*
X303368Y75391D01*
X304255Y75868D01*
X305095Y76423D01*
X305882Y77050D01*
X306610Y77746D01*
X307273Y78504D01*
X307864Y79319D01*
X308381Y80183D01*
X308818Y81090D01*
X309171Y82033D01*
X309439Y83003D01*
X309619Y83994D01*
X309709Y84997D01*
Y86003D01*
X309619Y87006D01*
X309439Y87997D01*
X309171Y88967D01*
X308818Y89910D01*
X308381Y90817D01*
X307864Y91681D01*
X307273Y92496D01*
X306610Y93254D01*
X305882Y93950D01*
X305095Y94577D01*
X304255Y95132D01*
X303368Y95609D01*
X302443Y96005D01*
X301485Y96316D01*
X300503Y96540D01*
X299506Y96675D01*
X298500Y96720D01*
X298500D02*
X297494Y96675D01*
X296497Y96540D01*
X295515Y96316D01*
X294557Y96005D01*
X293632Y95609D01*
X292745Y95132D01*
X291905Y94577D01*
X291118Y93950D01*
X290390Y93254D01*
X289727Y92496D01*
X289136Y91681D01*
X288619Y90817D01*
X288182Y89910D01*
X287829Y88967D01*
X287561Y87997D01*
X287381Y87006D01*
X287291Y86003D01*
Y84997D01*
X287381Y83994D01*
X287561Y83003D01*
X287829Y82033D01*
X288182Y81090D01*
X288619Y80183D01*
X289136Y79319D01*
X289727Y78504D01*
X290390Y77746D01*
X291118Y77050D01*
X291905Y76423D01*
X292745Y75868D01*
X293632Y75391D01*
X294557Y74995D01*
X295515Y74684D01*
X296497Y74460D01*
X297494Y74325D01*
X298500Y74279D01*
X268500Y57717D02*
X269506Y57762D01*
X270503Y57897D01*
X271485Y58121D01*
X272443Y58432D01*
X273368Y58828D01*
X274255Y59305D01*
X275095Y59860D01*
X275882Y60487D01*
X276610Y61183D01*
X277273Y61941D01*
X277864Y62756D01*
X278381Y63620D01*
X278818Y64527D01*
X279171Y65470D01*
X279439Y66440D01*
X279619Y67431D01*
X279709Y68434D01*
Y69440D01*
X279619Y70443D01*
X279439Y71434D01*
X279171Y72404D01*
X278818Y73347D01*
X278381Y74254D01*
X277864Y75118D01*
X277273Y75933D01*
X276610Y76691D01*
X275882Y77387D01*
X275095Y78014D01*
X274255Y78569D01*
X273368Y79046D01*
X272443Y79442D01*
X271485Y79753D01*
X270503Y79977D01*
X269506Y80112D01*
X268500Y80158D01*
X268500D02*
X267494Y80112D01*
X266496Y79977D01*
X265515Y79753D01*
X264557Y79442D01*
X263632Y79046D01*
X262745Y78569D01*
X261905Y78015D01*
X261118Y77387D01*
X260390Y76691D01*
X259728Y75933D01*
X259136Y75118D01*
X258619Y74254D01*
X258183Y73347D01*
X257829Y72404D01*
X257561Y71434D01*
X257381Y70443D01*
X257291Y69440D01*
Y68434D01*
X257381Y67431D01*
X257561Y66440D01*
X257829Y65470D01*
X258183Y64527D01*
X258619Y63620D01*
X259136Y62756D01*
X259728Y61941D01*
X260390Y61183D01*
X261118Y60487D01*
X261905Y59860D01*
X262745Y59305D01*
X263632Y58828D01*
X264557Y58432D01*
X265515Y58121D01*
X266496Y57897D01*
X267494Y57762D01*
X268500Y57717D01*
X165405Y174839D02*
X180595D01*
Y167161D02*
Y174839D01*
X165405Y167161D02*
X180595D01*
X165405D02*
Y174839D01*
X270972Y114413D02*
X310047D01*
X270972D02*
Y128980D01*
X310047D01*
Y114413D02*
Y128980D01*
X313347Y97224D02*
Y138996D01*
X324449D01*
Y97224D02*
Y138996D01*
X313347Y97224D02*
X324449D01*
X109488Y209744D02*
Y230217D01*
X70512Y209744D02*
X109488D01*
X70512D02*
Y230217D01*
X109488D01*
X146181Y2461D02*
Y71161D01*
Y2461D02*
X208150D01*
Y71161D01*
X146181D02*
X208150D01*
X187902Y78185D02*
Y88815D01*
Y78185D02*
X213098D01*
Y88815D01*
X187902D02*
X213098D01*
X174098Y78185D02*
Y88815D01*
X148902D02*
X174098D01*
X148902Y78185D02*
Y88815D01*
Y78185D02*
X174098D01*
X331595Y85661D02*
Y93339D01*
X316405D02*
X331595D01*
X316405Y85661D02*
Y93339D01*
Y85661D02*
X331595D01*
X117618Y5020D02*
X142224D01*
Y97342D01*
X117618D02*
X142224D01*
X117618Y5020D02*
Y97342D01*
X247595Y101161D02*
Y108839D01*
X232405D02*
X247595D01*
X232405Y101161D02*
Y108839D01*
Y101161D02*
X247595D01*
D17*
X248031Y132000D02*
X251969D01*
X250000Y130032D02*
Y133968D01*
X135547Y179134D02*
Y183071D01*
X133579Y181102D02*
X137516D01*
X181000Y97031D02*
Y100969D01*
X179032Y99000D02*
X182968D01*
X179134Y137795D02*
X183071D01*
X181102Y135827D02*
Y139764D01*
D77*
X263055Y172500D02*
X263000Y173496D01*
X262836Y174480D01*
X262564Y175440D01*
X262189Y176365D01*
X261714Y177242D01*
X261146Y178062D01*
X260490Y178814D01*
X259757Y179490D01*
X258953Y180081D01*
X258089Y180579D01*
X257175Y180980D01*
X256223Y181278D01*
X255244Y181469D01*
X254250Y181552D01*
X253252Y181524D01*
X252264Y181387D01*
X251297Y181142D01*
X250363Y180792D01*
X249472Y180342D01*
X248637Y179796D01*
X247867Y179162D01*
X247171Y178447D01*
X246559Y177660D01*
X246036Y176810D01*
X245610Y175908D01*
X245286Y174964D01*
X245068Y173990D01*
X244959Y172999D01*
Y172001D01*
X245068Y171010D01*
X245286Y170036D01*
X245610Y169093D01*
X246036Y168190D01*
X246559Y167340D01*
X247171Y166553D01*
X247867Y165838D01*
X248637Y165204D01*
X249472Y164658D01*
X250363Y164208D01*
X251297Y163858D01*
X252264Y163613D01*
X253252Y163476D01*
X254250Y163448D01*
X255244Y163531D01*
X256223Y163722D01*
X257175Y164020D01*
X258089Y164420D01*
X258953Y164919D01*
X259757Y165510D01*
X260491Y166186D01*
X261146Y166938D01*
X261714Y167758D01*
X262189Y168635D01*
X262564Y169560D01*
X262836Y170520D01*
X263000Y171504D01*
X263055Y172500D01*
X269094Y111331D02*
Y152669D01*
X230906Y111331D02*
Y152669D01*
Y111331D02*
X269094D01*
X230906Y152669D02*
X269094D01*
X82677Y92520D02*
Y96457D01*
X80709Y94488D02*
X84646D01*
X76595Y68110D02*
Y120866D01*
X88760D01*
Y68110D02*
Y120866D01*
X76595Y68110D02*
X88760D01*
X122161Y175453D02*
X148933D01*
X122161D02*
Y190748D01*
X148933D01*
Y175453D02*
Y190748D01*
X243425Y193504D02*
Y231102D01*
X110906D02*
X243425D01*
X110906Y193504D02*
Y231102D01*
Y193504D02*
X243425D01*
X175197Y212598D02*
X179134D01*
X177165Y210630D02*
Y214567D01*
X234252Y51181D02*
X238189D01*
X236221Y49213D02*
Y53150D01*
X255512Y2362D02*
Y100000D01*
X216929Y2362D02*
X255512D01*
X216929D02*
Y100000D01*
X255512D01*
X158263Y89455D02*
Y108545D01*
X203736D01*
Y89455D02*
Y108545D01*
X158263Y89455D02*
X203736D01*
X254000Y170531D02*
Y174469D01*
X252031Y172500D02*
X255968D01*
X152756Y109449D02*
Y166142D01*
X209449Y109449D02*
Y166142D01*
X152756Y109449D02*
X209449D01*
X152756Y166142D02*
X209449D01*
M02*
