G04*
G04 #@! TF.GenerationSoftware,Altium Limited,Altium Designer,21.3.2 (30)*
G04*
G04 Layer_Color=32768*
%FSLAX25Y25*%
%MOIN*%
G70*
G04*
G04 #@! TF.SameCoordinates,90E1903C-9E0C-4C1D-B8CF-915D6ECFEAAF*
G04*
G04*
G04 #@! TF.FilePolarity,Positive*
G04*
G01*
G75*
%ADD10C,0.00787*%
D10*
X222055Y126307D02*
Y139693D01*
Y126307D02*
X228945D01*
Y139693D01*
X222055D02*
X228945D01*
X211055Y115307D02*
Y128693D01*
Y115307D02*
X217945D01*
Y128693D01*
X211055D02*
X217945D01*
X168850Y201799D02*
X175150D01*
Y189201D02*
Y201799D01*
X168850Y189201D02*
X175150D01*
X168850D02*
Y201799D01*
X254693Y133555D02*
Y140445D01*
X241307Y133555D02*
X254693D01*
X241307D02*
Y140445D01*
X254693D01*
Y143055D02*
Y149945D01*
X241307Y143055D02*
X254693D01*
X241307D02*
Y149945D01*
X254693D01*
X138583Y57579D02*
Y64468D01*
X125197Y57579D02*
X138583D01*
X125197D02*
Y64468D01*
X138583D01*
X126772Y38189D02*
Y44488D01*
X139370D01*
Y38189D02*
Y44488D01*
X126772Y38189D02*
X139370D01*
X69850Y23701D02*
X76150D01*
X69850D02*
Y36299D01*
X76150D01*
Y23701D02*
Y36299D01*
X89850Y52701D02*
X96150D01*
X89850D02*
Y65299D01*
X96150D01*
Y52701D02*
Y65299D01*
X67350Y95799D02*
X73650D01*
Y83201D02*
Y95799D01*
X67350Y83201D02*
X73650D01*
X67350D02*
Y95799D01*
X79350Y23701D02*
X85650D01*
X79350D02*
Y36299D01*
X85650D01*
Y23701D02*
Y36299D01*
X79154Y64303D02*
X85847D01*
Y49697D02*
Y64303D01*
X79154Y49697D02*
X85847D01*
X79154D02*
Y64303D01*
X34252Y120571D02*
Y127461D01*
X20866Y120571D02*
X34252D01*
X20866D02*
Y127461D01*
X34252D01*
X32677Y129921D02*
Y136221D01*
X20079Y129921D02*
X32677D01*
X20079D02*
Y136221D01*
X32677D01*
X219744Y67350D02*
X235256D01*
Y48650D02*
Y67350D01*
X219744Y48650D02*
X235256D01*
X219744D02*
Y67350D01*
X240008Y69358D02*
X250992D01*
Y51642D02*
Y69358D01*
X240008Y51642D02*
X250992D01*
X240008D02*
Y69358D01*
M02*
