G04*
G04 #@! TF.GenerationSoftware,Altium Limited,Altium Designer,21.3.2 (30)*
G04*
G04 Layer_Physical_Order=1*
G04 Layer_Color=13311*
%FSLAX25Y25*%
%MOIN*%
G70*
G04*
G04 #@! TF.SameCoordinates,90E1903C-9E0C-4C1D-B8CF-915D6ECFEAAF*
G04*
G04*
G04 #@! TF.FilePolarity,Positive*
G04*
G01*
G75*
%ADD14C,0.00500*%
%ADD15C,0.01000*%
%ADD20R,0.04352X0.06528*%
%ADD21R,0.09843X0.03937*%
%ADD26R,0.04724X0.04724*%
%ADD27C,0.04724*%
%ADD30R,0.05984X0.05984*%
%ADD31C,0.05984*%
%ADD32R,0.04528X0.04528*%
%ADD33C,0.04528*%
%ADD38R,0.05591X0.05591*%
%ADD40C,0.05591*%
%ADD41C,0.13780*%
%ADD42R,0.04724X0.04724*%
%ADD44R,0.05512X0.05512*%
%ADD45C,0.05512*%
%ADD47O,0.08071X0.02362*%
%ADD48O,0.02362X0.08071*%
%ADD49C,0.00750*%
%ADD50R,0.05906X0.05906*%
%ADD51C,0.05906*%
%ADD52C,0.06299*%
G04:AMPARAMS|DCode=53|XSize=62.99mil|YSize=62.99mil|CornerRadius=15.75mil|HoleSize=0mil|Usage=FLASHONLY|Rotation=90.000|XOffset=0mil|YOffset=0mil|HoleType=Round|Shape=RoundedRectangle|*
%AMROUNDEDRECTD53*
21,1,0.06299,0.03150,0,0,90.0*
21,1,0.03150,0.06299,0,0,90.0*
1,1,0.03150,0.01575,0.01575*
1,1,0.03150,0.01575,-0.01575*
1,1,0.03150,-0.01575,-0.01575*
1,1,0.03150,-0.01575,0.01575*
%
%ADD53ROUNDEDRECTD53*%
G04:AMPARAMS|DCode=54|XSize=62.99mil|YSize=62.99mil|CornerRadius=15.75mil|HoleSize=0mil|Usage=FLASHONLY|Rotation=180.000|XOffset=0mil|YOffset=0mil|HoleType=Round|Shape=RoundedRectangle|*
%AMROUNDEDRECTD54*
21,1,0.06299,0.03150,0,0,180.0*
21,1,0.03150,0.06299,0,0,180.0*
1,1,0.03150,-0.01575,0.01575*
1,1,0.03150,0.01575,0.01575*
1,1,0.03150,0.01575,-0.01575*
1,1,0.03150,-0.01575,-0.01575*
%
%ADD54ROUNDEDRECTD54*%
%ADD55C,0.08858*%
%ADD56C,0.06000*%
%ADD57C,0.02362*%
G36*
X338259Y234700D02*
X340599Y234073D01*
X342837Y233146D01*
X344935Y231935D01*
X346857Y230460D01*
X348570Y228747D01*
X350045Y226825D01*
X351256Y224727D01*
X352183Y222489D01*
X352810Y220149D01*
X353127Y217747D01*
Y216535D01*
Y19685D01*
Y18474D01*
X352810Y16072D01*
X352183Y13732D01*
X351256Y11494D01*
X350045Y9396D01*
X348570Y7474D01*
X346857Y5761D01*
X344935Y4286D01*
X342837Y3074D01*
X340599Y2147D01*
X338259Y1520D01*
X335857Y1204D01*
X18474D01*
X16072Y1520D01*
X13732Y2147D01*
X11494Y3074D01*
X9396Y4286D01*
X7474Y5761D01*
X5761Y7474D01*
X4286Y9396D01*
X3074Y11494D01*
X2147Y13732D01*
X1520Y16072D01*
X1204Y18474D01*
Y19685D01*
Y216535D01*
Y217747D01*
X1520Y220149D01*
X2147Y222489D01*
X3074Y224727D01*
X4286Y226825D01*
X5761Y228747D01*
X7474Y230460D01*
X9396Y231935D01*
X11494Y233146D01*
X13732Y234073D01*
X16072Y234700D01*
X18474Y235016D01*
X335857D01*
X338259Y234700D01*
D02*
G37*
%LPC*%
G36*
X172500Y230529D02*
X108000D01*
X107415Y230413D01*
X106919Y230081D01*
X98919Y222081D01*
X98587Y221585D01*
X98471Y221000D01*
Y215764D01*
X96736D01*
Y209236D01*
X103264D01*
Y215764D01*
X101529D01*
Y220367D01*
X108633Y227471D01*
X171867D01*
X175471Y223867D01*
Y220883D01*
X174971Y220676D01*
X174258Y221223D01*
X173249Y221641D01*
X172165Y221784D01*
X171082Y221641D01*
X170073Y221223D01*
X169206Y220558D01*
X168541Y219691D01*
X168123Y218682D01*
X167980Y217598D01*
X168123Y216515D01*
X168541Y215506D01*
X169206Y214639D01*
X170073Y213974D01*
X171082Y213556D01*
X172165Y213413D01*
X173249Y213556D01*
X174258Y213974D01*
X174971Y214521D01*
X175471Y214314D01*
Y213067D01*
X173812Y211408D01*
X173249Y211641D01*
X172165Y211784D01*
X171082Y211641D01*
X170073Y211223D01*
X169206Y210558D01*
X168541Y209691D01*
X168123Y208682D01*
X167980Y207598D01*
X168123Y206515D01*
X168541Y205506D01*
X169206Y204639D01*
X170073Y203974D01*
X170553Y203775D01*
Y202182D01*
X170428Y202098D01*
X169946Y201376D01*
X169776Y200525D01*
X169946Y199674D01*
X170428Y198952D01*
X171149Y198470D01*
X172000Y198301D01*
X172051Y198311D01*
X178190Y192172D01*
X178026Y191630D01*
X177649Y191554D01*
X176927Y191072D01*
X176445Y190351D01*
X176276Y189500D01*
X176346Y189148D01*
X172972Y185775D01*
X165000D01*
X164512Y185678D01*
X164099Y185401D01*
X151599Y172901D01*
X151322Y172488D01*
X151225Y172000D01*
Y150551D01*
X151322Y150063D01*
X151599Y149650D01*
X153653Y147596D01*
X153583Y147244D01*
X153753Y146393D01*
X154184Y145747D01*
X153954Y145366D01*
X153913Y145322D01*
X148740D01*
X148573Y145572D01*
X147851Y146054D01*
X147000Y146224D01*
X146149Y146054D01*
X145428Y145572D01*
X144946Y144851D01*
X144776Y144000D01*
X144842Y143667D01*
X144382Y143421D01*
X133654Y154148D01*
X133724Y154500D01*
X133554Y155351D01*
X133072Y156072D01*
X132351Y156554D01*
X131500Y156724D01*
X130649Y156554D01*
X129928Y156072D01*
X129446Y155351D01*
X129276Y154500D01*
X129446Y153649D01*
X129928Y152927D01*
X130649Y152445D01*
X131500Y152276D01*
X131602Y152154D01*
X131408Y151606D01*
X131149Y151555D01*
X130428Y151073D01*
X129946Y150351D01*
X129881Y150026D01*
X129402Y149881D01*
X116274Y163008D01*
Y189905D01*
X130264Y203895D01*
X131082Y203556D01*
X132165Y203413D01*
X133249Y203556D01*
X134258Y203974D01*
X135125Y204639D01*
X135790Y205506D01*
X136208Y206515D01*
X136351Y207598D01*
X136208Y208682D01*
X135790Y209691D01*
X135125Y210558D01*
X134258Y211223D01*
X133249Y211641D01*
X132165Y211784D01*
X131082Y211641D01*
X130073Y211223D01*
X129206Y210558D01*
X128541Y209691D01*
X128123Y208682D01*
X127980Y207598D01*
X128123Y206515D01*
X128462Y205697D01*
X114099Y191334D01*
X113822Y190921D01*
X113725Y190433D01*
Y162480D01*
X113822Y161993D01*
X114099Y161579D01*
X141032Y134646D01*
X84948Y78562D01*
X84924Y78571D01*
X84252Y78660D01*
X81102D01*
X80430Y78571D01*
X79804Y78312D01*
X79266Y77899D01*
X78853Y77362D01*
X78594Y76735D01*
X78505Y76063D01*
Y72913D01*
X78594Y72241D01*
X78853Y71615D01*
X79266Y71077D01*
X79804Y70664D01*
X80430Y70405D01*
X81102Y70316D01*
X84252D01*
X84924Y70405D01*
X85550Y70664D01*
X86088Y71077D01*
X86501Y71615D01*
X86760Y72241D01*
X86849Y72913D01*
Y76063D01*
X86760Y76735D01*
X86751Y76759D01*
X128835Y118843D01*
X129296Y118597D01*
X129276Y118500D01*
X129446Y117649D01*
X129928Y116928D01*
X130649Y116446D01*
X131500Y116276D01*
X132351Y116446D01*
X133072Y116928D01*
X133272Y117226D01*
X144928D01*
X145196Y116726D01*
X144946Y116351D01*
X144776Y115500D01*
X144846Y115148D01*
X140972Y111275D01*
X132772D01*
X132572Y111573D01*
X131851Y112055D01*
X131000Y112224D01*
X130149Y112055D01*
X129428Y111573D01*
X128946Y110851D01*
X128776Y110000D01*
X128946Y109149D01*
X129428Y108428D01*
X130149Y107946D01*
X131000Y107776D01*
X131851Y107946D01*
X132572Y108428D01*
X132772Y108726D01*
X139928D01*
X140196Y108226D01*
X139945Y107851D01*
X139776Y107000D01*
X139945Y106149D01*
X140427Y105428D01*
X140726Y105228D01*
Y75599D01*
X139395Y74269D01*
X138776Y74525D01*
X137795Y74654D01*
X136815Y74525D01*
X135901Y74147D01*
X135117Y73545D01*
X134514Y72760D01*
X134136Y71847D01*
X134007Y70866D01*
X134136Y69886D01*
X134514Y68972D01*
X135117Y68187D01*
X135901Y67585D01*
X136815Y67207D01*
X137795Y67078D01*
X138776Y67207D01*
X139689Y67585D01*
X140474Y68187D01*
X141076Y68972D01*
X141455Y69886D01*
X141584Y70866D01*
X141455Y71847D01*
X141198Y72466D01*
X142901Y74170D01*
X143177Y74583D01*
X143274Y75071D01*
Y105228D01*
X143572Y105428D01*
X144054Y106149D01*
X144224Y107000D01*
X144054Y107851D01*
X143572Y108572D01*
X142979Y108969D01*
X142832Y109529D01*
X146649Y113346D01*
X147000Y113276D01*
X147851Y113445D01*
X148573Y113927D01*
X149055Y114649D01*
X149224Y115500D01*
X149055Y116351D01*
X148804Y116726D01*
X149072Y117226D01*
X161500D01*
X161988Y117323D01*
X162401Y117599D01*
X162630Y117828D01*
X163130Y117621D01*
Y112500D01*
X163300Y111649D01*
X163550Y111275D01*
X163283Y110775D01*
X148772D01*
X148573Y111073D01*
X147851Y111555D01*
X147000Y111724D01*
X146149Y111555D01*
X145428Y111073D01*
X144946Y110351D01*
X144776Y109500D01*
X144946Y108649D01*
X145428Y107928D01*
X146149Y107446D01*
X147000Y107276D01*
X147851Y107446D01*
X148573Y107928D01*
X148772Y108226D01*
X168654D01*
X169141Y108323D01*
X169555Y108599D01*
X171302Y110346D01*
X171653Y110276D01*
X172505Y110445D01*
X173226Y110927D01*
X173231D01*
X173952Y110445D01*
X174803Y110276D01*
X175654Y110445D01*
X176376Y110927D01*
X176380D01*
X177102Y110445D01*
X177953Y110276D01*
X178804Y110445D01*
X179525Y110927D01*
X179530D01*
X180251Y110445D01*
X181102Y110276D01*
X181953Y110445D01*
X182675Y110927D01*
X182679D01*
X183401Y110445D01*
X183752Y110376D01*
Y115354D01*
X184752D01*
Y110376D01*
X185103Y110445D01*
X185666Y110821D01*
X186127Y110549D01*
Y102929D01*
X183472Y100275D01*
X174505D01*
X174331Y100696D01*
X173792Y101398D01*
X173089Y101937D01*
X172271Y102276D01*
X171394Y102391D01*
X170516Y102276D01*
X169698Y101937D01*
X168996Y101398D01*
X168457Y100696D01*
X168118Y99878D01*
X168002Y99000D01*
X168118Y98122D01*
X168457Y97304D01*
X168996Y96602D01*
X169698Y96063D01*
X170119Y95889D01*
Y86862D01*
X167980D01*
Y80138D01*
X174705D01*
Y86862D01*
X172668D01*
Y95889D01*
X173089Y96063D01*
X173792Y96602D01*
X174331Y97304D01*
X174505Y97725D01*
X184000D01*
X184488Y97822D01*
X184901Y98099D01*
X186869Y100066D01*
X187192Y99934D01*
X187322Y99813D01*
X187215Y99000D01*
X187331Y98122D01*
X187669Y97304D01*
X188208Y96602D01*
X188911Y96063D01*
X189332Y95889D01*
Y86862D01*
X187295D01*
Y80138D01*
X194020D01*
Y86862D01*
X191881D01*
Y95889D01*
X192302Y96063D01*
X193004Y96602D01*
X193543Y97304D01*
X193882Y98122D01*
X193998Y99000D01*
X193882Y99878D01*
X193543Y100696D01*
X193004Y101398D01*
X192302Y101937D01*
X191853Y102123D01*
Y110510D01*
X192336Y110789D01*
X192850Y110445D01*
X193701Y110276D01*
X194552Y110445D01*
X195273Y110927D01*
X195278D01*
X195999Y110445D01*
X196850Y110276D01*
X197701Y110445D01*
X198423Y110927D01*
X198905Y111649D01*
X199074Y112500D01*
Y117110D01*
X199536Y117301D01*
X212919Y103919D01*
X213415Y103587D01*
X214000Y103471D01*
X231799D01*
Y100736D01*
X234691D01*
Y85952D01*
X233483Y85451D01*
X232348Y84581D01*
X231478Y83447D01*
X230931Y82126D01*
X230745Y80709D01*
X230931Y79291D01*
X231432Y78083D01*
X226419Y73070D01*
X226087Y72574D01*
X225971Y71988D01*
Y69247D01*
X225927Y69218D01*
X225899Y69175D01*
X170146D01*
X169560Y69059D01*
X169064Y68727D01*
X160560Y60223D01*
X160229Y59727D01*
X160112Y59142D01*
Y48943D01*
X159612Y48765D01*
X159071Y49425D01*
X157869Y50411D01*
X156499Y51143D01*
X155011Y51595D01*
X153965Y51698D01*
Y43819D01*
Y35940D01*
X155011Y36043D01*
X156499Y36494D01*
X157869Y37227D01*
X159071Y38213D01*
X159612Y38873D01*
X160112Y38694D01*
Y29775D01*
X156867Y26529D01*
X83807D01*
X83351Y26834D01*
X82500Y27003D01*
X81649Y26834D01*
X80927Y26352D01*
X80445Y25630D01*
X80276Y24779D01*
X80286Y24728D01*
X75587Y20029D01*
X65134D01*
X64529Y20633D01*
Y86587D01*
X70449Y92507D01*
X70500Y92497D01*
X71351Y92666D01*
X72072Y93148D01*
X72554Y93870D01*
X72724Y94721D01*
X72554Y95572D01*
X72072Y96293D01*
X71351Y96775D01*
X70500Y96945D01*
X69649Y96775D01*
X68928Y96293D01*
X68899Y96250D01*
X51385D01*
X23567Y124069D01*
X23577Y124120D01*
X23407Y124971D01*
X22925Y125692D01*
X22204Y126174D01*
X21353Y126343D01*
X20502Y126174D01*
X19780Y125692D01*
X19298Y124971D01*
X19129Y124120D01*
X19298Y123268D01*
X19780Y122547D01*
X20502Y122065D01*
X21353Y121896D01*
X21404Y121906D01*
X49670Y93639D01*
X50166Y93308D01*
X50752Y93191D01*
X66154D01*
X66346Y92730D01*
X61919Y88302D01*
X61587Y87806D01*
X61471Y87221D01*
Y20000D01*
X61587Y19415D01*
X61919Y18919D01*
X63419Y17419D01*
X63915Y17087D01*
X64500Y16971D01*
X76221D01*
X76806Y17087D01*
X77302Y17419D01*
X82449Y22566D01*
X82500Y22555D01*
X83351Y22725D01*
X84073Y23207D01*
X84249Y23471D01*
X157500D01*
X158085Y23587D01*
X158581Y23919D01*
X162723Y28060D01*
X163055Y28556D01*
X163171Y29142D01*
Y58508D01*
X168046Y63383D01*
X168520Y63150D01*
X168416Y62362D01*
X168546Y61371D01*
X168929Y60448D01*
X169537Y59655D01*
X170330Y59047D01*
X171207Y58684D01*
X171253Y58556D01*
Y58295D01*
X171207Y58166D01*
X170330Y57803D01*
X169537Y57195D01*
X168929Y56402D01*
X168546Y55479D01*
X168416Y54488D01*
X168546Y53497D01*
X168929Y52574D01*
X169537Y51781D01*
X170330Y51173D01*
X171253Y50791D01*
X172244Y50660D01*
X173235Y50791D01*
X174158Y51173D01*
X174951Y51781D01*
X175559Y52574D01*
X175942Y53497D01*
X176072Y54488D01*
X175942Y55479D01*
X175559Y56402D01*
X174951Y57195D01*
X174158Y57803D01*
X173282Y58166D01*
X173235Y58295D01*
Y58556D01*
X173282Y58684D01*
X174158Y59047D01*
X174951Y59655D01*
X175559Y60448D01*
X175942Y61371D01*
X176072Y62362D01*
X175942Y63353D01*
X175559Y64276D01*
X174951Y65069D01*
X174238Y65616D01*
X174279Y65925D01*
X174372Y66116D01*
X178291D01*
Y58567D01*
X180710D01*
X180809Y58067D01*
X180173Y57803D01*
X179380Y57195D01*
X178771Y56402D01*
X178389Y55479D01*
X178324Y54988D01*
X182087D01*
X185849D01*
X185784Y55479D01*
X185402Y56402D01*
X184793Y57195D01*
X184001Y57803D01*
X183364Y58067D01*
X183464Y58567D01*
X185882D01*
Y60833D01*
X205004D01*
X211471Y54366D01*
Y30000D01*
X211587Y29415D01*
X211919Y28919D01*
X220265Y20572D01*
X220761Y20241D01*
X221346Y20124D01*
X230978D01*
X231478Y18915D01*
X232348Y17781D01*
X233483Y16911D01*
X234803Y16364D01*
X236221Y16178D01*
X237638Y16364D01*
X238959Y16911D01*
X240093Y17781D01*
X240963Y18915D01*
X241510Y20236D01*
X241697Y21654D01*
X241510Y23071D01*
X240963Y24392D01*
X240093Y25526D01*
X238959Y26396D01*
X237638Y26943D01*
X236221Y27130D01*
X234803Y26943D01*
X233483Y26396D01*
X232348Y25526D01*
X231478Y24392D01*
X230978Y23183D01*
X221980D01*
X214529Y30634D01*
Y55000D01*
X214413Y55585D01*
X214081Y56081D01*
X206719Y63444D01*
X206223Y63775D01*
X205638Y63892D01*
X185882D01*
Y66116D01*
X225899D01*
X225927Y66073D01*
X226649Y65591D01*
X227500Y65422D01*
X228351Y65591D01*
X229072Y66073D01*
X229555Y66795D01*
X229724Y67646D01*
X229555Y68497D01*
X229072Y69218D01*
X229029Y69247D01*
Y71355D01*
X233595Y75920D01*
X234803Y75419D01*
X236221Y75233D01*
X237638Y75419D01*
X238846Y75920D01*
X243971Y70796D01*
Y69148D01*
X243928Y69120D01*
X243445Y68398D01*
X243276Y67547D01*
X243445Y66696D01*
X243928Y65975D01*
X244649Y65493D01*
X245500Y65323D01*
X246351Y65493D01*
X247073Y65975D01*
X247101Y66018D01*
X263173D01*
X263758Y66134D01*
X264255Y66466D01*
X264676Y66887D01*
X265138Y66696D01*
Y65500D01*
X268000D01*
Y68362D01*
X266804D01*
X266613Y68824D01*
X267456Y69667D01*
X267622Y69598D01*
X268500Y69483D01*
X269378Y69598D01*
X270196Y69937D01*
X270898Y70476D01*
X271437Y71178D01*
X271776Y71996D01*
X271891Y72874D01*
X271776Y73752D01*
X271707Y73918D01*
X272731Y74942D01*
X273063Y75438D01*
X273179Y76024D01*
Y90505D01*
X273641Y90696D01*
X275982Y88356D01*
X276478Y88024D01*
X277063Y87908D01*
X295494D01*
X295563Y87741D01*
X296102Y87039D01*
X296804Y86500D01*
X297622Y86161D01*
X298500Y86046D01*
X299378Y86161D01*
X300196Y86500D01*
X300898Y87039D01*
X301437Y87741D01*
X301506Y87908D01*
X315799D01*
Y85236D01*
X322151D01*
Y93764D01*
X320504D01*
Y99118D01*
X322890D01*
Y107102D01*
X314906D01*
Y99118D01*
X317446D01*
Y93764D01*
X315799D01*
Y90966D01*
X301506D01*
X301437Y91133D01*
X300898Y91835D01*
X300196Y92374D01*
X299378Y92713D01*
X298500Y92828D01*
X297622Y92713D01*
X296804Y92374D01*
X296102Y91835D01*
X295563Y91133D01*
X295494Y90966D01*
X277696D01*
X272731Y95932D01*
X271207Y97456D01*
X271276Y97622D01*
X271391Y98500D01*
X271276Y99378D01*
X270937Y100196D01*
X270398Y100898D01*
X269696Y101437D01*
X268878Y101776D01*
X268000Y101891D01*
X267122Y101776D01*
X266304Y101437D01*
X265602Y100898D01*
X265063Y100196D01*
X264724Y99378D01*
X264609Y98500D01*
X264724Y97622D01*
X265063Y96804D01*
X265602Y96102D01*
X266304Y95563D01*
X267122Y95224D01*
X268000Y95109D01*
X268878Y95224D01*
X269044Y95293D01*
X269849Y94488D01*
X269642Y93988D01*
X268500D01*
Y90626D01*
Y87264D01*
X270120D01*
Y76657D01*
X269544Y76081D01*
X269378Y76150D01*
X268500Y76265D01*
X267622Y76150D01*
X266804Y75811D01*
X266102Y75272D01*
X265563Y74570D01*
X265224Y73752D01*
X265109Y72874D01*
X265224Y71996D01*
X265293Y71830D01*
X262540Y69077D01*
X247101D01*
X247073Y69120D01*
X247029Y69148D01*
Y71429D01*
X246913Y72014D01*
X246581Y72511D01*
X241009Y78083D01*
X241510Y79291D01*
X241697Y80709D01*
X241510Y82126D01*
X240963Y83447D01*
X240093Y84581D01*
X238959Y85451D01*
X237750Y85952D01*
Y100736D01*
X238151D01*
Y109264D01*
X236529D01*
Y113355D01*
X236993Y113547D01*
X237819Y114181D01*
X238453Y115007D01*
X238645Y115471D01*
X242000D01*
X242585Y115587D01*
X243081Y115919D01*
X247581Y120419D01*
X247913Y120915D01*
X248029Y121500D01*
Y128764D01*
X254051Y134786D01*
X254102Y134776D01*
X254953Y134945D01*
X255675Y135427D01*
X256157Y136149D01*
X256326Y137000D01*
X256157Y137851D01*
X255675Y138573D01*
X254953Y139055D01*
X254102Y139224D01*
X253251Y139055D01*
X252530Y138573D01*
X252048Y137851D01*
X251878Y137000D01*
X251889Y136949D01*
X245470Y130530D01*
X245138Y130034D01*
X245022Y129449D01*
Y129257D01*
X244971Y129000D01*
Y122134D01*
X241367Y118529D01*
X238645D01*
X238453Y118993D01*
X237819Y119819D01*
X236993Y120453D01*
X236032Y120851D01*
X235000Y120987D01*
X233968Y120851D01*
X233007Y120453D01*
X232181Y119819D01*
X231547Y118993D01*
X231149Y118032D01*
X231013Y117000D01*
X231149Y115968D01*
X231547Y115007D01*
X232181Y114181D01*
X233007Y113547D01*
X233471Y113355D01*
Y109264D01*
X231799D01*
Y106529D01*
X214633D01*
X201801Y119361D01*
X201993Y119823D01*
X206398D01*
X207249Y119993D01*
X207970Y120475D01*
X208452Y121196D01*
X208622Y122047D01*
X208452Y122898D01*
X207970Y123620D01*
Y123624D01*
X208452Y124346D01*
X208622Y125197D01*
X208452Y126048D01*
X208184Y126450D01*
X208451Y126950D01*
X212647D01*
X212928Y126530D01*
X213649Y126048D01*
X214500Y125879D01*
X215351Y126048D01*
X216073Y126530D01*
X216555Y127251D01*
X216724Y128102D01*
X216555Y128953D01*
X216073Y129675D01*
X216003Y129722D01*
X216154Y130222D01*
X229496D01*
X229984Y130319D01*
X230397Y130595D01*
X233249Y133447D01*
X233968Y133149D01*
X235000Y133013D01*
X236032Y133149D01*
X236993Y133547D01*
X237819Y134181D01*
X238453Y135007D01*
X238851Y135968D01*
X238987Y137000D01*
X238851Y138032D01*
X238453Y138993D01*
X237819Y139819D01*
X236993Y140453D01*
X236032Y140851D01*
X235000Y140987D01*
X233968Y140851D01*
X233007Y140453D01*
X232181Y139819D01*
X231547Y138993D01*
X231149Y138032D01*
X231013Y137000D01*
X231149Y135968D01*
X231447Y135249D01*
X228968Y132771D01*
X208734D01*
X208561Y133071D01*
X208734Y133371D01*
X219646D01*
X220133Y133468D01*
X220547Y133745D01*
X223901Y137099D01*
X224108Y137409D01*
X224649Y137048D01*
X225500Y136879D01*
X226351Y137048D01*
X227073Y137530D01*
X227555Y138251D01*
X227724Y139102D01*
X227555Y139953D01*
X227073Y140675D01*
X226775Y140874D01*
Y166972D01*
X236028Y176225D01*
X250250D01*
X250547Y175507D01*
X251181Y174681D01*
X252007Y174047D01*
X252968Y173649D01*
X254000Y173513D01*
X255032Y173649D01*
X255993Y174047D01*
X256819Y174681D01*
X257453Y175507D01*
X257851Y176468D01*
X257987Y177500D01*
X257851Y178532D01*
X257453Y179493D01*
X256819Y180319D01*
X255993Y180953D01*
X255032Y181351D01*
X254000Y181487D01*
X252968Y181351D01*
X252007Y180953D01*
X251181Y180319D01*
X250547Y179493D01*
X250250Y178774D01*
X235500D01*
X235012Y178677D01*
X234599Y178401D01*
X224775Y168577D01*
X224274Y168784D01*
Y176472D01*
X239901Y192099D01*
X240177Y192512D01*
X240275Y193000D01*
Y216000D01*
X240177Y216488D01*
X239901Y216901D01*
X238401Y218401D01*
X237988Y218677D01*
X237500Y218775D01*
X226337D01*
Y219173D01*
X226249Y219845D01*
X225989Y220472D01*
X225576Y221010D01*
X225039Y221422D01*
X224412Y221682D01*
X223740Y221770D01*
X220590D01*
X219918Y221682D01*
X219292Y221422D01*
X218754Y221010D01*
X218341Y220472D01*
X218082Y219845D01*
X217993Y219173D01*
Y216024D01*
X218082Y215352D01*
X218341Y214725D01*
X218687Y214275D01*
X218598Y213960D01*
X218471Y213774D01*
X217528D01*
X215792Y215510D01*
X216208Y216515D01*
X216351Y217598D01*
X216208Y218682D01*
X215790Y219691D01*
X215125Y220558D01*
X214258Y221223D01*
X213249Y221641D01*
X212165Y221784D01*
X211082Y221641D01*
X210073Y221223D01*
X209206Y220558D01*
X208541Y219691D01*
X208123Y218682D01*
X207980Y217598D01*
X208123Y216515D01*
X208541Y215506D01*
X209170Y214685D01*
X209092Y214303D01*
X209052Y214185D01*
X207381D01*
X205869Y215697D01*
X206208Y216515D01*
X206351Y217598D01*
X206208Y218682D01*
X205790Y219691D01*
X205125Y220558D01*
X204258Y221223D01*
X203249Y221641D01*
X202165Y221784D01*
X201082Y221641D01*
X200073Y221223D01*
X199206Y220558D01*
X198541Y219691D01*
X198123Y218682D01*
X197980Y217598D01*
X198123Y216515D01*
X198541Y215506D01*
X199206Y214639D01*
X199681Y214275D01*
X199511Y213774D01*
X197792D01*
X195869Y215697D01*
X196208Y216515D01*
X196351Y217598D01*
X196208Y218682D01*
X195790Y219691D01*
X195125Y220558D01*
X194258Y221223D01*
X193249Y221641D01*
X192165Y221784D01*
X191082Y221641D01*
X190073Y221223D01*
X189206Y220558D01*
X188541Y219691D01*
X188123Y218682D01*
X187980Y217598D01*
X188123Y216515D01*
X188541Y215506D01*
X189170Y214685D01*
X189092Y214303D01*
X189052Y214185D01*
X187381D01*
X185869Y215697D01*
X186208Y216515D01*
X186351Y217598D01*
X186208Y218682D01*
X185790Y219691D01*
X185125Y220558D01*
X184258Y221223D01*
X183249Y221641D01*
X182165Y221784D01*
X181082Y221641D01*
X180073Y221223D01*
X179206Y220558D01*
X179029Y220328D01*
X178529Y220498D01*
Y224500D01*
X178413Y225085D01*
X178081Y225581D01*
X173581Y230081D01*
X173085Y230413D01*
X172500Y230529D01*
D02*
G37*
G36*
X90000Y225792D02*
X89148Y225680D01*
X88354Y225351D01*
X87672Y224828D01*
X87149Y224146D01*
X86820Y223352D01*
X86708Y222500D01*
X86820Y221648D01*
X87149Y220854D01*
X87672Y220172D01*
X88354Y219649D01*
X89148Y219320D01*
X90000Y219208D01*
X90852Y219320D01*
X91646Y219649D01*
X92328Y220172D01*
X92851Y220854D01*
X93180Y221648D01*
X93292Y222500D01*
X93180Y223352D01*
X92851Y224146D01*
X92328Y224828D01*
X91646Y225351D01*
X90852Y225680D01*
X90000Y225792D01*
D02*
G37*
G36*
X162165Y221784D02*
X161082Y221641D01*
X160073Y221223D01*
X159206Y220558D01*
X158541Y219691D01*
X158123Y218682D01*
X157980Y217598D01*
X158123Y216515D01*
X158541Y215506D01*
X159206Y214639D01*
X160073Y213974D01*
X161082Y213556D01*
X162165Y213413D01*
X163249Y213556D01*
X164258Y213974D01*
X165125Y214639D01*
X165790Y215506D01*
X166208Y216515D01*
X166351Y217598D01*
X166208Y218682D01*
X165790Y219691D01*
X165125Y220558D01*
X164258Y221223D01*
X163249Y221641D01*
X162165Y221784D01*
D02*
G37*
G36*
X152165D02*
X151082Y221641D01*
X150073Y221223D01*
X149206Y220558D01*
X148541Y219691D01*
X148123Y218682D01*
X147980Y217598D01*
X148123Y216515D01*
X148541Y215506D01*
X149206Y214639D01*
X150073Y213974D01*
X151082Y213556D01*
X152165Y213413D01*
X153249Y213556D01*
X154258Y213974D01*
X155125Y214639D01*
X155790Y215506D01*
X156208Y216515D01*
X156351Y217598D01*
X156208Y218682D01*
X155790Y219691D01*
X155125Y220558D01*
X154258Y221223D01*
X153249Y221641D01*
X152165Y221784D01*
D02*
G37*
G36*
X142165D02*
X141082Y221641D01*
X140073Y221223D01*
X139206Y220558D01*
X138541Y219691D01*
X138123Y218682D01*
X137980Y217598D01*
X138123Y216515D01*
X138541Y215506D01*
X139206Y214639D01*
X140073Y213974D01*
X141082Y213556D01*
X142165Y213413D01*
X143249Y213556D01*
X144258Y213974D01*
X145125Y214639D01*
X145790Y215506D01*
X146208Y216515D01*
X146351Y217598D01*
X146208Y218682D01*
X145790Y219691D01*
X145125Y220558D01*
X144258Y221223D01*
X143249Y221641D01*
X142165Y221784D01*
D02*
G37*
G36*
X132165D02*
X131082Y221641D01*
X130073Y221223D01*
X129206Y220558D01*
X128541Y219691D01*
X128123Y218682D01*
X127980Y217598D01*
X128123Y216515D01*
X128541Y215506D01*
X129206Y214639D01*
X130073Y213974D01*
X131082Y213556D01*
X132165Y213413D01*
X133249Y213556D01*
X134258Y213974D01*
X135125Y214639D01*
X135790Y215506D01*
X136208Y216515D01*
X136351Y217598D01*
X136208Y218682D01*
X135790Y219691D01*
X135125Y220558D01*
X134258Y221223D01*
X133249Y221641D01*
X132165Y221784D01*
D02*
G37*
G36*
X80500Y215726D02*
Y213000D01*
X83226D01*
X83180Y213352D01*
X82851Y214146D01*
X82328Y214828D01*
X81646Y215351D01*
X80852Y215680D01*
X80500Y215726D01*
D02*
G37*
G36*
X79500D02*
X79148Y215680D01*
X78354Y215351D01*
X77672Y214828D01*
X77149Y214146D01*
X76820Y213352D01*
X76774Y213000D01*
X79500D01*
Y215726D01*
D02*
G37*
G36*
X83226Y212000D02*
X80500D01*
Y209274D01*
X80852Y209320D01*
X81646Y209649D01*
X82328Y210172D01*
X82851Y210854D01*
X83180Y211648D01*
X83226Y212000D01*
D02*
G37*
G36*
X79500D02*
X76774D01*
X76820Y211648D01*
X77149Y210854D01*
X77672Y210172D01*
X78354Y209649D01*
X79148Y209320D01*
X79500Y209274D01*
Y212000D01*
D02*
G37*
G36*
X152665Y211718D02*
Y208099D01*
X156285D01*
X156208Y208682D01*
X155790Y209691D01*
X155125Y210558D01*
X154258Y211223D01*
X153249Y211641D01*
X152665Y211718D01*
D02*
G37*
G36*
X151665D02*
X151082Y211641D01*
X150073Y211223D01*
X149206Y210558D01*
X148541Y209691D01*
X148123Y208682D01*
X148046Y208099D01*
X151665D01*
Y211718D01*
D02*
G37*
G36*
X156285Y207099D02*
X152665D01*
Y203479D01*
X153249Y203556D01*
X154258Y203974D01*
X155125Y204639D01*
X155790Y205506D01*
X156208Y206515D01*
X156285Y207099D01*
D02*
G37*
G36*
X151665D02*
X148046D01*
X148123Y206515D01*
X148541Y205506D01*
X149206Y204639D01*
X150073Y203974D01*
X151082Y203556D01*
X151665Y203479D01*
Y207099D01*
D02*
G37*
G36*
X162165Y211784D02*
X161082Y211641D01*
X160073Y211223D01*
X159206Y210558D01*
X158541Y209691D01*
X158123Y208682D01*
X157980Y207598D01*
X158123Y206515D01*
X158541Y205506D01*
X159206Y204639D01*
X160073Y203974D01*
X161082Y203556D01*
X162165Y203413D01*
X163249Y203556D01*
X164258Y203974D01*
X165125Y204639D01*
X165790Y205506D01*
X166208Y206515D01*
X166351Y207598D01*
X166208Y208682D01*
X165790Y209691D01*
X165125Y210558D01*
X164258Y211223D01*
X163249Y211641D01*
X162165Y211784D01*
D02*
G37*
G36*
X315736Y205929D02*
X314185D01*
X314069Y205906D01*
X313950D01*
X312429Y205603D01*
X312319Y205557D01*
X312203Y205534D01*
X310770Y204941D01*
X310671Y204875D01*
X310562Y204830D01*
X309272Y203968D01*
X309188Y203884D01*
X309090Y203818D01*
X307993Y202721D01*
X307927Y202623D01*
X307843Y202539D01*
X306981Y201249D01*
X306936Y201140D01*
X306870Y201041D01*
X306277Y199608D01*
X306254Y199492D01*
X306208Y199382D01*
X305906Y197861D01*
Y197742D01*
X305882Y197626D01*
Y196075D01*
X305906Y195958D01*
Y195840D01*
X306208Y194319D01*
X306254Y194209D01*
X306277Y194093D01*
X306870Y192660D01*
X306936Y192561D01*
X306981Y192452D01*
X307843Y191162D01*
X307927Y191078D01*
X307993Y190980D01*
X309090Y189883D01*
X309188Y189817D01*
X309272Y189733D01*
X310562Y188871D01*
X310671Y188826D01*
X310770Y188760D01*
X312203Y188166D01*
X312319Y188143D01*
X312429Y188098D01*
X313950Y187795D01*
X314069D01*
X314185Y187772D01*
X315736D01*
X315852Y187795D01*
X315971D01*
X317492Y188098D01*
X317602Y188143D01*
X317718Y188166D01*
X319151Y188760D01*
X319250Y188826D01*
X319359Y188871D01*
X320649Y189733D01*
X320733Y189817D01*
X320832Y189883D01*
X321928Y190980D01*
X321994Y191078D01*
X322078Y191162D01*
X322940Y192452D01*
X322985Y192561D01*
X323051Y192660D01*
X323645Y194093D01*
X323668Y194209D01*
X323713Y194319D01*
X324016Y195840D01*
Y195958D01*
X324039Y196075D01*
Y197626D01*
X324016Y197742D01*
Y197861D01*
X323713Y199382D01*
X323668Y199492D01*
X323645Y199608D01*
X323051Y201041D01*
X322985Y201140D01*
X322940Y201249D01*
X322078Y202539D01*
X321994Y202623D01*
X321928Y202721D01*
X320832Y203818D01*
X320733Y203884D01*
X320649Y203968D01*
X319359Y204830D01*
X319250Y204875D01*
X319151Y204941D01*
X317718Y205534D01*
X317602Y205557D01*
X317492Y205603D01*
X315971Y205906D01*
X315852D01*
X315736Y205929D01*
D02*
G37*
G36*
X40146D02*
X38594D01*
X38478Y205906D01*
X38360D01*
X36838Y205603D01*
X36729Y205557D01*
X36612Y205534D01*
X35179Y204941D01*
X35081Y204875D01*
X34971Y204830D01*
X33682Y203968D01*
X33598Y203884D01*
X33499Y203818D01*
X32402Y202721D01*
X32337Y202623D01*
X32253Y202539D01*
X31391Y201249D01*
X31345Y201140D01*
X31280Y201041D01*
X30686Y199608D01*
X30663Y199492D01*
X30617Y199382D01*
X30315Y197861D01*
Y197742D01*
X30292Y197626D01*
Y196075D01*
X30315Y195958D01*
Y195840D01*
X30617Y194319D01*
X30663Y194209D01*
X30686Y194093D01*
X31280Y192660D01*
X31345Y192561D01*
X31391Y192452D01*
X32253Y191162D01*
X32337Y191078D01*
X32402Y190980D01*
X33499Y189883D01*
X33598Y189817D01*
X33682Y189733D01*
X34971Y188871D01*
X35081Y188826D01*
X35179Y188760D01*
X36612Y188166D01*
X36729Y188143D01*
X36838Y188098D01*
X38360Y187795D01*
X38478D01*
X38594Y187772D01*
X40146D01*
X40262Y187795D01*
X40380D01*
X41902Y188098D01*
X42011Y188143D01*
X42128Y188166D01*
X43561Y188760D01*
X43659Y188826D01*
X43769Y188871D01*
X45059Y189733D01*
X45142Y189817D01*
X45241Y189883D01*
X46338Y190980D01*
X46404Y191078D01*
X46488Y191162D01*
X47349Y192452D01*
X47395Y192561D01*
X47460Y192660D01*
X48054Y194093D01*
X48077Y194209D01*
X48123Y194319D01*
X48425Y195840D01*
Y195958D01*
X48448Y196075D01*
Y197626D01*
X48425Y197742D01*
Y197861D01*
X48123Y199382D01*
X48077Y199492D01*
X48054Y199608D01*
X47460Y201041D01*
X47395Y201140D01*
X47349Y201249D01*
X46488Y202539D01*
X46404Y202623D01*
X46338Y202721D01*
X45241Y203818D01*
X45142Y203884D01*
X45059Y203968D01*
X43769Y204830D01*
X43659Y204875D01*
X43561Y204941D01*
X42128Y205534D01*
X42011Y205557D01*
X41902Y205603D01*
X40380Y205906D01*
X40262D01*
X40146Y205929D01*
D02*
G37*
G36*
X146283Y184825D02*
Y181602D01*
X149506D01*
X149443Y182083D01*
X149064Y182996D01*
X148462Y183781D01*
X147678Y184383D01*
X146764Y184762D01*
X146283Y184825D01*
D02*
G37*
G36*
X145283D02*
X144803Y184762D01*
X143889Y184383D01*
X143105Y183781D01*
X142503Y182996D01*
X142124Y182083D01*
X142061Y181602D01*
X145283D01*
Y184825D01*
D02*
G37*
G36*
X149506Y180602D02*
X146283D01*
Y177380D01*
X146764Y177443D01*
X147678Y177822D01*
X148462Y178424D01*
X149064Y179208D01*
X149443Y180122D01*
X149506Y180602D01*
D02*
G37*
G36*
X145283D02*
X142061D01*
X142124Y180122D01*
X142503Y179208D01*
X143105Y178424D01*
X143889Y177822D01*
X144803Y177443D01*
X145283Y177380D01*
Y180602D01*
D02*
G37*
G36*
X142165Y211784D02*
X141082Y211641D01*
X140073Y211223D01*
X139206Y210558D01*
X138541Y209691D01*
X138123Y208682D01*
X137980Y207598D01*
X138123Y206515D01*
X138541Y205506D01*
X139206Y204639D01*
X140073Y203974D01*
X140726Y203703D01*
Y202028D01*
X124410Y185712D01*
X124134Y185299D01*
X124046Y184858D01*
X121555D01*
Y177347D01*
X129067D01*
Y184858D01*
X127814D01*
X127623Y185320D01*
X142901Y200599D01*
X143177Y201012D01*
X143274Y201500D01*
Y203566D01*
X144258Y203974D01*
X145125Y204639D01*
X145790Y205506D01*
X146208Y206515D01*
X146351Y207598D01*
X146208Y208682D01*
X145790Y209691D01*
X145125Y210558D01*
X144258Y211223D01*
X143249Y211641D01*
X142165Y211784D01*
D02*
G37*
G36*
X135547Y184891D02*
X134567Y184762D01*
X133653Y184383D01*
X132869Y183781D01*
X132266Y182996D01*
X131888Y182083D01*
X131759Y181102D01*
X131888Y180122D01*
X132266Y179208D01*
X132869Y178424D01*
X133653Y177822D01*
X134567Y177443D01*
X135547Y177314D01*
X136528Y177443D01*
X137441Y177822D01*
X138226Y178424D01*
X138828Y179208D01*
X139207Y180122D01*
X139336Y181102D01*
X139207Y182083D01*
X138828Y182996D01*
X138226Y183781D01*
X137441Y184383D01*
X136528Y184762D01*
X135547Y184891D01*
D02*
G37*
G36*
X25016Y168717D02*
X22154D01*
Y165854D01*
X25016D01*
Y168717D01*
D02*
G37*
G36*
X21154D02*
X18291D01*
Y165854D01*
X21154D01*
Y168717D01*
D02*
G37*
G36*
X25016Y164854D02*
X22154D01*
Y161992D01*
X25016D01*
Y164854D01*
D02*
G37*
G36*
X21154D02*
X18291D01*
Y161992D01*
X21154D01*
Y164854D01*
D02*
G37*
G36*
X115000Y156724D02*
X114149Y156554D01*
X113427Y156072D01*
X113228Y155774D01*
X93500D01*
X93012Y155677D01*
X92599Y155401D01*
X81776Y144578D01*
X81500Y144165D01*
X81403Y143677D01*
Y118452D01*
X80585Y118113D01*
X79718Y117448D01*
X79053Y116581D01*
X78634Y115571D01*
X78492Y114488D01*
X78634Y113405D01*
X79053Y112396D01*
X79718Y111529D01*
X80585Y110863D01*
X81594Y110445D01*
X82677Y110303D01*
X83760Y110445D01*
X84770Y110863D01*
X85637Y111529D01*
X86302Y112396D01*
X86720Y113405D01*
X86863Y114488D01*
X86720Y115571D01*
X86302Y116581D01*
X85637Y117448D01*
X84770Y118113D01*
X83952Y118452D01*
Y143149D01*
X94028Y153226D01*
X113228D01*
X113427Y152927D01*
X114149Y152445D01*
X115000Y152276D01*
X115851Y152445D01*
X116572Y152927D01*
X117054Y153649D01*
X117224Y154500D01*
X117054Y155351D01*
X116572Y156072D01*
X115851Y156554D01*
X115000Y156724D01*
D02*
G37*
G36*
X265500Y150921D02*
Y147500D01*
X268921D01*
X268851Y148032D01*
X268453Y148993D01*
X267819Y149819D01*
X266993Y150453D01*
X266032Y150851D01*
X265500Y150921D01*
D02*
G37*
G36*
X264500D02*
X263968Y150851D01*
X263007Y150453D01*
X262181Y149819D01*
X261547Y148993D01*
X261149Y148032D01*
X261079Y147500D01*
X264500D01*
Y150921D01*
D02*
G37*
G36*
X115000Y151724D02*
X114149Y151555D01*
X113427Y151073D01*
X113228Y150775D01*
X97500D01*
X97012Y150678D01*
X96599Y150401D01*
X90599Y144401D01*
X90323Y143988D01*
X90225Y143500D01*
Y110028D01*
X86780Y106582D01*
X86202Y106711D01*
X85637Y107448D01*
X84770Y108113D01*
X83760Y108531D01*
X82677Y108674D01*
X81594Y108531D01*
X80585Y108113D01*
X79718Y107448D01*
X79053Y106581D01*
X78634Y105571D01*
X78492Y104488D01*
X78634Y103405D01*
X79053Y102395D01*
X79718Y101529D01*
X80585Y100864D01*
X81594Y100445D01*
X82677Y100303D01*
X83760Y100445D01*
X84770Y100864D01*
X85637Y101529D01*
X86302Y102395D01*
X86686Y103324D01*
X87064Y103399D01*
X87478Y103676D01*
X92401Y108599D01*
X92677Y109012D01*
X92774Y109500D01*
Y142972D01*
X98028Y148225D01*
X113228D01*
X113427Y147927D01*
X114149Y147445D01*
X115000Y147276D01*
X115851Y147445D01*
X116572Y147927D01*
X117054Y148649D01*
X117224Y149500D01*
X117054Y150351D01*
X116572Y151073D01*
X115851Y151555D01*
X115000Y151724D01*
D02*
G37*
G36*
X254000Y171487D02*
X252968Y171351D01*
X252007Y170953D01*
X251181Y170319D01*
X250547Y169493D01*
X250149Y168532D01*
X250013Y167500D01*
X250149Y166468D01*
X250547Y165507D01*
X251181Y164681D01*
X252007Y164047D01*
X252522Y163834D01*
Y148060D01*
X252048Y147351D01*
X251878Y146500D01*
X252048Y145649D01*
X252530Y144928D01*
X253251Y144446D01*
X254102Y144276D01*
X254953Y144446D01*
X255675Y144928D01*
X256157Y145649D01*
X256326Y146500D01*
X256157Y147351D01*
X255675Y148073D01*
X255581Y148135D01*
Y163876D01*
X255993Y164047D01*
X256819Y164681D01*
X257453Y165507D01*
X257851Y166468D01*
X257987Y167500D01*
X257851Y168532D01*
X257453Y169493D01*
X256819Y170319D01*
X255993Y170953D01*
X255032Y171351D01*
X254000Y171487D01*
D02*
G37*
G36*
X268921Y146500D02*
X265500D01*
Y143079D01*
X266032Y143149D01*
X266993Y143547D01*
X267819Y144181D01*
X268453Y145007D01*
X268851Y145968D01*
X268921Y146500D01*
D02*
G37*
G36*
X264500D02*
X261079D01*
X261149Y145968D01*
X261547Y145007D01*
X262181Y144181D01*
X263007Y143547D01*
X263968Y143149D01*
X264500Y143079D01*
Y146500D01*
D02*
G37*
G36*
X235000Y150987D02*
X233968Y150851D01*
X233007Y150453D01*
X232181Y149819D01*
X231547Y148993D01*
X231149Y148032D01*
X231013Y147000D01*
X231149Y145968D01*
X231547Y145007D01*
X232181Y144181D01*
X233007Y143547D01*
X233968Y143149D01*
X235000Y143013D01*
X236032Y143149D01*
X236993Y143547D01*
X237819Y144181D01*
X238453Y145007D01*
X238851Y145968D01*
X238987Y147000D01*
X238851Y148032D01*
X238453Y148993D01*
X237819Y149819D01*
X236993Y150453D01*
X236032Y150851D01*
X235000Y150987D01*
D02*
G37*
G36*
X13780Y168746D02*
X12902Y168630D01*
X12084Y168291D01*
X11382Y167752D01*
X10843Y167050D01*
X10504Y166232D01*
X10388Y165354D01*
X10504Y164477D01*
X10843Y163659D01*
X11382Y162956D01*
X12084Y162417D01*
X12250Y162349D01*
Y136806D01*
X11762Y136604D01*
X10927Y135963D01*
X10285Y135127D01*
X9883Y134154D01*
X9745Y133110D01*
X9883Y132066D01*
X10285Y131093D01*
X10927Y130257D01*
X11762Y129616D01*
X12735Y129213D01*
X13780Y129076D01*
X14824Y129213D01*
X15797Y129616D01*
X16632Y130257D01*
X17274Y131093D01*
X17468Y131561D01*
X19738D01*
X19780Y131498D01*
X20502Y131016D01*
X21353Y130847D01*
X22204Y131016D01*
X22925Y131498D01*
X23407Y132220D01*
X23577Y133071D01*
X23407Y133922D01*
X22925Y134643D01*
X22204Y135125D01*
X21353Y135295D01*
X20502Y135125D01*
X19780Y134643D01*
X19765Y134620D01*
X17484D01*
X17274Y135127D01*
X16632Y135963D01*
X15797Y136604D01*
X15309Y136806D01*
Y162349D01*
X15475Y162417D01*
X16177Y162956D01*
X16716Y163659D01*
X17055Y164477D01*
X17171Y165354D01*
X17055Y166232D01*
X16716Y167050D01*
X16177Y167752D01*
X15475Y168291D01*
X14657Y168630D01*
X13780Y168746D01*
D02*
G37*
G36*
X318898Y137137D02*
X317856Y137000D01*
X316884Y136597D01*
X316050Y135957D01*
X315410Y135124D01*
X315008Y134152D01*
X314871Y133110D01*
X315008Y132068D01*
X315410Y131097D01*
X316050Y130263D01*
X316884Y129623D01*
X317856Y129221D01*
X318898Y129084D01*
X319940Y129221D01*
X320911Y129623D01*
X321745Y130263D01*
X322385Y131097D01*
X322787Y132068D01*
X322924Y133110D01*
X322787Y134152D01*
X322385Y135124D01*
X321745Y135957D01*
X320911Y136597D01*
X319940Y137000D01*
X318898Y137137D01*
D02*
G37*
G36*
X235000Y130987D02*
X233968Y130851D01*
X233007Y130453D01*
X232181Y129819D01*
X231547Y128993D01*
X231149Y128032D01*
X231013Y127000D01*
X231149Y125968D01*
X231547Y125007D01*
X232181Y124181D01*
X233007Y123547D01*
X233968Y123149D01*
X235000Y123013D01*
X236032Y123149D01*
X236993Y123547D01*
X237819Y124181D01*
X238453Y125007D01*
X238851Y125968D01*
X238987Y127000D01*
X238851Y128032D01*
X238453Y128993D01*
X237819Y129819D01*
X236993Y130453D01*
X236032Y130851D01*
X235000Y130987D01*
D02*
G37*
G36*
X318898Y127137D02*
X317856Y127000D01*
X316884Y126597D01*
X316050Y125957D01*
X315410Y125124D01*
X315008Y124152D01*
X314871Y123110D01*
X315008Y122068D01*
X315410Y121097D01*
X316050Y120263D01*
X316884Y119623D01*
X317856Y119221D01*
X318898Y119084D01*
X319940Y119221D01*
X320911Y119623D01*
X321745Y120263D01*
X322385Y121097D01*
X322787Y122068D01*
X322924Y123110D01*
X322787Y124152D01*
X322385Y125124D01*
X321745Y125957D01*
X320911Y126597D01*
X319940Y127000D01*
X318898Y127137D01*
D02*
G37*
G36*
X13780Y127027D02*
X12735Y126889D01*
X11762Y126486D01*
X10927Y125845D01*
X10285Y125009D01*
X9883Y124036D01*
X9745Y122992D01*
X9883Y121948D01*
X10285Y120975D01*
X10927Y120139D01*
X11762Y119498D01*
X12735Y119095D01*
X13780Y118958D01*
X14824Y119095D01*
X15797Y119498D01*
X16632Y120139D01*
X17274Y120975D01*
X17677Y121948D01*
X17814Y122992D01*
X17677Y124036D01*
X17274Y125009D01*
X16632Y125845D01*
X15797Y126486D01*
X14824Y126889D01*
X13780Y127027D01*
D02*
G37*
G36*
X319398Y117071D02*
Y113610D01*
X322858D01*
X322787Y114152D01*
X322385Y115123D01*
X321745Y115957D01*
X320911Y116597D01*
X319940Y117000D01*
X319398Y117071D01*
D02*
G37*
G36*
X318398D02*
X317856Y117000D01*
X316884Y116597D01*
X316050Y115957D01*
X315410Y115123D01*
X315008Y114152D01*
X314937Y113610D01*
X318398D01*
Y117071D01*
D02*
G37*
G36*
X265000Y140987D02*
X263968Y140851D01*
X263007Y140453D01*
X262181Y139819D01*
X261547Y138993D01*
X261149Y138032D01*
X261013Y137000D01*
X261149Y135968D01*
X261547Y135007D01*
X262181Y134181D01*
X263007Y133547D01*
X263121Y133500D01*
X263021Y133000D01*
X259000D01*
Y110500D01*
X284000D01*
Y133000D01*
X266979D01*
X266879Y133500D01*
X266993Y133547D01*
X267819Y134181D01*
X268453Y135007D01*
X268851Y135968D01*
X268987Y137000D01*
X268851Y138032D01*
X268453Y138993D01*
X267819Y139819D01*
X266993Y140453D01*
X266032Y140851D01*
X265000Y140987D01*
D02*
G37*
G36*
X13780Y117263D02*
X12735Y117125D01*
X11762Y116722D01*
X10927Y116081D01*
X10285Y115246D01*
X9883Y114273D01*
X9745Y113228D01*
X9883Y112184D01*
X10285Y111211D01*
X10927Y110375D01*
X11762Y109734D01*
X12735Y109331D01*
X13780Y109194D01*
X14824Y109331D01*
X15797Y109734D01*
X16632Y110375D01*
X17274Y111211D01*
X17677Y112184D01*
X17814Y113228D01*
X17677Y114273D01*
X17274Y115246D01*
X16632Y116081D01*
X15797Y116722D01*
X14824Y117125D01*
X13780Y117263D01*
D02*
G37*
G36*
X322858Y112610D02*
X319398D01*
Y109150D01*
X319940Y109221D01*
X320911Y109623D01*
X321745Y110263D01*
X322385Y111097D01*
X322787Y112068D01*
X322858Y112610D01*
D02*
G37*
G36*
X318398D02*
X314937D01*
X315008Y112068D01*
X315410Y111097D01*
X316050Y110263D01*
X316884Y109623D01*
X317856Y109221D01*
X318398Y109150D01*
Y112610D01*
D02*
G37*
G36*
X248201Y109264D02*
X245525D01*
Y105500D01*
X248201D01*
Y109264D01*
D02*
G37*
G36*
X244525D02*
X241849D01*
Y105500D01*
X244525D01*
Y109264D01*
D02*
G37*
G36*
X14279Y107079D02*
Y103610D01*
X17748D01*
X17677Y104154D01*
X17274Y105128D01*
X16632Y105963D01*
X15797Y106604D01*
X14824Y107007D01*
X14279Y107079D01*
D02*
G37*
G36*
X13280D02*
X12735Y107007D01*
X11762Y106604D01*
X10927Y105963D01*
X10285Y105128D01*
X9883Y104154D01*
X9811Y103610D01*
X13280D01*
Y107079D01*
D02*
G37*
G36*
X248201Y104500D02*
X245525D01*
Y100736D01*
X248201D01*
Y104500D01*
D02*
G37*
G36*
X244525D02*
X241849D01*
Y100736D01*
X244525D01*
Y104500D01*
D02*
G37*
G36*
X17748Y102610D02*
X14279D01*
Y99142D01*
X14824Y99213D01*
X15797Y99616D01*
X16632Y100257D01*
X17274Y101093D01*
X17677Y102066D01*
X17748Y102610D01*
D02*
G37*
G36*
X13280D02*
X9811D01*
X9883Y102066D01*
X10285Y101093D01*
X10927Y100257D01*
X11762Y99616D01*
X12735Y99213D01*
X13280Y99142D01*
Y102610D01*
D02*
G37*
G36*
X83177Y98608D02*
Y94988D01*
X86797D01*
X86720Y95572D01*
X86302Y96581D01*
X85637Y97448D01*
X84770Y98113D01*
X83760Y98531D01*
X83177Y98608D01*
D02*
G37*
G36*
X82177D02*
X81594Y98531D01*
X80585Y98113D01*
X79718Y97448D01*
X79053Y96581D01*
X78634Y95572D01*
X78558Y94988D01*
X82177D01*
Y98608D01*
D02*
G37*
G36*
X267500Y93988D02*
X264638D01*
Y91126D01*
X267500D01*
Y93988D01*
D02*
G37*
G36*
X86797Y93988D02*
X83177D01*
Y90369D01*
X83760Y90445D01*
X84770Y90864D01*
X85637Y91529D01*
X86302Y92396D01*
X86720Y93405D01*
X86797Y93988D01*
D02*
G37*
G36*
X82177D02*
X78558D01*
X78634Y93405D01*
X79053Y92396D01*
X79718Y91529D01*
X80585Y90864D01*
X81594Y90445D01*
X82177Y90369D01*
Y93988D01*
D02*
G37*
G36*
X332201Y93764D02*
X329525D01*
Y90000D01*
X332201D01*
Y93764D01*
D02*
G37*
G36*
X328525D02*
X325849D01*
Y90000D01*
X328525D01*
Y93764D01*
D02*
G37*
G36*
X267500Y90126D02*
X264638D01*
Y87264D01*
X267500D01*
Y90126D01*
D02*
G37*
G36*
X332201Y89000D02*
X329525D01*
Y85236D01*
X332201D01*
Y89000D01*
D02*
G37*
G36*
X328525D02*
X325849D01*
Y85236D01*
X328525D01*
Y89000D01*
D02*
G37*
G36*
X152157Y86825D02*
Y84000D01*
X154983D01*
X154933Y84378D01*
X154594Y85196D01*
X154055Y85898D01*
X153353Y86437D01*
X152535Y86776D01*
X152157Y86825D01*
D02*
G37*
G36*
X210842D02*
Y84000D01*
X213668D01*
X213618Y84378D01*
X213279Y85196D01*
X212740Y85898D01*
X212038Y86437D01*
X211220Y86776D01*
X210842Y86825D01*
D02*
G37*
G36*
X209842D02*
X209465Y86776D01*
X208647Y86437D01*
X207945Y85898D01*
X207406Y85196D01*
X207067Y84378D01*
X207017Y84000D01*
X209842D01*
Y86825D01*
D02*
G37*
G36*
X151157D02*
X150780Y86776D01*
X149962Y86437D01*
X149259Y85898D01*
X148721Y85196D01*
X148382Y84378D01*
X148332Y84000D01*
X151157D01*
Y86825D01*
D02*
G37*
G36*
X301862Y84925D02*
X299000D01*
Y82063D01*
X301862D01*
Y84925D01*
D02*
G37*
G36*
X298000D02*
X295138D01*
Y82063D01*
X298000D01*
Y84925D01*
D02*
G37*
G36*
X82677Y88674D02*
X81594Y88531D01*
X80585Y88113D01*
X79718Y87448D01*
X79053Y86581D01*
X78634Y85571D01*
X78492Y84488D01*
X78634Y83405D01*
X79053Y82395D01*
X79718Y81529D01*
X80585Y80863D01*
X81594Y80445D01*
X82677Y80303D01*
X83760Y80445D01*
X84770Y80863D01*
X85637Y81529D01*
X86302Y82395D01*
X86720Y83405D01*
X86863Y84488D01*
X86720Y85571D01*
X86302Y86581D01*
X85637Y87448D01*
X84770Y88113D01*
X83760Y88531D01*
X82677Y88674D01*
D02*
G37*
G36*
X154983Y83000D02*
X152157D01*
Y80175D01*
X152535Y80224D01*
X153353Y80563D01*
X154055Y81102D01*
X154594Y81804D01*
X154933Y82622D01*
X154983Y83000D01*
D02*
G37*
G36*
X213668D02*
X210842D01*
Y80175D01*
X211220Y80224D01*
X212038Y80563D01*
X212740Y81102D01*
X213279Y81804D01*
X213618Y82622D01*
X213668Y83000D01*
D02*
G37*
G36*
X209842D02*
X207017D01*
X207067Y82622D01*
X207406Y81804D01*
X207945Y81102D01*
X208647Y80563D01*
X209465Y80224D01*
X209842Y80175D01*
Y83000D01*
D02*
G37*
G36*
X151157D02*
X148332D01*
X148382Y82622D01*
X148721Y81804D01*
X149259Y81102D01*
X149962Y80563D01*
X150780Y80224D01*
X151157Y80175D01*
Y83000D01*
D02*
G37*
G36*
X301862Y81063D02*
X299000D01*
Y78201D01*
X301862D01*
Y81063D01*
D02*
G37*
G36*
X298000D02*
X295138D01*
Y78201D01*
X298000D01*
Y81063D01*
D02*
G37*
G36*
X271862Y68362D02*
X269000D01*
Y65500D01*
X271862D01*
Y68362D01*
D02*
G37*
G36*
Y64500D02*
X269000D01*
Y61638D01*
X271862D01*
Y64500D01*
D02*
G37*
G36*
X268000D02*
X265138D01*
Y61638D01*
X268000D01*
Y64500D01*
D02*
G37*
G36*
X127378Y54937D02*
X124122D01*
Y51681D01*
X127378D01*
Y54937D01*
D02*
G37*
G36*
X123122D02*
X119866D01*
Y51681D01*
X123122D01*
Y54937D01*
D02*
G37*
G36*
X181587Y53988D02*
X178324D01*
X178389Y53497D01*
X178771Y52574D01*
X179380Y51781D01*
X180173Y51173D01*
X181096Y50791D01*
X181587Y50726D01*
Y53988D01*
D02*
G37*
G36*
X185849D02*
X182587D01*
Y50726D01*
X183077Y50791D01*
X184001Y51173D01*
X184793Y51781D01*
X185402Y52574D01*
X185784Y53497D01*
X185849Y53988D01*
D02*
G37*
G36*
X127378Y50681D02*
X124122D01*
Y47425D01*
X127378D01*
Y50681D01*
D02*
G37*
G36*
X123122D02*
X119866D01*
Y47425D01*
X123122D01*
Y50681D01*
D02*
G37*
G36*
X201366Y51698D02*
Y44319D01*
X208745D01*
X208642Y45366D01*
X208191Y46853D01*
X207458Y48223D01*
X206472Y49425D01*
X205271Y50411D01*
X203900Y51143D01*
X202413Y51595D01*
X201366Y51698D01*
D02*
G37*
G36*
X200366D02*
X199320Y51595D01*
X197832Y51143D01*
X196462Y50411D01*
X195260Y49425D01*
X194274Y48223D01*
X193542Y46853D01*
X193090Y45366D01*
X192987Y44319D01*
X200366D01*
Y51698D01*
D02*
G37*
G36*
X152965D02*
X151918Y51595D01*
X150431Y51143D01*
X149060Y50411D01*
X147859Y49425D01*
X146873Y48223D01*
X146140Y46853D01*
X145689Y45366D01*
X145586Y44319D01*
X152965D01*
Y51698D01*
D02*
G37*
G36*
X208745Y43319D02*
X201366D01*
Y35940D01*
X202413Y36043D01*
X203900Y36494D01*
X205271Y37227D01*
X206472Y38213D01*
X207458Y39414D01*
X208191Y40785D01*
X208642Y42272D01*
X208745Y43319D01*
D02*
G37*
G36*
X200366D02*
X192987D01*
X193090Y42272D01*
X193542Y40785D01*
X194274Y39414D01*
X195260Y38213D01*
X196462Y37227D01*
X197832Y36494D01*
X199320Y36043D01*
X200366Y35940D01*
Y43319D01*
D02*
G37*
G36*
X152965D02*
X145586D01*
X145689Y42272D01*
X146140Y40785D01*
X146873Y39414D01*
X147859Y38213D01*
X149060Y37227D01*
X150431Y36494D01*
X151918Y36043D01*
X152965Y35940D01*
Y43319D01*
D02*
G37*
G36*
X40146Y48448D02*
X38594D01*
X38478Y48425D01*
X38360D01*
X36838Y48123D01*
X36729Y48077D01*
X36612Y48054D01*
X35179Y47460D01*
X35081Y47395D01*
X34971Y47349D01*
X33682Y46488D01*
X33598Y46404D01*
X33499Y46338D01*
X32402Y45241D01*
X32337Y45142D01*
X32253Y45059D01*
X31391Y43769D01*
X31345Y43659D01*
X31280Y43561D01*
X30686Y42128D01*
X30663Y42011D01*
X30617Y41902D01*
X30315Y40380D01*
Y40262D01*
X30292Y40146D01*
Y38594D01*
X30315Y38478D01*
Y38360D01*
X30617Y36838D01*
X30663Y36729D01*
X30686Y36612D01*
X31280Y35179D01*
X31345Y35081D01*
X31391Y34971D01*
X32253Y33682D01*
X32337Y33598D01*
X32402Y33499D01*
X33499Y32402D01*
X33598Y32337D01*
X33682Y32253D01*
X34971Y31391D01*
X35081Y31345D01*
X35179Y31280D01*
X36612Y30686D01*
X36729Y30663D01*
X36838Y30617D01*
X38360Y30315D01*
X38478D01*
X38594Y30292D01*
X40146D01*
X40262Y30315D01*
X40380D01*
X41902Y30617D01*
X42011Y30663D01*
X42128Y30686D01*
X43561Y31280D01*
X43659Y31345D01*
X43769Y31391D01*
X45059Y32253D01*
X45142Y32337D01*
X45241Y32402D01*
X46338Y33499D01*
X46404Y33598D01*
X46488Y33682D01*
X47349Y34971D01*
X47395Y35081D01*
X47460Y35179D01*
X48054Y36612D01*
X48077Y36729D01*
X48123Y36838D01*
X48425Y38360D01*
Y38478D01*
X48448Y38594D01*
Y40146D01*
X48425Y40262D01*
Y40380D01*
X48123Y41902D01*
X48077Y42011D01*
X48054Y42128D01*
X47460Y43561D01*
X47395Y43659D01*
X47349Y43769D01*
X46488Y45059D01*
X46404Y45142D01*
X46338Y45241D01*
X45241Y46338D01*
X45142Y46404D01*
X45059Y46488D01*
X43769Y47349D01*
X43659Y47395D01*
X43561Y47460D01*
X42128Y48054D01*
X42011Y48077D01*
X41902Y48123D01*
X40380Y48425D01*
X40262D01*
X40146Y48448D01*
D02*
G37*
G36*
X315901Y50127D02*
X314020D01*
X313903Y50104D01*
X313785D01*
X311939Y49737D01*
X311830Y49691D01*
X311713Y49668D01*
X309975Y48948D01*
X309876Y48882D01*
X309767Y48837D01*
X308202Y47791D01*
X308118Y47707D01*
X308020Y47642D01*
X306689Y46311D01*
X306623Y46212D01*
X306539Y46128D01*
X305494Y44564D01*
X305449Y44454D01*
X305383Y44356D01*
X304663Y42617D01*
X304640Y42501D01*
X304594Y42391D01*
X304227Y40546D01*
Y40427D01*
X304204Y40311D01*
Y38429D01*
X304227Y38313D01*
Y38194D01*
X304594Y36349D01*
X304640Y36239D01*
X304663Y36123D01*
X305383Y34384D01*
X305449Y34286D01*
X305494Y34176D01*
X306539Y32612D01*
X306623Y32528D01*
X306689Y32429D01*
X308020Y31099D01*
X308118Y31033D01*
X308202Y30949D01*
X309767Y29904D01*
X309876Y29858D01*
X309975Y29792D01*
X311713Y29072D01*
X311830Y29049D01*
X311939Y29004D01*
X313785Y28637D01*
X313903D01*
X314020Y28613D01*
X315901D01*
X316018Y28637D01*
X316136D01*
X317982Y29004D01*
X318092Y29049D01*
X318208Y29072D01*
X319946Y29792D01*
X320045Y29858D01*
X320155Y29904D01*
X321719Y30949D01*
X321803Y31033D01*
X321901Y31099D01*
X323232Y32429D01*
X323298Y32528D01*
X323382Y32612D01*
X324427Y34176D01*
X324473Y34286D01*
X324538Y34384D01*
X325259Y36123D01*
X325282Y36239D01*
X325327Y36349D01*
X325694Y38194D01*
Y38313D01*
X325717Y38429D01*
Y40311D01*
X325694Y40427D01*
Y40546D01*
X325327Y42391D01*
X325282Y42501D01*
X325259Y42617D01*
X324538Y44356D01*
X324473Y44454D01*
X324427Y44564D01*
X323382Y46128D01*
X323298Y46212D01*
X323232Y46311D01*
X321901Y47642D01*
X321803Y47707D01*
X321719Y47791D01*
X320155Y48837D01*
X320045Y48882D01*
X319946Y48948D01*
X318208Y49668D01*
X318092Y49691D01*
X317982Y49737D01*
X316136Y50104D01*
X316018D01*
X315901Y50127D01*
D02*
G37*
G36*
X137795Y35284D02*
X136815Y35155D01*
X135901Y34777D01*
X135117Y34175D01*
X134514Y33390D01*
X134136Y32476D01*
X134007Y31496D01*
X134136Y30516D01*
X134514Y29602D01*
X135117Y28817D01*
X135901Y28215D01*
X136815Y27837D01*
X137795Y27708D01*
X138776Y27837D01*
X139689Y28215D01*
X140474Y28817D01*
X141076Y29602D01*
X141455Y30516D01*
X141584Y31496D01*
X141455Y32476D01*
X141076Y33390D01*
X140474Y34175D01*
X139689Y34777D01*
X138776Y35155D01*
X137795Y35284D01*
D02*
G37*
%LPD*%
D14*
X184252Y165711D02*
X184931Y166390D01*
X184500Y171996D02*
X184931Y171565D01*
X184500Y171996D02*
Y172500D01*
X184252Y160236D02*
Y165711D01*
X184931Y166390D02*
Y171565D01*
X142000Y75071D02*
Y107000D01*
X137795Y70866D02*
X142000Y75071D01*
X138000Y123500D02*
X145996Y131496D01*
X158661D01*
X82677Y104488D02*
X82766Y104577D01*
X86577D01*
X91500Y109500D01*
Y143500D02*
X97500Y149500D01*
X91500Y109500D02*
Y143500D01*
X97500Y149500D02*
X115000D01*
X132000D02*
X143705Y137795D01*
X158661D01*
X82677Y143677D02*
X93500Y154500D01*
X82677Y114488D02*
Y143677D01*
X93500Y154500D02*
X115000D01*
X131500D02*
X145055Y140945D01*
X158661D01*
X115000Y162480D02*
X142835Y134646D01*
X115000Y162480D02*
Y190433D01*
X147000Y144000D02*
X147047Y144047D01*
X158614D02*
X158661Y144095D01*
X147047Y144047D02*
X158614D01*
X131000Y110000D02*
X141500D01*
X147000Y115500D01*
X82677Y74488D02*
X142835Y134646D01*
X161500Y118500D02*
X165500Y122500D01*
X131500Y118500D02*
X161500D01*
X177953Y115354D02*
Y118209D01*
X173661Y122500D02*
X177953Y118209D01*
X165500Y122500D02*
X173661D01*
X142000Y201500D02*
Y207433D01*
X142165Y207598D01*
X125311Y181102D02*
Y184811D01*
X142000Y201500D01*
X168654Y109500D02*
X171653Y112500D01*
Y115354D01*
X147000Y109500D02*
X168654D01*
X115000Y190433D02*
X132165Y207598D01*
X142835Y134646D02*
X158661D01*
X203665Y128224D02*
X214378D01*
X203543Y128347D02*
X203665Y128224D01*
X214378D02*
X214500Y128102D01*
X171343Y83500D02*
X171394Y83551D01*
Y99000D01*
X190606Y83551D02*
X190657Y83500D01*
X190606Y83551D02*
Y99000D01*
X187402Y102402D02*
Y115354D01*
X184000Y99000D02*
X187402Y102402D01*
X171394Y99000D02*
X184000D01*
X190579Y99028D02*
Y115327D01*
Y99028D02*
X190606Y99000D01*
X190551Y115354D02*
X190579Y115327D01*
X276063Y117000D02*
X276287Y116776D01*
X265000Y117000D02*
X276063D01*
X275905Y127000D02*
X276287Y126618D01*
X265000Y127000D02*
X275905D01*
X225500Y139102D02*
Y167500D01*
X235500Y177500D02*
X254000D01*
X225500Y167500D02*
X235500Y177500D01*
X229496Y131496D02*
X235000Y137000D01*
X203543Y131496D02*
X229496D01*
X203665Y147122D02*
X211378D01*
X203543Y147244D02*
X203665Y147122D01*
X211378D02*
X211500Y147000D01*
X203565Y153522D02*
X211478D01*
X211500Y153500D01*
X203543Y153543D02*
X203565Y153522D01*
X196850Y160236D02*
X197114Y160500D01*
X211500D01*
X171237Y175237D02*
X172500Y176500D01*
X171237Y168993D02*
X171653Y168576D01*
X173668Y169540D02*
X174803Y168404D01*
X171237Y168993D02*
Y175237D01*
X171653Y160236D02*
Y168576D01*
X173668Y169540D02*
Y170000D01*
X174803Y160236D02*
Y168404D01*
X169500Y180000D02*
X178562D01*
X181993Y183431D02*
X182427D01*
X178562Y180000D02*
X181993Y183431D01*
X181072Y178072D02*
Y179072D01*
X183496Y184500D02*
X184000D01*
X182427Y183431D02*
X183496Y184500D01*
X181072Y179072D02*
X183000Y181000D01*
X179500Y176500D02*
X181072Y178072D01*
X187451Y175451D02*
X187500Y175500D01*
X187451Y160285D02*
Y175451D01*
X187402Y160236D02*
X187451Y160285D01*
X190526Y160262D02*
X190551Y160236D01*
X190500Y178000D02*
X190526Y177974D01*
Y160262D02*
Y177974D01*
X172500Y176500D02*
X179500D01*
X160000Y170500D02*
X169500Y180000D01*
X160000Y167500D02*
X162000Y165500D01*
X160000Y167500D02*
Y170500D01*
X162000Y165500D02*
X166095D01*
X168504Y163091D01*
Y160236D02*
Y163091D01*
X175000Y181500D02*
X178500Y185000D01*
X179000D01*
X166500Y181500D02*
X175000D01*
X156500Y171500D02*
X166500Y181500D01*
X156500Y164000D02*
Y171500D01*
Y164000D02*
X160264Y160236D01*
X165354D01*
X165000Y184500D02*
X173500D01*
X152500Y172000D02*
X165000Y184500D01*
X173500D02*
X178500Y189500D01*
X152500Y150551D02*
Y172000D01*
X155807Y147244D02*
X158661D01*
X152500Y150551D02*
X155807Y147244D01*
X192774Y212911D02*
X197500Y208185D01*
X182165Y217598D02*
X186853Y212911D01*
X192774D01*
X197500Y203000D02*
Y208185D01*
X205000Y174390D02*
Y195500D01*
X197500Y203000D02*
X205000Y195500D01*
X193701Y163091D02*
X205000Y174390D01*
X193701Y160236D02*
Y163091D01*
X207978Y204522D02*
Y208022D01*
Y204522D02*
X214000Y198500D01*
Y145500D02*
Y198500D01*
X197264Y212500D02*
X203500D01*
X192165Y217598D02*
X197264Y212500D01*
X203500D02*
X207978Y208022D01*
X212595Y144095D02*
X214000Y145500D01*
X203543Y144095D02*
X212595D01*
X206853Y212911D02*
X212774D01*
X202165Y217598D02*
X206853Y212911D01*
X212774D02*
X217000Y208685D01*
Y143500D02*
Y208685D01*
X214445Y140945D02*
X217000Y143500D01*
X203543Y140945D02*
X214445D01*
X212165Y217335D02*
Y217598D01*
Y217335D02*
X217000Y212500D01*
X233500D01*
X222165Y217598D02*
X222264Y217500D01*
X237500D01*
X233500Y212500D02*
X235500Y210500D01*
Y195000D02*
Y210500D01*
X220000Y179500D02*
X235500Y195000D01*
X220000Y140500D02*
Y179500D01*
X203543Y137795D02*
X217295D01*
X220000Y140500D01*
X239000Y193000D02*
Y216000D01*
X237500Y217500D02*
X239000Y216000D01*
X223000Y177000D02*
X239000Y193000D01*
X223000Y138000D02*
Y177000D01*
X203543Y134646D02*
X219646D01*
X223000Y138000D01*
D15*
X181102Y115354D02*
Y125894D01*
Y137898D01*
X242000Y117000D02*
X246500Y121500D01*
X246551Y129051D02*
Y129449D01*
X246500Y121500D02*
Y129000D01*
X246551Y129051D01*
Y129449D02*
X254102Y137000D01*
X235000Y117000D02*
X242000D01*
X190819Y128181D02*
X214000Y105000D01*
X183389Y128181D02*
X190819D01*
X181102Y125894D02*
X183389Y128181D01*
X178025Y172088D02*
X186937Y181000D01*
X191525D01*
X172000Y200525D02*
X191525Y181000D01*
X200626D01*
X182087Y62362D02*
X205638D01*
X213000Y55000D01*
Y30000D02*
X221346Y21654D01*
X213000Y30000D02*
Y55000D01*
X221346Y21654D02*
X236221D01*
X50752Y94721D02*
X70500D01*
X21353Y124120D02*
X50752Y94721D01*
X63000Y20000D02*
Y87221D01*
X70500Y94721D01*
X63000Y20000D02*
X64500Y18500D01*
X76221D01*
X82500Y24779D01*
X82721Y25000D02*
X157500D01*
X82500Y24779D02*
X82721Y25000D01*
X161642Y29142D02*
Y59142D01*
X157500Y25000D02*
X161642Y29142D01*
Y59142D02*
X170146Y67646D01*
X227500D01*
X13799Y133091D02*
X21333D01*
X13780Y133110D02*
X13799Y133091D01*
X21333D02*
X21353Y133071D01*
X13780Y133110D02*
Y165354D01*
X214000Y105000D02*
X234975D01*
X172165Y207598D02*
X177000Y212433D01*
Y224500D01*
X172500Y229000D02*
X177000Y224500D01*
X108000Y229000D02*
X172500D01*
X100000Y212500D02*
Y221000D01*
X108000Y229000D01*
X177953Y141047D02*
Y160236D01*
Y141047D02*
X181102Y137898D01*
X172000Y200525D02*
X172083Y200608D01*
Y207516D02*
X172165Y207598D01*
X172083Y200608D02*
Y207516D01*
X200626Y181000D02*
X201126Y180500D01*
X178025Y171000D02*
Y172088D01*
X177953Y170928D02*
X178025Y171000D01*
X177953Y160236D02*
Y170928D01*
X254000Y167500D02*
X254051Y167449D01*
Y146551D02*
Y167449D01*
Y146551D02*
X254102Y146500D01*
X271650Y94850D02*
X277063Y89437D01*
X298500D01*
X318912D02*
X318975Y89500D01*
X298500Y89437D02*
X318912D01*
X318898Y103110D02*
X318975Y103033D01*
Y89500D02*
Y103033D01*
X235000Y105025D02*
Y117000D01*
X234975Y105000D02*
X235000Y105025D01*
X234975Y105000D02*
X236221Y103754D01*
Y80709D02*
Y103754D01*
X245500Y67547D02*
X263173D01*
X268500Y72874D01*
X271650Y76024D02*
Y94850D01*
X268000Y98500D02*
X271650Y94850D01*
X268500Y72874D02*
X271650Y76024D01*
X227500Y71988D02*
X236221Y80709D01*
X227500Y67646D02*
Y71988D01*
X245500Y67547D02*
Y71429D01*
X236221Y80709D02*
X245500Y71429D01*
D20*
X167975Y171000D02*
D03*
X178025D02*
D03*
X318975Y89500D02*
D03*
X329025D02*
D03*
X234975Y105000D02*
D03*
X245025D02*
D03*
D21*
X276287Y116776D02*
D03*
Y126618D02*
D03*
D26*
X268000Y90626D02*
D03*
X298500Y81563D02*
D03*
X268500Y65000D02*
D03*
D27*
X268000Y98500D02*
D03*
X171394Y99000D02*
D03*
X190606D02*
D03*
X13780Y165354D02*
D03*
X201126Y180500D02*
D03*
X298500Y89437D02*
D03*
X210343Y83500D02*
D03*
X151657D02*
D03*
X268500Y72874D02*
D03*
D30*
X318898Y103110D02*
D03*
D31*
Y113110D02*
D03*
Y123110D02*
D03*
Y133110D02*
D03*
D32*
X100000Y212500D02*
D03*
D33*
X90000Y222500D02*
D03*
X80000Y212500D02*
D03*
D38*
X182087Y62362D02*
D03*
D40*
Y54488D02*
D03*
X172244D02*
D03*
Y62362D02*
D03*
D41*
X200866Y43819D02*
D03*
X153465D02*
D03*
D42*
X21654Y165354D02*
D03*
X209000Y180500D02*
D03*
X190657Y83500D02*
D03*
X171343D02*
D03*
D44*
X125311Y181102D02*
D03*
X123622Y51181D02*
D03*
D45*
X135547Y181102D02*
D03*
X145783D02*
D03*
X137795Y70866D02*
D03*
Y31496D02*
D03*
D47*
X203543Y153543D02*
D03*
Y150394D02*
D03*
Y147244D02*
D03*
Y144095D02*
D03*
Y140945D02*
D03*
Y137795D02*
D03*
Y134646D02*
D03*
Y131496D02*
D03*
Y128347D02*
D03*
Y125197D02*
D03*
Y122047D02*
D03*
X158661D02*
D03*
Y125197D02*
D03*
Y128347D02*
D03*
Y131496D02*
D03*
Y134646D02*
D03*
Y137795D02*
D03*
Y140945D02*
D03*
Y144095D02*
D03*
Y147244D02*
D03*
Y150394D02*
D03*
Y153543D02*
D03*
D48*
X196850Y115354D02*
D03*
X193701D02*
D03*
X190551D02*
D03*
X187402D02*
D03*
X184252D02*
D03*
X181102D02*
D03*
X177953D02*
D03*
X174803D02*
D03*
X171653D02*
D03*
X168504D02*
D03*
X165354D02*
D03*
Y160236D02*
D03*
X168504D02*
D03*
X171653D02*
D03*
X174803D02*
D03*
X177953D02*
D03*
X181102D02*
D03*
X184252D02*
D03*
X187402D02*
D03*
X190551D02*
D03*
X193701D02*
D03*
X196850D02*
D03*
D49*
X181051Y160185D02*
X181102Y160236D01*
X184252Y115354D02*
X184376Y115478D01*
X181102Y165666D02*
X182500Y167064D01*
X181102Y160236D02*
Y165666D01*
X182500Y167064D02*
Y167500D01*
X166174Y168500D02*
X167975Y170301D01*
X163000Y168500D02*
X166174D01*
X167975Y170301D02*
Y171000D01*
D50*
X265000Y117000D02*
D03*
D51*
Y127000D02*
D03*
Y137000D02*
D03*
Y147000D02*
D03*
X235000Y117000D02*
D03*
Y127000D02*
D03*
Y137000D02*
D03*
Y147000D02*
D03*
X254000Y167500D02*
D03*
Y177500D02*
D03*
D52*
X82677Y94488D02*
D03*
Y84488D02*
D03*
Y104488D02*
D03*
Y114488D02*
D03*
X162165Y207598D02*
D03*
Y217598D02*
D03*
X172165Y207598D02*
D03*
X182165D02*
D03*
X172165Y217598D02*
D03*
X182165D02*
D03*
X192165Y207598D02*
D03*
Y217598D02*
D03*
X202165Y207598D02*
D03*
Y217598D02*
D03*
X212165Y207598D02*
D03*
Y217598D02*
D03*
X222165Y207598D02*
D03*
X152165Y217598D02*
D03*
X142165D02*
D03*
X132165D02*
D03*
X152165Y207598D02*
D03*
X142165D02*
D03*
X132165D02*
D03*
D53*
X82677Y74488D02*
D03*
D54*
X222165Y217598D02*
D03*
D55*
X236221Y80709D02*
D03*
Y21654D02*
D03*
D56*
X13780Y103110D02*
D03*
Y113228D02*
D03*
Y122992D02*
D03*
Y133110D02*
D03*
D57*
X182500Y167500D02*
D03*
X184500Y172500D02*
D03*
X163000Y168500D02*
D03*
X142000Y107000D02*
D03*
X138000Y123500D02*
D03*
X115000Y149500D02*
D03*
X132000D02*
D03*
X115000Y154500D02*
D03*
X131500D02*
D03*
X147000Y144000D02*
D03*
Y115500D02*
D03*
X131000Y110000D02*
D03*
X131500Y118500D02*
D03*
X147000Y109500D02*
D03*
X214500Y128102D02*
D03*
X225500Y139102D02*
D03*
X211500Y147000D02*
D03*
Y153500D02*
D03*
Y160500D02*
D03*
X173668Y170000D02*
D03*
X183000Y181000D02*
D03*
X184000Y184500D02*
D03*
X187500Y175500D02*
D03*
X190500Y178000D02*
D03*
X179000Y185000D02*
D03*
X178500Y189500D02*
D03*
X21353Y124120D02*
D03*
X70500Y94721D02*
D03*
X82500Y24779D02*
D03*
X21353Y133071D02*
D03*
X172000Y200525D02*
D03*
X254102Y146500D02*
D03*
Y137000D02*
D03*
X227500Y67646D02*
D03*
X245500Y67547D02*
D03*
M02*
