G04*
G04 #@! TF.GenerationSoftware,Altium Limited,Altium Designer,21.3.2 (30)*
G04*
G04 Layer_Color=32896*
%FSLAX25Y25*%
%MOIN*%
G70*
G04*
G04 #@! TF.SameCoordinates,90E1903C-9E0C-4C1D-B8CF-915D6ECFEAAF*
G04*
G04*
G04 #@! TF.FilePolarity,Positive*
G04*
G01*
G75*
%ADD17C,0.00394*%
D17*
X225500Y131032D02*
Y134968D01*
X223532Y133000D02*
X227468D01*
X214500Y120031D02*
Y123969D01*
X212531Y122000D02*
X216469D01*
X170031Y195500D02*
X173969D01*
X172000Y193532D02*
Y197468D01*
X248000Y135031D02*
Y138969D01*
X246031Y137000D02*
X249969D01*
X248000Y144532D02*
Y148468D01*
X246031Y146500D02*
X249969D01*
X131890Y59055D02*
Y62992D01*
X129921Y61024D02*
X133858D01*
X133071Y39370D02*
Y43307D01*
X131102Y41339D02*
X135039D01*
X71031Y30000D02*
X74968D01*
X73000Y28032D02*
Y31969D01*
X91031Y59000D02*
X94968D01*
X93000Y57032D02*
Y60969D01*
X68532Y89500D02*
X72469D01*
X70500Y87532D02*
Y91469D01*
X80532Y30000D02*
X84469D01*
X82500Y28032D02*
Y31969D01*
X80532Y57000D02*
X84469D01*
X82500Y55032D02*
Y58969D01*
X27559Y122047D02*
Y125984D01*
X25591Y124016D02*
X29528D01*
X26378Y131102D02*
Y135039D01*
X24409Y133071D02*
X28346D01*
X225532Y58000D02*
X229468D01*
X227500Y56032D02*
Y59969D01*
X243531Y60500D02*
X247468D01*
X245500Y58531D02*
Y62468D01*
M02*
