G04*
G04 #@! TF.GenerationSoftware,Altium Limited,Altium Designer,21.3.2 (30)*
G04*
G04 Layer_Color=16711935*
%FSLAX25Y25*%
%MOIN*%
G70*
G04*
G04 #@! TF.SameCoordinates,90E1903C-9E0C-4C1D-B8CF-915D6ECFEAAF*
G04*
G04*
G04 #@! TF.FilePolarity,Positive*
G04*
G01*
G75*
%ADD10C,0.00787*%
D10*
X221661Y123945D02*
Y142055D01*
Y123945D02*
X229339D01*
Y142055D01*
X221661D02*
X229339D01*
X210661Y112945D02*
Y131055D01*
Y112945D02*
X218339D01*
Y131055D01*
X210661D02*
X218339D01*
X168161Y203095D02*
X175839D01*
Y187905D02*
Y203095D01*
X168161Y187905D02*
X175839D01*
X168161D02*
Y203095D01*
X257055Y133161D02*
Y140839D01*
X238945Y133161D02*
X257055D01*
X238945D02*
Y140839D01*
X257055D01*
Y142661D02*
Y150339D01*
X238945Y142661D02*
X257055D01*
X238945D02*
Y150339D01*
X257055D01*
X140945Y57185D02*
Y64862D01*
X122835Y57185D02*
X140945D01*
X122835D02*
Y64862D01*
X140945D01*
X125476Y37500D02*
Y45177D01*
X140666D01*
Y37500D02*
Y45177D01*
X125476Y37500D02*
X140666D01*
X69161Y22405D02*
X76839D01*
X69161D02*
Y37595D01*
X76839D01*
Y22405D02*
Y37595D01*
X89161Y51405D02*
X96839D01*
X89161D02*
Y66595D01*
X96839D01*
Y51405D02*
Y66595D01*
X66661Y96996D02*
X74339D01*
Y82003D02*
Y96996D01*
X66661Y82003D02*
X74339D01*
X66661D02*
Y96996D01*
X78661Y22503D02*
X86339D01*
X78661D02*
Y37497D01*
X86339D01*
Y22503D02*
Y37497D01*
X78110Y67394D02*
X86890D01*
Y46606D02*
Y67394D01*
X78110Y46606D02*
X86890D01*
X78110D02*
Y67394D01*
X36614Y120177D02*
Y127854D01*
X18504Y120177D02*
X36614D01*
X18504D02*
Y127854D01*
X36614D01*
X33973Y129232D02*
Y136909D01*
X18783Y129232D02*
X33973D01*
X18783D02*
Y136909D01*
X33973D01*
X219350Y72291D02*
X235650D01*
Y43709D02*
Y72291D01*
X219350Y43709D02*
X235650D01*
X219350D02*
Y72291D01*
X239614Y71287D02*
X251386D01*
Y49713D02*
Y71287D01*
X239614Y49713D02*
X251386D01*
X239614D02*
Y71287D01*
M02*
