G04*
G04 #@! TF.GenerationSoftware,Altium Limited,Altium Designer,21.3.2 (30)*
G04*
G04 Layer_Color=32768*
%FSLAX25Y25*%
%MOIN*%
G70*
G04*
G04 #@! TF.SameCoordinates,90E1903C-9E0C-4C1D-B8CF-915D6ECFEAAF*
G04*
G04*
G04 #@! TF.FilePolarity,Positive*
G04*
G01*
G75*
%ADD17C,0.00394*%
%ADD76R,0.17717X0.02854*%
D17*
X249559Y178764D02*
X248769Y178135D01*
X248068Y177409D01*
X247467Y176598D01*
X246975Y175716D01*
X246603Y174777D01*
X246355Y173799D01*
X246235Y172796D01*
X246247Y171787D01*
X246390Y170787D01*
X246660Y169815D01*
X247055Y168885D01*
X247567Y168015D01*
X248187Y167218D01*
X248905Y166508D01*
X249709Y165898D01*
X250585Y165396D01*
X251519Y165013D01*
X252495Y164753D01*
X253496Y164623D01*
X254506Y164623D01*
X255507Y164754D01*
X256483Y165013D01*
X257417Y165397D01*
X258293Y165899D01*
X259097Y166510D01*
X259815Y167219D01*
X260435Y168017D01*
X260946Y168887D01*
X261340Y169817D01*
X261611Y170789D01*
X261753Y171789D01*
X261764Y172798D01*
X261645Y173801D01*
X261397Y174780D01*
X261024Y175718D01*
X260532Y176600D01*
X259931Y177411D01*
X259229Y178137D01*
X258439Y178766D01*
X77677Y69488D02*
Y119488D01*
X87677Y69488D02*
Y119488D01*
X77677Y69488D02*
X87677D01*
X77677Y119488D02*
X87677D01*
X112087Y195177D02*
X242244D01*
X112087D02*
Y230020D01*
X242244D01*
Y195177D02*
Y230020D01*
X217717Y99213D02*
X254724D01*
Y3150D02*
Y99213D01*
X217717Y3150D02*
X254724D01*
X217717D02*
Y99213D01*
X249559Y178764D02*
X258441D01*
D76*
X177165Y228592D02*
D03*
M02*
