G04*
G04 #@! TF.GenerationSoftware,Altium Limited,Altium Designer,21.3.2 (30)*
G04*
G04 Layer_Color=16711935*
%FSLAX25Y25*%
%MOIN*%
G70*
G04*
G04 #@! TF.SameCoordinates,90E1903C-9E0C-4C1D-B8CF-915D6ECFEAAF*
G04*
G04*
G04 #@! TF.FilePolarity,Positive*
G04*
G01*
G75*
%ADD15C,0.01000*%
%ADD74C,0.03937*%
D15*
X324513Y39370D02*
X324461Y40369D01*
X324304Y41356D01*
X324046Y42322D01*
X323687Y43255D01*
X323233Y44146D01*
X322689Y44985D01*
X322059Y45762D01*
X321353Y46469D01*
X320575Y47098D01*
X319737Y47643D01*
X318846Y48097D01*
X317913Y48455D01*
X316947Y48714D01*
X315959Y48870D01*
X314961Y48923D01*
X313962Y48870D01*
X312975Y48714D01*
X312009Y48455D01*
X311075Y48097D01*
X310184Y47643D01*
X309346Y47098D01*
X308569Y46469D01*
X307862Y45762D01*
X307232Y44985D01*
X306688Y44146D01*
X306234Y43255D01*
X305876Y42322D01*
X305617Y41356D01*
X305461Y40369D01*
X305408Y39370D01*
X305461Y38372D01*
X305617Y37384D01*
X305876Y36418D01*
X306234Y35485D01*
X306688Y34594D01*
X307232Y33755D01*
X307862Y32978D01*
X308569Y32271D01*
X309346Y31642D01*
X310184Y31097D01*
X311075Y30643D01*
X312009Y30285D01*
X312975Y30026D01*
X313962Y29870D01*
X314961Y29818D01*
X315959Y29870D01*
X316947Y30026D01*
X317913Y30285D01*
X318846Y30643D01*
X319737Y31097D01*
X320575Y31642D01*
X321353Y32271D01*
X322059Y32978D01*
X322689Y33755D01*
X323233Y34594D01*
X323687Y35485D01*
X324046Y36418D01*
X324304Y37384D01*
X324461Y38372D01*
X324513Y39370D01*
X322835Y196850D02*
X322770Y197857D01*
X322577Y198848D01*
X322259Y199805D01*
X321821Y200714D01*
X321271Y201560D01*
X320617Y202328D01*
X319870Y203007D01*
X319042Y203584D01*
X318148Y204050D01*
X317201Y204399D01*
X316217Y204624D01*
X315213Y204720D01*
X314205Y204688D01*
X313209Y204527D01*
X312241Y204240D01*
X311319Y203832D01*
X310456Y203308D01*
X309667Y202679D01*
X308965Y201955D01*
X308362Y201146D01*
X307866Y200267D01*
X307488Y199332D01*
X307232Y198356D01*
X307103Y197355D01*
Y196346D01*
X307232Y195345D01*
X307488Y194369D01*
X307866Y193434D01*
X308362Y192555D01*
X308965Y191746D01*
X309667Y191021D01*
X310456Y190392D01*
X311319Y189869D01*
X312241Y189461D01*
X313209Y189174D01*
X314205Y189013D01*
X315213Y188980D01*
X316217Y189077D01*
X317201Y189302D01*
X318148Y189650D01*
X319042Y190117D01*
X319870Y190694D01*
X320617Y191373D01*
X321271Y192141D01*
X321821Y192986D01*
X322259Y193895D01*
X322577Y194853D01*
X322770Y195844D01*
X322835Y196850D01*
X47244Y39370D02*
X47179Y40377D01*
X46987Y41367D01*
X46669Y42325D01*
X46231Y43234D01*
X45680Y44080D01*
X45026Y44848D01*
X44280Y45526D01*
X43452Y46104D01*
X42557Y46570D01*
X41611Y46919D01*
X40627Y47143D01*
X39623Y47240D01*
X38614Y47208D01*
X37618Y47047D01*
X36651Y46760D01*
X35728Y46351D01*
X34865Y45828D01*
X34076Y45199D01*
X33374Y44474D01*
X32771Y43666D01*
X32276Y42786D01*
X31897Y41851D01*
X31641Y40875D01*
X31512Y39875D01*
Y38866D01*
X31641Y37865D01*
X31897Y36889D01*
X32276Y35954D01*
X32771Y35074D01*
X33374Y34266D01*
X34076Y33541D01*
X34865Y32912D01*
X35728Y32389D01*
X36651Y31981D01*
X37618Y31694D01*
X38614Y31532D01*
X39622Y31500D01*
X40627Y31597D01*
X41610Y31822D01*
X42557Y32170D01*
X43452Y32637D01*
X44279Y33214D01*
X45026Y33892D01*
X45680Y34661D01*
X46231Y35506D01*
X46669Y36415D01*
X46987Y37373D01*
X47179Y38363D01*
X47244Y39370D01*
X46874Y197000D02*
X46809Y198007D01*
X46617Y198997D01*
X46299Y199955D01*
X45861Y200864D01*
X45310Y201710D01*
X44656Y202478D01*
X43909Y203156D01*
X43082Y203733D01*
X42187Y204200D01*
X41240Y204549D01*
X40257Y204773D01*
X39252Y204870D01*
X38244Y204838D01*
X37248Y204677D01*
X36281Y204390D01*
X35358Y203981D01*
X34495Y203458D01*
X33706Y202829D01*
X33004Y202104D01*
X32401Y201296D01*
X31906Y200416D01*
X31527Y199481D01*
X31271Y198505D01*
X31142Y197504D01*
Y196495D01*
X31271Y195495D01*
X31527Y194519D01*
X31906Y193584D01*
X32401Y192704D01*
X33004Y191896D01*
X33706Y191171D01*
X34495Y190542D01*
X35358Y190019D01*
X36281Y189611D01*
X37248Y189323D01*
X38244Y189162D01*
X39252Y189130D01*
X40257Y189227D01*
X41240Y189451D01*
X42187Y189800D01*
X43082Y190267D01*
X43909Y190844D01*
X44656Y191522D01*
X45310Y192290D01*
X45861Y193136D01*
X46299Y194045D01*
X46617Y195003D01*
X46809Y195993D01*
X46874Y197000D01*
D74*
X354336Y216541D02*
X354311Y217538D01*
X354235Y218532D01*
X354109Y219522D01*
X353933Y220503D01*
X353708Y221475D01*
X353433Y222434D01*
X353111Y223377D01*
X352741Y224304D01*
X352324Y225210D01*
X351863Y226094D01*
X351357Y226953D01*
X350808Y227786D01*
X350217Y228590D01*
X349587Y229363D01*
X348919Y230103D01*
X348213Y230808D01*
X347473Y231477D01*
X346700Y232107D01*
X345896Y232698D01*
X345064Y233246D01*
X344204Y233752D01*
X343320Y234214D01*
X342414Y234630D01*
X341488Y235000D01*
X340544Y235323D01*
X339585Y235597D01*
X338614Y235823D01*
X337632Y235999D01*
X336643Y236125D01*
X335648Y236200D01*
X334651Y236226D01*
Y0D02*
X335648Y25D01*
X336643Y101D01*
X337632Y227D01*
X338614Y403D01*
X339585Y628D01*
X340544Y903D01*
X341488Y1225D01*
X342414Y1595D01*
X343320Y2012D01*
X344204Y2473D01*
X345064Y2980D01*
X345896Y3528D01*
X346700Y4119D01*
X347473Y4749D01*
X348213Y5418D01*
X348919Y6123D01*
X349587Y6863D01*
X350217Y7636D01*
X350808Y8440D01*
X351357Y9272D01*
X351863Y10132D01*
X352324Y11016D01*
X352741Y11922D01*
X353111Y12848D01*
X353433Y13792D01*
X353708Y14751D01*
X353933Y15722D01*
X354109Y16704D01*
X354235Y17694D01*
X354311Y18688D01*
X354336Y19685D01*
X19685Y236226D02*
X18688Y236200D01*
X17694Y236125D01*
X16704Y235999D01*
X15722Y235823D01*
X14751Y235597D01*
X13792Y235323D01*
X12848Y235000D01*
X11922Y234630D01*
X11016Y234214D01*
X10132Y233752D01*
X9272Y233246D01*
X8440Y232697D01*
X7636Y232107D01*
X6863Y231477D01*
X6123Y230808D01*
X5418Y230103D01*
X4749Y229363D01*
X4119Y228590D01*
X3528Y227786D01*
X2979Y226953D01*
X2473Y226094D01*
X2012Y225210D01*
X1595Y224304D01*
X1225Y223377D01*
X903Y222434D01*
X628Y221475D01*
X403Y220503D01*
X227Y219521D01*
X101Y218532D01*
X25Y217538D01*
X0Y216541D01*
Y19685D02*
X25Y18688D01*
X101Y17694D01*
X227Y16704D01*
X403Y15722D01*
X628Y14751D01*
X903Y13792D01*
X1225Y12848D01*
X1595Y11922D01*
X2012Y11016D01*
X2473Y10132D01*
X2980Y9272D01*
X3528Y8440D01*
X4119Y7636D01*
X4749Y6863D01*
X5418Y6123D01*
X6123Y5418D01*
X6863Y4749D01*
X7636Y4119D01*
X8440Y3528D01*
X9272Y2979D01*
X10132Y2473D01*
X11016Y2012D01*
X11922Y1595D01*
X12848Y1225D01*
X13792Y903D01*
X14751Y628D01*
X15722Y403D01*
X16704Y227D01*
X17694Y101D01*
X18688Y25D01*
X19685Y0D01*
X334651D01*
X19685Y236226D02*
X334651D01*
X354336Y19685D02*
Y216541D01*
X0Y19685D02*
Y216541D01*
M02*
