G04*
G04 #@! TF.GenerationSoftware,Altium Limited,Altium Designer,21.3.2 (30)*
G04*
G04 Layer_Physical_Order=2*
G04 Layer_Color=16711680*
%FSLAX25Y25*%
%MOIN*%
G70*
G04*
G04 #@! TF.SameCoordinates,90E1903C-9E0C-4C1D-B8CF-915D6ECFEAAF*
G04*
G04*
G04 #@! TF.FilePolarity,Positive*
G04*
G01*
G75*
%ADD14C,0.00500*%
%ADD15C,0.01000*%
%ADD20R,0.04352X0.06528*%
%ADD26R,0.04724X0.04724*%
%ADD27C,0.04724*%
%ADD30R,0.05984X0.05984*%
%ADD31C,0.05984*%
%ADD32R,0.04528X0.04528*%
%ADD33C,0.04528*%
%ADD38R,0.05591X0.05591*%
%ADD40C,0.05591*%
%ADD41C,0.13780*%
%ADD42R,0.04724X0.04724*%
%ADD44R,0.05512X0.05512*%
%ADD45C,0.05512*%
%ADD50R,0.05906X0.05906*%
%ADD51C,0.05906*%
%ADD52C,0.06299*%
G04:AMPARAMS|DCode=53|XSize=62.99mil|YSize=62.99mil|CornerRadius=15.75mil|HoleSize=0mil|Usage=FLASHONLY|Rotation=90.000|XOffset=0mil|YOffset=0mil|HoleType=Round|Shape=RoundedRectangle|*
%AMROUNDEDRECTD53*
21,1,0.06299,0.03150,0,0,90.0*
21,1,0.03150,0.06299,0,0,90.0*
1,1,0.03150,0.01575,0.01575*
1,1,0.03150,0.01575,-0.01575*
1,1,0.03150,-0.01575,-0.01575*
1,1,0.03150,-0.01575,0.01575*
%
%ADD53ROUNDEDRECTD53*%
G04:AMPARAMS|DCode=54|XSize=62.99mil|YSize=62.99mil|CornerRadius=15.75mil|HoleSize=0mil|Usage=FLASHONLY|Rotation=180.000|XOffset=0mil|YOffset=0mil|HoleType=Round|Shape=RoundedRectangle|*
%AMROUNDEDRECTD54*
21,1,0.06299,0.03150,0,0,180.0*
21,1,0.03150,0.06299,0,0,180.0*
1,1,0.03150,-0.01575,0.01575*
1,1,0.03150,0.01575,0.01575*
1,1,0.03150,0.01575,-0.01575*
1,1,0.03150,-0.01575,-0.01575*
%
%ADD54ROUNDEDRECTD54*%
%ADD55C,0.08858*%
%ADD56C,0.06000*%
%ADD57C,0.02362*%
%ADD58R,0.05906X0.05118*%
%ADD59R,0.06528X0.04352*%
%ADD60R,0.05118X0.05906*%
%ADD61R,0.06528X0.03764*%
%ADD62R,0.07992X0.05512*%
%ADD63R,0.08898X0.08504*%
%ADD64R,0.06614X0.06693*%
G36*
X338259Y234700D02*
X340599Y234073D01*
X342837Y233146D01*
X344935Y231935D01*
X346857Y230460D01*
X348570Y228747D01*
X350045Y226825D01*
X351256Y224727D01*
X352183Y222489D01*
X352810Y220149D01*
X353127Y217747D01*
Y216535D01*
Y19685D01*
Y18474D01*
X352810Y16072D01*
X352183Y13732D01*
X351256Y11494D01*
X350045Y9396D01*
X348570Y7474D01*
X346857Y5761D01*
X344935Y4286D01*
X342837Y3074D01*
X340599Y2147D01*
X338259Y1520D01*
X335857Y1204D01*
X18474D01*
X16072Y1520D01*
X13732Y2147D01*
X11494Y3074D01*
X9396Y4286D01*
X7474Y5761D01*
X5761Y7474D01*
X4286Y9396D01*
X3074Y11494D01*
X2147Y13732D01*
X1520Y16072D01*
X1204Y18474D01*
Y19685D01*
Y216535D01*
Y217747D01*
X1520Y220149D01*
X2147Y222489D01*
X3074Y224727D01*
X4286Y226825D01*
X5761Y228747D01*
X7474Y230460D01*
X9396Y231935D01*
X11494Y233146D01*
X13732Y234073D01*
X16072Y234700D01*
X18474Y235016D01*
X335857D01*
X338259Y234700D01*
D02*
G37*
%LPC*%
G36*
X164000Y226775D02*
X93000D01*
X92512Y226677D01*
X92099Y226401D01*
X91224Y225526D01*
X90852Y225680D01*
X90000Y225792D01*
X89148Y225680D01*
X88354Y225351D01*
X87672Y224828D01*
X87149Y224146D01*
X86820Y223352D01*
X86708Y222500D01*
X86820Y221648D01*
X87149Y220854D01*
X87672Y220172D01*
X88354Y219649D01*
X89148Y219320D01*
X90000Y219208D01*
X90852Y219320D01*
X91646Y219649D01*
X92328Y220172D01*
X92851Y220854D01*
X93180Y221648D01*
X93292Y222500D01*
X93180Y223352D01*
X93026Y223724D01*
X93528Y224225D01*
X163472D01*
X165226Y222472D01*
Y221111D01*
X164725Y220864D01*
X164258Y221223D01*
X163249Y221641D01*
X162165Y221784D01*
X161082Y221641D01*
X160073Y221223D01*
X159206Y220558D01*
X158541Y219691D01*
X158123Y218682D01*
X157980Y217598D01*
X158123Y216515D01*
X158461Y215697D01*
X156599Y213834D01*
X156323Y213421D01*
X156226Y212933D01*
Y209909D01*
X156059Y209825D01*
X155726Y209775D01*
X155125Y210558D01*
X154258Y211223D01*
X153249Y211641D01*
X152665Y211718D01*
Y207598D01*
Y203479D01*
X153249Y203556D01*
X154258Y203974D01*
X155125Y204639D01*
X155726Y205422D01*
X156059Y205371D01*
X156226Y205288D01*
Y184000D01*
X156323Y183512D01*
X156599Y183099D01*
X165099Y174599D01*
X165512Y174322D01*
X165754Y174275D01*
X165705Y173775D01*
X164528D01*
X148275Y190028D01*
Y205031D01*
X148775Y205201D01*
X149206Y204639D01*
X150073Y203974D01*
X151082Y203556D01*
X151665Y203479D01*
Y207598D01*
Y211718D01*
X151082Y211641D01*
X150073Y211223D01*
X149206Y210558D01*
X148775Y209996D01*
X148275Y210166D01*
Y211905D01*
X150264Y213895D01*
X151082Y213556D01*
X152165Y213413D01*
X153249Y213556D01*
X154258Y213974D01*
X155125Y214639D01*
X155790Y215506D01*
X156208Y216515D01*
X156351Y217598D01*
X156208Y218682D01*
X155790Y219691D01*
X155125Y220558D01*
X154258Y221223D01*
X153249Y221641D01*
X152165Y221784D01*
X151082Y221641D01*
X150073Y221223D01*
X149206Y220558D01*
X148541Y219691D01*
X148123Y218682D01*
X147980Y217598D01*
X148123Y216515D01*
X148461Y215697D01*
X146099Y213334D01*
X145823Y212921D01*
X145726Y212433D01*
Y210553D01*
X145252Y210392D01*
X145125Y210558D01*
X144258Y211223D01*
X143249Y211641D01*
X142165Y211784D01*
X141082Y211641D01*
X140073Y211223D01*
X139206Y210558D01*
X138775Y209996D01*
X138275Y210166D01*
Y211905D01*
X140264Y213895D01*
X141082Y213556D01*
X142165Y213413D01*
X143249Y213556D01*
X144258Y213974D01*
X145125Y214639D01*
X145790Y215506D01*
X146208Y216515D01*
X146351Y217598D01*
X146208Y218682D01*
X145790Y219691D01*
X145125Y220558D01*
X144258Y221223D01*
X143249Y221641D01*
X142165Y221784D01*
X141082Y221641D01*
X140073Y221223D01*
X139206Y220558D01*
X138541Y219691D01*
X138123Y218682D01*
X137980Y217598D01*
X138123Y216515D01*
X138461Y215697D01*
X136099Y213334D01*
X135822Y212921D01*
X135725Y212433D01*
Y210553D01*
X135252Y210392D01*
X135125Y210558D01*
X134258Y211223D01*
X133249Y211641D01*
X132165Y211784D01*
X131082Y211641D01*
X130073Y211223D01*
X129206Y210558D01*
X128541Y209691D01*
X128123Y208682D01*
X127980Y207598D01*
X128123Y206515D01*
X128541Y205506D01*
X129206Y204639D01*
X130073Y203974D01*
X131082Y203556D01*
X132165Y203413D01*
X133249Y203556D01*
X134258Y203974D01*
X135125Y204639D01*
X135252Y204805D01*
X135725Y204644D01*
Y189500D01*
X135822Y189012D01*
X136099Y188599D01*
X139725Y184972D01*
Y181971D01*
X139225Y181938D01*
X139207Y182083D01*
X138828Y182996D01*
X138226Y183781D01*
X137441Y184383D01*
X136528Y184762D01*
X135547Y184891D01*
X134567Y184762D01*
X133653Y184383D01*
X132869Y183781D01*
X132266Y182996D01*
X131888Y182083D01*
X131759Y181102D01*
X131888Y180122D01*
X132266Y179208D01*
X132869Y178424D01*
X133653Y177822D01*
X133726Y177792D01*
Y155995D01*
X133226Y155843D01*
X133072Y156072D01*
X132351Y156554D01*
X131500Y156724D01*
X130649Y156554D01*
X129928Y156072D01*
X129728Y155774D01*
X116772D01*
X116572Y156072D01*
X115851Y156554D01*
X115000Y156724D01*
X114149Y156554D01*
X113427Y156072D01*
X112945Y155351D01*
X112776Y154500D01*
X112945Y153649D01*
X113427Y152927D01*
X114149Y152445D01*
X115000Y152276D01*
X115851Y152445D01*
X116572Y152927D01*
X116772Y153226D01*
X129728D01*
X129928Y152927D01*
X130649Y152445D01*
X131500Y152276D01*
X132351Y152445D01*
X133072Y152927D01*
X133226Y153156D01*
X133726Y153005D01*
Y151572D01*
X133226Y151304D01*
X132851Y151555D01*
X132000Y151724D01*
X131149Y151555D01*
X130428Y151073D01*
X130228Y150775D01*
X116772D01*
X116572Y151073D01*
X115851Y151555D01*
X115000Y151724D01*
X114149Y151555D01*
X113427Y151073D01*
X112945Y150351D01*
X112776Y149500D01*
X112945Y148649D01*
X113427Y147927D01*
X114149Y147445D01*
X115000Y147276D01*
X115851Y147445D01*
X116572Y147927D01*
X116772Y148225D01*
X130228D01*
X130428Y147927D01*
X131149Y147445D01*
X132000Y147276D01*
X132851Y147445D01*
X133226Y147696D01*
X133726Y147428D01*
Y119995D01*
X133226Y119843D01*
X133072Y120072D01*
X132351Y120554D01*
X131500Y120724D01*
X131149Y120654D01*
X110275Y141528D01*
Y204472D01*
X122126Y216324D01*
X128202D01*
X128541Y215506D01*
X129206Y214639D01*
X130073Y213974D01*
X131082Y213556D01*
X132165Y213413D01*
X133249Y213556D01*
X134258Y213974D01*
X135125Y214639D01*
X135790Y215506D01*
X136208Y216515D01*
X136351Y217598D01*
X136208Y218682D01*
X135790Y219691D01*
X135125Y220558D01*
X134258Y221223D01*
X133249Y221641D01*
X132165Y221784D01*
X131082Y221641D01*
X130073Y221223D01*
X129206Y220558D01*
X128541Y219691D01*
X128202Y218873D01*
X121598D01*
X121111Y218776D01*
X120697Y218500D01*
X108099Y205901D01*
X107823Y205488D01*
X107726Y205000D01*
Y141000D01*
X107823Y140512D01*
X108099Y140099D01*
X129346Y118851D01*
X129276Y118500D01*
X129446Y117649D01*
X129928Y116928D01*
X130649Y116446D01*
X131500Y116276D01*
X132351Y116446D01*
X133072Y116928D01*
X133226Y117157D01*
X133726Y117005D01*
Y108000D01*
X133823Y107512D01*
X134099Y107099D01*
X150099Y91099D01*
X150512Y90822D01*
X151000Y90725D01*
X208000D01*
X208488Y90822D01*
X208901Y91099D01*
X215401Y97599D01*
X215677Y98012D01*
X215774Y98500D01*
Y112339D01*
X218453D01*
Y119457D01*
X210547D01*
Y112339D01*
X213226D01*
Y99028D01*
X207472Y93274D01*
X151528D01*
X136275Y108528D01*
Y110705D01*
X136775Y110754D01*
X136822Y110512D01*
X137099Y110099D01*
X139846Y107352D01*
X139776Y107000D01*
X139945Y106149D01*
X140427Y105428D01*
X141149Y104946D01*
X142000Y104776D01*
X142851Y104946D01*
X143572Y105428D01*
X144054Y106149D01*
X144224Y107000D01*
X144054Y107851D01*
X143572Y108572D01*
X142851Y109055D01*
X142000Y109224D01*
X141648Y109154D01*
X139275Y111528D01*
Y115205D01*
X139775Y115254D01*
X139822Y115012D01*
X140099Y114599D01*
X144846Y109852D01*
X144776Y109500D01*
X144946Y108649D01*
X145428Y107928D01*
X146149Y107446D01*
X147000Y107276D01*
X147851Y107446D01*
X148573Y107928D01*
X149055Y108649D01*
X149224Y109500D01*
X149055Y110351D01*
X148573Y111073D01*
X147851Y111555D01*
X147000Y111724D01*
X146649Y111654D01*
X142274Y116028D01*
Y178684D01*
X142774Y178854D01*
X143105Y178424D01*
X143889Y177822D01*
X144803Y177443D01*
X145283Y177380D01*
Y181102D01*
Y184825D01*
X144803Y184762D01*
X143889Y184383D01*
X143105Y183781D01*
X142774Y183351D01*
X142274Y183520D01*
Y185500D01*
X142177Y185988D01*
X141901Y186401D01*
X138275Y190028D01*
Y205031D01*
X138775Y205201D01*
X139206Y204639D01*
X140073Y203974D01*
X141082Y203556D01*
X142165Y203413D01*
X143249Y203556D01*
X144258Y203974D01*
X145125Y204639D01*
X145252Y204805D01*
X145726Y204644D01*
Y189500D01*
X145823Y189012D01*
X146099Y188599D01*
X163099Y171599D01*
X163512Y171323D01*
X164000Y171226D01*
X171308D01*
X171588Y170726D01*
X171444Y170000D01*
X171613Y169149D01*
X172095Y168428D01*
X172817Y167946D01*
X173668Y167776D01*
X174519Y167946D01*
X175240Y168428D01*
X175439Y168726D01*
X180140D01*
X180420Y168226D01*
X180376Y168000D01*
X184624D01*
X184580Y168226D01*
X184860Y168726D01*
X205500D01*
X205988Y168823D01*
X206401Y169099D01*
X223194Y185892D01*
X223470Y186305D01*
X223567Y186793D01*
Y195792D01*
X223470Y196280D01*
X223440Y196326D01*
Y203635D01*
X224258Y203974D01*
X225125Y204639D01*
X225790Y205506D01*
X226208Y206515D01*
X226351Y207598D01*
X226208Y208682D01*
X225790Y209691D01*
X225125Y210558D01*
X224258Y211223D01*
X223249Y211641D01*
X222165Y211784D01*
X221082Y211641D01*
X220073Y211223D01*
X219206Y210558D01*
X218541Y209691D01*
X218123Y208682D01*
X217980Y207598D01*
X218123Y206515D01*
X218541Y205506D01*
X219206Y204639D01*
X220073Y203974D01*
X220891Y203635D01*
Y195920D01*
X220988Y195432D01*
X221018Y195387D01*
Y187321D01*
X212824Y179127D01*
X212362Y179318D01*
Y180000D01*
X209500D01*
Y177138D01*
X210182D01*
X210373Y176676D01*
X204972Y171274D01*
X186860D01*
X186580Y171774D01*
X186724Y172500D01*
X186637Y172938D01*
X187062Y173363D01*
X187500Y173276D01*
X188351Y173445D01*
X189073Y173927D01*
X189555Y174649D01*
X189716Y175461D01*
X189724Y175500D01*
X190165Y175843D01*
X190500Y175776D01*
X191351Y175945D01*
X192072Y176427D01*
X192554Y177149D01*
X192724Y178000D01*
X192554Y178851D01*
X192072Y179572D01*
X191351Y180054D01*
X190500Y180224D01*
X189649Y180054D01*
X188927Y179572D01*
X188728Y179274D01*
X185072D01*
X184804Y179774D01*
X185055Y180149D01*
X185183Y180794D01*
X185569D01*
X186057Y180891D01*
X186470Y181168D01*
X209622Y204320D01*
X210073Y203974D01*
X211082Y203556D01*
X212165Y203413D01*
X213249Y203556D01*
X214258Y203974D01*
X215125Y204639D01*
X215790Y205506D01*
X216208Y206515D01*
X216351Y207598D01*
X216208Y208682D01*
X215790Y209691D01*
X215125Y210558D01*
X214258Y211223D01*
X213249Y211641D01*
X212165Y211784D01*
X211082Y211641D01*
X210073Y211223D01*
X209206Y210558D01*
X208541Y209691D01*
X208123Y208682D01*
X207980Y207598D01*
X208123Y206515D01*
X208149Y206451D01*
X203847Y202149D01*
X203386Y202396D01*
X203440Y202665D01*
Y203635D01*
X204258Y203974D01*
X205125Y204639D01*
X205790Y205506D01*
X206208Y206515D01*
X206351Y207598D01*
X206208Y208682D01*
X205790Y209691D01*
X205125Y210558D01*
X204258Y211223D01*
X203249Y211641D01*
X202165Y211784D01*
X201082Y211641D01*
X200073Y211223D01*
X199206Y210558D01*
X198541Y209691D01*
X198123Y208682D01*
X197980Y207598D01*
X198123Y206515D01*
X198541Y205506D01*
X199206Y204639D01*
X200073Y203974D01*
X200820Y203664D01*
X200870Y203173D01*
X184352Y186654D01*
X184000Y186724D01*
X183149Y186555D01*
X182893Y186384D01*
X182574Y186772D01*
X193067Y197264D01*
X193343Y197678D01*
X193440Y198165D01*
Y203635D01*
X194258Y203974D01*
X195125Y204639D01*
X195790Y205506D01*
X196208Y206515D01*
X196351Y207598D01*
X196208Y208682D01*
X195790Y209691D01*
X195125Y210558D01*
X194258Y211223D01*
X193249Y211641D01*
X192165Y211784D01*
X191082Y211641D01*
X190073Y211223D01*
X189206Y210558D01*
X188541Y209691D01*
X188123Y208682D01*
X187980Y207598D01*
X188123Y206515D01*
X188541Y205506D01*
X189206Y204639D01*
X190073Y203974D01*
X190891Y203635D01*
Y198693D01*
X181118Y188921D01*
X180658Y189167D01*
X180724Y189500D01*
X180654Y189851D01*
X183067Y192264D01*
X183343Y192678D01*
X183440Y193165D01*
Y203635D01*
X184258Y203974D01*
X185125Y204639D01*
X185790Y205506D01*
X186208Y206515D01*
X186351Y207598D01*
X186208Y208682D01*
X185790Y209691D01*
X185125Y210558D01*
X184258Y211223D01*
X183249Y211641D01*
X182165Y211784D01*
X181082Y211641D01*
X180073Y211223D01*
X179206Y210558D01*
X178541Y209691D01*
X178123Y208682D01*
X177980Y207598D01*
X178123Y206515D01*
X178541Y205506D01*
X179206Y204639D01*
X180073Y203974D01*
X180891Y203635D01*
Y193693D01*
X178851Y191654D01*
X178500Y191724D01*
X177649Y191554D01*
X176927Y191072D01*
X176764Y190828D01*
X176264Y190980D01*
Y193651D01*
X172500D01*
Y190475D01*
Y187299D01*
X176264D01*
Y188020D01*
X176764Y188172D01*
X176927Y187927D01*
X177649Y187445D01*
X177792Y187417D01*
X177897Y186886D01*
X177427Y186573D01*
X176945Y185851D01*
X176776Y185000D01*
X176945Y184149D01*
X177427Y183428D01*
X178149Y182946D01*
X179000Y182776D01*
X179851Y182946D01*
X180572Y183428D01*
X181054Y184149D01*
X181224Y185000D01*
X181154Y185352D01*
X181728Y185926D01*
X182116Y185607D01*
X181946Y185351D01*
X181776Y184500D01*
X181946Y183649D01*
X182042Y183504D01*
X181904Y182891D01*
X181428Y182572D01*
X180946Y181851D01*
X180776Y181000D01*
X180946Y180149D01*
X181196Y179774D01*
X180928Y179274D01*
X169321D01*
X168774Y179821D01*
Y187299D01*
X171500D01*
Y190475D01*
Y193651D01*
X168774D01*
Y197349D01*
X176264D01*
Y203701D01*
X174724D01*
X174555Y204201D01*
X175125Y204639D01*
X175790Y205506D01*
X176208Y206515D01*
X176351Y207598D01*
X176208Y208682D01*
X175790Y209691D01*
X175125Y210558D01*
X174258Y211223D01*
X173249Y211641D01*
X172165Y211784D01*
X171082Y211641D01*
X170073Y211223D01*
X169274Y210611D01*
X168774Y210735D01*
Y212972D01*
X169905Y214103D01*
X170073Y213974D01*
X171082Y213556D01*
X172165Y213413D01*
X173249Y213556D01*
X174258Y213974D01*
X175125Y214639D01*
X175790Y215506D01*
X176208Y216515D01*
X176351Y217598D01*
X176208Y218682D01*
X175790Y219691D01*
X175125Y220558D01*
X174258Y221223D01*
X173249Y221641D01*
X172165Y221784D01*
X171082Y221641D01*
X170073Y221223D01*
X169206Y220558D01*
X168541Y219691D01*
X168274Y219049D01*
X167774Y219148D01*
Y223000D01*
X167677Y223488D01*
X167401Y223901D01*
X164901Y226401D01*
X164488Y226677D01*
X164000Y226775D01*
D02*
G37*
G36*
X223740Y221770D02*
X220590D01*
X219918Y221682D01*
X219292Y221422D01*
X218754Y221010D01*
X218341Y220472D01*
X218082Y219845D01*
X217993Y219173D01*
Y216024D01*
X218082Y215352D01*
X218341Y214725D01*
X218754Y214187D01*
X219292Y213774D01*
X219918Y213515D01*
X220590Y213427D01*
X223740D01*
X224412Y213515D01*
X225039Y213774D01*
X225576Y214187D01*
X225989Y214725D01*
X226249Y215352D01*
X226337Y216024D01*
Y219173D01*
X226249Y219845D01*
X225989Y220472D01*
X225576Y221010D01*
X225039Y221422D01*
X224412Y221682D01*
X223740Y221770D01*
D02*
G37*
G36*
X212165Y221784D02*
X211082Y221641D01*
X210073Y221223D01*
X209206Y220558D01*
X208541Y219691D01*
X208123Y218682D01*
X207980Y217598D01*
X208123Y216515D01*
X208541Y215506D01*
X209206Y214639D01*
X210073Y213974D01*
X211082Y213556D01*
X212165Y213413D01*
X213249Y213556D01*
X214258Y213974D01*
X215125Y214639D01*
X215790Y215506D01*
X216208Y216515D01*
X216351Y217598D01*
X216208Y218682D01*
X215790Y219691D01*
X215125Y220558D01*
X214258Y221223D01*
X213249Y221641D01*
X212165Y221784D01*
D02*
G37*
G36*
X202165D02*
X201082Y221641D01*
X200073Y221223D01*
X199206Y220558D01*
X198541Y219691D01*
X198123Y218682D01*
X197980Y217598D01*
X198123Y216515D01*
X198541Y215506D01*
X199206Y214639D01*
X200073Y213974D01*
X201082Y213556D01*
X202165Y213413D01*
X203249Y213556D01*
X204258Y213974D01*
X205125Y214639D01*
X205790Y215506D01*
X206208Y216515D01*
X206351Y217598D01*
X206208Y218682D01*
X205790Y219691D01*
X205125Y220558D01*
X204258Y221223D01*
X203249Y221641D01*
X202165Y221784D01*
D02*
G37*
G36*
X192165D02*
X191082Y221641D01*
X190073Y221223D01*
X189206Y220558D01*
X188541Y219691D01*
X188123Y218682D01*
X187980Y217598D01*
X188123Y216515D01*
X188541Y215506D01*
X189206Y214639D01*
X190073Y213974D01*
X191082Y213556D01*
X192165Y213413D01*
X193249Y213556D01*
X194258Y213974D01*
X195125Y214639D01*
X195790Y215506D01*
X196208Y216515D01*
X196351Y217598D01*
X196208Y218682D01*
X195790Y219691D01*
X195125Y220558D01*
X194258Y221223D01*
X193249Y221641D01*
X192165Y221784D01*
D02*
G37*
G36*
X182165D02*
X181082Y221641D01*
X180073Y221223D01*
X179206Y220558D01*
X178541Y219691D01*
X178123Y218682D01*
X177980Y217598D01*
X178123Y216515D01*
X178541Y215506D01*
X179206Y214639D01*
X180073Y213974D01*
X181082Y213556D01*
X182165Y213413D01*
X183249Y213556D01*
X184258Y213974D01*
X185125Y214639D01*
X185790Y215506D01*
X186208Y216515D01*
X186351Y217598D01*
X186208Y218682D01*
X185790Y219691D01*
X185125Y220558D01*
X184258Y221223D01*
X183249Y221641D01*
X182165Y221784D01*
D02*
G37*
G36*
X80500Y215726D02*
Y213000D01*
X83226D01*
X83180Y213352D01*
X82851Y214146D01*
X82328Y214828D01*
X81646Y215351D01*
X80852Y215680D01*
X80500Y215726D01*
D02*
G37*
G36*
X79500D02*
X79148Y215680D01*
X78354Y215351D01*
X77672Y214828D01*
X77149Y214146D01*
X76820Y213352D01*
X76774Y213000D01*
X79500D01*
Y215726D01*
D02*
G37*
G36*
X83226Y212000D02*
X80500D01*
Y209274D01*
X80852Y209320D01*
X81646Y209649D01*
X82328Y210172D01*
X82851Y210854D01*
X83180Y211648D01*
X83226Y212000D01*
D02*
G37*
G36*
X79500D02*
X76774D01*
X76820Y211648D01*
X77149Y210854D01*
X77672Y210172D01*
X78354Y209649D01*
X79148Y209320D01*
X79500Y209274D01*
Y212000D01*
D02*
G37*
G36*
X103264Y215764D02*
X96736D01*
Y209236D01*
X103264D01*
Y215764D01*
D02*
G37*
G36*
X315736Y205929D02*
X314185D01*
X314069Y205906D01*
X313950D01*
X312429Y205603D01*
X312319Y205557D01*
X312203Y205534D01*
X310770Y204941D01*
X310671Y204875D01*
X310562Y204830D01*
X309272Y203968D01*
X309188Y203884D01*
X309090Y203818D01*
X307993Y202721D01*
X307927Y202623D01*
X307843Y202539D01*
X306981Y201249D01*
X306936Y201140D01*
X306870Y201041D01*
X306277Y199608D01*
X306254Y199492D01*
X306208Y199382D01*
X305906Y197861D01*
Y197742D01*
X305882Y197626D01*
Y196075D01*
X305906Y195958D01*
Y195840D01*
X306208Y194319D01*
X306254Y194209D01*
X306277Y194093D01*
X306870Y192660D01*
X306936Y192561D01*
X306981Y192452D01*
X307843Y191162D01*
X307927Y191078D01*
X307993Y190980D01*
X309090Y189883D01*
X309188Y189817D01*
X309272Y189733D01*
X310562Y188871D01*
X310671Y188826D01*
X310770Y188760D01*
X312203Y188166D01*
X312319Y188143D01*
X312429Y188098D01*
X313950Y187795D01*
X314069D01*
X314185Y187772D01*
X315736D01*
X315852Y187795D01*
X315971D01*
X317492Y188098D01*
X317602Y188143D01*
X317718Y188166D01*
X319151Y188760D01*
X319250Y188826D01*
X319359Y188871D01*
X320649Y189733D01*
X320733Y189817D01*
X320832Y189883D01*
X321928Y190980D01*
X321994Y191078D01*
X322078Y191162D01*
X322940Y192452D01*
X322985Y192561D01*
X323051Y192660D01*
X323645Y194093D01*
X323668Y194209D01*
X323713Y194319D01*
X324016Y195840D01*
Y195958D01*
X324039Y196075D01*
Y197626D01*
X324016Y197742D01*
Y197861D01*
X323713Y199382D01*
X323668Y199492D01*
X323645Y199608D01*
X323051Y201041D01*
X322985Y201140D01*
X322940Y201249D01*
X322078Y202539D01*
X321994Y202623D01*
X321928Y202721D01*
X320832Y203818D01*
X320733Y203884D01*
X320649Y203968D01*
X319359Y204830D01*
X319250Y204875D01*
X319151Y204941D01*
X317718Y205534D01*
X317602Y205557D01*
X317492Y205603D01*
X315971Y205906D01*
X315852D01*
X315736Y205929D01*
D02*
G37*
G36*
X40146D02*
X38594D01*
X38478Y205906D01*
X38360D01*
X36838Y205603D01*
X36729Y205557D01*
X36612Y205534D01*
X35179Y204941D01*
X35081Y204875D01*
X34971Y204830D01*
X33682Y203968D01*
X33598Y203884D01*
X33499Y203818D01*
X32402Y202721D01*
X32337Y202623D01*
X32253Y202539D01*
X31391Y201249D01*
X31345Y201140D01*
X31280Y201041D01*
X30686Y199608D01*
X30663Y199492D01*
X30617Y199382D01*
X30315Y197861D01*
Y197742D01*
X30292Y197626D01*
Y196075D01*
X30315Y195958D01*
Y195840D01*
X30617Y194319D01*
X30663Y194209D01*
X30686Y194093D01*
X31280Y192660D01*
X31345Y192561D01*
X31391Y192452D01*
X32253Y191162D01*
X32337Y191078D01*
X32402Y190980D01*
X33499Y189883D01*
X33598Y189817D01*
X33682Y189733D01*
X34971Y188871D01*
X35081Y188826D01*
X35179Y188760D01*
X36612Y188166D01*
X36729Y188143D01*
X36838Y188098D01*
X38360Y187795D01*
X38478D01*
X38594Y187772D01*
X40146D01*
X40262Y187795D01*
X40380D01*
X41902Y188098D01*
X42011Y188143D01*
X42128Y188166D01*
X43561Y188760D01*
X43659Y188826D01*
X43769Y188871D01*
X45059Y189733D01*
X45142Y189817D01*
X45241Y189883D01*
X46338Y190980D01*
X46404Y191078D01*
X46488Y191162D01*
X47349Y192452D01*
X47395Y192561D01*
X47460Y192660D01*
X48054Y194093D01*
X48077Y194209D01*
X48123Y194319D01*
X48425Y195840D01*
Y195958D01*
X48448Y196075D01*
Y197626D01*
X48425Y197742D01*
Y197861D01*
X48123Y199382D01*
X48077Y199492D01*
X48054Y199608D01*
X47460Y201041D01*
X47395Y201140D01*
X47349Y201249D01*
X46488Y202539D01*
X46404Y202623D01*
X46338Y202721D01*
X45241Y203818D01*
X45142Y203884D01*
X45059Y203968D01*
X43769Y204830D01*
X43659Y204875D01*
X43561Y204941D01*
X42128Y205534D01*
X42011Y205557D01*
X41902Y205603D01*
X40380Y205906D01*
X40262D01*
X40146Y205929D01*
D02*
G37*
G36*
X146283Y184825D02*
Y181602D01*
X149506D01*
X149443Y182083D01*
X149064Y182996D01*
X148462Y183781D01*
X147678Y184383D01*
X146764Y184762D01*
X146283Y184825D01*
D02*
G37*
G36*
X212362Y183862D02*
X209500D01*
Y181000D01*
X212362D01*
Y183862D01*
D02*
G37*
G36*
X208500D02*
X205638D01*
Y181000D01*
X208500D01*
Y183862D01*
D02*
G37*
G36*
X149506Y180602D02*
X146283D01*
Y177380D01*
X146764Y177443D01*
X147678Y177822D01*
X148462Y178424D01*
X149064Y179208D01*
X149443Y180122D01*
X149506Y180602D01*
D02*
G37*
G36*
X129067Y184858D02*
X121555D01*
Y177347D01*
X129067D01*
Y184858D01*
D02*
G37*
G36*
X208500Y180000D02*
X205638D01*
Y177138D01*
X208500D01*
Y180000D01*
D02*
G37*
G36*
X201126Y183891D02*
X200248Y183776D01*
X199430Y183437D01*
X198728Y182898D01*
X198189Y182196D01*
X197850Y181378D01*
X197735Y180500D01*
X197850Y179622D01*
X198189Y178804D01*
X198728Y178102D01*
X199430Y177563D01*
X200248Y177224D01*
X201126Y177109D01*
X202004Y177224D01*
X202822Y177563D01*
X203524Y178102D01*
X204063Y178804D01*
X204402Y179622D01*
X204517Y180500D01*
X204402Y181378D01*
X204063Y182196D01*
X203524Y182898D01*
X202822Y183437D01*
X202004Y183776D01*
X201126Y183891D01*
D02*
G37*
G36*
X254000Y181487D02*
X252968Y181351D01*
X252007Y180953D01*
X251181Y180319D01*
X250547Y179493D01*
X250149Y178532D01*
X250013Y177500D01*
X250149Y176468D01*
X250547Y175507D01*
X251181Y174681D01*
X252007Y174047D01*
X252968Y173649D01*
X254000Y173513D01*
X255032Y173649D01*
X255993Y174047D01*
X256819Y174681D01*
X257453Y175507D01*
X257851Y176468D01*
X257987Y177500D01*
X257851Y178532D01*
X257453Y179493D01*
X256819Y180319D01*
X255993Y180953D01*
X255032Y181351D01*
X254000Y181487D01*
D02*
G37*
G36*
X163500Y170624D02*
Y169000D01*
X165124D01*
X165055Y169351D01*
X164573Y170072D01*
X163851Y170554D01*
X163500Y170624D01*
D02*
G37*
G36*
X162500D02*
X162149Y170554D01*
X161427Y170072D01*
X160945Y169351D01*
X160876Y169000D01*
X162500D01*
Y170624D01*
D02*
G37*
G36*
X165124Y168000D02*
X163500D01*
Y166376D01*
X163851Y166446D01*
X164573Y166928D01*
X165055Y167649D01*
X165124Y168000D01*
D02*
G37*
G36*
X162500D02*
X160876D01*
X160945Y167649D01*
X161427Y166928D01*
X162149Y166446D01*
X162500Y166376D01*
Y168000D01*
D02*
G37*
G36*
X25016Y168717D02*
X22154D01*
Y165854D01*
X25016D01*
Y168717D01*
D02*
G37*
G36*
X21154D02*
X18291D01*
Y165854D01*
X21154D01*
Y168717D01*
D02*
G37*
G36*
X184624Y167000D02*
X183000D01*
Y165376D01*
X183351Y165445D01*
X184072Y165928D01*
X184555Y166649D01*
X184624Y167000D01*
D02*
G37*
G36*
X182000D02*
X180376D01*
X180446Y166649D01*
X180928Y165928D01*
X181649Y165445D01*
X182000Y165376D01*
Y167000D01*
D02*
G37*
G36*
X254000Y171487D02*
X252968Y171351D01*
X252007Y170953D01*
X251181Y170319D01*
X250547Y169493D01*
X250149Y168532D01*
X250013Y167500D01*
X250149Y166468D01*
X250547Y165507D01*
X251181Y164681D01*
X252007Y164047D01*
X252968Y163649D01*
X254000Y163513D01*
X255032Y163649D01*
X255993Y164047D01*
X256819Y164681D01*
X257453Y165507D01*
X257851Y166468D01*
X257987Y167500D01*
X257851Y168532D01*
X257453Y169493D01*
X256819Y170319D01*
X255993Y170953D01*
X255032Y171351D01*
X254000Y171487D01*
D02*
G37*
G36*
X25016Y164854D02*
X22154D01*
Y161992D01*
X25016D01*
Y164854D01*
D02*
G37*
G36*
X21154D02*
X18291D01*
Y161992D01*
X21154D01*
Y164854D01*
D02*
G37*
G36*
X13780Y168746D02*
X12902Y168630D01*
X12084Y168291D01*
X11382Y167752D01*
X10843Y167050D01*
X10504Y166232D01*
X10388Y165354D01*
X10504Y164477D01*
X10843Y163659D01*
X11382Y162956D01*
X12084Y162417D01*
X12902Y162079D01*
X13780Y161963D01*
X14657Y162079D01*
X15475Y162417D01*
X16177Y162956D01*
X16716Y163659D01*
X17055Y164477D01*
X17171Y165354D01*
X17055Y166232D01*
X16716Y167050D01*
X16177Y167752D01*
X15475Y168291D01*
X14657Y168630D01*
X13780Y168746D01*
D02*
G37*
G36*
X235000Y150987D02*
X233968Y150851D01*
X233007Y150453D01*
X232181Y149819D01*
X231547Y148993D01*
X231249Y148275D01*
X213272D01*
X213072Y148573D01*
X212351Y149055D01*
X211500Y149224D01*
X210649Y149055D01*
X209928Y148573D01*
X209445Y147851D01*
X209276Y147000D01*
X209445Y146149D01*
X209928Y145428D01*
X210649Y144946D01*
X211500Y144776D01*
X212351Y144946D01*
X213072Y145428D01*
X213272Y145726D01*
X231249D01*
X231547Y145007D01*
X232181Y144181D01*
X233007Y143547D01*
X233968Y143149D01*
X235000Y143013D01*
X236032Y143149D01*
X236993Y143547D01*
X237819Y144181D01*
X237865Y144241D01*
X238339Y144080D01*
Y142547D01*
X245457D01*
Y150453D01*
X238339D01*
Y149920D01*
X237865Y149759D01*
X237819Y149819D01*
X236993Y150453D01*
X236032Y150851D01*
X235000Y150987D01*
D02*
G37*
G36*
X265500Y150921D02*
Y147500D01*
X268921D01*
X268851Y148032D01*
X268453Y148993D01*
X267819Y149819D01*
X266993Y150453D01*
X266032Y150851D01*
X265500Y150921D01*
D02*
G37*
G36*
X264500D02*
X263968Y150851D01*
X263007Y150453D01*
X262181Y149819D01*
X261547Y148993D01*
X261149Y148032D01*
X261079Y147500D01*
X264500D01*
Y150921D01*
D02*
G37*
G36*
X268921Y146500D02*
X265500D01*
Y143079D01*
X266032Y143149D01*
X266993Y143547D01*
X267819Y144181D01*
X268453Y145007D01*
X268851Y145968D01*
X268921Y146500D01*
D02*
G37*
G36*
X264500D02*
X261079D01*
X261149Y145968D01*
X261547Y145007D01*
X262181Y144181D01*
X263007Y143547D01*
X263968Y143149D01*
X264500Y143079D01*
Y146500D01*
D02*
G37*
G36*
X229453Y142661D02*
X221547D01*
Y135543D01*
X229453D01*
Y142661D01*
D02*
G37*
G36*
X24529Y137335D02*
X18177D01*
Y134186D01*
X17677Y134153D01*
X17677Y134154D01*
X17274Y135127D01*
X16632Y135963D01*
X15797Y136604D01*
X14824Y137007D01*
X13780Y137145D01*
X12735Y137007D01*
X11762Y136604D01*
X10927Y135963D01*
X10285Y135127D01*
X9883Y134154D01*
X9745Y133110D01*
X9883Y132066D01*
X10285Y131093D01*
X10927Y130257D01*
X11762Y129616D01*
X12735Y129213D01*
X13780Y129076D01*
X14824Y129213D01*
X15797Y129616D01*
X16632Y130257D01*
X17274Y131093D01*
X17677Y132066D01*
X17677Y132067D01*
X18177Y132034D01*
Y128807D01*
X19824D01*
Y127969D01*
X17898D01*
Y124809D01*
X17398Y124710D01*
X17274Y125009D01*
X16632Y125845D01*
X15797Y126486D01*
X14824Y126889D01*
X13780Y127027D01*
X12735Y126889D01*
X11762Y126486D01*
X10927Y125845D01*
X10285Y125009D01*
X9883Y124036D01*
X9745Y122992D01*
X9883Y121948D01*
X10285Y120975D01*
X10927Y120139D01*
X11762Y119498D01*
X12735Y119095D01*
X13780Y118958D01*
X14824Y119095D01*
X15566Y119403D01*
X19371Y115599D01*
X19784Y115322D01*
X20272Y115226D01*
X26539D01*
X27027Y115322D01*
X27441Y115599D01*
X31905Y120063D01*
X37220D01*
Y122741D01*
X116456D01*
X128846Y110352D01*
X128776Y110000D01*
X128946Y109149D01*
X129428Y108428D01*
X130149Y107946D01*
X131000Y107776D01*
X131851Y107946D01*
X132572Y108428D01*
X133054Y109149D01*
X133224Y110000D01*
X133054Y110851D01*
X132572Y111573D01*
X131851Y112055D01*
X131000Y112224D01*
X130649Y112154D01*
X117885Y124917D01*
X117472Y125193D01*
X116984Y125290D01*
X37220D01*
Y127969D01*
X30102D01*
Y121865D01*
X26011Y117774D01*
X20800D01*
X18973Y119601D01*
X19164Y120063D01*
X25016D01*
Y127969D01*
X22882D01*
Y128807D01*
X24529D01*
Y137335D01*
D02*
G37*
G36*
X34579D02*
X31903D01*
Y133571D01*
X34579D01*
Y137335D01*
D02*
G37*
G36*
X30903D02*
X28227D01*
Y133571D01*
X30903D01*
Y137335D01*
D02*
G37*
G36*
X235000Y140987D02*
X233968Y140851D01*
X233007Y140453D01*
X232181Y139819D01*
X231547Y138993D01*
X231149Y138032D01*
X231013Y137000D01*
X231149Y135968D01*
X231547Y135007D01*
X232181Y134181D01*
X233007Y133547D01*
X233968Y133149D01*
X235000Y133013D01*
X236032Y133149D01*
X236993Y133547D01*
X237819Y134181D01*
X237865Y134241D01*
X238339Y134080D01*
Y133047D01*
X245457D01*
Y140953D01*
X238339D01*
Y139920D01*
X237865Y139759D01*
X237819Y139819D01*
X236993Y140453D01*
X236032Y140851D01*
X235000Y140987D01*
D02*
G37*
G36*
X211500Y155724D02*
X210649Y155554D01*
X209928Y155072D01*
X209445Y154351D01*
X209276Y153500D01*
X209445Y152649D01*
X209928Y151927D01*
X210649Y151445D01*
X211500Y151276D01*
X212351Y151445D01*
X213072Y151927D01*
X213272Y152225D01*
X313472D01*
X317725Y147972D01*
Y136946D01*
X316884Y136597D01*
X316050Y135957D01*
X315410Y135124D01*
X315008Y134152D01*
X314871Y133110D01*
X315008Y132068D01*
X315410Y131097D01*
X316050Y130263D01*
X316884Y129623D01*
X317856Y129221D01*
X318898Y129084D01*
X319940Y129221D01*
X320911Y129623D01*
X321745Y130263D01*
X322385Y131097D01*
X322787Y132068D01*
X322924Y133110D01*
X322787Y134152D01*
X322385Y135124D01*
X321745Y135957D01*
X320911Y136597D01*
X320274Y136861D01*
Y148500D01*
X320178Y148988D01*
X319901Y149401D01*
X314901Y154401D01*
X314488Y154677D01*
X314000Y154774D01*
X213272D01*
X213072Y155072D01*
X212351Y155554D01*
X211500Y155724D01*
D02*
G37*
G36*
X34579Y132571D02*
X31903D01*
Y128807D01*
X34579D01*
Y132571D01*
D02*
G37*
G36*
X30903D02*
X28227D01*
Y128807D01*
X30903D01*
Y132571D01*
D02*
G37*
G36*
X235000Y130987D02*
X233968Y130851D01*
X233007Y130453D01*
X232181Y129819D01*
X231547Y128993D01*
X231249Y128275D01*
X229453D01*
Y130457D01*
X221547D01*
Y123339D01*
X229453D01*
Y125725D01*
X231249D01*
X231547Y125007D01*
X232181Y124181D01*
X233007Y123547D01*
X233968Y123149D01*
X235000Y123013D01*
X236032Y123149D01*
X236993Y123547D01*
X237819Y124181D01*
X238453Y125007D01*
X238851Y125968D01*
X238987Y127000D01*
X238851Y128032D01*
X238453Y128993D01*
X237819Y129819D01*
X236993Y130453D01*
X236032Y130851D01*
X235000Y130987D01*
D02*
G37*
G36*
X211500Y162724D02*
X210649Y162555D01*
X209928Y162073D01*
X209445Y161351D01*
X209276Y160500D01*
X209445Y159649D01*
X209928Y158928D01*
X210649Y158446D01*
X211500Y158276D01*
X212351Y158446D01*
X213072Y158928D01*
X213272Y159225D01*
X318472D01*
X328726Y148972D01*
Y134740D01*
X320679Y126694D01*
X319940Y127000D01*
X318898Y127137D01*
X317856Y127000D01*
X316884Y126597D01*
X316050Y125957D01*
X315410Y125124D01*
X315008Y124152D01*
X314871Y123110D01*
X315008Y122068D01*
X315410Y121097D01*
X316050Y120263D01*
X316884Y119623D01*
X317856Y119221D01*
X318898Y119084D01*
X319940Y119221D01*
X320911Y119623D01*
X321745Y120263D01*
X322385Y121097D01*
X322787Y122068D01*
X322924Y123110D01*
X322787Y124152D01*
X322481Y124891D01*
X330901Y133311D01*
X331177Y133725D01*
X331275Y134213D01*
Y149500D01*
X331177Y149988D01*
X330901Y150401D01*
X319901Y161401D01*
X319488Y161678D01*
X319000Y161775D01*
X213272D01*
X213072Y162073D01*
X212351Y162555D01*
X211500Y162724D01*
D02*
G37*
G36*
X218453Y131661D02*
X210547D01*
Y124543D01*
X218453D01*
Y131661D01*
D02*
G37*
G36*
X319398Y117071D02*
Y113610D01*
X322858D01*
X322787Y114152D01*
X322385Y115123D01*
X321745Y115957D01*
X320911Y116597D01*
X319940Y117000D01*
X319398Y117071D01*
D02*
G37*
G36*
X318398D02*
X317856Y117000D01*
X316884Y116597D01*
X316050Y115957D01*
X315410Y115123D01*
X315008Y114152D01*
X314937Y113610D01*
X318398D01*
Y117071D01*
D02*
G37*
G36*
X147000Y146224D02*
X146149Y146054D01*
X145428Y145572D01*
X144946Y144851D01*
X144776Y144000D01*
X144946Y143149D01*
X145428Y142428D01*
X145726Y142228D01*
Y117272D01*
X145428Y117072D01*
X144946Y116351D01*
X144776Y115500D01*
X144946Y114649D01*
X145428Y113927D01*
X146149Y113445D01*
X147000Y113276D01*
X147851Y113445D01*
X148573Y113927D01*
X149055Y114649D01*
X149224Y115500D01*
X149055Y116351D01*
X148573Y117072D01*
X148275Y117272D01*
Y142228D01*
X148573Y142428D01*
X149055Y143149D01*
X149224Y144000D01*
X149055Y144851D01*
X148573Y145572D01*
X147851Y146054D01*
X147000Y146224D01*
D02*
G37*
G36*
X235000Y120987D02*
X233968Y120851D01*
X233007Y120453D01*
X232181Y119819D01*
X231547Y118993D01*
X231149Y118032D01*
X231013Y117000D01*
X231149Y115968D01*
X231547Y115007D01*
X232181Y114181D01*
X233007Y113547D01*
X233968Y113149D01*
X235000Y113013D01*
X236032Y113149D01*
X236993Y113547D01*
X237819Y114181D01*
X238453Y115007D01*
X238851Y115968D01*
X238987Y117000D01*
X238851Y118032D01*
X238453Y118993D01*
X237819Y119819D01*
X236993Y120453D01*
X236032Y120851D01*
X235000Y120987D01*
D02*
G37*
G36*
X257661Y150453D02*
X250543D01*
Y142547D01*
X252573D01*
Y140953D01*
X250543D01*
Y133047D01*
X254673D01*
X254864Y132585D01*
X250599Y128320D01*
X250323Y127906D01*
X250225Y127419D01*
Y95528D01*
X248472Y93774D01*
X227500D01*
X227012Y93678D01*
X226599Y93401D01*
X205338Y72141D01*
X141333D01*
X141076Y72760D01*
X140474Y73545D01*
X139689Y74147D01*
X138776Y74525D01*
X137795Y74654D01*
X136815Y74525D01*
X135901Y74147D01*
X135117Y73545D01*
X134514Y72760D01*
X134136Y71847D01*
X134007Y70866D01*
X134136Y69886D01*
X134514Y68972D01*
X135117Y68187D01*
X135901Y67585D01*
X136521Y67329D01*
Y64976D01*
X134433D01*
Y57071D01*
X136821D01*
Y45603D01*
X134920D01*
Y37074D01*
X136521D01*
Y35034D01*
X135901Y34777D01*
X135117Y34175D01*
X134514Y33390D01*
X134136Y32476D01*
X134007Y31496D01*
X134136Y30516D01*
X134514Y29602D01*
X135117Y28817D01*
X135901Y28215D01*
X136815Y27837D01*
X137795Y27708D01*
X138776Y27837D01*
X139689Y28215D01*
X140474Y28817D01*
X141076Y29602D01*
X141455Y30516D01*
X141584Y31496D01*
X141455Y32476D01*
X141076Y33390D01*
X140474Y34175D01*
X139689Y34777D01*
X139070Y35034D01*
Y37074D01*
X141272D01*
Y45603D01*
X139370D01*
Y57071D01*
X141551D01*
Y64976D01*
X139070D01*
Y67329D01*
X139689Y67585D01*
X140474Y68187D01*
X141076Y68972D01*
X141333Y69592D01*
X205866D01*
X206354Y69689D01*
X206767Y69965D01*
X228028Y91225D01*
X249000D01*
X249488Y91322D01*
X249901Y91599D01*
X252401Y94099D01*
X252677Y94512D01*
X252775Y95000D01*
Y126891D01*
X258500Y132616D01*
X259000Y132409D01*
Y110500D01*
X284000D01*
Y133000D01*
X266979D01*
X266879Y133500D01*
X266993Y133547D01*
X267819Y134181D01*
X268453Y135007D01*
X268851Y135968D01*
X268987Y137000D01*
X268851Y138032D01*
X268453Y138993D01*
X267819Y139819D01*
X266993Y140453D01*
X266032Y140851D01*
X265000Y140987D01*
X263968Y140851D01*
X263007Y140453D01*
X262181Y139819D01*
X261547Y138993D01*
X261149Y138032D01*
X261045Y137240D01*
X260047D01*
X259559Y137143D01*
X259146Y136867D01*
X258123Y135845D01*
X257661Y136036D01*
Y140953D01*
X255632D01*
Y142547D01*
X257661D01*
Y150453D01*
D02*
G37*
G36*
X82677Y118674D02*
X81594Y118531D01*
X80585Y118113D01*
X79718Y117448D01*
X79053Y116581D01*
X78634Y115571D01*
X78492Y114488D01*
X78634Y113405D01*
X79053Y112396D01*
X79718Y111529D01*
X80585Y110863D01*
X81594Y110445D01*
X82677Y110303D01*
X83760Y110445D01*
X84770Y110863D01*
X85637Y111529D01*
X86302Y112396D01*
X86720Y113405D01*
X86863Y114488D01*
X86720Y115571D01*
X86302Y116581D01*
X85637Y117448D01*
X84770Y118113D01*
X83760Y118531D01*
X82677Y118674D01*
D02*
G37*
G36*
X13780Y117263D02*
X12735Y117125D01*
X11762Y116722D01*
X10927Y116081D01*
X10285Y115246D01*
X9883Y114273D01*
X9745Y113228D01*
X9883Y112184D01*
X10285Y111211D01*
X10927Y110375D01*
X11762Y109734D01*
X12735Y109331D01*
X13780Y109194D01*
X14824Y109331D01*
X15797Y109734D01*
X16632Y110375D01*
X17274Y111211D01*
X17677Y112184D01*
X17814Y113228D01*
X17677Y114273D01*
X17274Y115246D01*
X16632Y116081D01*
X15797Y116722D01*
X14824Y117125D01*
X13780Y117263D01*
D02*
G37*
G36*
X322858Y112610D02*
X319398D01*
Y109150D01*
X319940Y109221D01*
X320911Y109623D01*
X321745Y110263D01*
X322385Y111097D01*
X322787Y112068D01*
X322858Y112610D01*
D02*
G37*
G36*
X318398D02*
X314937D01*
X315008Y112068D01*
X315410Y111097D01*
X316050Y110263D01*
X316884Y109623D01*
X317856Y109221D01*
X318398Y109150D01*
Y112610D01*
D02*
G37*
G36*
X14279Y107079D02*
Y103610D01*
X17748D01*
X17677Y104154D01*
X17274Y105128D01*
X16632Y105963D01*
X15797Y106604D01*
X14824Y107007D01*
X14279Y107079D01*
D02*
G37*
G36*
X13280D02*
X12735Y107007D01*
X11762Y106604D01*
X10927Y105963D01*
X10285Y105128D01*
X9883Y104154D01*
X9811Y103610D01*
X13280D01*
Y107079D01*
D02*
G37*
G36*
X82677Y108674D02*
X81594Y108531D01*
X80585Y108113D01*
X79718Y107448D01*
X79053Y106581D01*
X78634Y105571D01*
X78492Y104488D01*
X78634Y103405D01*
X79053Y102395D01*
X79718Y101529D01*
X80585Y100864D01*
X81594Y100445D01*
X82677Y100303D01*
X83760Y100445D01*
X84770Y100864D01*
X85637Y101529D01*
X86302Y102395D01*
X86720Y103405D01*
X86863Y104488D01*
X86720Y105571D01*
X86302Y106581D01*
X85637Y107448D01*
X84770Y108113D01*
X83760Y108531D01*
X82677Y108674D01*
D02*
G37*
G36*
X17748Y102610D02*
X14279D01*
Y99142D01*
X14824Y99213D01*
X15797Y99616D01*
X16632Y100257D01*
X17274Y101093D01*
X17677Y102066D01*
X17748Y102610D01*
D02*
G37*
G36*
X13280D02*
X9811D01*
X9883Y102066D01*
X10285Y101093D01*
X10927Y100257D01*
X11762Y99616D01*
X12735Y99213D01*
X13280Y99142D01*
Y102610D01*
D02*
G37*
G36*
X322890Y107102D02*
X314906D01*
Y99118D01*
X322890D01*
Y107102D01*
D02*
G37*
G36*
X190606Y102391D02*
X189729Y102276D01*
X188911Y101937D01*
X188208Y101398D01*
X187669Y100696D01*
X187331Y99878D01*
X187215Y99000D01*
X187331Y98122D01*
X187669Y97304D01*
X188208Y96602D01*
X188911Y96063D01*
X189729Y95724D01*
X190606Y95609D01*
X191484Y95724D01*
X192302Y96063D01*
X193004Y96602D01*
X193543Y97304D01*
X193882Y98122D01*
X193998Y99000D01*
X193882Y99878D01*
X193543Y100696D01*
X193004Y101398D01*
X192302Y101937D01*
X191484Y102276D01*
X190606Y102391D01*
D02*
G37*
G36*
X171394D02*
X170516Y102276D01*
X169698Y101937D01*
X168996Y101398D01*
X168457Y100696D01*
X168118Y99878D01*
X168002Y99000D01*
X168118Y98122D01*
X168457Y97304D01*
X168996Y96602D01*
X169698Y96063D01*
X170516Y95724D01*
X171394Y95609D01*
X172271Y95724D01*
X173089Y96063D01*
X173792Y96602D01*
X174331Y97304D01*
X174669Y98122D01*
X174785Y99000D01*
X174669Y99878D01*
X174331Y100696D01*
X173792Y101398D01*
X173089Y101937D01*
X172271Y102276D01*
X171394Y102391D01*
D02*
G37*
G36*
X268000Y101891D02*
X267122Y101776D01*
X266304Y101437D01*
X265602Y100898D01*
X265063Y100196D01*
X264724Y99378D01*
X264609Y98500D01*
X264724Y97622D01*
X265063Y96804D01*
X265602Y96102D01*
X266304Y95563D01*
X267122Y95224D01*
X268000Y95109D01*
X268878Y95224D01*
X269696Y95563D01*
X270398Y96102D01*
X270937Y96804D01*
X271276Y97622D01*
X271391Y98500D01*
X271276Y99378D01*
X270937Y100196D01*
X270398Y100898D01*
X269696Y101437D01*
X268878Y101776D01*
X268000Y101891D01*
D02*
G37*
G36*
X83177Y98608D02*
Y94988D01*
X86797D01*
X86720Y95572D01*
X86302Y96581D01*
X85637Y97448D01*
X84770Y98113D01*
X83760Y98531D01*
X83177Y98608D01*
D02*
G37*
G36*
X82177D02*
X81594Y98531D01*
X80585Y98113D01*
X79718Y97448D01*
X79053Y96581D01*
X78634Y95572D01*
X78558Y94988D01*
X82177D01*
Y98608D01*
D02*
G37*
G36*
X74764Y97603D02*
X66236D01*
Y91839D01*
X74764D01*
Y97603D01*
D02*
G37*
G36*
X271362Y93988D02*
X268500D01*
Y91126D01*
X271362D01*
Y93988D01*
D02*
G37*
G36*
X267500D02*
X264638D01*
Y91126D01*
X267500D01*
Y93988D01*
D02*
G37*
G36*
X86797Y93988D02*
X83177D01*
Y90369D01*
X83760Y90445D01*
X84770Y90864D01*
X85637Y91529D01*
X86302Y92396D01*
X86720Y93405D01*
X86797Y93988D01*
D02*
G37*
G36*
X82177D02*
X78558D01*
X78634Y93405D01*
X79053Y92396D01*
X79718Y91529D01*
X80585Y90864D01*
X81594Y90445D01*
X82177Y90369D01*
Y93988D01*
D02*
G37*
G36*
X271362Y90126D02*
X268500D01*
Y87264D01*
X271362D01*
Y90126D01*
D02*
G37*
G36*
X267500D02*
X264638D01*
Y87264D01*
X267500D01*
Y90126D01*
D02*
G37*
G36*
X298500Y92828D02*
X297622Y92713D01*
X296804Y92374D01*
X296102Y91835D01*
X295563Y91133D01*
X295224Y90315D01*
X295109Y89437D01*
X295224Y88559D01*
X295563Y87741D01*
X296102Y87039D01*
X296804Y86500D01*
X297622Y86161D01*
X298500Y86046D01*
X299378Y86161D01*
X300196Y86500D01*
X300898Y87039D01*
X301437Y87741D01*
X301776Y88559D01*
X301891Y89437D01*
X301776Y90315D01*
X301437Y91133D01*
X300898Y91835D01*
X300196Y92374D01*
X299378Y92713D01*
X298500Y92828D01*
D02*
G37*
G36*
X82677Y88674D02*
X81594Y88531D01*
X80585Y88113D01*
X79718Y87448D01*
X79053Y86581D01*
X78714Y85763D01*
X74764D01*
Y87161D01*
X66236D01*
Y81397D01*
X74764D01*
Y83214D01*
X78714D01*
X79053Y82395D01*
X79718Y81529D01*
X80585Y80863D01*
X81594Y80445D01*
X82677Y80303D01*
X83760Y80445D01*
X84770Y80863D01*
X85637Y81529D01*
X86302Y82395D01*
X86720Y83405D01*
X86863Y84488D01*
X86720Y85571D01*
X86302Y86581D01*
X85637Y87448D01*
X84770Y88113D01*
X83760Y88531D01*
X82677Y88674D01*
D02*
G37*
G36*
X152157Y86825D02*
Y84000D01*
X154983D01*
X154933Y84378D01*
X154594Y85196D01*
X154055Y85898D01*
X153353Y86437D01*
X152535Y86776D01*
X152157Y86825D01*
D02*
G37*
G36*
X210842D02*
Y84000D01*
X213668D01*
X213618Y84378D01*
X213279Y85196D01*
X212740Y85898D01*
X212038Y86437D01*
X211220Y86776D01*
X210842Y86825D01*
D02*
G37*
G36*
X209842D02*
X209465Y86776D01*
X208647Y86437D01*
X207945Y85898D01*
X207406Y85196D01*
X207067Y84378D01*
X207017Y84000D01*
X209842D01*
Y86825D01*
D02*
G37*
G36*
X151157D02*
X150780Y86776D01*
X149962Y86437D01*
X149259Y85898D01*
X148721Y85196D01*
X148382Y84378D01*
X148332Y84000D01*
X151157D01*
Y86825D01*
D02*
G37*
G36*
X301862Y84925D02*
X299000D01*
Y82063D01*
X301862D01*
Y84925D01*
D02*
G37*
G36*
X298000D02*
X295138D01*
Y82063D01*
X298000D01*
Y84925D01*
D02*
G37*
G36*
X154983Y83000D02*
X152157D01*
Y80175D01*
X152535Y80224D01*
X153353Y80563D01*
X154055Y81102D01*
X154594Y81804D01*
X154933Y82622D01*
X154983Y83000D01*
D02*
G37*
G36*
X213668D02*
X210842D01*
Y80175D01*
X211220Y80224D01*
X212038Y80563D01*
X212740Y81102D01*
X213279Y81804D01*
X213618Y82622D01*
X213668Y83000D01*
D02*
G37*
G36*
X209842D02*
X207017D01*
X207067Y82622D01*
X207406Y81804D01*
X207945Y81102D01*
X208647Y80563D01*
X209465Y80224D01*
X209842Y80175D01*
Y83000D01*
D02*
G37*
G36*
X151157D02*
X148332D01*
X148382Y82622D01*
X148721Y81804D01*
X149259Y81102D01*
X149962Y80563D01*
X150780Y80224D01*
X151157Y80175D01*
Y83000D01*
D02*
G37*
G36*
X194020Y86862D02*
X187295D01*
Y80138D01*
X194020D01*
Y86862D01*
D02*
G37*
G36*
X174705D02*
X167980D01*
Y80138D01*
X174705D01*
Y86862D01*
D02*
G37*
G36*
X301862Y81063D02*
X299000D01*
Y78201D01*
X301862D01*
Y81063D01*
D02*
G37*
G36*
X298000D02*
X295138D01*
Y78201D01*
X298000D01*
Y81063D01*
D02*
G37*
G36*
X236221Y86185D02*
X234803Y85998D01*
X233483Y85451D01*
X232348Y84581D01*
X231478Y83447D01*
X230931Y82126D01*
X230745Y80709D01*
X230931Y79291D01*
X231478Y77971D01*
X232348Y76837D01*
X233483Y75966D01*
X234803Y75419D01*
X236221Y75233D01*
X237638Y75419D01*
X238959Y75966D01*
X240093Y76837D01*
X240963Y77971D01*
X241510Y79291D01*
X241697Y80709D01*
X241510Y82126D01*
X240963Y83447D01*
X240093Y84581D01*
X238959Y85451D01*
X237638Y85998D01*
X236221Y86185D01*
D02*
G37*
G36*
X268500Y76265D02*
X267622Y76150D01*
X266804Y75811D01*
X266102Y75272D01*
X265563Y74570D01*
X265224Y73752D01*
X265109Y72874D01*
X265224Y71996D01*
X265563Y71178D01*
X266102Y70476D01*
X266804Y69937D01*
X267622Y69598D01*
X268500Y69483D01*
X269378Y69598D01*
X270196Y69937D01*
X270898Y70476D01*
X271437Y71178D01*
X271776Y71996D01*
X271891Y72874D01*
X271776Y73752D01*
X271437Y74570D01*
X270898Y75272D01*
X270196Y75811D01*
X269378Y76150D01*
X268500Y76265D01*
D02*
G37*
G36*
X271862Y68362D02*
X269000D01*
Y65500D01*
X271862D01*
Y68362D01*
D02*
G37*
G36*
X268000D02*
X265138D01*
Y65500D01*
X268000D01*
Y68362D01*
D02*
G37*
G36*
X249807Y71894D02*
X241193D01*
Y63201D01*
X249807D01*
Y71894D01*
D02*
G37*
G36*
X232949Y72898D02*
X222051D01*
Y62394D01*
X232949D01*
Y72898D01*
D02*
G37*
G36*
X271862Y64500D02*
X269000D01*
Y61638D01*
X271862D01*
Y64500D01*
D02*
G37*
G36*
X268000D02*
X265138D01*
Y61638D01*
X268000D01*
Y64500D01*
D02*
G37*
G36*
X129347Y64976D02*
X126287D01*
Y61524D01*
X129347D01*
Y64976D01*
D02*
G37*
G36*
X125287D02*
X122228D01*
Y61524D01*
X125287D01*
Y64976D01*
D02*
G37*
G36*
X84252Y78660D02*
X81102D01*
X80430Y78571D01*
X79804Y78312D01*
X79266Y77899D01*
X78853Y77362D01*
X78594Y76735D01*
X78505Y76063D01*
Y72913D01*
X78594Y72241D01*
X78853Y71615D01*
X79266Y71077D01*
X79804Y70664D01*
X80430Y70405D01*
X81102Y70316D01*
X81403D01*
Y68000D01*
X77504D01*
Y60488D01*
X87496D01*
Y62751D01*
X88736D01*
Y60849D01*
X97264D01*
Y67201D01*
X88736D01*
Y65299D01*
X87496D01*
Y68000D01*
X83952D01*
Y70316D01*
X84252D01*
X84924Y70405D01*
X85550Y70664D01*
X86088Y71077D01*
X86501Y71615D01*
X86760Y72241D01*
X86849Y72913D01*
Y76063D01*
X86760Y76735D01*
X86501Y77362D01*
X86088Y77899D01*
X85550Y78312D01*
X84924Y78571D01*
X84252Y78660D01*
D02*
G37*
G36*
X129347Y60524D02*
X126287D01*
Y57071D01*
X129347D01*
Y60524D01*
D02*
G37*
G36*
X125287D02*
X122228D01*
Y57071D01*
X125287D01*
Y60524D01*
D02*
G37*
G36*
X185882Y66158D02*
X178291D01*
Y58567D01*
X180710D01*
X180809Y58067D01*
X180173Y57803D01*
X179380Y57195D01*
X178771Y56402D01*
X178389Y55479D01*
X178324Y54988D01*
X182087D01*
X185849D01*
X185784Y55479D01*
X185402Y56402D01*
X184793Y57195D01*
X184001Y57803D01*
X183364Y58067D01*
X183464Y58567D01*
X185882D01*
Y66158D01*
D02*
G37*
G36*
X97264Y57151D02*
X93500D01*
Y54475D01*
X97264D01*
Y57151D01*
D02*
G37*
G36*
X92500D02*
X88736D01*
Y54475D01*
X92500D01*
Y57151D01*
D02*
G37*
G36*
X249807Y57799D02*
X246000D01*
Y53953D01*
X249807D01*
Y57799D01*
D02*
G37*
G36*
X245000D02*
X241193D01*
Y53953D01*
X245000D01*
Y57799D01*
D02*
G37*
G36*
X127378Y54937D02*
X124122D01*
Y51681D01*
X127378D01*
Y54937D01*
D02*
G37*
G36*
X123122D02*
X119866D01*
Y51681D01*
X123122D01*
Y54937D01*
D02*
G37*
G36*
X97264Y53475D02*
X93500D01*
Y50799D01*
X97264D01*
Y53475D01*
D02*
G37*
G36*
X92500D02*
X88736D01*
Y50799D01*
X92500D01*
Y53475D01*
D02*
G37*
G36*
X181587Y53988D02*
X178324D01*
X178389Y53497D01*
X178771Y52574D01*
X179380Y51781D01*
X180173Y51173D01*
X181096Y50791D01*
X181587Y50726D01*
Y53988D01*
D02*
G37*
G36*
X185849D02*
X182587D01*
Y50726D01*
X183077Y50791D01*
X184001Y51173D01*
X184793Y51781D01*
X185402Y52574D01*
X185784Y53497D01*
X185849Y53988D01*
D02*
G37*
G36*
X172244Y66190D02*
X171253Y66060D01*
X170330Y65677D01*
X169537Y65069D01*
X168929Y64276D01*
X168546Y63353D01*
X168416Y62362D01*
X168546Y61371D01*
X168929Y60448D01*
X169537Y59655D01*
X170330Y59047D01*
X171207Y58684D01*
X171253Y58556D01*
Y58295D01*
X171207Y58166D01*
X170330Y57803D01*
X169537Y57195D01*
X168929Y56402D01*
X168546Y55479D01*
X168416Y54488D01*
X168546Y53497D01*
X168929Y52574D01*
X169537Y51781D01*
X170330Y51173D01*
X171253Y50791D01*
X172244Y50660D01*
X173235Y50791D01*
X174158Y51173D01*
X174951Y51781D01*
X175559Y52574D01*
X175942Y53497D01*
X176072Y54488D01*
X175942Y55479D01*
X175559Y56402D01*
X174951Y57195D01*
X174158Y57803D01*
X173282Y58166D01*
X173235Y58295D01*
Y58556D01*
X173282Y58684D01*
X174158Y59047D01*
X174951Y59655D01*
X175559Y60448D01*
X175942Y61371D01*
X176072Y62362D01*
X175942Y63353D01*
X175559Y64276D01*
X174951Y65069D01*
X174158Y65677D01*
X173235Y66060D01*
X172244Y66190D01*
D02*
G37*
G36*
X249807Y52953D02*
X246000D01*
Y49106D01*
X249807D01*
Y52953D01*
D02*
G37*
G36*
X245000D02*
X241193D01*
Y49106D01*
X245000D01*
Y52953D01*
D02*
G37*
G36*
X232949Y53606D02*
X228000D01*
Y48854D01*
X232949D01*
Y53606D01*
D02*
G37*
G36*
X227000D02*
X222051D01*
Y48854D01*
X227000D01*
Y53606D01*
D02*
G37*
G36*
X127378Y50681D02*
X124122D01*
Y47425D01*
X127378D01*
Y50681D01*
D02*
G37*
G36*
X123122D02*
X119866D01*
Y47425D01*
X123122D01*
Y50681D01*
D02*
G37*
G36*
X201366Y51698D02*
Y44319D01*
X208745D01*
X208642Y45366D01*
X208191Y46853D01*
X207458Y48223D01*
X206472Y49425D01*
X205271Y50411D01*
X203900Y51143D01*
X202413Y51595D01*
X201366Y51698D01*
D02*
G37*
G36*
X153965D02*
Y44319D01*
X161343D01*
X161240Y45366D01*
X160789Y46853D01*
X160056Y48223D01*
X159071Y49425D01*
X157869Y50411D01*
X156499Y51143D01*
X155011Y51595D01*
X153965Y51698D01*
D02*
G37*
G36*
X200366D02*
X199320Y51595D01*
X197832Y51143D01*
X196462Y50411D01*
X195260Y49425D01*
X194274Y48223D01*
X193542Y46853D01*
X193090Y45366D01*
X192987Y44319D01*
X200366D01*
Y51698D01*
D02*
G37*
G36*
X152965D02*
X151918Y51595D01*
X150431Y51143D01*
X149060Y50411D01*
X147859Y49425D01*
X146873Y48223D01*
X146140Y46853D01*
X145689Y45366D01*
X145586Y44319D01*
X152965D01*
Y51698D01*
D02*
G37*
G36*
X232949Y47854D02*
X228000D01*
Y43102D01*
X232949D01*
Y47854D01*
D02*
G37*
G36*
X227000D02*
X222051D01*
Y43102D01*
X227000D01*
Y47854D01*
D02*
G37*
G36*
X131222Y45603D02*
X128546D01*
Y41839D01*
X131222D01*
Y45603D01*
D02*
G37*
G36*
X127546D02*
X124870D01*
Y41839D01*
X127546D01*
Y45603D01*
D02*
G37*
G36*
X131222Y40839D02*
X128546D01*
Y37074D01*
X131222D01*
Y40839D01*
D02*
G37*
G36*
X127546D02*
X124870D01*
Y37074D01*
X127546D01*
Y40839D01*
D02*
G37*
G36*
X87496Y53512D02*
X77504D01*
Y46000D01*
X81226D01*
Y38103D01*
X78236D01*
Y36495D01*
X77264D01*
Y38201D01*
X68736D01*
Y31849D01*
X77264D01*
Y33946D01*
X78236D01*
Y32339D01*
X86764D01*
Y38103D01*
X83775D01*
Y46000D01*
X87496D01*
Y53512D01*
D02*
G37*
G36*
X161343Y43319D02*
X153965D01*
Y35940D01*
X155011Y36043D01*
X156499Y36494D01*
X157869Y37227D01*
X159071Y38213D01*
X160056Y39414D01*
X160789Y40785D01*
X161240Y42272D01*
X161343Y43319D01*
D02*
G37*
G36*
X208745D02*
X201366D01*
Y35940D01*
X202413Y36043D01*
X203900Y36494D01*
X205271Y37227D01*
X206472Y38213D01*
X207458Y39414D01*
X208191Y40785D01*
X208642Y42272D01*
X208745Y43319D01*
D02*
G37*
G36*
X200366D02*
X192987D01*
X193090Y42272D01*
X193542Y40785D01*
X194274Y39414D01*
X195260Y38213D01*
X196462Y37227D01*
X197832Y36494D01*
X199320Y36043D01*
X200366Y35940D01*
Y43319D01*
D02*
G37*
G36*
X152965D02*
X145586D01*
X145689Y42272D01*
X146140Y40785D01*
X146873Y39414D01*
X147859Y38213D01*
X149060Y37227D01*
X150431Y36494D01*
X151918Y36043D01*
X152965Y35940D01*
Y43319D01*
D02*
G37*
G36*
X40146Y48448D02*
X38594D01*
X38478Y48425D01*
X38360D01*
X36838Y48123D01*
X36729Y48077D01*
X36612Y48054D01*
X35179Y47460D01*
X35081Y47395D01*
X34971Y47349D01*
X33682Y46488D01*
X33598Y46404D01*
X33499Y46338D01*
X32402Y45241D01*
X32337Y45142D01*
X32253Y45059D01*
X31391Y43769D01*
X31345Y43659D01*
X31280Y43561D01*
X30686Y42128D01*
X30663Y42011D01*
X30617Y41902D01*
X30315Y40380D01*
Y40262D01*
X30292Y40146D01*
Y38594D01*
X30315Y38478D01*
Y38360D01*
X30617Y36838D01*
X30663Y36729D01*
X30686Y36612D01*
X31280Y35179D01*
X31345Y35081D01*
X31391Y34971D01*
X32253Y33682D01*
X32337Y33598D01*
X32402Y33499D01*
X33499Y32402D01*
X33598Y32337D01*
X33682Y32253D01*
X34971Y31391D01*
X35081Y31345D01*
X35179Y31280D01*
X36612Y30686D01*
X36729Y30663D01*
X36838Y30617D01*
X38360Y30315D01*
X38478D01*
X38594Y30292D01*
X40146D01*
X40262Y30315D01*
X40380D01*
X41902Y30617D01*
X42011Y30663D01*
X42128Y30686D01*
X43561Y31280D01*
X43659Y31345D01*
X43769Y31391D01*
X45059Y32253D01*
X45142Y32337D01*
X45241Y32402D01*
X46338Y33499D01*
X46404Y33598D01*
X46488Y33682D01*
X47349Y34971D01*
X47395Y35081D01*
X47460Y35179D01*
X48054Y36612D01*
X48077Y36729D01*
X48123Y36838D01*
X48425Y38360D01*
Y38478D01*
X48448Y38594D01*
Y40146D01*
X48425Y40262D01*
Y40380D01*
X48123Y41902D01*
X48077Y42011D01*
X48054Y42128D01*
X47460Y43561D01*
X47395Y43659D01*
X47349Y43769D01*
X46488Y45059D01*
X46404Y45142D01*
X46338Y45241D01*
X45241Y46338D01*
X45142Y46404D01*
X45059Y46488D01*
X43769Y47349D01*
X43659Y47395D01*
X43561Y47460D01*
X42128Y48054D01*
X42011Y48077D01*
X41902Y48123D01*
X40380Y48425D01*
X40262D01*
X40146Y48448D01*
D02*
G37*
G36*
X315901Y50127D02*
X314020D01*
X313903Y50104D01*
X313785D01*
X311939Y49737D01*
X311830Y49691D01*
X311713Y49668D01*
X309975Y48948D01*
X309876Y48882D01*
X309767Y48837D01*
X308202Y47791D01*
X308118Y47707D01*
X308020Y47642D01*
X306689Y46311D01*
X306623Y46212D01*
X306539Y46128D01*
X305494Y44564D01*
X305449Y44454D01*
X305383Y44356D01*
X304663Y42617D01*
X304640Y42501D01*
X304594Y42391D01*
X304227Y40546D01*
Y40427D01*
X304204Y40311D01*
Y38429D01*
X304227Y38313D01*
Y38194D01*
X304594Y36349D01*
X304640Y36239D01*
X304663Y36123D01*
X305383Y34384D01*
X305449Y34286D01*
X305494Y34176D01*
X306539Y32612D01*
X306623Y32528D01*
X306689Y32429D01*
X308020Y31099D01*
X308118Y31033D01*
X308202Y30949D01*
X309767Y29904D01*
X309876Y29858D01*
X309975Y29792D01*
X311713Y29072D01*
X311830Y29049D01*
X311939Y29004D01*
X313785Y28637D01*
X313903D01*
X314020Y28613D01*
X315901D01*
X316018Y28637D01*
X316136D01*
X317982Y29004D01*
X318092Y29049D01*
X318208Y29072D01*
X319946Y29792D01*
X320045Y29858D01*
X320155Y29904D01*
X321719Y30949D01*
X321803Y31033D01*
X321901Y31099D01*
X323232Y32429D01*
X323298Y32528D01*
X323382Y32612D01*
X324427Y34176D01*
X324473Y34286D01*
X324538Y34384D01*
X325259Y36123D01*
X325282Y36239D01*
X325327Y36349D01*
X325694Y38194D01*
Y38313D01*
X325717Y38429D01*
Y40311D01*
X325694Y40427D01*
Y40546D01*
X325327Y42391D01*
X325282Y42501D01*
X325259Y42617D01*
X324538Y44356D01*
X324473Y44454D01*
X324427Y44564D01*
X323382Y46128D01*
X323298Y46212D01*
X323232Y46311D01*
X321901Y47642D01*
X321803Y47707D01*
X321719Y47791D01*
X320155Y48837D01*
X320045Y48882D01*
X319946Y48948D01*
X318208Y49668D01*
X318092Y49691D01*
X317982Y49737D01*
X316136Y50104D01*
X316018D01*
X315901Y50127D01*
D02*
G37*
G36*
X77264Y28151D02*
X73500D01*
Y25475D01*
X77264D01*
Y28151D01*
D02*
G37*
G36*
X72500D02*
X68736D01*
Y25475D01*
X72500D01*
Y28151D01*
D02*
G37*
G36*
X86764Y27661D02*
X78236D01*
Y21897D01*
X86764D01*
Y27661D01*
D02*
G37*
G36*
X77264Y24475D02*
X73500D01*
Y21799D01*
X77264D01*
Y24475D01*
D02*
G37*
G36*
X72500D02*
X68736D01*
Y21799D01*
X72500D01*
Y24475D01*
D02*
G37*
G36*
X236221Y27130D02*
X234803Y26943D01*
X233483Y26396D01*
X232348Y25526D01*
X231478Y24392D01*
X230931Y23071D01*
X230745Y21654D01*
X230931Y20236D01*
X231478Y18915D01*
X232348Y17781D01*
X233483Y16911D01*
X234803Y16364D01*
X236221Y16178D01*
X237638Y16364D01*
X238959Y16911D01*
X240093Y17781D01*
X240963Y18915D01*
X241510Y20236D01*
X241697Y21654D01*
X241510Y23071D01*
X240963Y24392D01*
X240093Y25526D01*
X238959Y26396D01*
X237638Y26943D01*
X236221Y27130D01*
D02*
G37*
%LPD*%
D14*
X251500Y95000D02*
Y127419D01*
X249000Y92500D02*
X251500Y95000D01*
X227500Y92500D02*
X249000D01*
X251500Y127419D02*
X260047Y135966D01*
X263966D01*
X265000Y137000D01*
X164000Y172500D02*
X184500D01*
X173668Y170000D02*
X205500D01*
X222293Y186793D01*
X70500Y84279D02*
X70709Y84488D01*
X82677D01*
X205866Y70866D02*
X227500Y92500D01*
X137795Y70866D02*
X205866D01*
X138000Y111000D02*
Y123500D01*
Y111000D02*
X142000Y107000D01*
X137795Y61221D02*
X137992Y61024D01*
X137795Y61221D02*
Y70866D01*
X138096Y41339D02*
Y60920D01*
X137992Y61024D02*
X138096Y60920D01*
X137795Y31496D02*
Y41038D01*
X138096Y41339D01*
X115000Y149500D02*
X132000D01*
X135000Y108000D02*
Y180555D01*
X135547Y181102D01*
X135000Y108000D02*
X151000Y92000D01*
X115000Y154500D02*
X131500D01*
X73000Y35025D02*
X73196Y35221D01*
X82500D01*
Y49756D01*
X147000Y115500D02*
Y144000D01*
X33661Y124016D02*
X116984D01*
X131000Y110000D01*
X13780Y122992D02*
X20272Y116500D01*
X26539D01*
X33661Y123622D01*
Y124016D01*
X109000Y205000D02*
X121598Y217598D01*
X132165D01*
X109000Y141000D02*
Y205000D01*
Y141000D02*
X131500Y118500D01*
X141000Y115500D02*
X147000Y109500D01*
X141000Y115500D02*
Y185500D01*
X137000Y189500D02*
X141000Y185500D01*
X137000Y212433D02*
X142165Y217598D01*
X137000Y189500D02*
Y212433D01*
X82677Y64421D02*
Y74488D01*
X82500Y64244D02*
X82677Y64421D01*
X82719Y64025D02*
X93000D01*
X82500Y64244D02*
X82719Y64025D01*
X93000Y225500D02*
X164000D01*
X90000Y222500D02*
X93000Y225500D01*
X164000D02*
X166500Y223000D01*
X162165Y207598D02*
X162747Y208180D01*
Y211498D01*
X166500Y215251D01*
Y223000D01*
X151000Y92000D02*
X208000D01*
X214500Y98500D02*
Y115898D01*
X208000Y92000D02*
X214500Y98500D01*
X225602Y127000D02*
X235000D01*
X225500Y126898D02*
X225602Y127000D01*
X235000Y137000D02*
X241898D01*
X241398Y147000D02*
X241898Y146500D01*
X235000Y147000D02*
X241398D01*
X211500D02*
X235000D01*
X319000Y133213D02*
Y148500D01*
X318898Y133110D02*
X319000Y133213D01*
X314000Y153500D02*
X319000Y148500D01*
X211500Y153500D02*
X314000D01*
X318898Y123110D02*
X330000Y134213D01*
Y149500D01*
X319000Y160500D02*
X330000Y149500D01*
X211500Y160500D02*
X319000D01*
X222165Y195920D02*
Y207598D01*
Y195920D02*
X222293Y195792D01*
Y186793D02*
Y195792D01*
X147000Y189500D02*
X164000Y172500D01*
X211098Y207598D02*
X212165D01*
X185569Y182069D02*
X211098Y207598D01*
X183504Y181000D02*
X184573Y182069D01*
X183000Y181000D02*
X183504D01*
X184573Y182069D02*
X185569D01*
X184000Y184500D02*
X202165Y202665D01*
X167500Y179293D02*
X168793Y178000D01*
X166000Y175500D02*
X187500D01*
X168793Y178000D02*
X190500D01*
X202165Y202665D02*
Y207598D01*
X192165Y198165D02*
Y207598D01*
X179000Y185000D02*
X192165Y198165D01*
X178500Y189500D02*
X182165Y193165D01*
Y207598D01*
X167500Y179293D02*
Y213500D01*
X171598Y217598D02*
X172165D01*
X167500Y213500D02*
X171598Y217598D01*
X157500Y184000D02*
Y212933D01*
X162165Y217598D01*
X157500Y184000D02*
X166000Y175500D01*
X147000Y212433D02*
X152165Y217598D01*
X147000Y189500D02*
Y212433D01*
D15*
X21353Y124120D02*
X21457Y124016D01*
X21353Y124120D02*
Y133071D01*
X254102Y137000D02*
Y146500D01*
D20*
X138096Y41339D02*
D03*
X128046D02*
D03*
X21353Y133071D02*
D03*
X31403D02*
D03*
D26*
X268000Y90626D02*
D03*
X298500Y81563D02*
D03*
X268500Y65000D02*
D03*
D27*
X268000Y98500D02*
D03*
X171394Y99000D02*
D03*
X190606D02*
D03*
X13780Y165354D02*
D03*
X201126Y180500D02*
D03*
X298500Y89437D02*
D03*
X210343Y83500D02*
D03*
X151657D02*
D03*
X268500Y72874D02*
D03*
D30*
X318898Y103110D02*
D03*
D31*
Y113110D02*
D03*
Y123110D02*
D03*
Y133110D02*
D03*
D32*
X100000Y212500D02*
D03*
D33*
X90000Y222500D02*
D03*
X80000Y212500D02*
D03*
D38*
X182087Y62362D02*
D03*
D40*
Y54488D02*
D03*
X172244D02*
D03*
Y62362D02*
D03*
D41*
X200866Y43819D02*
D03*
X153465D02*
D03*
D42*
X21654Y165354D02*
D03*
X209000Y180500D02*
D03*
X190657Y83500D02*
D03*
X171343D02*
D03*
D44*
X125311Y181102D02*
D03*
X123622Y51181D02*
D03*
D45*
X135547Y181102D02*
D03*
X145783D02*
D03*
X137795Y70866D02*
D03*
Y31496D02*
D03*
D50*
X265000Y117000D02*
D03*
D51*
Y127000D02*
D03*
Y137000D02*
D03*
Y147000D02*
D03*
X235000Y117000D02*
D03*
Y127000D02*
D03*
Y137000D02*
D03*
Y147000D02*
D03*
X254000Y167500D02*
D03*
Y177500D02*
D03*
D52*
X82677Y94488D02*
D03*
Y84488D02*
D03*
Y104488D02*
D03*
Y114488D02*
D03*
X162165Y207598D02*
D03*
Y217598D02*
D03*
X172165Y207598D02*
D03*
X182165D02*
D03*
X172165Y217598D02*
D03*
X182165D02*
D03*
X192165Y207598D02*
D03*
Y217598D02*
D03*
X202165Y207598D02*
D03*
Y217598D02*
D03*
X212165Y207598D02*
D03*
Y217598D02*
D03*
X222165Y207598D02*
D03*
X152165Y217598D02*
D03*
X142165D02*
D03*
X132165D02*
D03*
X152165Y207598D02*
D03*
X142165D02*
D03*
X132165D02*
D03*
D53*
X82677Y74488D02*
D03*
D54*
X222165Y217598D02*
D03*
D55*
X236221Y80709D02*
D03*
Y21654D02*
D03*
D56*
X13780Y103110D02*
D03*
Y113228D02*
D03*
Y122992D02*
D03*
Y133110D02*
D03*
D57*
X182500Y167500D02*
D03*
X184500Y172500D02*
D03*
X163000Y168500D02*
D03*
X142000Y107000D02*
D03*
X138000Y123500D02*
D03*
X115000Y149500D02*
D03*
X132000D02*
D03*
X115000Y154500D02*
D03*
X131500D02*
D03*
X147000Y144000D02*
D03*
Y115500D02*
D03*
X131000Y110000D02*
D03*
X131500Y118500D02*
D03*
X147000Y109500D02*
D03*
X214500Y128102D02*
D03*
X225500Y139102D02*
D03*
X211500Y147000D02*
D03*
Y153500D02*
D03*
Y160500D02*
D03*
X173668Y170000D02*
D03*
X183000Y181000D02*
D03*
X184000Y184500D02*
D03*
X187500Y175500D02*
D03*
X190500Y178000D02*
D03*
X179000Y185000D02*
D03*
X178500Y189500D02*
D03*
X21353Y124120D02*
D03*
X70500Y94721D02*
D03*
X82500Y24779D02*
D03*
X21353Y133071D02*
D03*
X172000Y200525D02*
D03*
X254102Y146500D02*
D03*
Y137000D02*
D03*
X227500Y67646D02*
D03*
X245500Y67547D02*
D03*
D58*
X225500Y139102D02*
D03*
Y126898D02*
D03*
X214500Y128102D02*
D03*
Y115898D02*
D03*
D59*
X172000Y190475D02*
D03*
Y200525D02*
D03*
X73000Y35025D02*
D03*
Y24975D02*
D03*
X93000Y64025D02*
D03*
Y53975D02*
D03*
D60*
X241898Y137000D02*
D03*
X254102D02*
D03*
X241898Y146500D02*
D03*
X254102D02*
D03*
X125787Y61024D02*
D03*
X137992D02*
D03*
X21457Y124016D02*
D03*
X33661D02*
D03*
D61*
X70500Y84279D02*
D03*
Y94721D02*
D03*
X82500Y35221D02*
D03*
Y24779D02*
D03*
D62*
Y49756D02*
D03*
Y64244D02*
D03*
D63*
X227500Y48354D02*
D03*
Y67646D02*
D03*
D64*
X245500Y53453D02*
D03*
Y67547D02*
D03*
M02*
