G04*
G04 #@! TF.GenerationSoftware,Altium Limited,Altium Designer,21.3.2 (30)*
G04*
G04 Layer_Color=8388736*
%FSLAX25Y25*%
%MOIN*%
G70*
G04*
G04 #@! TF.SameCoordinates,3DC595B4-C491-417C-8E84-26B3D1DC1506*
G04*
G04*
G04 #@! TF.FilePolarity,Positive*
G04*
G01*
G75*
%ADD11C,0.00787*%
%ADD38C,0.00394*%
%ADD39R,0.17716X0.02854*%
D11*
X364016Y155374D02*
X384016D01*
X364016D02*
Y238327D01*
X384016D01*
Y155374D02*
Y238327D01*
X367323Y105906D02*
Y130315D01*
X341339Y105906D02*
X367323D01*
X341339D02*
Y130315D01*
X367323D01*
D38*
X375886Y117028D02*
X380020D01*
X375886Y119193D02*
X380020D01*
X375886Y117028D02*
Y119193D01*
X380020Y117028D02*
Y119193D01*
X131772Y6201D02*
Y41043D01*
X261929D01*
Y6201D02*
Y41043D01*
X131772Y6201D02*
X261929D01*
X11811Y114764D02*
X51181D01*
X11811Y82087D02*
X51181D01*
X11811D02*
Y114764D01*
X53543Y109744D02*
Y112303D01*
X51181Y110236D02*
X53543Y109744D01*
X51181Y111811D02*
X53543Y112303D01*
X51181Y111811D02*
Y114764D01*
X53543Y84547D02*
Y87106D01*
X51181Y85039D02*
X53543Y84547D01*
X51181Y86614D02*
X53543Y87106D01*
X51181Y82087D02*
Y85039D01*
Y86614D02*
Y110236D01*
D39*
X196850Y39616D02*
D03*
M02*
