G04*
G04 #@! TF.GenerationSoftware,Altium Limited,Altium Designer,21.3.2 (30)*
G04*
G04 Layer_Color=32768*
%FSLAX25Y25*%
%MOIN*%
G70*
G04*
G04 #@! TF.SameCoordinates,3DC595B4-C491-417C-8E84-26B3D1DC1506*
G04*
G04*
G04 #@! TF.FilePolarity,Positive*
G04*
G01*
G75*
%ADD37C,0.00591*%
D37*
X74804Y100393D02*
X73821Y101377D01*
X71853D01*
X70869Y100393D01*
Y99409D01*
X71853Y98425D01*
X73821D01*
X74804Y97441D01*
Y96457D01*
X73821Y95473D01*
X71853D01*
X70869Y96457D01*
X76772Y101377D02*
Y95473D01*
X78740Y97441D01*
X80708Y95473D01*
Y101377D01*
X85628Y95473D02*
Y101377D01*
X82676Y98425D01*
X86612D01*
X251970Y100393D02*
X250986Y101377D01*
X249018D01*
X248034Y100393D01*
Y99409D01*
X249018Y98425D01*
X250986D01*
X251970Y97441D01*
Y96457D01*
X250986Y95473D01*
X249018D01*
X248034Y96457D01*
X253938Y101377D02*
Y95473D01*
X255906Y97441D01*
X257873Y95473D01*
Y101377D01*
X259841Y100393D02*
X260825Y101377D01*
X262793D01*
X263777Y100393D01*
Y99409D01*
X262793Y98425D01*
X261809D01*
X262793D01*
X263777Y97441D01*
Y96457D01*
X262793Y95473D01*
X260825D01*
X259841Y96457D01*
X311025Y100393D02*
X310041Y101377D01*
X308073D01*
X307089Y100393D01*
Y99409D01*
X308073Y98425D01*
X310041D01*
X311025Y97441D01*
Y96457D01*
X310041Y95473D01*
X308073D01*
X307089Y96457D01*
X312993Y101377D02*
Y95473D01*
X314961Y97441D01*
X316929Y95473D01*
Y101377D01*
X322832Y95473D02*
X318896D01*
X322832Y99409D01*
Y100393D01*
X321848Y101377D01*
X319880D01*
X318896Y100393D01*
X134844D02*
X133860Y101377D01*
X131892D01*
X130908Y100393D01*
Y99409D01*
X131892Y98425D01*
X133860D01*
X134844Y97441D01*
Y96457D01*
X133860Y95473D01*
X131892D01*
X130908Y96457D01*
X136811Y101377D02*
Y95473D01*
X138779Y97441D01*
X140747Y95473D01*
Y101377D01*
X142715Y95473D02*
X144683D01*
X143699D01*
Y101377D01*
X142715Y100393D01*
M02*
