G04*
G04 #@! TF.GenerationSoftware,Altium Limited,Altium Designer,21.3.2 (30)*
G04*
G04 Layer_Physical_Order=2*
G04 Layer_Color=16711680*
%FSLAX25Y25*%
%MOIN*%
G70*
G04*
G04 #@! TF.SameCoordinates,3DC595B4-C491-417C-8E84-26B3D1DC1506*
G04*
G04*
G04 #@! TF.FilePolarity,Positive*
G04*
G01*
G75*
%ADD12C,0.01000*%
%ADD13R,0.04724X0.04724*%
%ADD14C,0.04724*%
%ADD15C,0.06181*%
%ADD16R,0.06181X0.06181*%
%ADD23C,0.06299*%
G04:AMPARAMS|DCode=24|XSize=62.99mil|YSize=62.99mil|CornerRadius=15.75mil|HoleSize=0mil|Usage=FLASHONLY|Rotation=0.000|XOffset=0mil|YOffset=0mil|HoleType=Round|Shape=RoundedRectangle|*
%AMROUNDEDRECTD24*
21,1,0.06299,0.03150,0,0,0.0*
21,1,0.03150,0.06299,0,0,0.0*
1,1,0.03150,0.01575,-0.01575*
1,1,0.03150,-0.01575,-0.01575*
1,1,0.03150,-0.01575,0.01575*
1,1,0.03150,0.01575,0.01575*
%
%ADD24ROUNDEDRECTD24*%
%ADD25C,0.07677*%
G04:AMPARAMS|DCode=26|XSize=76.77mil|YSize=76.77mil|CornerRadius=19.19mil|HoleSize=0mil|Usage=FLASHONLY|Rotation=180.000|XOffset=0mil|YOffset=0mil|HoleType=Round|Shape=RoundedRectangle|*
%AMROUNDEDRECTD26*
21,1,0.07677,0.03839,0,0,180.0*
21,1,0.03839,0.07677,0,0,180.0*
1,1,0.03839,-0.01919,0.01919*
1,1,0.03839,0.01919,0.01919*
1,1,0.03839,0.01919,-0.01919*
1,1,0.03839,-0.01919,-0.01919*
%
%ADD26ROUNDEDRECTD26*%
%ADD27C,0.05906*%
%ADD28C,0.05000*%
%ADD29R,0.01772X0.01772*%
%ADD30R,0.26378X0.26378*%
%ADD31R,0.06299X0.11811*%
%ADD32C,0.00886*%
G36*
X360115Y314606D02*
X363908Y313852D01*
X367610Y312729D01*
X371184Y311249D01*
X374595Y309425D01*
X377812Y307276D01*
X380802Y304822D01*
X383537Y302087D01*
X385991Y299097D01*
X388140Y295880D01*
X389964Y292469D01*
X391444Y288895D01*
X392567Y285193D01*
X393322Y281399D01*
X393701Y277550D01*
Y275616D01*
Y59080D01*
Y57790D01*
X393364Y55231D01*
X392696Y52739D01*
X391709Y50355D01*
X390418Y48120D01*
X388847Y46073D01*
X387023Y44248D01*
X384976Y42678D01*
X382741Y41387D01*
X380357Y40400D01*
X377864Y39732D01*
X375306Y39395D01*
X374016D01*
X372728Y39353D01*
X370175Y39017D01*
X367688Y38350D01*
X365309Y37365D01*
X363079Y36078D01*
X361036Y34510D01*
X359216Y32689D01*
X357648Y30646D01*
X356361Y28416D01*
X355375Y26038D01*
X354709Y23550D01*
X354373Y20998D01*
X354331Y19710D01*
Y18420D01*
X353994Y15861D01*
X353326Y13369D01*
X352339Y10985D01*
X351048Y8750D01*
X349477Y6703D01*
X347653Y4878D01*
X345605Y3307D01*
X343371Y2017D01*
X340987Y1030D01*
X338494Y362D01*
X335936Y25D01*
X58015D01*
X55457Y362D01*
X52964Y1030D01*
X50580Y2017D01*
X48345Y3307D01*
X46298Y4878D01*
X44473Y6703D01*
X42902Y8750D01*
X41612Y10985D01*
X40625Y13369D01*
X39957Y15861D01*
X39620Y18420D01*
Y19710D01*
X39578Y20998D01*
X39242Y23550D01*
X38575Y26038D01*
X37590Y28416D01*
X36303Y30646D01*
X34735Y32689D01*
X32914Y34510D01*
X30871Y36078D01*
X28642Y37365D01*
X26263Y38350D01*
X23775Y39017D01*
X21223Y39353D01*
X19935Y39395D01*
X18645D01*
X16086Y39732D01*
X13594Y40400D01*
X11210Y41387D01*
X8975Y42678D01*
X6928Y44248D01*
X5103Y46073D01*
X3532Y48120D01*
X2242Y50355D01*
X1255Y52739D01*
X587Y55231D01*
X250Y57790D01*
Y59080D01*
Y275616D01*
Y277550D01*
X629Y281399D01*
X1384Y285193D01*
X2507Y288895D01*
X3987Y292469D01*
X5810Y295880D01*
X7960Y299097D01*
X10414Y302087D01*
X13149Y304822D01*
X16139Y307276D01*
X19355Y309425D01*
X22767Y311249D01*
X26341Y312729D01*
X30042Y313852D01*
X33836Y314606D01*
X37686Y314986D01*
X356265D01*
X360115Y314606D01*
D02*
G37*
%LPC*%
G36*
X378512Y221692D02*
Y218866D01*
X381337D01*
X381288Y219244D01*
X380949Y220062D01*
X380410Y220764D01*
X379707Y221303D01*
X378889Y221642D01*
X378512Y221692D01*
D02*
G37*
G36*
X377512D02*
X377134Y221642D01*
X376316Y221303D01*
X375614Y220764D01*
X375075Y220062D01*
X374736Y219244D01*
X374686Y218866D01*
X377512D01*
Y221692D01*
D02*
G37*
G36*
X381337Y217866D02*
X378512D01*
Y215041D01*
X378889Y215090D01*
X379707Y215429D01*
X380410Y215968D01*
X380949Y216671D01*
X381288Y217489D01*
X381337Y217866D01*
D02*
G37*
G36*
X377512D02*
X374686D01*
X374736Y217489D01*
X375075Y216671D01*
X375614Y215968D01*
X376316Y215429D01*
X377134Y215090D01*
X377512Y215041D01*
Y217866D01*
D02*
G37*
G36*
X368012Y201344D02*
X367241Y201243D01*
X366523Y200945D01*
X365906Y200472D01*
X365433Y199855D01*
X365276Y199478D01*
X343917D01*
X343492Y199393D01*
X343131Y199152D01*
X343131Y199152D01*
X304737Y160758D01*
X303993Y161067D01*
X303032Y161193D01*
X302071Y161067D01*
X301175Y160696D01*
X300406Y160106D01*
X299816Y159337D01*
X299445Y158441D01*
X299319Y157480D01*
X299445Y156519D01*
X299816Y155624D01*
X300406Y154855D01*
X301175Y154265D01*
X302071Y153894D01*
X303032Y153768D01*
X303993Y153894D01*
X304888Y154265D01*
X305657Y154855D01*
X306247Y155624D01*
X306618Y156519D01*
X306745Y157480D01*
X306618Y158441D01*
X306310Y159186D01*
X344378Y197254D01*
X365276D01*
X365433Y196877D01*
X365906Y196260D01*
X366523Y195787D01*
X367241Y195490D01*
X368012Y195388D01*
X368783Y195490D01*
X369501Y195787D01*
X370118Y196260D01*
X370591Y196877D01*
X370888Y197595D01*
X370990Y198366D01*
X370888Y199137D01*
X370591Y199855D01*
X370118Y200472D01*
X369501Y200945D01*
X368783Y201243D01*
X368012Y201344D01*
D02*
G37*
G36*
X380965Y171319D02*
X375059D01*
Y169478D01*
X323918D01*
X323917Y169478D01*
X323492Y169394D01*
X323131Y169152D01*
X323131Y169152D01*
X314737Y160758D01*
X313993Y161067D01*
X313032Y161193D01*
X312071Y161067D01*
X311175Y160696D01*
X310406Y160106D01*
X309816Y159337D01*
X309445Y158441D01*
X309319Y157480D01*
X309445Y156519D01*
X309754Y155775D01*
X302800Y148821D01*
X195024D01*
X194777Y149321D01*
X195100Y149741D01*
X195285Y150188D01*
X236851D01*
X236851Y150188D01*
X237277Y150273D01*
X237637Y150514D01*
X241326Y154202D01*
X242071Y153894D01*
X243032Y153768D01*
X243993Y153894D01*
X244888Y154265D01*
X245657Y154855D01*
X246247Y155624D01*
X246618Y156519D01*
X246744Y157480D01*
X246618Y158441D01*
X246247Y159337D01*
X245657Y160106D01*
X244888Y160696D01*
X243993Y161067D01*
X243032Y161193D01*
X242071Y161067D01*
X241175Y160696D01*
X240406Y160106D01*
X239816Y159337D01*
X239445Y158441D01*
X239319Y157480D01*
X239445Y156519D01*
X239754Y155775D01*
X236391Y152412D01*
X195285D01*
X195100Y152859D01*
X194604Y153504D01*
X194457Y153618D01*
X194522Y154113D01*
X194888Y154265D01*
X195657Y154855D01*
X196247Y155624D01*
X196618Y156519D01*
X196745Y157480D01*
X196618Y158441D01*
X196247Y159337D01*
X195657Y160106D01*
X194888Y160696D01*
X193993Y161067D01*
X193032Y161193D01*
X192071Y161067D01*
X191175Y160696D01*
X190406Y160106D01*
X189816Y159337D01*
X189445Y158441D01*
X189319Y157480D01*
X189445Y156519D01*
X189816Y155624D01*
X190406Y154855D01*
X190825Y154534D01*
X190834Y154250D01*
X190770Y153945D01*
X190196Y153504D01*
X189801Y152990D01*
X189223Y152861D01*
X186310Y155775D01*
X186618Y156519D01*
X186744Y157480D01*
X186618Y158441D01*
X186247Y159337D01*
X185657Y160106D01*
X184888Y160696D01*
X183993Y161067D01*
X183032Y161193D01*
X182071Y161067D01*
X181175Y160696D01*
X180659Y160300D01*
X180115Y160513D01*
X180082Y160710D01*
X182861Y163488D01*
X285451D01*
X289754Y159186D01*
X289445Y158441D01*
X289319Y157480D01*
X289445Y156519D01*
X289816Y155624D01*
X290406Y154855D01*
X291175Y154265D01*
X292071Y153894D01*
X293032Y153768D01*
X293993Y153894D01*
X294888Y154265D01*
X295657Y154855D01*
X296247Y155624D01*
X296618Y156519D01*
X296744Y157480D01*
X296618Y158441D01*
X296247Y159337D01*
X295657Y160106D01*
X294888Y160696D01*
X293993Y161067D01*
X293032Y161193D01*
X292071Y161067D01*
X291326Y160758D01*
X286698Y165386D01*
X286337Y165627D01*
X285912Y165712D01*
X285912Y165712D01*
X182400D01*
X182400Y165712D01*
X181974Y165627D01*
X181614Y165386D01*
X178014Y161786D01*
X177773Y161425D01*
X177688Y161000D01*
X177688Y161000D01*
Y140085D01*
X177241Y139900D01*
X176596Y139404D01*
X176100Y138759D01*
X175789Y138007D01*
X175683Y137200D01*
X175789Y136393D01*
X176100Y135641D01*
X176596Y134996D01*
X177241Y134500D01*
X177993Y134189D01*
X178800Y134083D01*
X179607Y134189D01*
X180359Y134500D01*
X181004Y134996D01*
X181500Y135641D01*
X181811Y136393D01*
X181917Y137200D01*
X181811Y138007D01*
X181500Y138759D01*
X181004Y139404D01*
X180359Y139900D01*
X179912Y140085D01*
Y154721D01*
X180221Y154826D01*
X180412Y154851D01*
X181175Y154265D01*
X182071Y153894D01*
X183032Y153768D01*
X183993Y153894D01*
X184737Y154202D01*
X187688Y151251D01*
Y149309D01*
X187688Y149309D01*
X187773Y148884D01*
X188014Y148523D01*
X189614Y146923D01*
X189614Y146923D01*
X189974Y146682D01*
X190400Y146598D01*
X303261D01*
X303261Y146598D01*
X303686Y146682D01*
X304047Y146923D01*
X311326Y154202D01*
X312071Y153894D01*
X313032Y153768D01*
X313993Y153894D01*
X314888Y154265D01*
X315657Y154855D01*
X316247Y155624D01*
X316618Y156519D01*
X316744Y157480D01*
X316618Y158441D01*
X316310Y159186D01*
X318441Y161317D01*
X318941Y161110D01*
Y157980D01*
X322532D01*
Y161571D01*
X319402D01*
X319195Y162071D01*
X324378Y167254D01*
X375059D01*
Y165413D01*
X380965D01*
Y171319D01*
D02*
G37*
G36*
X327122Y161571D02*
X323532D01*
Y157980D01*
X327122D01*
Y161571D01*
D02*
G37*
G36*
X173532Y161540D02*
Y157980D01*
X177092D01*
X177017Y158548D01*
X176605Y159543D01*
X175949Y160398D01*
X175094Y161054D01*
X174100Y161466D01*
X173532Y161540D01*
D02*
G37*
G36*
X172532D02*
X171964Y161466D01*
X170969Y161054D01*
X170114Y160398D01*
X169458Y159543D01*
X169046Y158548D01*
X168972Y157980D01*
X172532D01*
Y161540D01*
D02*
G37*
G36*
X283032Y161193D02*
X282071Y161067D01*
X281175Y160696D01*
X280406Y160106D01*
X279816Y159337D01*
X279445Y158441D01*
X279319Y157480D01*
X279445Y156519D01*
X279816Y155624D01*
X280406Y154855D01*
X281175Y154265D01*
X282071Y153894D01*
X283032Y153768D01*
X283993Y153894D01*
X284888Y154265D01*
X285657Y154855D01*
X286247Y155624D01*
X286618Y156519D01*
X286744Y157480D01*
X286618Y158441D01*
X286247Y159337D01*
X285657Y160106D01*
X284888Y160696D01*
X283993Y161067D01*
X283032Y161193D01*
D02*
G37*
G36*
X273032D02*
X272071Y161067D01*
X271175Y160696D01*
X270406Y160106D01*
X269816Y159337D01*
X269445Y158441D01*
X269319Y157480D01*
X269445Y156519D01*
X269816Y155624D01*
X270406Y154855D01*
X271175Y154265D01*
X272071Y153894D01*
X273032Y153768D01*
X273993Y153894D01*
X274888Y154265D01*
X275657Y154855D01*
X276247Y155624D01*
X276618Y156519D01*
X276745Y157480D01*
X276618Y158441D01*
X276247Y159337D01*
X275657Y160106D01*
X274888Y160696D01*
X273993Y161067D01*
X273032Y161193D01*
D02*
G37*
G36*
X263032D02*
X262071Y161067D01*
X261175Y160696D01*
X260406Y160106D01*
X259816Y159337D01*
X259445Y158441D01*
X259319Y157480D01*
X259445Y156519D01*
X259816Y155624D01*
X260406Y154855D01*
X261175Y154265D01*
X262071Y153894D01*
X263032Y153768D01*
X263993Y153894D01*
X264888Y154265D01*
X265657Y154855D01*
X266247Y155624D01*
X266618Y156519D01*
X266744Y157480D01*
X266618Y158441D01*
X266247Y159337D01*
X265657Y160106D01*
X264888Y160696D01*
X263993Y161067D01*
X263032Y161193D01*
D02*
G37*
G36*
X253032D02*
X252071Y161067D01*
X251175Y160696D01*
X250406Y160106D01*
X249816Y159337D01*
X249445Y158441D01*
X249319Y157480D01*
X249445Y156519D01*
X249816Y155624D01*
X250406Y154855D01*
X251175Y154265D01*
X252071Y153894D01*
X253032Y153768D01*
X253993Y153894D01*
X254888Y154265D01*
X255657Y154855D01*
X256247Y155624D01*
X256618Y156519D01*
X256745Y157480D01*
X256618Y158441D01*
X256247Y159337D01*
X255657Y160106D01*
X254888Y160696D01*
X253993Y161067D01*
X253032Y161193D01*
D02*
G37*
G36*
X233032D02*
X232071Y161067D01*
X231175Y160696D01*
X230406Y160106D01*
X229816Y159337D01*
X229445Y158441D01*
X229319Y157480D01*
X229445Y156519D01*
X229816Y155624D01*
X230406Y154855D01*
X231175Y154265D01*
X232071Y153894D01*
X233032Y153768D01*
X233993Y153894D01*
X234888Y154265D01*
X235657Y154855D01*
X236247Y155624D01*
X236618Y156519D01*
X236744Y157480D01*
X236618Y158441D01*
X236247Y159337D01*
X235657Y160106D01*
X234888Y160696D01*
X233993Y161067D01*
X233032Y161193D01*
D02*
G37*
G36*
X223032D02*
X222071Y161067D01*
X221175Y160696D01*
X220406Y160106D01*
X219816Y159337D01*
X219445Y158441D01*
X219319Y157480D01*
X219445Y156519D01*
X219816Y155624D01*
X220406Y154855D01*
X221175Y154265D01*
X222071Y153894D01*
X223032Y153768D01*
X223993Y153894D01*
X224888Y154265D01*
X225657Y154855D01*
X226247Y155624D01*
X226618Y156519D01*
X226745Y157480D01*
X226618Y158441D01*
X226247Y159337D01*
X225657Y160106D01*
X224888Y160696D01*
X223993Y161067D01*
X223032Y161193D01*
D02*
G37*
G36*
X213032D02*
X212071Y161067D01*
X211175Y160696D01*
X210406Y160106D01*
X209816Y159337D01*
X209445Y158441D01*
X209319Y157480D01*
X209445Y156519D01*
X209816Y155624D01*
X210406Y154855D01*
X211175Y154265D01*
X212071Y153894D01*
X213032Y153768D01*
X213993Y153894D01*
X214888Y154265D01*
X215657Y154855D01*
X216247Y155624D01*
X216618Y156519D01*
X216744Y157480D01*
X216618Y158441D01*
X216247Y159337D01*
X215657Y160106D01*
X214888Y160696D01*
X213993Y161067D01*
X213032Y161193D01*
D02*
G37*
G36*
X203032D02*
X202071Y161067D01*
X201175Y160696D01*
X200406Y160106D01*
X199816Y159337D01*
X199445Y158441D01*
X199319Y157480D01*
X199445Y156519D01*
X199816Y155624D01*
X200406Y154855D01*
X201175Y154265D01*
X202071Y153894D01*
X203032Y153768D01*
X203993Y153894D01*
X204888Y154265D01*
X205657Y154855D01*
X206247Y155624D01*
X206618Y156519D01*
X206745Y157480D01*
X206618Y158441D01*
X206247Y159337D01*
X205657Y160106D01*
X204888Y160696D01*
X203993Y161067D01*
X203032Y161193D01*
D02*
G37*
G36*
X177092Y156980D02*
X173532D01*
Y153420D01*
X174100Y153495D01*
X175094Y153907D01*
X175949Y154563D01*
X176605Y155418D01*
X177017Y156413D01*
X177092Y156980D01*
D02*
G37*
G36*
X172532D02*
X168972D01*
X169046Y156413D01*
X169458Y155418D01*
X170114Y154563D01*
X170969Y153907D01*
X171964Y153495D01*
X172532Y153420D01*
Y156980D01*
D02*
G37*
G36*
X327122D02*
X323532D01*
Y153390D01*
X327122D01*
Y156980D01*
D02*
G37*
G36*
X322532D02*
X318941D01*
Y153390D01*
X322532D01*
Y156980D01*
D02*
G37*
G36*
X368110Y137352D02*
X340551D01*
Y124685D01*
X46801D01*
X46801Y124685D01*
X46376Y124600D01*
X46015Y124359D01*
X46015Y124359D01*
X23923Y102267D01*
X23887Y102294D01*
X22810Y102740D01*
X21654Y102893D01*
X20497Y102740D01*
X19420Y102294D01*
X18495Y101584D01*
X17785Y100659D01*
X17338Y99581D01*
X17186Y98425D01*
X17338Y97269D01*
X17785Y96192D01*
X18495Y95266D01*
X19420Y94556D01*
X20497Y94110D01*
X21654Y93958D01*
X22810Y94110D01*
X23887Y94556D01*
X24813Y95266D01*
X25522Y96192D01*
X25969Y97269D01*
X26121Y98425D01*
X25969Y99581D01*
X25522Y100659D01*
X25495Y100694D01*
X47262Y122461D01*
X340551D01*
Y109793D01*
X368110D01*
Y137352D01*
D02*
G37*
G36*
X221300Y112512D02*
X221300Y112512D01*
X95652D01*
X95227Y112427D01*
X94866Y112186D01*
X93135Y110456D01*
X92460Y110735D01*
X91535Y110857D01*
X90610Y110735D01*
X89749Y110379D01*
X89008Y109810D01*
X88440Y109070D01*
X88161Y108395D01*
X69319D01*
X69040Y109070D01*
X68472Y109810D01*
X67732Y110379D01*
X66870Y110735D01*
X65945Y110857D01*
X65020Y110735D01*
X64158Y110379D01*
X63418Y109810D01*
X62850Y109070D01*
X62493Y108208D01*
X62371Y107283D01*
X62493Y106358D01*
X62850Y105497D01*
X63418Y104756D01*
X64158Y104188D01*
X65020Y103831D01*
X65945Y103709D01*
X66870Y103831D01*
X67732Y104188D01*
X68472Y104756D01*
X69040Y105497D01*
X69319Y106172D01*
X88161D01*
X88440Y105497D01*
X89008Y104756D01*
X89749Y104188D01*
X90610Y103831D01*
X91535Y103709D01*
X92460Y103831D01*
X93322Y104188D01*
X94063Y104756D01*
X94630Y105497D01*
X94987Y106358D01*
X95109Y107283D01*
X94987Y108208D01*
X94708Y108883D01*
X96113Y110288D01*
X122318D01*
X122428Y109963D01*
X122456Y109788D01*
X121905Y109070D01*
X121548Y108208D01*
X121426Y107283D01*
X121548Y106358D01*
X121905Y105497D01*
X122473Y104756D01*
X123213Y104188D01*
X124075Y103831D01*
X125000Y103709D01*
X125925Y103831D01*
X126787Y104188D01*
X127527Y104756D01*
X128095Y105497D01*
X128375Y106172D01*
X147216D01*
X147495Y105497D01*
X148064Y104756D01*
X148804Y104188D01*
X149666Y103831D01*
X150591Y103709D01*
X151516Y103831D01*
X152377Y104188D01*
X153118Y104756D01*
X153686Y105497D01*
X154043Y106358D01*
X154165Y107283D01*
X154043Y108208D01*
X153686Y109070D01*
X153135Y109788D01*
X153163Y109963D01*
X153273Y110288D01*
X195283D01*
X195316Y109788D01*
X194650Y109701D01*
X194612Y109678D01*
X194568Y109684D01*
X193197Y109317D01*
X193162Y109290D01*
X193118D01*
X191807Y108747D01*
X191776Y108716D01*
X191732Y108710D01*
X190503Y108000D01*
X190476Y107965D01*
X190433Y107954D01*
X189307Y107090D01*
X189285Y107052D01*
X189244Y107035D01*
X188241Y106031D01*
X188224Y105990D01*
X188186Y105968D01*
X187322Y104842D01*
X187310Y104800D01*
X187275Y104773D01*
X186566Y103544D01*
X186560Y103500D01*
X186529Y103469D01*
X185986Y102157D01*
Y102113D01*
X185959Y102078D01*
X185591Y100707D01*
X185597Y100664D01*
X185575Y100625D01*
X185390Y99218D01*
X185401Y99176D01*
X185384Y99135D01*
Y97716D01*
X185401Y97675D01*
X185390Y97632D01*
X185575Y96225D01*
X185597Y96187D01*
X185591Y96143D01*
X185959Y94772D01*
X185986Y94737D01*
Y94693D01*
X186529Y93382D01*
X186560Y93350D01*
X186566Y93307D01*
X187275Y92078D01*
X187310Y92051D01*
X187322Y92008D01*
X188186Y90882D01*
X188224Y90860D01*
X188241Y90819D01*
X189244Y89816D01*
X189285Y89799D01*
X189307Y89761D01*
X190433Y88897D01*
X190476Y88885D01*
X190503Y88850D01*
X191732Y88141D01*
X191776Y88135D01*
X191807Y88104D01*
X193118Y87560D01*
X193162D01*
X193197Y87534D01*
X194568Y87166D01*
X194612Y87172D01*
X194650Y87150D01*
X196057Y86965D01*
X196100Y86976D01*
X196141Y86959D01*
X197560D01*
X197601Y86976D01*
X197643Y86965D01*
X199050Y87150D01*
X199089Y87172D01*
X199133Y87166D01*
X200503Y87534D01*
X200538Y87560D01*
X200583D01*
X201894Y88104D01*
X201925Y88135D01*
X201969Y88141D01*
X203198Y88850D01*
X203225Y88885D01*
X203267Y88897D01*
X204393Y89761D01*
X204415Y89799D01*
X204456Y89816D01*
X205460Y90819D01*
X205477Y90860D01*
X205515Y90882D01*
X206379Y92008D01*
X206390Y92051D01*
X206425Y92078D01*
X207135Y93307D01*
X207141Y93350D01*
X207172Y93382D01*
X207715Y94693D01*
Y94737D01*
X207742Y94772D01*
X208109Y96143D01*
X208104Y96187D01*
X208126Y96225D01*
X208311Y97632D01*
X208299Y97675D01*
X208316Y97716D01*
Y99135D01*
X208299Y99176D01*
X208311Y99218D01*
X208126Y100625D01*
X208104Y100664D01*
X208109Y100707D01*
X207742Y102078D01*
X207715Y102113D01*
Y102157D01*
X207172Y103469D01*
X207141Y103500D01*
X207135Y103544D01*
X206425Y104773D01*
X206390Y104800D01*
X206379Y104842D01*
X205515Y105968D01*
X205477Y105990D01*
X205460Y106031D01*
X204456Y107035D01*
X204415Y107052D01*
X204393Y107090D01*
X203267Y107954D01*
X203225Y107965D01*
X203198Y108000D01*
X201969Y108710D01*
X201925Y108716D01*
X201894Y108747D01*
X200583Y109290D01*
X200538D01*
X200503Y109317D01*
X199133Y109684D01*
X199089Y109678D01*
X199050Y109701D01*
X198385Y109788D01*
X198418Y110288D01*
X220839D01*
X234474Y96653D01*
X234289Y96207D01*
X234183Y95400D01*
X234289Y94593D01*
X234600Y93841D01*
X235096Y93196D01*
X235741Y92700D01*
X236493Y92389D01*
X237300Y92283D01*
X238107Y92389D01*
X238859Y92700D01*
X239504Y93196D01*
X240000Y93841D01*
X240311Y94593D01*
X240417Y95400D01*
X240311Y96207D01*
X240000Y96959D01*
X239504Y97604D01*
X238859Y98100D01*
X238107Y98411D01*
X237300Y98517D01*
X236493Y98411D01*
X236047Y98226D01*
X222086Y112186D01*
X221726Y112427D01*
X221300Y112512D01*
D02*
G37*
G36*
X268701Y110857D02*
X267776Y110735D01*
X266914Y110379D01*
X266174Y109810D01*
X265606Y109070D01*
X265326Y108395D01*
X246485D01*
X246205Y109070D01*
X245637Y109810D01*
X244897Y110379D01*
X244035Y110735D01*
X243110Y110857D01*
X242185Y110735D01*
X241323Y110379D01*
X240583Y109810D01*
X240015Y109070D01*
X239658Y108208D01*
X239536Y107283D01*
X239658Y106358D01*
X240015Y105497D01*
X240583Y104756D01*
X241323Y104188D01*
X242185Y103831D01*
X243110Y103709D01*
X244035Y103831D01*
X244897Y104188D01*
X245637Y104756D01*
X246205Y105497D01*
X246485Y106172D01*
X265326D01*
X265606Y105497D01*
X266174Y104756D01*
X266914Y104188D01*
X267776Y103831D01*
X268701Y103709D01*
X269626Y103831D01*
X270488Y104188D01*
X271228Y104756D01*
X271796Y105497D01*
X272153Y106358D01*
X272275Y107283D01*
X272153Y108208D01*
X271796Y109070D01*
X271228Y109810D01*
X270488Y110379D01*
X269626Y110735D01*
X268701Y110857D01*
D02*
G37*
G36*
X367126Y103888D02*
X359646D01*
Y90896D01*
X367126D01*
Y103888D01*
D02*
G37*
G36*
X349016D02*
X341535D01*
Y90896D01*
X349016D01*
Y103888D01*
D02*
G37*
G36*
X301665Y93488D02*
X301133Y93418D01*
X300172Y93020D01*
X299346Y92386D01*
X298713Y91560D01*
X298347Y90679D01*
X272519D01*
X272153Y91560D01*
X271520Y92386D01*
X270694Y93020D01*
X269733Y93418D01*
X269201Y93488D01*
Y89567D01*
Y85646D01*
X269733Y85716D01*
X270694Y86114D01*
X271520Y86748D01*
X272153Y87574D01*
X272519Y88455D01*
X298347D01*
X298713Y87574D01*
X299346Y86748D01*
X300172Y86114D01*
X301133Y85716D01*
X301665Y85646D01*
Y89567D01*
Y93488D01*
D02*
G37*
G36*
X268201D02*
X267669Y93418D01*
X266707Y93020D01*
X265882Y92386D01*
X265248Y91560D01*
X264883Y90679D01*
X246928D01*
X246563Y91560D01*
X245929Y92386D01*
X245104Y93020D01*
X244142Y93418D01*
X243610Y93488D01*
Y89567D01*
Y85646D01*
X244142Y85716D01*
X245104Y86114D01*
X245929Y86748D01*
X246563Y87574D01*
X246928Y88455D01*
X264883D01*
X265248Y87574D01*
X265882Y86748D01*
X266707Y86114D01*
X267669Y85716D01*
X268201Y85646D01*
Y89567D01*
Y93488D01*
D02*
G37*
G36*
X150091D02*
X149559Y93418D01*
X148597Y93020D01*
X147772Y92386D01*
X147138Y91560D01*
X146773Y90679D01*
X128818D01*
X128453Y91560D01*
X127819Y92386D01*
X126993Y93020D01*
X126032Y93418D01*
X125500Y93488D01*
Y89567D01*
Y85646D01*
X126032Y85716D01*
X126993Y86114D01*
X127819Y86748D01*
X128453Y87574D01*
X128818Y88455D01*
X146773D01*
X147138Y87574D01*
X147772Y86748D01*
X148597Y86114D01*
X149559Y85716D01*
X150091Y85646D01*
Y89567D01*
Y93488D01*
D02*
G37*
G36*
X124500D02*
X123968Y93418D01*
X123007Y93020D01*
X122181Y92386D01*
X121547Y91560D01*
X121182Y90679D01*
X95353D01*
X94988Y91560D01*
X94354Y92386D01*
X93529Y93020D01*
X92567Y93418D01*
X92035Y93488D01*
Y89567D01*
Y85646D01*
X92567Y85716D01*
X93529Y86114D01*
X94354Y86748D01*
X94988Y87574D01*
X95353Y88455D01*
X121182D01*
X121547Y87574D01*
X122181Y86748D01*
X123007Y86114D01*
X123968Y85716D01*
X124500Y85646D01*
Y89567D01*
Y93488D01*
D02*
G37*
G36*
X91035D02*
X90504Y93418D01*
X89542Y93020D01*
X88716Y92386D01*
X88083Y91560D01*
X87717Y90679D01*
X69763D01*
X69397Y91560D01*
X68764Y92386D01*
X67938Y93020D01*
X66977Y93418D01*
X66445Y93488D01*
Y89567D01*
Y85646D01*
X66977Y85716D01*
X67938Y86114D01*
X68764Y86748D01*
X69397Y87574D01*
X69763Y88455D01*
X87717D01*
X88083Y87574D01*
X88716Y86748D01*
X89542Y86114D01*
X90504Y85716D01*
X91035Y85646D01*
Y89567D01*
Y93488D01*
D02*
G37*
G36*
X242610D02*
X242078Y93418D01*
X241117Y93020D01*
X240291Y92386D01*
X239657Y91560D01*
X239259Y90599D01*
X239189Y90067D01*
X242610D01*
Y93488D01*
D02*
G37*
G36*
X151091D02*
Y90067D01*
X154512D01*
X154442Y90599D01*
X154043Y91560D01*
X153410Y92386D01*
X152584Y93020D01*
X151622Y93418D01*
X151091Y93488D01*
D02*
G37*
G36*
X65445D02*
X64913Y93418D01*
X63951Y93020D01*
X63126Y92386D01*
X62492Y91560D01*
X62094Y90599D01*
X62024Y90067D01*
X65445D01*
Y93488D01*
D02*
G37*
G36*
Y89067D02*
X62024D01*
X62094Y88535D01*
X62492Y87574D01*
X63126Y86748D01*
X63951Y86114D01*
X64913Y85716D01*
X65445Y85646D01*
Y89067D01*
D02*
G37*
G36*
X242610D02*
X239189D01*
X239259Y88535D01*
X239624Y87654D01*
X235683Y83712D01*
X158018D01*
X154077Y87654D01*
X154442Y88535D01*
X154512Y89067D01*
X151091D01*
Y85646D01*
X151622Y85716D01*
X152504Y86081D01*
X156771Y81814D01*
X156771Y81814D01*
X157132Y81573D01*
X157558Y81488D01*
X157558Y81488D01*
X236143D01*
X236143Y81488D01*
X236569Y81573D01*
X236929Y81814D01*
X241197Y86081D01*
X242078Y85716D01*
X242610Y85646D01*
Y89067D01*
D02*
G37*
G36*
X315670Y50836D02*
X314251D01*
X314210Y50819D01*
X314168Y50831D01*
X312760Y50645D01*
X312722Y50623D01*
X312679Y50629D01*
X311308Y50262D01*
X311273Y50235D01*
X311228D01*
X309917Y49692D01*
X309886Y49661D01*
X309842Y49655D01*
X308613Y48945D01*
X308586Y48910D01*
X308544Y48899D01*
X307418Y48035D01*
X307396Y47996D01*
X307355Y47980D01*
X306351Y46976D01*
X306334Y46935D01*
X306296Y46913D01*
X305432Y45787D01*
X305421Y45744D01*
X305386Y45718D01*
X304676Y44488D01*
X304670Y44445D01*
X304639Y44414D01*
X304096Y43102D01*
Y43058D01*
X304069Y43023D01*
X303702Y41652D01*
X303707Y41609D01*
X303685Y41570D01*
X303500Y40163D01*
X303512Y40121D01*
X303495Y40080D01*
Y38660D01*
X303512Y38620D01*
X303500Y38577D01*
X303685Y37170D01*
X303707Y37132D01*
X303702Y37088D01*
X304069Y35717D01*
X304096Y35682D01*
Y35638D01*
X304639Y34327D01*
X304670Y34295D01*
X304676Y34252D01*
X305386Y33022D01*
X305421Y32996D01*
X305432Y32953D01*
X306296Y31827D01*
X306334Y31805D01*
X306351Y31764D01*
X307355Y30761D01*
X307396Y30744D01*
X307418Y30705D01*
X308544Y29842D01*
X308586Y29830D01*
X308613Y29795D01*
X309842Y29085D01*
X309886Y29080D01*
X309917Y29048D01*
X311228Y28505D01*
X311273D01*
X311308Y28478D01*
X312679Y28111D01*
X312722Y28117D01*
X312760Y28095D01*
X314168Y27910D01*
X314210Y27921D01*
X314251Y27904D01*
X315670D01*
X315711Y27921D01*
X315754Y27910D01*
X317161Y28095D01*
X317199Y28117D01*
X317243Y28111D01*
X318614Y28478D01*
X318649Y28505D01*
X318693D01*
X320004Y29048D01*
X320035Y29080D01*
X320079Y29085D01*
X321308Y29795D01*
X321335Y29830D01*
X321378Y29842D01*
X322504Y30705D01*
X322526Y30744D01*
X322567Y30761D01*
X323570Y31764D01*
X323587Y31805D01*
X323625Y31827D01*
X324489Y32953D01*
X324501Y32996D01*
X324536Y33022D01*
X325245Y34252D01*
X325251Y34295D01*
X325282Y34327D01*
X325825Y35638D01*
Y35682D01*
X325852Y35717D01*
X326220Y37088D01*
X326214Y37132D01*
X326236Y37170D01*
X326421Y38577D01*
X326410Y38620D01*
X326427Y38660D01*
Y40080D01*
X326410Y40121D01*
X326421Y40163D01*
X326236Y41570D01*
X326214Y41609D01*
X326220Y41652D01*
X325852Y43023D01*
X325825Y43058D01*
Y43102D01*
X325282Y44414D01*
X325251Y44445D01*
X325245Y44488D01*
X324536Y45718D01*
X324501Y45744D01*
X324489Y45787D01*
X323625Y46913D01*
X323587Y46935D01*
X323570Y46976D01*
X322567Y47980D01*
X322526Y47996D01*
X322504Y48035D01*
X321378Y48899D01*
X321335Y48910D01*
X321308Y48945D01*
X320079Y49655D01*
X320035Y49661D01*
X320004Y49692D01*
X318693Y50235D01*
X318649D01*
X318614Y50262D01*
X317243Y50629D01*
X317199Y50623D01*
X317161Y50645D01*
X315754Y50831D01*
X315711Y50819D01*
X315670Y50836D01*
D02*
G37*
G36*
X79450D02*
X78031D01*
X77990Y50819D01*
X77947Y50831D01*
X76540Y50645D01*
X76502Y50623D01*
X76458Y50629D01*
X75087Y50262D01*
X75052Y50235D01*
X75008D01*
X73697Y49692D01*
X73665Y49661D01*
X73622Y49655D01*
X72393Y48945D01*
X72366Y48910D01*
X72323Y48899D01*
X71197Y48035D01*
X71175Y47996D01*
X71134Y47980D01*
X70131Y46976D01*
X70114Y46935D01*
X70076Y46913D01*
X69212Y45787D01*
X69200Y45744D01*
X69165Y45718D01*
X68455Y44488D01*
X68450Y44445D01*
X68419Y44414D01*
X67875Y43102D01*
Y43058D01*
X67848Y43023D01*
X67481Y41652D01*
X67487Y41609D01*
X67465Y41570D01*
X67280Y40163D01*
X67291Y40121D01*
X67274Y40080D01*
Y38660D01*
X67291Y38620D01*
X67280Y38577D01*
X67465Y37170D01*
X67487Y37132D01*
X67481Y37088D01*
X67848Y35717D01*
X67875Y35682D01*
Y35638D01*
X68419Y34327D01*
X68450Y34295D01*
X68455Y34252D01*
X69165Y33022D01*
X69200Y32996D01*
X69212Y32953D01*
X70076Y31827D01*
X70114Y31805D01*
X70131Y31764D01*
X71134Y30761D01*
X71175Y30744D01*
X71197Y30705D01*
X72323Y29842D01*
X72366Y29830D01*
X72393Y29795D01*
X73622Y29085D01*
X73665Y29080D01*
X73697Y29048D01*
X75008Y28505D01*
X75052D01*
X75087Y28478D01*
X76458Y28111D01*
X76502Y28117D01*
X76540Y28095D01*
X77947Y27910D01*
X77990Y27921D01*
X78031Y27904D01*
X79450D01*
X79491Y27921D01*
X79533Y27910D01*
X80940Y28095D01*
X80979Y28117D01*
X81022Y28111D01*
X82393Y28478D01*
X82428Y28505D01*
X82472D01*
X83784Y29048D01*
X83815Y29080D01*
X83859Y29085D01*
X85088Y29795D01*
X85115Y29830D01*
X85157Y29842D01*
X86283Y30705D01*
X86305Y30744D01*
X86346Y30761D01*
X87350Y31764D01*
X87366Y31805D01*
X87405Y31827D01*
X88269Y32953D01*
X88280Y32996D01*
X88315Y33022D01*
X89025Y34252D01*
X89031Y34295D01*
X89062Y34327D01*
X89605Y35638D01*
Y35682D01*
X89632Y35717D01*
X89999Y37088D01*
X89993Y37132D01*
X90015Y37170D01*
X90201Y38577D01*
X90189Y38620D01*
X90206Y38660D01*
Y40080D01*
X90189Y40121D01*
X90201Y40163D01*
X90015Y41570D01*
X89993Y41609D01*
X89999Y41652D01*
X89632Y43023D01*
X89605Y43058D01*
Y43102D01*
X89062Y44414D01*
X89031Y44445D01*
X89025Y44488D01*
X88315Y45718D01*
X88280Y45744D01*
X88269Y45787D01*
X87405Y46913D01*
X87366Y46935D01*
X87350Y46976D01*
X86346Y47980D01*
X86305Y47996D01*
X86283Y48035D01*
X85157Y48899D01*
X85115Y48910D01*
X85088Y48945D01*
X83859Y49655D01*
X83815Y49661D01*
X83784Y49692D01*
X82472Y50235D01*
X82428D01*
X82393Y50262D01*
X81022Y50629D01*
X80979Y50623D01*
X80940Y50645D01*
X79533Y50831D01*
X79491Y50819D01*
X79450Y50836D01*
D02*
G37*
G36*
X153425Y32794D02*
X152350D01*
Y29122D01*
X156022D01*
Y30197D01*
X155934Y30869D01*
X155674Y31495D01*
X155262Y32033D01*
X154724Y32446D01*
X154097Y32705D01*
X153425Y32794D01*
D02*
G37*
G36*
X151350D02*
X150276D01*
X149603Y32705D01*
X148977Y32446D01*
X148439Y32033D01*
X148027Y31495D01*
X147767Y30869D01*
X147679Y30197D01*
Y29122D01*
X151350D01*
Y32794D01*
D02*
G37*
G36*
X241850Y32394D02*
X240874Y32266D01*
X239964Y31889D01*
X239183Y31289D01*
X238583Y30508D01*
X238207Y29598D01*
X238078Y28622D01*
X238207Y27646D01*
X238583Y26736D01*
X239183Y25954D01*
X239964Y25355D01*
X240874Y24978D01*
X241850Y24850D01*
X242827Y24978D01*
X243737Y25355D01*
X244518Y25954D01*
X245117Y26736D01*
X245494Y27646D01*
X245623Y28622D01*
X245494Y29598D01*
X245117Y30508D01*
X244518Y31289D01*
X243737Y31889D01*
X242827Y32266D01*
X241850Y32394D01*
D02*
G37*
G36*
X156022Y28122D02*
X152350D01*
Y24450D01*
X153425D01*
X154097Y24539D01*
X154724Y24798D01*
X155262Y25211D01*
X155674Y25749D01*
X155934Y26375D01*
X156022Y27047D01*
Y28122D01*
D02*
G37*
G36*
X151350D02*
X147679D01*
Y27047D01*
X147767Y26375D01*
X148027Y25749D01*
X148439Y25211D01*
X148977Y24798D01*
X149603Y24539D01*
X150276Y24450D01*
X151350D01*
Y28122D01*
D02*
G37*
G36*
X241850Y22394D02*
X240874Y22266D01*
X239964Y21889D01*
X239183Y21290D01*
X238583Y20508D01*
X238207Y19598D01*
X238078Y18622D01*
X238207Y17646D01*
X238583Y16736D01*
X239183Y15955D01*
X239964Y15355D01*
X240874Y14978D01*
X241850Y14850D01*
X242827Y14978D01*
X243737Y15355D01*
X244518Y15955D01*
X245117Y16736D01*
X245494Y17646D01*
X245623Y18622D01*
X245494Y19598D01*
X245117Y20508D01*
X244518Y21290D01*
X243737Y21889D01*
X242827Y22266D01*
X241850Y22394D01*
D02*
G37*
G36*
X231850D02*
X230874Y22266D01*
X229964Y21889D01*
X229183Y21290D01*
X228583Y20508D01*
X228206Y19598D01*
X228078Y18622D01*
X228206Y17646D01*
X228583Y16736D01*
X229183Y15955D01*
X229964Y15355D01*
X230874Y14978D01*
X231850Y14850D01*
X232827Y14978D01*
X233737Y15355D01*
X234518Y15955D01*
X235117Y16736D01*
X235494Y17646D01*
X235623Y18622D01*
X235494Y19598D01*
X235117Y20508D01*
X234518Y21290D01*
X233737Y21889D01*
X232827Y22266D01*
X231850Y22394D01*
D02*
G37*
G36*
X43258Y102903D02*
X39419D01*
X38440Y102709D01*
X37610Y102154D01*
X37055Y101324D01*
X36860Y100345D01*
Y96506D01*
X37055Y95527D01*
X37610Y94696D01*
X38440Y94142D01*
X39419Y93947D01*
X43258D01*
X44081Y94111D01*
X120355Y17836D01*
X120355Y17836D01*
X120716Y17595D01*
X121142Y17510D01*
X121142Y17510D01*
X148263D01*
X148583Y16736D01*
X149183Y15955D01*
X149964Y15355D01*
X150874Y14978D01*
X151850Y14850D01*
X152827Y14978D01*
X153737Y15355D01*
X154518Y15955D01*
X155117Y16736D01*
X155494Y17646D01*
X155623Y18622D01*
X155494Y19598D01*
X155117Y20508D01*
X154518Y21290D01*
X153737Y21889D01*
X152827Y22266D01*
X151850Y22394D01*
X150874Y22266D01*
X149964Y21889D01*
X149183Y21290D01*
X148583Y20508D01*
X148263Y19734D01*
X121602D01*
X45653Y95683D01*
X45817Y96506D01*
Y100345D01*
X45622Y101324D01*
X45067Y102154D01*
X44237Y102709D01*
X43258Y102903D01*
D02*
G37*
G36*
X378051Y119587D02*
X377551Y119587D01*
X374902D01*
Y116634D01*
X375324D01*
Y95197D01*
X357339Y77212D01*
X332800D01*
X332375Y77127D01*
X332014Y76886D01*
X332014Y76886D01*
X263539Y8412D01*
X254785D01*
X254634Y8912D01*
X254786Y9014D01*
X332586Y86814D01*
X332586Y86814D01*
X332827Y87174D01*
X332912Y87600D01*
X332912Y87600D01*
Y103239D01*
X332912Y103239D01*
X332827Y103665D01*
X332586Y104026D01*
X330928Y105683D01*
X331208Y106358D01*
X331330Y107283D01*
X331208Y108208D01*
X330851Y109070D01*
X330283Y109810D01*
X329543Y110379D01*
X328681Y110735D01*
X327756Y110857D01*
X326831Y110735D01*
X325969Y110379D01*
X325229Y109810D01*
X324661Y109070D01*
X324381Y108395D01*
X305540D01*
X305260Y109070D01*
X304693Y109810D01*
X303952Y110379D01*
X303090Y110735D01*
X302165Y110857D01*
X301240Y110735D01*
X300378Y110379D01*
X299638Y109810D01*
X299070Y109070D01*
X298713Y108208D01*
X298591Y107283D01*
X298713Y106358D01*
X299070Y105497D01*
X299638Y104756D01*
X300378Y104188D01*
X301240Y103831D01*
X302165Y103709D01*
X303090Y103831D01*
X303952Y104188D01*
X304693Y104756D01*
X305260Y105497D01*
X305540Y106172D01*
X324381D01*
X324661Y105497D01*
X325229Y104756D01*
X325969Y104188D01*
X326831Y103831D01*
X327756Y103709D01*
X328681Y103831D01*
X329356Y104111D01*
X330688Y102779D01*
Y92930D01*
X330188Y92683D01*
X329749Y93020D01*
X328788Y93418D01*
X328256Y93488D01*
Y89567D01*
X327256D01*
Y93488D01*
X326724Y93418D01*
X325763Y93020D01*
X324937Y92386D01*
X324303Y91560D01*
X323938Y90679D01*
X305983D01*
X305618Y91560D01*
X304984Y92386D01*
X304159Y93020D01*
X303197Y93418D01*
X302665Y93488D01*
Y89567D01*
Y85646D01*
X303197Y85716D01*
X304159Y86114D01*
X304984Y86748D01*
X305618Y87574D01*
X305983Y88455D01*
X323938D01*
X324303Y87574D01*
X324937Y86748D01*
X325763Y86114D01*
X326724Y85716D01*
X327530Y85610D01*
X327720Y85092D01*
X253539Y10912D01*
X231133D01*
X225174Y16871D01*
X225494Y17646D01*
X225623Y18622D01*
X225494Y19598D01*
X225117Y20508D01*
X224518Y21290D01*
X223772Y21862D01*
X223752Y22028D01*
X223793Y22407D01*
X224000Y22488D01*
X224426Y22573D01*
X224786Y22814D01*
X228086Y26114D01*
X228086Y26114D01*
X228246Y26353D01*
X228674Y26436D01*
X228826Y26419D01*
X229183Y25954D01*
X229964Y25355D01*
X230874Y24978D01*
X231850Y24850D01*
X232827Y24978D01*
X233737Y25355D01*
X234518Y25954D01*
X235117Y26736D01*
X235494Y27646D01*
X235623Y28622D01*
X235494Y29598D01*
X235117Y30508D01*
X234518Y31289D01*
X233737Y31889D01*
X232827Y32266D01*
X231850Y32394D01*
X231532Y32353D01*
X231299Y32826D01*
X232886Y34414D01*
X232886Y34414D01*
X233127Y34775D01*
X233212Y35200D01*
X233212Y35200D01*
Y64000D01*
X233212Y64000D01*
X233127Y64425D01*
X232886Y64786D01*
X232886Y64786D01*
X222526Y75147D01*
X222711Y75593D01*
X222817Y76400D01*
X222711Y77207D01*
X222400Y77959D01*
X221904Y78604D01*
X221259Y79100D01*
X220507Y79411D01*
X219700Y79517D01*
X218893Y79411D01*
X218141Y79100D01*
X217496Y78604D01*
X217000Y77959D01*
X216689Y77207D01*
X216583Y76400D01*
X216689Y75593D01*
X217000Y74841D01*
X217496Y74196D01*
X218141Y73700D01*
X218893Y73389D01*
X219700Y73283D01*
X220507Y73389D01*
X220953Y73574D01*
X230988Y63539D01*
Y35661D01*
X229755Y34427D01*
X229522Y34546D01*
X229342Y34722D01*
X229412Y35072D01*
Y38400D01*
X229327Y38826D01*
X229086Y39186D01*
X229086Y39186D01*
X227386Y40886D01*
X227026Y41127D01*
X226600Y41212D01*
X226600Y41212D01*
X139485D01*
X139300Y41659D01*
X138804Y42304D01*
X138159Y42800D01*
X137407Y43111D01*
X136600Y43217D01*
X135793Y43111D01*
X135041Y42800D01*
X134396Y42304D01*
X133900Y41659D01*
X133589Y40907D01*
X133483Y40100D01*
X133589Y39293D01*
X133900Y38541D01*
X134396Y37896D01*
X135041Y37400D01*
X135793Y37089D01*
X136600Y36983D01*
X137407Y37089D01*
X138159Y37400D01*
X138804Y37896D01*
X139300Y38541D01*
X139485Y38988D01*
X221083D01*
X221330Y38488D01*
X221000Y38059D01*
X220815Y37612D01*
X189728D01*
X189303Y37527D01*
X188942Y37286D01*
X188942Y37286D01*
X183601Y31945D01*
X182827Y32266D01*
X181850Y32394D01*
X180874Y32266D01*
X179964Y31889D01*
X179183Y31289D01*
X178583Y30508D01*
X178207Y29598D01*
X178078Y28622D01*
X178137Y28174D01*
X177711Y27814D01*
X177680Y27814D01*
X176900Y27917D01*
X176093Y27811D01*
X176016Y27779D01*
X175558Y28131D01*
X175623Y28622D01*
X175494Y29598D01*
X175117Y30508D01*
X174518Y31289D01*
X173737Y31889D01*
X172827Y32266D01*
X171850Y32394D01*
X170874Y32266D01*
X169964Y31889D01*
X169183Y31289D01*
X168583Y30508D01*
X168207Y29598D01*
X168078Y28622D01*
X168207Y27646D01*
X168583Y26736D01*
X169183Y25954D01*
X169964Y25355D01*
X170874Y24978D01*
X171850Y24850D01*
X172827Y24978D01*
X173329Y25186D01*
X173787Y24835D01*
X173783Y24800D01*
X173889Y23993D01*
X174200Y23241D01*
X174696Y22596D01*
X175341Y22100D01*
X175788Y21915D01*
Y20196D01*
X175288Y20096D01*
X175117Y20508D01*
X174518Y21290D01*
X173737Y21889D01*
X172827Y22266D01*
X171850Y22394D01*
X170874Y22266D01*
X169964Y21889D01*
X169183Y21290D01*
X168583Y20508D01*
X168412Y20094D01*
X167912Y20194D01*
Y23672D01*
X167827Y24098D01*
X167586Y24459D01*
X165174Y26871D01*
X165494Y27646D01*
X165623Y28622D01*
X165494Y29598D01*
X165117Y30508D01*
X164518Y31289D01*
X163737Y31889D01*
X162827Y32266D01*
X161850Y32394D01*
X160874Y32266D01*
X159964Y31889D01*
X159183Y31289D01*
X158583Y30508D01*
X158206Y29598D01*
X158078Y28622D01*
X158206Y27646D01*
X158583Y26736D01*
X159183Y25954D01*
X159964Y25355D01*
X160874Y24978D01*
X161850Y24850D01*
X162827Y24978D01*
X163601Y25299D01*
X165688Y23212D01*
Y20437D01*
X165188Y20338D01*
X165117Y20508D01*
X164518Y21290D01*
X163737Y21889D01*
X162827Y22266D01*
X161850Y22394D01*
X160874Y22266D01*
X159964Y21889D01*
X159183Y21290D01*
X158583Y20508D01*
X158206Y19598D01*
X158078Y18622D01*
X158206Y17646D01*
X158583Y16736D01*
X159183Y15955D01*
X159964Y15355D01*
X160874Y14978D01*
X161850Y14850D01*
X162827Y14978D01*
X163737Y15355D01*
X164518Y15955D01*
X165117Y16736D01*
X165188Y16906D01*
X165688Y16807D01*
Y12800D01*
X165688Y12800D01*
X165773Y12375D01*
X166014Y12014D01*
X171514Y6514D01*
X171514Y6514D01*
X171874Y6273D01*
X172300Y6188D01*
X264000D01*
X264000Y6188D01*
X264425Y6273D01*
X264786Y6514D01*
X333261Y74988D01*
X357800D01*
X357800Y74988D01*
X358225Y75073D01*
X358586Y75314D01*
X377164Y93892D01*
X377405Y94253D01*
X377490Y94678D01*
X377432Y94971D01*
Y116280D01*
X377785Y116634D01*
X378354Y116634D01*
X381004D01*
Y119587D01*
X378051Y119587D01*
D02*
G37*
%LPD*%
G36*
X148019Y109963D02*
X148046Y109788D01*
X147495Y109070D01*
X147216Y108395D01*
X128375D01*
X128095Y109070D01*
X127544Y109788D01*
X127572Y109963D01*
X127682Y110288D01*
X147908D01*
X148019Y109963D01*
D02*
G37*
G36*
X227188Y37939D02*
Y37404D01*
X226711Y37307D01*
X226400Y38059D01*
X226808Y38320D01*
X227188Y37939D01*
D02*
G37*
G36*
X221000Y34941D02*
X221496Y34296D01*
X222141Y33800D01*
X222893Y33489D01*
X223700Y33383D01*
X224427Y33479D01*
X224577Y33305D01*
X224683Y33027D01*
X223601Y31945D01*
X222827Y32266D01*
X221850Y32394D01*
X220874Y32266D01*
X219964Y31889D01*
X219183Y31289D01*
X218583Y30508D01*
X218207Y29598D01*
X218078Y28622D01*
X218207Y27646D01*
X218583Y26736D01*
X219183Y25954D01*
X219964Y25355D01*
X220310Y25212D01*
X220210Y24712D01*
X213491D01*
X213391Y25212D01*
X213737Y25355D01*
X214518Y25954D01*
X215117Y26736D01*
X215494Y27646D01*
X215623Y28622D01*
X215494Y29598D01*
X215117Y30508D01*
X214518Y31289D01*
X213737Y31889D01*
X212827Y32266D01*
X211850Y32394D01*
X210874Y32266D01*
X209964Y31889D01*
X209183Y31289D01*
X208583Y30508D01*
X208207Y29598D01*
X208078Y28622D01*
X208207Y27646D01*
X208583Y26736D01*
X209183Y25954D01*
X209964Y25355D01*
X210310Y25212D01*
X210210Y24712D01*
X207333D01*
X205174Y26871D01*
X205494Y27646D01*
X205623Y28622D01*
X205494Y29598D01*
X205117Y30508D01*
X204518Y31289D01*
X203737Y31889D01*
X202827Y32266D01*
X201850Y32394D01*
X200874Y32266D01*
X199964Y31889D01*
X199183Y31289D01*
X198583Y30508D01*
X198206Y29598D01*
X198078Y28622D01*
X198206Y27646D01*
X198583Y26736D01*
X199183Y25954D01*
X199964Y25355D01*
X200874Y24978D01*
X201850Y24850D01*
X202827Y24978D01*
X203601Y25299D01*
X206086Y22814D01*
X206447Y22573D01*
X206872Y22488D01*
X206872Y22488D01*
X210104D01*
X210203Y21988D01*
X209964Y21889D01*
X209183Y21290D01*
X208583Y20508D01*
X208207Y19598D01*
X208078Y18622D01*
X208207Y17646D01*
X208527Y16871D01*
X207068Y15412D01*
X204589D01*
X204428Y15885D01*
X204518Y15955D01*
X205117Y16736D01*
X205494Y17646D01*
X205623Y18622D01*
X205494Y19598D01*
X205117Y20508D01*
X204518Y21290D01*
X203737Y21889D01*
X202827Y22266D01*
X201850Y22394D01*
X200874Y22266D01*
X199964Y21889D01*
X199183Y21290D01*
X198583Y20508D01*
X198206Y19598D01*
X198078Y18622D01*
X198206Y17646D01*
X198583Y16736D01*
X199183Y15955D01*
X199273Y15885D01*
X199112Y15412D01*
X194589D01*
X194428Y15885D01*
X194518Y15955D01*
X195117Y16736D01*
X195494Y17646D01*
X195623Y18622D01*
X195494Y19598D01*
X195117Y20508D01*
X194518Y21290D01*
X193737Y21889D01*
X192827Y22266D01*
X191850Y22394D01*
X190874Y22266D01*
X189964Y21889D01*
X189183Y21290D01*
X188583Y20508D01*
X188207Y19598D01*
X188078Y18622D01*
X188207Y17646D01*
X188583Y16736D01*
X189183Y15955D01*
X189273Y15885D01*
X189112Y15412D01*
X184589D01*
X184428Y15885D01*
X184518Y15955D01*
X185117Y16736D01*
X185494Y17646D01*
X185623Y18622D01*
X185494Y19598D01*
X185117Y20508D01*
X184518Y21290D01*
X183737Y21889D01*
X182827Y22266D01*
X181850Y22394D01*
X180874Y22266D01*
X179964Y21889D01*
X179183Y21290D01*
X178583Y20508D01*
X178512Y20336D01*
X178012Y20435D01*
Y21915D01*
X178459Y22100D01*
X179104Y22596D01*
X179600Y23241D01*
X179911Y23993D01*
X180017Y24800D01*
X180476Y25143D01*
X180874Y24978D01*
X181850Y24850D01*
X182827Y24978D01*
X183737Y25355D01*
X184518Y25954D01*
X185117Y26736D01*
X185494Y27646D01*
X185623Y28622D01*
X185494Y29598D01*
X185174Y30373D01*
X190189Y35388D01*
X220815D01*
X221000Y34941D01*
D02*
G37*
G36*
X226078Y30925D02*
X226258Y30750D01*
X226188Y30400D01*
X226188Y30400D01*
Y27361D01*
X225726Y26899D01*
X225302Y27182D01*
X225494Y27646D01*
X225623Y28622D01*
X225494Y29598D01*
X225174Y30373D01*
X225845Y31044D01*
X226078Y30925D01*
D02*
G37*
G36*
X220203Y21988D02*
X219964Y21889D01*
X219183Y21290D01*
X218583Y20508D01*
X218207Y19598D01*
X218078Y18622D01*
X218207Y17646D01*
X218583Y16736D01*
X219183Y15955D01*
X219964Y15355D01*
X220874Y14978D01*
X221850Y14850D01*
X222827Y14978D01*
X223601Y15299D01*
X229886Y9014D01*
X229886Y9014D01*
X230038Y8912D01*
X230037Y8730D01*
X229887Y8412D01*
X172761D01*
X167912Y13261D01*
Y17050D01*
X168412Y17150D01*
X168583Y16736D01*
X169183Y15955D01*
X169964Y15355D01*
X170874Y14978D01*
X171850Y14850D01*
X172827Y14978D01*
X173737Y15355D01*
X174518Y15955D01*
X175117Y16736D01*
X175252Y17062D01*
X175745Y16945D01*
X175788Y16600D01*
X175873Y16174D01*
X176114Y15814D01*
X178414Y13514D01*
X178774Y13273D01*
X179200Y13188D01*
X207528D01*
X207528Y13188D01*
X207954Y13273D01*
X208315Y13514D01*
X210100Y15299D01*
X210874Y14978D01*
X211850Y14850D01*
X212827Y14978D01*
X213737Y15355D01*
X214518Y15955D01*
X215117Y16736D01*
X215494Y17646D01*
X215623Y18622D01*
X215494Y19598D01*
X215117Y20508D01*
X214518Y21290D01*
X213737Y21889D01*
X213497Y21988D01*
X213597Y22488D01*
X220104D01*
X220203Y21988D01*
D02*
G37*
%LPC*%
G36*
X191850Y32394D02*
X190874Y32266D01*
X189964Y31889D01*
X189183Y31289D01*
X188583Y30508D01*
X188207Y29598D01*
X188078Y28622D01*
X188207Y27646D01*
X188583Y26736D01*
X189183Y25954D01*
X189964Y25355D01*
X190874Y24978D01*
X191850Y24850D01*
X192827Y24978D01*
X193737Y25355D01*
X194518Y25954D01*
X195117Y26736D01*
X195494Y27646D01*
X195623Y28622D01*
X195494Y29598D01*
X195117Y30508D01*
X194518Y31289D01*
X193737Y31889D01*
X192827Y32266D01*
X191850Y32394D01*
D02*
G37*
%LPD*%
D12*
X323917Y168366D02*
X378012D01*
X313032Y157480D02*
X323917Y168366D01*
X181850Y28622D02*
X189728Y36500D01*
X223700D01*
X236851Y151300D02*
X243032Y157480D01*
X192400Y151300D02*
X236851D01*
X219700Y76400D02*
X232100Y64000D01*
Y35200D02*
Y64000D01*
X227300Y30400D02*
X232100Y35200D01*
X227300Y26900D02*
Y30400D01*
X224000Y23600D02*
X227300Y26900D01*
X206872Y23600D02*
X224000D01*
X201850Y28622D02*
X206872Y23600D01*
X136600Y40100D02*
X226600D01*
X228300Y38400D01*
Y35072D02*
Y38400D01*
X221850Y28622D02*
X228300Y35072D01*
X221850Y18622D02*
X230672Y9800D01*
X254000D01*
X331800Y87600D01*
Y103239D01*
X327756Y107283D02*
X331800Y103239D01*
X21654Y98425D02*
X46801Y123573D01*
X354331D01*
X343917Y198366D02*
X368012D01*
X303032Y157480D02*
X343917Y198366D01*
X161850Y28622D02*
X166800Y23672D01*
Y12800D02*
Y23672D01*
Y12800D02*
X172300Y7300D01*
X264000D01*
X332800Y76100D01*
X357800D01*
X376378Y94678D01*
X221300Y111400D02*
X237300Y95400D01*
X95652Y111400D02*
X221300D01*
X91535Y107283D02*
X95652Y111400D01*
X150591Y89567D02*
X157558Y82600D01*
X236143D01*
X243110Y89567D01*
X207528Y14300D02*
X211850Y18622D01*
X179200Y14300D02*
X207528D01*
X176900Y16600D02*
X179200Y14300D01*
X176900Y16600D02*
Y24800D01*
X303261Y147709D02*
X313032Y157480D01*
X190400Y147709D02*
X303261D01*
X188800Y149309D02*
X190400Y147709D01*
X188800Y149309D02*
Y151712D01*
X183032Y157480D02*
X188800Y151712D01*
X285912Y164600D02*
X293032Y157480D01*
X182400Y164600D02*
X285912D01*
X178800Y161000D02*
X182400Y164600D01*
X178800Y137200D02*
Y161000D01*
X121142Y18622D02*
X151850D01*
X41339Y98425D02*
X121142Y18622D01*
X243110Y89567D02*
X268701D01*
X302165D01*
X327756D01*
X65945D02*
X91535D01*
X125000D01*
X150591D01*
X125000Y107283D02*
X150591D01*
X302165D02*
X327756D01*
X243110D02*
X268701D01*
X65945D02*
X91535D01*
D13*
X378012Y168366D02*
D03*
D14*
X368012Y198366D02*
D03*
X378012Y218366D02*
D03*
D15*
X173032Y157480D02*
D03*
X183032D02*
D03*
X193032D02*
D03*
X203032D02*
D03*
X213032D02*
D03*
X223032D02*
D03*
X233032D02*
D03*
X243032D02*
D03*
X253032D02*
D03*
X263032D02*
D03*
X273032D02*
D03*
X283032D02*
D03*
X293032D02*
D03*
X303032D02*
D03*
X313032D02*
D03*
D16*
X323032D02*
D03*
D23*
X211850Y18622D02*
D03*
Y28622D02*
D03*
X201850Y18622D02*
D03*
X191850D02*
D03*
X201850Y28622D02*
D03*
X191850D02*
D03*
X181850Y18622D02*
D03*
Y28622D02*
D03*
X171850Y18622D02*
D03*
Y28622D02*
D03*
X161850Y18622D02*
D03*
Y28622D02*
D03*
X151850Y18622D02*
D03*
X221850Y28622D02*
D03*
X231850D02*
D03*
X241850D02*
D03*
X221850Y18622D02*
D03*
X231850D02*
D03*
X241850D02*
D03*
D24*
X151850Y28622D02*
D03*
D25*
X21654Y98425D02*
D03*
D26*
X41339D02*
D03*
D27*
X65945Y107283D02*
D03*
Y89567D02*
D03*
X91535Y107283D02*
D03*
Y89567D02*
D03*
X243110Y107283D02*
D03*
Y89567D02*
D03*
X268701Y107283D02*
D03*
Y89567D02*
D03*
X302165Y107283D02*
D03*
Y89567D02*
D03*
X327756Y107283D02*
D03*
Y89567D02*
D03*
X125000Y107283D02*
D03*
Y89567D02*
D03*
X150591Y107283D02*
D03*
Y89567D02*
D03*
D28*
X223700Y36500D02*
D03*
X192400Y151300D02*
D03*
X219700Y76400D02*
D03*
X136600Y40100D02*
D03*
X237300Y95400D02*
D03*
X176900Y24800D02*
D03*
X178800Y137200D02*
D03*
D29*
X376378Y118110D02*
D03*
X379528D02*
D03*
D30*
X354331Y123573D02*
D03*
D31*
X345276Y97392D02*
D03*
X363386D02*
D03*
D32*
X376378Y94678D02*
Y118110D01*
M02*
