G04*
G04 #@! TF.GenerationSoftware,Altium Limited,Altium Designer,21.3.2 (30)*
G04*
G04 Layer_Color=65535*
%FSLAX25Y25*%
%MOIN*%
G70*
G04*
G04 #@! TF.SameCoordinates,3DC595B4-C491-417C-8E84-26B3D1DC1506*
G04*
G04*
G04 #@! TF.FilePolarity,Positive*
G04*
G01*
G75*
%ADD10C,0.00984*%
%ADD11C,0.00787*%
%ADD12C,0.01000*%
D10*
X331890Y157480D02*
X331152Y157906D01*
Y157054D01*
X331890Y157480D01*
D11*
X329035Y152224D02*
Y162736D01*
X167028D02*
X329035D01*
X167028Y152224D02*
Y162736D01*
Y152224D02*
X329035D01*
X68307Y110630D02*
X89173D01*
X66535Y93701D02*
Y103150D01*
X90945Y93701D02*
Y103150D01*
X68307Y86220D02*
X89173D01*
X245472Y110630D02*
X266339D01*
X243701Y93701D02*
Y103150D01*
X268110Y93701D02*
Y103150D01*
X245472Y86220D02*
X266339D01*
X304528Y110630D02*
X325394D01*
X302756Y93701D02*
Y103150D01*
X327165Y93701D02*
Y103150D01*
X304528Y86220D02*
X325394D01*
X127362Y110630D02*
X148228D01*
X125591Y93701D02*
Y103150D01*
X150000Y93701D02*
Y103150D01*
X127362Y86220D02*
X148228D01*
D12*
X323835Y138795D02*
X325834D01*
X324834D01*
Y144793D01*
X323835Y143794D01*
X256906Y144793D02*
Y138795D01*
X260904D01*
X266902Y142794D02*
X263903D01*
X262904Y141794D01*
Y139795D01*
X263903Y138795D01*
X266902D01*
X272900Y144793D02*
Y138795D01*
X269901D01*
X268902Y139795D01*
Y141794D01*
X269901Y142794D01*
X272900D01*
X280898Y138795D02*
X282897D01*
X281897D01*
Y144793D01*
X280898Y143794D01*
X289895Y144793D02*
X287895Y143794D01*
X285896Y141794D01*
Y139795D01*
X286896Y138795D01*
X288895D01*
X289895Y139795D01*
Y140795D01*
X288895Y141794D01*
X285896D01*
X291894Y142794D02*
X295893Y138795D01*
X293894Y140795D01*
X295893Y142794D01*
X291894Y138795D01*
X301891D02*
X297892D01*
X301891Y142794D01*
Y143794D01*
X300891Y144793D01*
X298892D01*
X297892Y143794D01*
X303964Y81739D02*
Y75741D01*
X306963D01*
X307963Y76741D01*
Y80739D01*
X306963Y81739D01*
X303964D01*
X312961D02*
X310962D01*
X309962Y80739D01*
Y76741D01*
X310962Y75741D01*
X312961D01*
X313961Y76741D01*
Y80739D01*
X312961Y81739D01*
X315960D02*
Y75741D01*
X317960Y77741D01*
X319959Y75741D01*
Y81739D01*
X321958Y75741D02*
Y81739D01*
X325957Y75741D01*
Y81739D01*
X250907D02*
Y76741D01*
X251907Y75741D01*
X253906D01*
X254906Y76741D01*
Y81739D01*
X256905Y75741D02*
Y81739D01*
X259904D01*
X260904Y80739D01*
Y78740D01*
X259904Y77741D01*
X256905D01*
X65961Y75803D02*
Y81801D01*
X68960D01*
X69959Y80801D01*
Y78802D01*
X68960Y77802D01*
X65961D01*
X67960D02*
X69959Y75803D01*
X75957Y81801D02*
X71959D01*
Y75803D01*
X75957D01*
X71959Y78802D02*
X73958D01*
X81955Y80801D02*
X80956Y81801D01*
X78956D01*
X77957Y80801D01*
Y79802D01*
X78956Y78802D01*
X80956D01*
X81955Y77802D01*
Y76803D01*
X80956Y75803D01*
X78956D01*
X77957Y76803D01*
X87954Y81801D02*
X83955D01*
Y75803D01*
X87954D01*
X83955Y78802D02*
X85954D01*
X89953Y81801D02*
X93952D01*
X91952D01*
Y75803D01*
X133920Y81801D02*
X131921D01*
X130921Y80801D01*
Y76803D01*
X131921Y75803D01*
X133920D01*
X134920Y76803D01*
Y80801D01*
X133920Y81801D01*
X136919D02*
Y75803D01*
Y77802D01*
X140918Y81801D01*
X137919Y78802D01*
X140918Y75803D01*
X157283Y155429D02*
Y153430D01*
Y154430D01*
X162282D01*
X163282Y153430D01*
Y152430D01*
X162282Y151431D01*
X163282Y161427D02*
Y157429D01*
X159283Y161427D01*
X158283D01*
X157283Y160428D01*
Y158428D01*
X158283Y157429D01*
X67099Y119498D02*
X66099Y120498D01*
X64100D01*
X63100Y119498D01*
Y118499D01*
X64100Y117499D01*
X66099D01*
X67099Y116499D01*
Y115500D01*
X66099Y114500D01*
X64100D01*
X63100Y115500D01*
X69098Y120498D02*
Y114500D01*
X71097Y116499D01*
X73097Y114500D01*
Y120498D01*
X78095Y114500D02*
Y120498D01*
X75096Y117499D01*
X79095D01*
X244299Y119498D02*
X243299Y120498D01*
X241300D01*
X240300Y119498D01*
Y118499D01*
X241300Y117499D01*
X243299D01*
X244299Y116499D01*
Y115500D01*
X243299Y114500D01*
X241300D01*
X240300Y115500D01*
X246298Y120498D02*
Y114500D01*
X248297Y116499D01*
X250297Y114500D01*
Y120498D01*
X252296Y119498D02*
X253296Y120498D01*
X255295D01*
X256295Y119498D01*
Y118499D01*
X255295Y117499D01*
X254295D01*
X255295D01*
X256295Y116499D01*
Y115500D01*
X255295Y114500D01*
X253296D01*
X252296Y115500D01*
X303299Y119498D02*
X302299Y120498D01*
X300300D01*
X299300Y119498D01*
Y118499D01*
X300300Y117499D01*
X302299D01*
X303299Y116499D01*
Y115500D01*
X302299Y114500D01*
X300300D01*
X299300Y115500D01*
X305298Y120498D02*
Y114500D01*
X307297Y116499D01*
X309297Y114500D01*
Y120498D01*
X315295Y114500D02*
X311296D01*
X315295Y118499D01*
Y119498D01*
X314295Y120498D01*
X312296D01*
X311296Y119498D01*
X126199D02*
X125199Y120498D01*
X123200D01*
X122200Y119498D01*
Y118499D01*
X123200Y117499D01*
X125199D01*
X126199Y116499D01*
Y115500D01*
X125199Y114500D01*
X123200D01*
X122200Y115500D01*
X128198Y120498D02*
Y114500D01*
X130197Y116499D01*
X132197Y114500D01*
Y120498D01*
X134196Y114500D02*
X136196D01*
X135196D01*
Y120498D01*
X134196Y119498D01*
M02*
