G04*
G04 #@! TF.GenerationSoftware,Altium Limited,Altium Designer,21.3.2 (30)*
G04*
G04 Layer_Physical_Order=1*
G04 Layer_Color=13311*
%FSLAX25Y25*%
%MOIN*%
G70*
G04*
G04 #@! TF.SameCoordinates,3DC595B4-C491-417C-8E84-26B3D1DC1506*
G04*
G04*
G04 #@! TF.FilePolarity,Positive*
G04*
G01*
G75*
%ADD12C,0.01000*%
%ADD13R,0.04724X0.04724*%
%ADD14C,0.04724*%
%ADD15C,0.06181*%
%ADD16R,0.06181X0.06181*%
%ADD23C,0.06299*%
G04:AMPARAMS|DCode=24|XSize=62.99mil|YSize=62.99mil|CornerRadius=15.75mil|HoleSize=0mil|Usage=FLASHONLY|Rotation=0.000|XOffset=0mil|YOffset=0mil|HoleType=Round|Shape=RoundedRectangle|*
%AMROUNDEDRECTD24*
21,1,0.06299,0.03150,0,0,0.0*
21,1,0.03150,0.06299,0,0,0.0*
1,1,0.03150,0.01575,-0.01575*
1,1,0.03150,-0.01575,-0.01575*
1,1,0.03150,-0.01575,0.01575*
1,1,0.03150,0.01575,0.01575*
%
%ADD24ROUNDEDRECTD24*%
%ADD25C,0.07677*%
G04:AMPARAMS|DCode=26|XSize=76.77mil|YSize=76.77mil|CornerRadius=19.19mil|HoleSize=0mil|Usage=FLASHONLY|Rotation=180.000|XOffset=0mil|YOffset=0mil|HoleType=Round|Shape=RoundedRectangle|*
%AMROUNDEDRECTD26*
21,1,0.07677,0.03839,0,0,180.0*
21,1,0.03839,0.07677,0,0,180.0*
1,1,0.03839,-0.01919,0.01919*
1,1,0.03839,0.01919,0.01919*
1,1,0.03839,0.01919,-0.01919*
1,1,0.03839,-0.01919,-0.01919*
%
%ADD26ROUNDEDRECTD26*%
%ADD27C,0.05906*%
%ADD28C,0.05000*%
G36*
X360115Y314606D02*
X363908Y313852D01*
X367610Y312729D01*
X371184Y311249D01*
X374595Y309425D01*
X377812Y307276D01*
X380802Y304822D01*
X383537Y302087D01*
X385991Y299097D01*
X388140Y295880D01*
X389964Y292469D01*
X391444Y288895D01*
X392567Y285193D01*
X393322Y281399D01*
X393701Y277550D01*
Y275616D01*
Y59080D01*
Y57790D01*
X393364Y55231D01*
X392696Y52739D01*
X391709Y50355D01*
X390418Y48120D01*
X388847Y46073D01*
X387023Y44248D01*
X384976Y42678D01*
X382741Y41387D01*
X380357Y40400D01*
X377864Y39732D01*
X375306Y39395D01*
X374016D01*
X372728Y39353D01*
X370175Y39017D01*
X367688Y38350D01*
X365309Y37365D01*
X363079Y36078D01*
X361036Y34510D01*
X359216Y32689D01*
X357648Y30646D01*
X356361Y28416D01*
X355375Y26038D01*
X354709Y23550D01*
X354373Y20998D01*
X354331Y19710D01*
Y18420D01*
X353994Y15861D01*
X353326Y13369D01*
X352339Y10985D01*
X351048Y8750D01*
X349477Y6703D01*
X347653Y4878D01*
X345605Y3307D01*
X343371Y2017D01*
X340987Y1030D01*
X338494Y362D01*
X335936Y25D01*
X58015D01*
X55457Y362D01*
X52964Y1030D01*
X50580Y2017D01*
X48345Y3307D01*
X46298Y4878D01*
X44473Y6703D01*
X42902Y8750D01*
X41612Y10985D01*
X40625Y13369D01*
X39957Y15861D01*
X39620Y18420D01*
Y19710D01*
X39578Y20998D01*
X39242Y23550D01*
X38575Y26038D01*
X37590Y28416D01*
X36303Y30646D01*
X34735Y32689D01*
X32914Y34510D01*
X30871Y36078D01*
X28642Y37365D01*
X26263Y38350D01*
X23775Y39017D01*
X21223Y39353D01*
X19935Y39395D01*
X18645D01*
X16086Y39732D01*
X13594Y40400D01*
X11210Y41387D01*
X8975Y42678D01*
X6928Y44248D01*
X5103Y46073D01*
X3532Y48120D01*
X2242Y50355D01*
X1255Y52739D01*
X587Y55231D01*
X250Y57790D01*
Y59080D01*
Y275616D01*
Y277550D01*
X629Y281399D01*
X1384Y285193D01*
X2507Y288895D01*
X3987Y292469D01*
X5810Y295880D01*
X7960Y299097D01*
X10414Y302087D01*
X13149Y304822D01*
X16139Y307276D01*
X19355Y309425D01*
X22767Y311249D01*
X26341Y312729D01*
X30042Y313852D01*
X33836Y314606D01*
X37686Y314986D01*
X356265D01*
X360115Y314606D01*
D02*
G37*
%LPC*%
G36*
X378512Y221692D02*
Y218866D01*
X381337D01*
X381288Y219244D01*
X380949Y220062D01*
X380410Y220764D01*
X379707Y221303D01*
X378889Y221642D01*
X378512Y221692D01*
D02*
G37*
G36*
X377512D02*
X377134Y221642D01*
X376316Y221303D01*
X375614Y220764D01*
X375075Y220062D01*
X374736Y219244D01*
X374686Y218866D01*
X377512D01*
Y221692D01*
D02*
G37*
G36*
X381337Y217866D02*
X378512D01*
Y215041D01*
X378889Y215090D01*
X379707Y215429D01*
X380410Y215968D01*
X380949Y216671D01*
X381288Y217489D01*
X381337Y217866D01*
D02*
G37*
G36*
X377512D02*
X374686D01*
X374736Y217489D01*
X374978Y216905D01*
X322245Y164172D01*
X322004Y163812D01*
X321920Y163386D01*
X321920Y163386D01*
Y161571D01*
X318941D01*
Y157980D01*
X323032D01*
X327122D01*
Y161571D01*
X324144D01*
Y162925D01*
X376550Y215332D01*
X377134Y215090D01*
X377512Y215041D01*
Y217866D01*
D02*
G37*
G36*
X368012Y201344D02*
X367241Y201243D01*
X366523Y200945D01*
X365906Y200472D01*
X365433Y199855D01*
X365135Y199137D01*
X365034Y198366D01*
X365135Y197595D01*
X365433Y196877D01*
X365906Y196260D01*
X366523Y195787D01*
X367241Y195490D01*
X368012Y195388D01*
X368783Y195490D01*
X369501Y195787D01*
X370118Y196260D01*
X370591Y196877D01*
X370888Y197595D01*
X370990Y198366D01*
X370888Y199137D01*
X370591Y199855D01*
X370118Y200472D01*
X369501Y200945D01*
X368783Y201243D01*
X368012Y201344D01*
D02*
G37*
G36*
X380965Y171319D02*
X375059D01*
Y165413D01*
X380965D01*
Y171319D01*
D02*
G37*
G36*
X277260Y164364D02*
X277260Y164364D01*
X191952D01*
X191952Y164364D01*
X191527Y164279D01*
X191166Y164038D01*
X186682Y159555D01*
X186660Y159544D01*
X186057Y159591D01*
X186044Y159601D01*
X185657Y160106D01*
X184888Y160696D01*
X183993Y161067D01*
X183032Y161193D01*
X182071Y161067D01*
X181175Y160696D01*
X180406Y160106D01*
X179816Y159337D01*
X179445Y158441D01*
X179319Y157480D01*
X179445Y156519D01*
X179754Y155775D01*
X156312Y132333D01*
X155812Y132540D01*
Y138688D01*
X171013Y153889D01*
X171964Y153495D01*
X172532Y153420D01*
Y156980D01*
X168972D01*
X169046Y156413D01*
X169440Y155462D01*
X153914Y139935D01*
X153673Y139574D01*
X153588Y139149D01*
X153588Y139149D01*
Y109970D01*
X153285Y109867D01*
X153088Y109833D01*
X152377Y110379D01*
X151516Y110735D01*
X150591Y110857D01*
X149666Y110735D01*
X148804Y110379D01*
X148064Y109810D01*
X147495Y109070D01*
X147139Y108208D01*
X147017Y107283D01*
X147139Y106358D01*
X147495Y105497D01*
X148064Y104756D01*
X148804Y104188D01*
X149666Y103831D01*
X150591Y103709D01*
X151516Y103831D01*
X152377Y104188D01*
X153088Y104734D01*
X153285Y104700D01*
X153588Y104597D01*
Y94137D01*
X152504Y93053D01*
X151622Y93418D01*
X151091Y93488D01*
Y90067D01*
X154512D01*
X154442Y90599D01*
X154077Y91480D01*
X155288Y92692D01*
X155788Y92485D01*
Y32168D01*
X155288Y31999D01*
X155262Y32033D01*
X154724Y32446D01*
X154097Y32705D01*
X153425Y32794D01*
X152962D01*
Y58400D01*
X152962Y58400D01*
X152878Y58825D01*
X152637Y59186D01*
X152637Y59186D01*
X151702Y60120D01*
Y85749D01*
X152584Y86114D01*
X153410Y86748D01*
X154043Y87574D01*
X154442Y88535D01*
X154512Y89067D01*
X146670D01*
X146740Y88535D01*
X147138Y87574D01*
X147772Y86748D01*
X148597Y86114D01*
X149479Y85749D01*
Y59660D01*
X149479Y59660D01*
X149563Y59234D01*
X149804Y58874D01*
X150739Y57939D01*
Y32794D01*
X150276D01*
X149603Y32705D01*
X148977Y32446D01*
X148439Y32033D01*
X148027Y31495D01*
X147767Y30869D01*
X147679Y30197D01*
Y29122D01*
X151850D01*
Y28622D01*
X152350D01*
Y24450D01*
X153425D01*
X154097Y24539D01*
X154724Y24798D01*
X155262Y25211D01*
X155288Y25245D01*
X155788Y25076D01*
Y24132D01*
X153601Y21945D01*
X152827Y22266D01*
X151850Y22394D01*
X150874Y22266D01*
X149964Y21889D01*
X149183Y21290D01*
X148583Y20508D01*
X148206Y19598D01*
X148078Y18622D01*
X148206Y17646D01*
X148583Y16736D01*
X149183Y15955D01*
X149964Y15355D01*
X150874Y14978D01*
X151850Y14850D01*
X152827Y14978D01*
X153737Y15355D01*
X154518Y15955D01*
X155117Y16736D01*
X155494Y17646D01*
X155623Y18622D01*
X155494Y19598D01*
X155174Y20373D01*
X157686Y22885D01*
X157686Y22885D01*
X157927Y23246D01*
X158012Y23672D01*
Y26809D01*
X158512Y26908D01*
X158583Y26736D01*
X159183Y25954D01*
X159964Y25355D01*
X160874Y24978D01*
X161850Y24850D01*
X162827Y24978D01*
X163737Y25355D01*
X164518Y25954D01*
X165117Y26736D01*
X165188Y26906D01*
X165688Y26807D01*
Y24032D01*
X163601Y21945D01*
X162827Y22266D01*
X161850Y22394D01*
X160874Y22266D01*
X159964Y21889D01*
X159183Y21290D01*
X158583Y20508D01*
X158206Y19598D01*
X158078Y18622D01*
X158206Y17646D01*
X158583Y16736D01*
X159183Y15955D01*
X159964Y15355D01*
X160874Y14978D01*
X161850Y14850D01*
X162827Y14978D01*
X163737Y15355D01*
X164518Y15955D01*
X165117Y16736D01*
X165494Y17646D01*
X165623Y18622D01*
X165494Y19598D01*
X165174Y20373D01*
X167586Y22785D01*
X167827Y23146D01*
X167912Y23572D01*
Y27050D01*
X168412Y27150D01*
X168583Y26736D01*
X169183Y25954D01*
X169964Y25355D01*
X170874Y24978D01*
X171850Y24850D01*
X172827Y24978D01*
X173329Y25186D01*
X173787Y24835D01*
X173783Y24800D01*
X173889Y23993D01*
X174200Y23241D01*
X174696Y22596D01*
X175341Y22100D01*
X176093Y21789D01*
X176900Y21683D01*
X177707Y21789D01*
X178459Y22100D01*
X179104Y22596D01*
X179600Y23241D01*
X179911Y23993D01*
X180017Y24800D01*
X180476Y25143D01*
X180874Y24978D01*
X181850Y24850D01*
X182827Y24978D01*
X183737Y25355D01*
X184518Y25954D01*
X185117Y26736D01*
X185494Y27646D01*
X185623Y28622D01*
X185494Y29598D01*
X185117Y30508D01*
X184518Y31289D01*
X183737Y31889D01*
X182827Y32266D01*
X181850Y32394D01*
X180874Y32266D01*
X180825Y32246D01*
X180542Y32670D01*
X181686Y33814D01*
X181686Y33814D01*
X181927Y34174D01*
X182012Y34600D01*
Y117239D01*
X189596Y124823D01*
X189837Y125184D01*
X189921Y125609D01*
Y148676D01*
X190421Y148923D01*
X190841Y148600D01*
X191288Y148415D01*
Y121561D01*
X184114Y114386D01*
X183873Y114025D01*
X183788Y113600D01*
X183788Y113600D01*
Y35572D01*
X183788Y35572D01*
X183873Y35147D01*
X184114Y34786D01*
X188527Y30373D01*
X188207Y29598D01*
X188078Y28622D01*
X188207Y27646D01*
X188583Y26736D01*
X189183Y25954D01*
X189964Y25355D01*
X190874Y24978D01*
X191850Y24850D01*
X192827Y24978D01*
X193737Y25355D01*
X193903Y25483D01*
X194234Y25106D01*
X193139Y24012D01*
X186128D01*
X186128Y24012D01*
X185703Y23927D01*
X185342Y23686D01*
X185342Y23686D01*
X183601Y21945D01*
X182827Y22266D01*
X181850Y22394D01*
X180874Y22266D01*
X179964Y21889D01*
X179183Y21290D01*
X178583Y20508D01*
X178207Y19598D01*
X178078Y18622D01*
X178207Y17646D01*
X178583Y16736D01*
X179183Y15955D01*
X179964Y15355D01*
X180874Y14978D01*
X181850Y14850D01*
X182827Y14978D01*
X183737Y15355D01*
X184518Y15955D01*
X185117Y16736D01*
X185494Y17646D01*
X185623Y18622D01*
X185494Y19598D01*
X185174Y20373D01*
X186589Y21788D01*
X189055D01*
X189216Y21315D01*
X189183Y21290D01*
X188583Y20508D01*
X188207Y19598D01*
X188078Y18622D01*
X188207Y17646D01*
X188583Y16736D01*
X189183Y15955D01*
X189964Y15355D01*
X190874Y14978D01*
X191850Y14850D01*
X192827Y14978D01*
X193601Y15299D01*
X194535Y14365D01*
X194343Y13903D01*
X178142D01*
X175174Y16871D01*
X175494Y17646D01*
X175623Y18622D01*
X175494Y19598D01*
X175117Y20508D01*
X174518Y21290D01*
X173737Y21889D01*
X172827Y22266D01*
X171850Y22394D01*
X170874Y22266D01*
X169964Y21889D01*
X169183Y21290D01*
X168583Y20508D01*
X168207Y19598D01*
X168078Y18622D01*
X168207Y17646D01*
X168583Y16736D01*
X169183Y15955D01*
X169964Y15355D01*
X170874Y14978D01*
X171850Y14850D01*
X172827Y14978D01*
X173601Y15299D01*
X176895Y12005D01*
X176895Y12005D01*
X177256Y11764D01*
X177681Y11679D01*
X177681Y11679D01*
X271991D01*
X271991Y11679D01*
X272417Y11764D01*
X272777Y12005D01*
X273818Y13045D01*
X273818Y13045D01*
X274059Y13406D01*
X274144Y13832D01*
X274144Y13832D01*
Y153957D01*
X274888Y154265D01*
X275657Y154855D01*
X276247Y155624D01*
X276618Y156519D01*
X276745Y157480D01*
X276618Y158441D01*
X276247Y159337D01*
X275657Y160106D01*
X274888Y160696D01*
X273993Y161067D01*
X273032Y161193D01*
X272071Y161067D01*
X271175Y160696D01*
X270406Y160106D01*
X269816Y159337D01*
X269445Y158441D01*
X269319Y157480D01*
X269445Y156519D01*
X269816Y155624D01*
X270406Y154855D01*
X271175Y154265D01*
X271920Y153957D01*
Y109730D01*
X271420Y109561D01*
X271228Y109810D01*
X270488Y110379D01*
X269626Y110735D01*
X268701Y110857D01*
X267776Y110735D01*
X266914Y110379D01*
X266174Y109810D01*
X265606Y109070D01*
X265249Y108208D01*
X265127Y107283D01*
X265249Y106358D01*
X265606Y105497D01*
X266174Y104756D01*
X266914Y104188D01*
X267776Y103831D01*
X268701Y103709D01*
X269626Y103831D01*
X270488Y104188D01*
X271228Y104756D01*
X271420Y105006D01*
X271920Y104836D01*
Y92618D01*
X271420Y92463D01*
X270694Y93020D01*
X269733Y93418D01*
X269201Y93488D01*
Y89567D01*
Y85646D01*
X269733Y85716D01*
X270694Y86114D01*
X271420Y86671D01*
X271920Y86516D01*
Y14292D01*
X271531Y13903D01*
X216229D01*
X216038Y14365D01*
X216886Y15214D01*
X217127Y15574D01*
X217212Y16000D01*
X217212Y16000D01*
Y21339D01*
X218361Y22488D01*
X220104D01*
X220203Y21988D01*
X219964Y21889D01*
X219183Y21290D01*
X218583Y20508D01*
X218207Y19598D01*
X218078Y18622D01*
X218207Y17646D01*
X218583Y16736D01*
X219183Y15955D01*
X219964Y15355D01*
X220874Y14978D01*
X221850Y14850D01*
X222827Y14978D01*
X223737Y15355D01*
X224518Y15955D01*
X225117Y16736D01*
X225494Y17646D01*
X225623Y18622D01*
X225494Y19598D01*
X225117Y20508D01*
X224518Y21290D01*
X223737Y21889D01*
X223497Y21988D01*
X223597Y22488D01*
X224100D01*
X224100Y22488D01*
X224525Y22573D01*
X224886Y22814D01*
X226886Y24814D01*
X226886Y24814D01*
X227127Y25174D01*
X227212Y25600D01*
X227212Y25600D01*
Y30800D01*
X227212Y30800D01*
X227127Y31225D01*
X226886Y31586D01*
X225161Y33311D01*
X225205Y33530D01*
X225327Y33853D01*
X225904Y34296D01*
X226400Y34941D01*
X226711Y35693D01*
X226817Y36500D01*
X226711Y37307D01*
X226526Y37753D01*
X229286Y40514D01*
X229286Y40514D01*
X229527Y40874D01*
X229612Y41300D01*
X229612Y41300D01*
Y122488D01*
X261326Y154202D01*
X262071Y153894D01*
X263032Y153768D01*
X263993Y153894D01*
X264888Y154265D01*
X265657Y154855D01*
X266247Y155624D01*
X266618Y156519D01*
X266744Y157480D01*
X266618Y158441D01*
X266247Y159337D01*
X265657Y160106D01*
X264888Y160696D01*
X263993Y161067D01*
X263032Y161193D01*
X262071Y161067D01*
X261175Y160696D01*
X260406Y160106D01*
X259816Y159337D01*
X259445Y158441D01*
X259319Y157480D01*
X259445Y156519D01*
X259754Y155775D01*
X227714Y123735D01*
X227473Y123374D01*
X227388Y122949D01*
X227388Y122949D01*
Y41761D01*
X224954Y39326D01*
X224507Y39511D01*
X223700Y39617D01*
X222893Y39511D01*
X222141Y39200D01*
X221721Y38877D01*
X221221Y39124D01*
Y39630D01*
X224086Y42495D01*
X224327Y42856D01*
X224412Y43281D01*
X224412Y43281D01*
Y147288D01*
X231326Y154202D01*
X232071Y153894D01*
X233032Y153768D01*
X233993Y153894D01*
X234888Y154265D01*
X235657Y154855D01*
X236247Y155624D01*
X236488Y156206D01*
X236988Y156106D01*
Y155100D01*
X236988Y155100D01*
X237073Y154674D01*
X237314Y154314D01*
X239214Y152414D01*
X239214Y152414D01*
X239575Y152173D01*
X240000Y152088D01*
X240000Y152088D01*
X248751D01*
X248751Y152088D01*
X249177Y152173D01*
X249537Y152414D01*
X251326Y154202D01*
X252071Y153894D01*
X253032Y153768D01*
X253993Y153894D01*
X254888Y154265D01*
X255657Y154855D01*
X256247Y155624D01*
X256618Y156519D01*
X256745Y157480D01*
X256618Y158441D01*
X256247Y159337D01*
X255657Y160106D01*
X254888Y160696D01*
X253993Y161067D01*
X253032Y161193D01*
X252071Y161067D01*
X251175Y160696D01*
X250406Y160106D01*
X249816Y159337D01*
X249445Y158441D01*
X249319Y157480D01*
X249445Y156519D01*
X249754Y155775D01*
X248291Y154312D01*
X245727D01*
X245566Y154785D01*
X245657Y154855D01*
X246247Y155624D01*
X246618Y156519D01*
X246744Y157480D01*
X246618Y158441D01*
X246247Y159337D01*
X245657Y160106D01*
X244888Y160696D01*
X243993Y161067D01*
X243032Y161193D01*
X242071Y161067D01*
X241175Y160696D01*
X240406Y160106D01*
X239816Y159337D01*
X239712Y159085D01*
X239212Y159185D01*
Y159700D01*
X239127Y160126D01*
X238886Y160486D01*
X237694Y161678D01*
X237885Y162140D01*
X276799D01*
X279754Y159186D01*
X279445Y158441D01*
X279319Y157480D01*
X279445Y156519D01*
X279816Y155624D01*
X280406Y154855D01*
X281175Y154265D01*
X282071Y153894D01*
X283032Y153768D01*
X283993Y153894D01*
X284888Y154265D01*
X285657Y154855D01*
X286247Y155624D01*
X286618Y156519D01*
X286744Y157480D01*
X286618Y158441D01*
X286247Y159337D01*
X285657Y160106D01*
X284888Y160696D01*
X283993Y161067D01*
X283032Y161193D01*
X282071Y161067D01*
X281326Y160758D01*
X278046Y164038D01*
X277685Y164279D01*
X277260Y164364D01*
D02*
G37*
G36*
X173532Y161540D02*
Y157980D01*
X177092D01*
X177017Y158548D01*
X176605Y159543D01*
X175949Y160398D01*
X175094Y161054D01*
X174100Y161466D01*
X173532Y161540D01*
D02*
G37*
G36*
X172532D02*
X171964Y161466D01*
X170969Y161054D01*
X170114Y160398D01*
X169458Y159543D01*
X169046Y158548D01*
X168972Y157980D01*
X172532D01*
Y161540D01*
D02*
G37*
G36*
X313032Y161193D02*
X312071Y161067D01*
X311175Y160696D01*
X310406Y160106D01*
X309816Y159337D01*
X309445Y158441D01*
X309319Y157480D01*
X309445Y156519D01*
X309816Y155624D01*
X310406Y154855D01*
X311175Y154265D01*
X312071Y153894D01*
X313032Y153768D01*
X313993Y153894D01*
X314888Y154265D01*
X315657Y154855D01*
X316247Y155624D01*
X316618Y156519D01*
X316744Y157480D01*
X316618Y158441D01*
X316247Y159337D01*
X315657Y160106D01*
X314888Y160696D01*
X313993Y161067D01*
X313032Y161193D01*
D02*
G37*
G36*
X303032D02*
X302071Y161067D01*
X301175Y160696D01*
X300406Y160106D01*
X299816Y159337D01*
X299445Y158441D01*
X299319Y157480D01*
X299445Y156519D01*
X299816Y155624D01*
X300406Y154855D01*
X301175Y154265D01*
X302071Y153894D01*
X303032Y153768D01*
X303993Y153894D01*
X304888Y154265D01*
X305657Y154855D01*
X306247Y155624D01*
X306618Y156519D01*
X306745Y157480D01*
X306618Y158441D01*
X306247Y159337D01*
X305657Y160106D01*
X304888Y160696D01*
X303993Y161067D01*
X303032Y161193D01*
D02*
G37*
G36*
X293032D02*
X292071Y161067D01*
X291175Y160696D01*
X290406Y160106D01*
X289816Y159337D01*
X289445Y158441D01*
X289319Y157480D01*
X289445Y156519D01*
X289816Y155624D01*
X290406Y154855D01*
X291175Y154265D01*
X292071Y153894D01*
X293032Y153768D01*
X293993Y153894D01*
X294888Y154265D01*
X295657Y154855D01*
X296247Y155624D01*
X296618Y156519D01*
X296744Y157480D01*
X296618Y158441D01*
X296247Y159337D01*
X295657Y160106D01*
X294888Y160696D01*
X293993Y161067D01*
X293032Y161193D01*
D02*
G37*
G36*
X177092Y156980D02*
X173532D01*
Y153420D01*
X174100Y153495D01*
X175094Y153907D01*
X175949Y154563D01*
X176605Y155418D01*
X177017Y156413D01*
X177092Y156980D01*
D02*
G37*
G36*
X327122D02*
X323032D01*
X318941D01*
Y153390D01*
X321920D01*
Y94291D01*
X321920Y94291D01*
X322004Y93866D01*
X322245Y93505D01*
X324270Y91480D01*
X323905Y90599D01*
X323835Y90067D01*
X327256D01*
Y93488D01*
X326724Y93418D01*
X325843Y93053D01*
X324144Y94752D01*
Y105439D01*
X324643Y105538D01*
X324661Y105497D01*
X325229Y104756D01*
X325969Y104188D01*
X326831Y103831D01*
X327756Y103709D01*
X328681Y103831D01*
X329543Y104188D01*
X330283Y104756D01*
X330851Y105497D01*
X331208Y106358D01*
X331330Y107283D01*
X331208Y108208D01*
X330851Y109070D01*
X330283Y109810D01*
X329543Y110379D01*
X328681Y110735D01*
X327756Y110857D01*
X326831Y110735D01*
X325969Y110379D01*
X325229Y109810D01*
X324661Y109070D01*
X324643Y109028D01*
X324144Y109128D01*
Y153390D01*
X327122D01*
Y156980D01*
D02*
G37*
G36*
X302165Y110857D02*
X301240Y110735D01*
X300378Y110379D01*
X299638Y109810D01*
X299070Y109070D01*
X298713Y108208D01*
X298591Y107283D01*
X298713Y106358D01*
X299070Y105497D01*
X299638Y104756D01*
X300378Y104188D01*
X301240Y103831D01*
X302165Y103709D01*
X303090Y103831D01*
X303952Y104188D01*
X304693Y104756D01*
X305260Y105497D01*
X305617Y106358D01*
X305739Y107283D01*
X305617Y108208D01*
X305260Y109070D01*
X304693Y109810D01*
X303952Y110379D01*
X303090Y110735D01*
X302165Y110857D01*
D02*
G37*
G36*
X243110D02*
X242185Y110735D01*
X241323Y110379D01*
X240583Y109810D01*
X240015Y109070D01*
X239658Y108208D01*
X239536Y107283D01*
X239658Y106358D01*
X239938Y105683D01*
X231064Y96810D01*
X230823Y96449D01*
X230738Y96024D01*
X230738Y96024D01*
Y32210D01*
X229964Y31889D01*
X229183Y31289D01*
X228583Y30508D01*
X228206Y29598D01*
X228078Y28622D01*
X228206Y27646D01*
X228583Y26736D01*
X229183Y25954D01*
X229964Y25355D01*
X230874Y24978D01*
X231850Y24850D01*
X232827Y24978D01*
X233737Y25355D01*
X234518Y25954D01*
X235117Y26736D01*
X235494Y27646D01*
X235623Y28622D01*
X235494Y29598D01*
X235117Y30508D01*
X234518Y31289D01*
X233737Y31889D01*
X232962Y32210D01*
Y95563D01*
X233807Y96408D01*
X234252Y96218D01*
X234285Y96179D01*
X234183Y95400D01*
X234289Y94593D01*
X234600Y93841D01*
X235096Y93196D01*
X235741Y92700D01*
X236188Y92515D01*
Y24532D01*
X233601Y21945D01*
X232827Y22266D01*
X231850Y22394D01*
X230874Y22266D01*
X229964Y21889D01*
X229183Y21290D01*
X228583Y20508D01*
X228206Y19598D01*
X228078Y18622D01*
X228206Y17646D01*
X228583Y16736D01*
X229183Y15955D01*
X229964Y15355D01*
X230874Y14978D01*
X231850Y14850D01*
X232827Y14978D01*
X233737Y15355D01*
X234518Y15955D01*
X235117Y16736D01*
X235494Y17646D01*
X235623Y18622D01*
X235494Y19598D01*
X235174Y20373D01*
X238086Y23285D01*
X238086Y23285D01*
X238327Y23646D01*
X238412Y24072D01*
X238412Y24072D01*
Y26138D01*
X238912Y26308D01*
X239183Y25954D01*
X239964Y25355D01*
X240874Y24978D01*
X241850Y24850D01*
X242827Y24978D01*
X243737Y25355D01*
X244518Y25954D01*
X245117Y26736D01*
X245494Y27646D01*
X245623Y28622D01*
X245494Y29598D01*
X245117Y30508D01*
X244518Y31289D01*
X243737Y31889D01*
X242827Y32266D01*
X241850Y32394D01*
X240874Y32266D01*
X239964Y31889D01*
X239183Y31289D01*
X238912Y30936D01*
X238412Y31106D01*
Y92515D01*
X238859Y92700D01*
X239504Y93196D01*
X240000Y93841D01*
X240311Y94593D01*
X240417Y95400D01*
X240311Y96207D01*
X240000Y96959D01*
X239504Y97604D01*
X238859Y98100D01*
X238107Y98411D01*
X237300Y98517D01*
X236521Y98415D01*
X236482Y98448D01*
X236293Y98893D01*
X241510Y104111D01*
X242185Y103831D01*
X243110Y103709D01*
X244035Y103831D01*
X244897Y104188D01*
X245637Y104756D01*
X246205Y105497D01*
X246562Y106358D01*
X246684Y107283D01*
X246562Y108208D01*
X246205Y109070D01*
X245637Y109810D01*
X244897Y110379D01*
X244035Y110735D01*
X243110Y110857D01*
D02*
G37*
G36*
X91535D02*
X90610Y110735D01*
X89749Y110379D01*
X89008Y109810D01*
X88440Y109070D01*
X88083Y108208D01*
X87962Y107283D01*
X88083Y106358D01*
X88440Y105497D01*
X89008Y104756D01*
X89749Y104188D01*
X90610Y103831D01*
X91535Y103709D01*
X92460Y103831D01*
X93322Y104188D01*
X94063Y104756D01*
X94630Y105497D01*
X94987Y106358D01*
X95109Y107283D01*
X94987Y108208D01*
X94630Y109070D01*
X94063Y109810D01*
X93322Y110379D01*
X92460Y110735D01*
X91535Y110857D01*
D02*
G37*
G36*
X65945D02*
X65020Y110735D01*
X64158Y110379D01*
X63418Y109810D01*
X62850Y109070D01*
X62493Y108208D01*
X62371Y107283D01*
X62493Y106358D01*
X62850Y105497D01*
X63418Y104756D01*
X64158Y104188D01*
X65020Y103831D01*
X65945Y103709D01*
X66870Y103831D01*
X67732Y104188D01*
X68472Y104756D01*
X69040Y105497D01*
X69397Y106358D01*
X69519Y107283D01*
X69397Y108208D01*
X69040Y109070D01*
X68472Y109810D01*
X67732Y110379D01*
X66870Y110735D01*
X65945Y110857D01*
D02*
G37*
G36*
X21654Y102893D02*
X20497Y102740D01*
X19420Y102294D01*
X18495Y101584D01*
X17785Y100659D01*
X17338Y99581D01*
X17186Y98425D01*
X17338Y97269D01*
X17785Y96192D01*
X18495Y95266D01*
X19420Y94556D01*
X20497Y94110D01*
X21654Y93958D01*
X22810Y94110D01*
X23887Y94556D01*
X24813Y95266D01*
X25522Y96192D01*
X25969Y97269D01*
X26121Y98425D01*
X25969Y99581D01*
X25522Y100659D01*
X24813Y101584D01*
X23887Y102294D01*
X22810Y102740D01*
X21654Y102893D01*
D02*
G37*
G36*
X43258Y102903D02*
X39419D01*
X38440Y102709D01*
X37610Y102154D01*
X37055Y101324D01*
X36860Y100345D01*
Y96506D01*
X37055Y95527D01*
X37610Y94696D01*
X38440Y94142D01*
X39419Y93947D01*
X43258D01*
X44237Y94142D01*
X45067Y94696D01*
X45622Y95527D01*
X45817Y96506D01*
Y100345D01*
X45622Y101324D01*
X45067Y102154D01*
X44237Y102709D01*
X43258Y102903D01*
D02*
G37*
G36*
X328256Y93488D02*
Y90067D01*
X331677D01*
X331607Y90599D01*
X331209Y91560D01*
X330575Y92386D01*
X329749Y93020D01*
X328788Y93418D01*
X328256Y93488D01*
D02*
G37*
G36*
X302665D02*
Y90067D01*
X306086D01*
X306016Y90599D01*
X305618Y91560D01*
X304984Y92386D01*
X304159Y93020D01*
X303197Y93418D01*
X302665Y93488D01*
D02*
G37*
G36*
X301665D02*
X301133Y93418D01*
X300172Y93020D01*
X299346Y92386D01*
X298713Y91560D01*
X298314Y90599D01*
X298244Y90067D01*
X301665D01*
Y93488D01*
D02*
G37*
G36*
X268201D02*
X267669Y93418D01*
X266707Y93020D01*
X265882Y92386D01*
X265248Y91560D01*
X264850Y90599D01*
X264780Y90067D01*
X268201D01*
Y93488D01*
D02*
G37*
G36*
X243610D02*
Y90067D01*
X247031D01*
X246961Y90599D01*
X246563Y91560D01*
X245929Y92386D01*
X245104Y93020D01*
X244142Y93418D01*
X243610Y93488D01*
D02*
G37*
G36*
X242610D02*
X242078Y93418D01*
X241117Y93020D01*
X240291Y92386D01*
X239657Y91560D01*
X239259Y90599D01*
X239189Y90067D01*
X242610D01*
Y93488D01*
D02*
G37*
G36*
X150091D02*
X149559Y93418D01*
X148597Y93020D01*
X147772Y92386D01*
X147138Y91560D01*
X146740Y90599D01*
X146670Y90067D01*
X150091D01*
Y93488D01*
D02*
G37*
G36*
X125500D02*
Y90067D01*
X128921D01*
X128851Y90599D01*
X128453Y91560D01*
X127819Y92386D01*
X126993Y93020D01*
X126032Y93418D01*
X125500Y93488D01*
D02*
G37*
G36*
X124500D02*
X123968Y93418D01*
X123007Y93020D01*
X122181Y92386D01*
X121547Y91560D01*
X121149Y90599D01*
X121079Y90067D01*
X124500D01*
Y93488D01*
D02*
G37*
G36*
X92035D02*
Y90067D01*
X95456D01*
X95386Y90599D01*
X94988Y91560D01*
X94354Y92386D01*
X93529Y93020D01*
X92567Y93418D01*
X92035Y93488D01*
D02*
G37*
G36*
X91035D02*
X90504Y93418D01*
X89542Y93020D01*
X88716Y92386D01*
X88083Y91560D01*
X87684Y90599D01*
X87614Y90067D01*
X91035D01*
Y93488D01*
D02*
G37*
G36*
X66445D02*
Y90067D01*
X69866D01*
X69796Y90599D01*
X69397Y91560D01*
X68764Y92386D01*
X67938Y93020D01*
X66977Y93418D01*
X66445Y93488D01*
D02*
G37*
G36*
X65445D02*
X64913Y93418D01*
X63951Y93020D01*
X63126Y92386D01*
X62492Y91560D01*
X62094Y90599D01*
X62024Y90067D01*
X65445D01*
Y93488D01*
D02*
G37*
G36*
X331677Y89067D02*
X328256D01*
Y85646D01*
X328788Y85716D01*
X329749Y86114D01*
X330575Y86748D01*
X331209Y87574D01*
X331607Y88535D01*
X331677Y89067D01*
D02*
G37*
G36*
X327256D02*
X323835D01*
X323905Y88535D01*
X324303Y87574D01*
X324937Y86748D01*
X325763Y86114D01*
X326724Y85716D01*
X327256Y85646D01*
Y89067D01*
D02*
G37*
G36*
X306086D02*
X302665D01*
Y85646D01*
X303197Y85716D01*
X304159Y86114D01*
X304984Y86748D01*
X305618Y87574D01*
X306016Y88535D01*
X306086Y89067D01*
D02*
G37*
G36*
X301665D02*
X298244D01*
X298314Y88535D01*
X298713Y87574D01*
X299346Y86748D01*
X300172Y86114D01*
X301133Y85716D01*
X301665Y85646D01*
Y89067D01*
D02*
G37*
G36*
X268201D02*
X264780D01*
X264850Y88535D01*
X265248Y87574D01*
X265882Y86748D01*
X266707Y86114D01*
X267669Y85716D01*
X268201Y85646D01*
Y89067D01*
D02*
G37*
G36*
X247031D02*
X243610D01*
Y85646D01*
X244142Y85716D01*
X245104Y86114D01*
X245929Y86748D01*
X246563Y87574D01*
X246961Y88535D01*
X247031Y89067D01*
D02*
G37*
G36*
X242610D02*
X239189D01*
X239259Y88535D01*
X239657Y87574D01*
X240291Y86748D01*
X241117Y86114D01*
X242078Y85716D01*
X242610Y85646D01*
Y89067D01*
D02*
G37*
G36*
X128921D02*
X125500D01*
Y85646D01*
X126032Y85716D01*
X126993Y86114D01*
X127819Y86748D01*
X128453Y87574D01*
X128851Y88535D01*
X128921Y89067D01*
D02*
G37*
G36*
X124500D02*
X121079D01*
X121149Y88535D01*
X121547Y87574D01*
X122181Y86748D01*
X123007Y86114D01*
X123968Y85716D01*
X124500Y85646D01*
Y89067D01*
D02*
G37*
G36*
X95456D02*
X92035D01*
Y85646D01*
X92567Y85716D01*
X93529Y86114D01*
X94354Y86748D01*
X94988Y87574D01*
X95386Y88535D01*
X95456Y89067D01*
D02*
G37*
G36*
X91035D02*
X87614D01*
X87684Y88535D01*
X88083Y87574D01*
X88716Y86748D01*
X89542Y86114D01*
X90504Y85716D01*
X91035Y85646D01*
Y89067D01*
D02*
G37*
G36*
X69866D02*
X66445D01*
Y85646D01*
X66977Y85716D01*
X67938Y86114D01*
X68764Y86748D01*
X69397Y87574D01*
X69796Y88535D01*
X69866Y89067D01*
D02*
G37*
G36*
X65445D02*
X62024D01*
X62094Y88535D01*
X62492Y87574D01*
X63126Y86748D01*
X63951Y86114D01*
X64913Y85716D01*
X65445Y85646D01*
Y89067D01*
D02*
G37*
G36*
X315670Y50836D02*
X314251D01*
X314210Y50819D01*
X314168Y50831D01*
X312760Y50645D01*
X312722Y50623D01*
X312679Y50629D01*
X311308Y50262D01*
X311273Y50235D01*
X311228D01*
X309917Y49692D01*
X309886Y49661D01*
X309842Y49655D01*
X308613Y48945D01*
X308586Y48910D01*
X308544Y48899D01*
X307418Y48035D01*
X307396Y47996D01*
X307355Y47980D01*
X306351Y46976D01*
X306334Y46935D01*
X306296Y46913D01*
X305432Y45787D01*
X305421Y45744D01*
X305386Y45718D01*
X304676Y44488D01*
X304670Y44445D01*
X304639Y44414D01*
X304096Y43102D01*
Y43058D01*
X304069Y43023D01*
X303702Y41652D01*
X303707Y41609D01*
X303685Y41570D01*
X303500Y40163D01*
X303512Y40121D01*
X303495Y40080D01*
Y38660D01*
X303512Y38620D01*
X303500Y38577D01*
X303685Y37170D01*
X303707Y37132D01*
X303702Y37088D01*
X304069Y35717D01*
X304096Y35682D01*
Y35638D01*
X304639Y34327D01*
X304670Y34295D01*
X304676Y34252D01*
X305386Y33022D01*
X305421Y32996D01*
X305432Y32953D01*
X306296Y31827D01*
X306334Y31805D01*
X306351Y31764D01*
X307355Y30761D01*
X307396Y30744D01*
X307418Y30705D01*
X308544Y29842D01*
X308586Y29830D01*
X308613Y29795D01*
X309842Y29085D01*
X309886Y29080D01*
X309917Y29048D01*
X311228Y28505D01*
X311273D01*
X311308Y28478D01*
X312679Y28111D01*
X312722Y28117D01*
X312760Y28095D01*
X314168Y27910D01*
X314210Y27921D01*
X314251Y27904D01*
X315670D01*
X315711Y27921D01*
X315754Y27910D01*
X317161Y28095D01*
X317199Y28117D01*
X317243Y28111D01*
X318614Y28478D01*
X318649Y28505D01*
X318693D01*
X320004Y29048D01*
X320035Y29080D01*
X320079Y29085D01*
X321308Y29795D01*
X321335Y29830D01*
X321378Y29842D01*
X322504Y30705D01*
X322526Y30744D01*
X322567Y30761D01*
X323570Y31764D01*
X323587Y31805D01*
X323625Y31827D01*
X324489Y32953D01*
X324501Y32996D01*
X324536Y33022D01*
X325245Y34252D01*
X325251Y34295D01*
X325282Y34327D01*
X325825Y35638D01*
Y35682D01*
X325852Y35717D01*
X326220Y37088D01*
X326214Y37132D01*
X326236Y37170D01*
X326421Y38577D01*
X326410Y38620D01*
X326427Y38660D01*
Y40080D01*
X326410Y40121D01*
X326421Y40163D01*
X326236Y41570D01*
X326214Y41609D01*
X326220Y41652D01*
X325852Y43023D01*
X325825Y43058D01*
Y43102D01*
X325282Y44414D01*
X325251Y44445D01*
X325245Y44488D01*
X324536Y45718D01*
X324501Y45744D01*
X324489Y45787D01*
X323625Y46913D01*
X323587Y46935D01*
X323570Y46976D01*
X322567Y47980D01*
X322526Y47996D01*
X322504Y48035D01*
X321378Y48899D01*
X321335Y48910D01*
X321308Y48945D01*
X320079Y49655D01*
X320035Y49661D01*
X320004Y49692D01*
X318693Y50235D01*
X318649D01*
X318614Y50262D01*
X317243Y50629D01*
X317199Y50623D01*
X317161Y50645D01*
X315754Y50831D01*
X315711Y50819D01*
X315670Y50836D01*
D02*
G37*
G36*
X79450D02*
X78031D01*
X77990Y50819D01*
X77947Y50831D01*
X76540Y50645D01*
X76502Y50623D01*
X76458Y50629D01*
X75087Y50262D01*
X75052Y50235D01*
X75008D01*
X73697Y49692D01*
X73665Y49661D01*
X73622Y49655D01*
X72393Y48945D01*
X72366Y48910D01*
X72323Y48899D01*
X71197Y48035D01*
X71175Y47996D01*
X71134Y47980D01*
X70131Y46976D01*
X70114Y46935D01*
X70076Y46913D01*
X69212Y45787D01*
X69200Y45744D01*
X69165Y45718D01*
X68455Y44488D01*
X68450Y44445D01*
X68419Y44414D01*
X67875Y43102D01*
Y43058D01*
X67848Y43023D01*
X67481Y41652D01*
X67487Y41609D01*
X67465Y41570D01*
X67280Y40163D01*
X67291Y40121D01*
X67274Y40080D01*
Y38660D01*
X67291Y38620D01*
X67280Y38577D01*
X67465Y37170D01*
X67487Y37132D01*
X67481Y37088D01*
X67848Y35717D01*
X67875Y35682D01*
Y35638D01*
X68419Y34327D01*
X68450Y34295D01*
X68455Y34252D01*
X69165Y33022D01*
X69200Y32996D01*
X69212Y32953D01*
X70076Y31827D01*
X70114Y31805D01*
X70131Y31764D01*
X71134Y30761D01*
X71175Y30744D01*
X71197Y30705D01*
X72323Y29842D01*
X72366Y29830D01*
X72393Y29795D01*
X73622Y29085D01*
X73665Y29080D01*
X73697Y29048D01*
X75008Y28505D01*
X75052D01*
X75087Y28478D01*
X76458Y28111D01*
X76502Y28117D01*
X76540Y28095D01*
X77947Y27910D01*
X77990Y27921D01*
X78031Y27904D01*
X79450D01*
X79491Y27921D01*
X79533Y27910D01*
X80940Y28095D01*
X80979Y28117D01*
X81022Y28111D01*
X82393Y28478D01*
X82428Y28505D01*
X82472D01*
X83784Y29048D01*
X83815Y29080D01*
X83859Y29085D01*
X85088Y29795D01*
X85115Y29830D01*
X85157Y29842D01*
X86283Y30705D01*
X86305Y30744D01*
X86346Y30761D01*
X87350Y31764D01*
X87366Y31805D01*
X87405Y31827D01*
X88269Y32953D01*
X88280Y32996D01*
X88315Y33022D01*
X89025Y34252D01*
X89031Y34295D01*
X89062Y34327D01*
X89605Y35638D01*
Y35682D01*
X89632Y35717D01*
X89999Y37088D01*
X89993Y37132D01*
X90015Y37170D01*
X90201Y38577D01*
X90189Y38620D01*
X90206Y38660D01*
Y40080D01*
X90189Y40121D01*
X90201Y40163D01*
X90015Y41570D01*
X89993Y41609D01*
X89999Y41652D01*
X89632Y43023D01*
X89605Y43058D01*
Y43102D01*
X89062Y44414D01*
X89031Y44445D01*
X89025Y44488D01*
X88315Y45718D01*
X88280Y45744D01*
X88269Y45787D01*
X87405Y46913D01*
X87366Y46935D01*
X87350Y46976D01*
X86346Y47980D01*
X86305Y47996D01*
X86283Y48035D01*
X85157Y48899D01*
X85115Y48910D01*
X85088Y48945D01*
X83859Y49655D01*
X83815Y49661D01*
X83784Y49692D01*
X82472Y50235D01*
X82428D01*
X82393Y50262D01*
X81022Y50629D01*
X80979Y50623D01*
X80940Y50645D01*
X79533Y50831D01*
X79491Y50819D01*
X79450Y50836D01*
D02*
G37*
G36*
X125000Y110857D02*
X124075Y110735D01*
X123213Y110379D01*
X122473Y109810D01*
X121905Y109070D01*
X121548Y108208D01*
X121426Y107283D01*
X121548Y106358D01*
X121905Y105497D01*
X122473Y104756D01*
X123213Y104188D01*
X124075Y103831D01*
X125000Y103709D01*
X125925Y103831D01*
X126600Y104111D01*
X135488Y95223D01*
Y42985D01*
X135041Y42800D01*
X134396Y42304D01*
X133900Y41659D01*
X133589Y40907D01*
X133483Y40100D01*
X133589Y39293D01*
X133900Y38541D01*
X134396Y37896D01*
X135041Y37400D01*
X135793Y37089D01*
X136600Y36983D01*
X137407Y37089D01*
X138159Y37400D01*
X138804Y37896D01*
X139300Y38541D01*
X139611Y39293D01*
X139717Y40100D01*
X139611Y40907D01*
X139300Y41659D01*
X138804Y42304D01*
X138159Y42800D01*
X137712Y42985D01*
Y95683D01*
X137712Y95683D01*
X137627Y96109D01*
X137386Y96470D01*
X137386Y96470D01*
X128173Y105683D01*
X128452Y106358D01*
X128574Y107283D01*
X128452Y108208D01*
X128095Y109070D01*
X127527Y109810D01*
X126787Y110379D01*
X125925Y110735D01*
X125000Y110857D01*
D02*
G37*
G36*
X151350Y28122D02*
X147679D01*
Y27047D01*
X147767Y26375D01*
X148027Y25749D01*
X148439Y25211D01*
X148977Y24798D01*
X149603Y24539D01*
X150276Y24450D01*
X151350D01*
Y28122D01*
D02*
G37*
G36*
X241850Y22394D02*
X240874Y22266D01*
X239964Y21889D01*
X239183Y21290D01*
X238583Y20508D01*
X238207Y19598D01*
X238078Y18622D01*
X238207Y17646D01*
X238583Y16736D01*
X239183Y15955D01*
X239964Y15355D01*
X240874Y14978D01*
X241850Y14850D01*
X242827Y14978D01*
X243737Y15355D01*
X244518Y15955D01*
X245117Y16736D01*
X245494Y17646D01*
X245623Y18622D01*
X245494Y19598D01*
X245117Y20508D01*
X244518Y21290D01*
X243737Y21889D01*
X242827Y22266D01*
X241850Y22394D01*
D02*
G37*
%LPD*%
G36*
X189462Y158483D02*
X189445Y158441D01*
X189319Y157480D01*
X189445Y156519D01*
X189754Y155775D01*
X188793Y154814D01*
X188331Y155005D01*
Y158058D01*
X189039Y158766D01*
X189462Y158483D01*
D02*
G37*
G36*
X230363Y160050D02*
X229816Y159337D01*
X229445Y158441D01*
X229319Y157480D01*
X229445Y156519D01*
X229754Y155775D01*
X222514Y148535D01*
X222273Y148174D01*
X222188Y147749D01*
X222188Y147749D01*
Y79017D01*
X221688Y78770D01*
X221259Y79100D01*
X220812Y79285D01*
Y153688D01*
X221326Y154202D01*
X222071Y153894D01*
X223032Y153768D01*
X223993Y153894D01*
X224888Y154265D01*
X225657Y154855D01*
X226247Y155624D01*
X226618Y156519D01*
X226745Y157480D01*
X226618Y158441D01*
X226247Y159337D01*
X225700Y160050D01*
X225812Y160550D01*
X230251D01*
X230363Y160050D01*
D02*
G37*
G36*
X186043Y154724D02*
X186107Y154702D01*
Y130179D01*
X171064Y115137D01*
X170823Y114776D01*
X170738Y114350D01*
X170738Y114350D01*
Y32210D01*
X169964Y31889D01*
X169183Y31289D01*
X168583Y30508D01*
X168412Y30094D01*
X167912Y30194D01*
Y124739D01*
X177547Y134374D01*
X177993Y134189D01*
X178800Y134083D01*
X179607Y134189D01*
X180359Y134500D01*
X181004Y134996D01*
X181500Y135641D01*
X181811Y136393D01*
X181917Y137200D01*
X181811Y138007D01*
X181500Y138759D01*
X181004Y139404D01*
X180359Y139900D01*
X179607Y140211D01*
X178800Y140317D01*
X177993Y140211D01*
X177241Y139900D01*
X176596Y139404D01*
X176100Y138759D01*
X175789Y138007D01*
X175683Y137200D01*
X175789Y136393D01*
X175974Y135947D01*
X166014Y125986D01*
X165773Y125626D01*
X165688Y125200D01*
X165688Y125200D01*
Y30437D01*
X165188Y30338D01*
X165117Y30508D01*
X164518Y31289D01*
X163737Y31889D01*
X162827Y32266D01*
X161850Y32394D01*
X160874Y32266D01*
X159964Y31889D01*
X159183Y31289D01*
X158583Y30508D01*
X158512Y30336D01*
X158012Y30435D01*
Y130888D01*
X181326Y154202D01*
X182071Y153894D01*
X183032Y153768D01*
X183993Y153894D01*
X184888Y154265D01*
X185607Y154817D01*
X186043Y154724D01*
D02*
G37*
G36*
X198906Y161678D02*
X198014Y160786D01*
X197773Y160425D01*
X197688Y160000D01*
X197688Y160000D01*
Y113400D01*
X197688Y113400D01*
X197773Y112975D01*
X198014Y112614D01*
X200634Y109994D01*
X200565Y109356D01*
X200503Y109317D01*
X199133Y109684D01*
X199089Y109678D01*
X199050Y109701D01*
X197643Y109886D01*
X197601Y109874D01*
X197560Y109891D01*
X196141D01*
X196100Y109874D01*
X196057Y109886D01*
X194650Y109701D01*
X194612Y109678D01*
X194568Y109684D01*
X193197Y109317D01*
X193162Y109290D01*
X193118D01*
X191807Y108747D01*
X191776Y108716D01*
X191732Y108710D01*
X190503Y108000D01*
X190476Y107965D01*
X190433Y107954D01*
X189307Y107090D01*
X189285Y107052D01*
X189244Y107035D01*
X188241Y106031D01*
X188224Y105990D01*
X188186Y105968D01*
X187322Y104842D01*
X187310Y104800D01*
X187275Y104773D01*
X186566Y103544D01*
X186512Y103537D01*
X186012Y103976D01*
Y113139D01*
X193186Y120314D01*
X193186Y120314D01*
X193427Y120675D01*
X193512Y121100D01*
Y148415D01*
X193959Y148600D01*
X194604Y149096D01*
X195100Y149741D01*
X195411Y150493D01*
X195517Y151300D01*
X195411Y152107D01*
X195100Y152859D01*
X194604Y153504D01*
X194457Y153618D01*
X194522Y154113D01*
X194888Y154265D01*
X195657Y154855D01*
X196247Y155624D01*
X196618Y156519D01*
X196745Y157480D01*
X196618Y158441D01*
X196247Y159337D01*
X195657Y160106D01*
X194888Y160696D01*
X193993Y161067D01*
X193032Y161193D01*
X192071Y161067D01*
X192029Y161050D01*
X191746Y161474D01*
X192413Y162140D01*
X198714D01*
X198906Y161678D01*
D02*
G37*
G36*
X220363Y160050D02*
X219816Y159337D01*
X219445Y158441D01*
X219319Y157480D01*
X219445Y156519D01*
X219754Y155775D01*
X218914Y154935D01*
X218673Y154574D01*
X218588Y154149D01*
X218588Y154149D01*
Y79285D01*
X218141Y79100D01*
X217712Y78770D01*
X217212Y79017D01*
Y154412D01*
X217127Y154838D01*
X216886Y155198D01*
X216886Y155198D01*
X216310Y155775D01*
X216618Y156519D01*
X216744Y157480D01*
X216618Y158441D01*
X216247Y159337D01*
X215700Y160050D01*
X215812Y160550D01*
X220251D01*
X220363Y160050D01*
D02*
G37*
G36*
X210363D02*
X209816Y159337D01*
X209445Y158441D01*
X209319Y157480D01*
X209445Y156519D01*
X209816Y155624D01*
X210406Y154855D01*
X211175Y154265D01*
X212071Y153894D01*
X213032Y153768D01*
X213993Y153894D01*
X214562Y154130D01*
X214988Y153800D01*
Y31449D01*
X214687Y31347D01*
X214488Y31312D01*
X213737Y31889D01*
X212962Y32210D01*
Y148662D01*
X212962Y148662D01*
X212878Y149087D01*
X212637Y149448D01*
X212637Y149448D01*
X206310Y155775D01*
X206618Y156519D01*
X206745Y157480D01*
X206618Y158441D01*
X206247Y159337D01*
X205700Y160050D01*
X205812Y160550D01*
X210251D01*
X210363Y160050D01*
D02*
G37*
G36*
X186566Y93307D02*
X187275Y92078D01*
X187310Y92051D01*
X187322Y92008D01*
X188186Y90882D01*
X188224Y90860D01*
X188241Y90819D01*
X189244Y89816D01*
X189285Y89799D01*
X189307Y89761D01*
X190433Y88897D01*
X190476Y88885D01*
X190503Y88850D01*
X191732Y88141D01*
X191776Y88135D01*
X191807Y88104D01*
X193118Y87560D01*
X193162D01*
X193197Y87534D01*
X194568Y87166D01*
X194612Y87172D01*
X194650Y87150D01*
X196057Y86965D01*
X196100Y86976D01*
X196141Y86959D01*
X197560D01*
X197601Y86976D01*
X197643Y86965D01*
X199050Y87150D01*
X199089Y87172D01*
X199133Y87166D01*
X200503Y87534D01*
X200538Y87560D01*
X200583D01*
X201894Y88104D01*
X201925Y88135D01*
X201969Y88141D01*
X203198Y88850D01*
X203225Y88885D01*
X203267Y88897D01*
X204393Y89761D01*
X204415Y89799D01*
X204456Y89816D01*
X205460Y90819D01*
X205477Y90860D01*
X205515Y90882D01*
X206379Y92008D01*
X206390Y92051D01*
X206425Y92078D01*
X207135Y93307D01*
X207188Y93313D01*
X207688Y92873D01*
Y86861D01*
X195314Y74486D01*
X195073Y74125D01*
X194988Y73700D01*
X194988Y73700D01*
Y31449D01*
X194687Y31347D01*
X194488Y31312D01*
X193737Y31889D01*
X192827Y32266D01*
X191850Y32394D01*
X190874Y32266D01*
X190100Y31945D01*
X186012Y36033D01*
Y92874D01*
X186512Y93313D01*
X186566Y93307D01*
D02*
G37*
G36*
X187698Y127972D02*
Y126070D01*
X180114Y118486D01*
X179873Y118125D01*
X179788Y117700D01*
X179788Y117700D01*
Y35061D01*
X176114Y31386D01*
X175873Y31025D01*
X175788Y30600D01*
X175708Y30390D01*
X175169Y30383D01*
X175117Y30508D01*
X174518Y31289D01*
X173737Y31889D01*
X172962Y32210D01*
Y113890D01*
X187235Y128163D01*
X187698Y127972D01*
D02*
G37*
G36*
X214664Y25436D02*
X213967Y24740D01*
X213646Y24776D01*
X213574Y25288D01*
X213737Y25355D01*
X214333Y25813D01*
X214664Y25436D01*
D02*
G37*
G36*
X201175Y154265D02*
X202071Y153894D01*
X203032Y153768D01*
X203993Y153894D01*
X204737Y154202D01*
X210738Y148201D01*
Y32210D01*
X209964Y31889D01*
X209183Y31289D01*
X208583Y30508D01*
X208207Y29598D01*
X208078Y28622D01*
X208207Y27646D01*
X208583Y26736D01*
X209183Y25954D01*
X209964Y25355D01*
X210310Y25212D01*
X210210Y24712D01*
X206828D01*
X206828Y24712D01*
X206403Y24627D01*
X206042Y24386D01*
X206042Y24386D01*
X203601Y21945D01*
X202827Y22266D01*
X201850Y22394D01*
X200874Y22266D01*
X199964Y21889D01*
X199183Y21290D01*
X198583Y20508D01*
X198206Y19598D01*
X198078Y18622D01*
X198206Y17646D01*
X198583Y16736D01*
X199153Y15994D01*
X199097Y15701D01*
X199027Y15494D01*
X196551D01*
X195174Y16871D01*
X195494Y17646D01*
X195623Y18622D01*
X195494Y19598D01*
X195117Y20508D01*
X194518Y21290D01*
X194300Y21456D01*
X194322Y22071D01*
X194386Y22114D01*
X196886Y24614D01*
X196886Y24614D01*
X197127Y24974D01*
X197212Y25400D01*
Y73239D01*
X209586Y85614D01*
X209586Y85614D01*
X209827Y85975D01*
X209912Y86400D01*
Y103400D01*
X209912Y103400D01*
X209827Y103825D01*
X209586Y104186D01*
X209586Y104186D01*
X199912Y113861D01*
Y154721D01*
X200221Y154826D01*
X200412Y154851D01*
X201175Y154265D01*
D02*
G37*
G36*
X218141Y73700D02*
X218893Y73389D01*
X219700Y73283D01*
X220507Y73389D01*
X221259Y73700D01*
X221688Y74030D01*
X222188Y73783D01*
Y43742D01*
X219323Y40877D01*
X219082Y40516D01*
X218998Y40091D01*
X218998Y40091D01*
Y34391D01*
X218998Y34391D01*
X219082Y33965D01*
X219323Y33604D01*
X220406Y32522D01*
X220308Y32032D01*
X219964Y31889D01*
X219183Y31289D01*
X218583Y30508D01*
X218207Y29598D01*
X218078Y28622D01*
X218207Y27646D01*
X218583Y26736D01*
X219183Y25954D01*
X219964Y25355D01*
X220310Y25212D01*
X220210Y24712D01*
X217900D01*
X217552Y24643D01*
X217458Y24694D01*
X217328Y24806D01*
X217155Y25015D01*
X217212Y25300D01*
Y73783D01*
X217712Y74030D01*
X218141Y73700D01*
D02*
G37*
G36*
X214894Y22372D02*
X215006Y22242D01*
X215057Y22148D01*
X214988Y21800D01*
X214988Y21800D01*
Y21449D01*
X214687Y21347D01*
X214488Y21312D01*
X213737Y21889D01*
X213497Y21988D01*
X213597Y22488D01*
X214400D01*
X214400Y22488D01*
X214685Y22545D01*
X214894Y22372D01*
D02*
G37*
G36*
X210203Y21988D02*
X209964Y21889D01*
X209183Y21290D01*
X208583Y20508D01*
X208207Y19598D01*
X208078Y18622D01*
X208207Y17646D01*
X208583Y16736D01*
X209153Y15994D01*
X209097Y15701D01*
X209027Y15494D01*
X204674D01*
X204604Y15701D01*
X204548Y15994D01*
X205117Y16736D01*
X205494Y17646D01*
X205623Y18622D01*
X205494Y19598D01*
X205174Y20373D01*
X207289Y22488D01*
X210104D01*
X210203Y21988D01*
D02*
G37*
%LPC*%
G36*
X201850Y32394D02*
X200874Y32266D01*
X199964Y31889D01*
X199183Y31289D01*
X198583Y30508D01*
X198206Y29598D01*
X198078Y28622D01*
X198206Y27646D01*
X198583Y26736D01*
X199183Y25954D01*
X199964Y25355D01*
X200874Y24978D01*
X201850Y24850D01*
X202827Y24978D01*
X203737Y25355D01*
X204518Y25954D01*
X205117Y26736D01*
X205494Y27646D01*
X205623Y28622D01*
X205494Y29598D01*
X205117Y30508D01*
X204518Y31289D01*
X203737Y31889D01*
X202827Y32266D01*
X201850Y32394D01*
D02*
G37*
%LPD*%
D12*
X323032Y163386D02*
X378012Y218366D01*
X323032Y157480D02*
Y163386D01*
Y94291D02*
Y157480D01*
Y94291D02*
X327756Y89567D01*
X150591D02*
X154700Y93676D01*
Y139149D01*
X173032Y157480D01*
X277260Y163252D02*
X283032Y157480D01*
X191952Y163252D02*
X277260D01*
X187219Y158519D02*
X191952Y163252D01*
X187219Y129719D02*
Y158519D01*
X171850Y114350D02*
X187219Y129719D01*
X171850Y28622D02*
Y114350D01*
X223700Y36500D02*
X228500Y41300D01*
Y122949D01*
X263032Y157480D01*
X192400Y121100D02*
Y151300D01*
X184900Y113600D02*
X192400Y121100D01*
X184900Y35572D02*
Y113600D01*
Y35572D02*
X191850Y28622D01*
Y18622D02*
X196091Y14382D01*
X214482D01*
X216100Y16000D01*
Y21800D01*
X217900Y23600D01*
X224100D01*
X226100Y25600D01*
Y30800D01*
X224000Y32900D02*
X226100Y30800D01*
X221600Y32900D02*
X224000D01*
X220109Y34391D02*
X221600Y32900D01*
X220109Y34391D02*
Y40091D01*
X223300Y43281D01*
Y147749D01*
X233032Y157480D01*
X219700Y154149D02*
X223032Y157480D01*
X219700Y76400D02*
Y154149D01*
X213032Y157480D02*
X216100Y154412D01*
Y25300D02*
Y154412D01*
X214400Y23600D02*
X216100Y25300D01*
X206828Y23600D02*
X214400D01*
X201850Y18622D02*
X206828Y23600D01*
X211850Y28622D02*
Y148662D01*
X203032Y157480D02*
X211850Y148662D01*
X125000Y107283D02*
X136600Y95683D01*
Y40100D02*
Y95683D01*
X231850Y96024D02*
X243110Y107283D01*
X231850Y28622D02*
Y96024D01*
Y18622D02*
X237300Y24072D01*
Y95400D01*
X176900Y24800D02*
Y30600D01*
X180900Y34600D01*
Y117700D01*
X188809Y125609D01*
Y153258D01*
X193032Y157480D01*
X248751Y153200D02*
X253032Y157480D01*
X240000Y153200D02*
X248751D01*
X238100Y155100D02*
X240000Y153200D01*
X238100Y155100D02*
Y159700D01*
X236138Y161662D02*
X238100Y159700D01*
X200462Y161662D02*
X236138D01*
X198800Y160000D02*
X200462Y161662D01*
X198800Y113400D02*
Y160000D01*
Y113400D02*
X208800Y103400D01*
Y86400D02*
Y103400D01*
X196100Y73700D02*
X208800Y86400D01*
X196100Y25400D02*
Y73700D01*
X193600Y22900D02*
X196100Y25400D01*
X186128Y22900D02*
X193600D01*
X181850Y18622D02*
X186128Y22900D01*
X273032Y13832D02*
Y157480D01*
X271991Y12791D02*
X273032Y13832D01*
X177681Y12791D02*
X271991D01*
X171850Y18622D02*
X177681Y12791D01*
X166800Y125200D02*
X178800Y137200D01*
X166800Y23572D02*
Y125200D01*
X161850Y18622D02*
X166800Y23572D01*
X156900Y131349D02*
X183032Y157480D01*
X156900Y23672D02*
Y131349D01*
X151850Y18622D02*
X156900Y23672D01*
X150591Y59660D02*
Y89567D01*
Y59660D02*
X151850Y58400D01*
Y28622D02*
Y58400D01*
D13*
X378012Y168366D02*
D03*
D14*
X368012Y198366D02*
D03*
X378012Y218366D02*
D03*
D15*
X173032Y157480D02*
D03*
X183032D02*
D03*
X193032D02*
D03*
X203032D02*
D03*
X213032D02*
D03*
X223032D02*
D03*
X233032D02*
D03*
X243032D02*
D03*
X253032D02*
D03*
X263032D02*
D03*
X273032D02*
D03*
X283032D02*
D03*
X293032D02*
D03*
X303032D02*
D03*
X313032D02*
D03*
D16*
X323032D02*
D03*
D23*
X211850Y18622D02*
D03*
Y28622D02*
D03*
X201850Y18622D02*
D03*
X191850D02*
D03*
X201850Y28622D02*
D03*
X191850D02*
D03*
X181850Y18622D02*
D03*
Y28622D02*
D03*
X171850Y18622D02*
D03*
Y28622D02*
D03*
X161850Y18622D02*
D03*
Y28622D02*
D03*
X151850Y18622D02*
D03*
X221850Y28622D02*
D03*
X231850D02*
D03*
X241850D02*
D03*
X221850Y18622D02*
D03*
X231850D02*
D03*
X241850D02*
D03*
D24*
X151850Y28622D02*
D03*
D25*
X21654Y98425D02*
D03*
D26*
X41339D02*
D03*
D27*
X65945Y107283D02*
D03*
Y89567D02*
D03*
X91535Y107283D02*
D03*
Y89567D02*
D03*
X243110Y107283D02*
D03*
Y89567D02*
D03*
X268701Y107283D02*
D03*
Y89567D02*
D03*
X302165Y107283D02*
D03*
Y89567D02*
D03*
X327756Y107283D02*
D03*
Y89567D02*
D03*
X125000Y107283D02*
D03*
Y89567D02*
D03*
X150591Y107283D02*
D03*
Y89567D02*
D03*
D28*
X223700Y36500D02*
D03*
X192400Y151300D02*
D03*
X219700Y76400D02*
D03*
X136600Y40100D02*
D03*
X237300Y95400D02*
D03*
X176900Y24800D02*
D03*
X178800Y137200D02*
D03*
M02*
