G04*
G04 #@! TF.GenerationSoftware,Altium Limited,Altium Designer,21.3.2 (30)*
G04*
G04 Layer_Color=16711935*
%FSLAX25Y25*%
%MOIN*%
G70*
G04*
G04 #@! TF.SameCoordinates,3DC595B4-C491-417C-8E84-26B3D1DC1506*
G04*
G04*
G04 #@! TF.FilePolarity,Positive*
G04*
G01*
G75*
%ADD35C,0.00000*%
%ADD36C,0.03937*%
D35*
X207677Y98425D02*
X207631Y99424D01*
X207493Y100415D01*
X207264Y101388D01*
X206946Y102336D01*
X206542Y103251D01*
X206055Y104125D01*
X205490Y104950D01*
X204852Y105719D01*
X204144Y106426D01*
X203375Y107065D01*
X202550Y107630D01*
X201676Y108117D01*
X200762Y108521D01*
X199813Y108839D01*
X198840Y109068D01*
X197849Y109206D01*
X196850Y109252D01*
X195851Y109206D01*
X194861Y109068D01*
X193887Y108839D01*
X192939Y108521D01*
X192025Y108117D01*
X191151Y107630D01*
X190326Y107065D01*
X189556Y106426D01*
X188849Y105719D01*
X188210Y104950D01*
X187645Y104125D01*
X187159Y103251D01*
X186755Y102336D01*
X186437Y101388D01*
X186208Y100415D01*
X186070Y99424D01*
X186024Y98425D01*
X186070Y97426D01*
X186208Y96436D01*
X186437Y95462D01*
X186755Y94514D01*
X187159Y93599D01*
X187645Y92726D01*
X188210Y91901D01*
X188849Y91131D01*
X189556Y90424D01*
X190326Y89785D01*
X191151Y89220D01*
X192025Y88734D01*
X192939Y88329D01*
X193887Y88012D01*
X194861Y87783D01*
X195851Y87645D01*
X196850Y87598D01*
X197849Y87645D01*
X198840Y87783D01*
X199813Y88012D01*
X200762Y88329D01*
X201676Y88734D01*
X202550Y89220D01*
X203375Y89785D01*
X204144Y90424D01*
X204852Y91131D01*
X205490Y91901D01*
X206055Y92726D01*
X206542Y93599D01*
X206946Y94514D01*
X207264Y95462D01*
X207493Y96436D01*
X207631Y97426D01*
X207677Y98425D01*
X89567Y39370D02*
X89521Y40369D01*
X89383Y41359D01*
X89154Y42333D01*
X88836Y43281D01*
X88432Y44196D01*
X87945Y45070D01*
X87380Y45895D01*
X86741Y46664D01*
X86034Y47371D01*
X85265Y48010D01*
X84440Y48575D01*
X83566Y49062D01*
X82651Y49466D01*
X81703Y49784D01*
X80730Y50012D01*
X79739Y50151D01*
X78740Y50197D01*
X77741Y50151D01*
X76751Y50012D01*
X75777Y49784D01*
X74829Y49466D01*
X73914Y49062D01*
X73041Y48575D01*
X72216Y48010D01*
X71446Y47371D01*
X70739Y46664D01*
X70100Y45895D01*
X69535Y45070D01*
X69048Y44196D01*
X68644Y43281D01*
X68327Y42333D01*
X68098Y41359D01*
X67960Y40369D01*
X67913Y39370D01*
X67960Y38371D01*
X68098Y37381D01*
X68327Y36407D01*
X68644Y35459D01*
X69048Y34544D01*
X69535Y33670D01*
X70100Y32846D01*
X70739Y32076D01*
X71446Y31369D01*
X72216Y30730D01*
X73041Y30165D01*
X73914Y29678D01*
X74829Y29274D01*
X75777Y28957D01*
X76751Y28728D01*
X77741Y28589D01*
X78740Y28543D01*
X79739Y28589D01*
X80730Y28728D01*
X81703Y28957D01*
X82651Y29274D01*
X83566Y29678D01*
X84440Y30165D01*
X85265Y30730D01*
X86034Y31369D01*
X86741Y32076D01*
X87380Y32846D01*
X87945Y33670D01*
X88432Y34544D01*
X88836Y35459D01*
X89154Y36407D01*
X89383Y37381D01*
X89521Y38371D01*
X89567Y39370D01*
X325787D02*
X325741Y40369D01*
X325603Y41359D01*
X325374Y42333D01*
X325056Y43281D01*
X324652Y44196D01*
X324166Y45070D01*
X323601Y45895D01*
X322962Y46664D01*
X322255Y47371D01*
X321485Y48010D01*
X320660Y48575D01*
X319787Y49062D01*
X318872Y49466D01*
X317923Y49784D01*
X316950Y50012D01*
X315960Y50151D01*
X314961Y50197D01*
X313962Y50151D01*
X312971Y50012D01*
X311998Y49784D01*
X311050Y49466D01*
X310135Y49062D01*
X309261Y48575D01*
X308436Y48010D01*
X307667Y47371D01*
X306960Y46664D01*
X306321Y45895D01*
X305755Y45070D01*
X305269Y44196D01*
X304865Y43281D01*
X304547Y42333D01*
X304318Y41359D01*
X304180Y40369D01*
X304134Y39370D01*
X304180Y38371D01*
X304318Y37381D01*
X304547Y36407D01*
X304865Y35459D01*
X305269Y34544D01*
X305755Y33670D01*
X306321Y32846D01*
X306960Y32076D01*
X307667Y31369D01*
X308436Y30730D01*
X309261Y30165D01*
X310135Y29678D01*
X311050Y29274D01*
X311998Y28957D01*
X312971Y28728D01*
X313962Y28589D01*
X314961Y28543D01*
X315960Y28589D01*
X316950Y28728D01*
X317923Y28957D01*
X318872Y29274D01*
X319787Y29678D01*
X320660Y30165D01*
X321485Y30730D01*
X322255Y31369D01*
X322962Y32076D01*
X323601Y32846D01*
X324166Y33670D01*
X324652Y34544D01*
X325056Y35459D01*
X325374Y36407D01*
X325603Y37381D01*
X325741Y38371D01*
X325787Y39370D01*
D36*
X39620Y19710D02*
X39595Y20707D01*
X39519Y21701D01*
X39393Y22691D01*
X39217Y23673D01*
X38992Y24644D01*
X38717Y25603D01*
X38395Y26547D01*
X38025Y27473D01*
X37608Y28379D01*
X37147Y29263D01*
X36641Y30123D01*
X36092Y30955D01*
X35502Y31759D01*
X34871Y32532D01*
X34203Y33272D01*
X33497Y33978D01*
X32757Y34646D01*
X31984Y35276D01*
X31181Y35867D01*
X30348Y36416D01*
X29488Y36922D01*
X28604Y37383D01*
X27698Y37800D01*
X26772Y38170D01*
X25828Y38492D01*
X24869Y38767D01*
X23898Y38992D01*
X22916Y39168D01*
X21926Y39294D01*
X20932Y39370D01*
X19935Y39395D01*
X39620Y19710D02*
X39645Y18713D01*
X39721Y17718D01*
X39847Y16729D01*
X40023Y15747D01*
X40249Y14776D01*
X40523Y13817D01*
X40845Y12873D01*
X41215Y11947D01*
X41632Y11041D01*
X42094Y10157D01*
X42599Y9297D01*
X43148Y8465D01*
X43739Y7661D01*
X44369Y6888D01*
X45038Y6148D01*
X45743Y5443D01*
X46483Y4774D01*
X47256Y4144D01*
X48060Y3553D01*
X48893Y3004D01*
X49752Y2499D01*
X50636Y2037D01*
X51542Y1620D01*
X52468Y1250D01*
X53412Y928D01*
X54371Y653D01*
X55343Y428D01*
X56324Y252D01*
X57314Y126D01*
X58308Y50D01*
X59305Y25D01*
X334646D02*
X335643Y50D01*
X336637Y126D01*
X337627Y252D01*
X338608Y428D01*
X339580Y653D01*
X340539Y928D01*
X341482Y1250D01*
X342409Y1620D01*
X343315Y2037D01*
X344199Y2499D01*
X345058Y3004D01*
X345891Y3553D01*
X346695Y4144D01*
X347468Y4774D01*
X348208Y5443D01*
X348913Y6148D01*
X349582Y6888D01*
X350212Y7661D01*
X350802Y8465D01*
X351351Y9297D01*
X351857Y10157D01*
X352319Y11041D01*
X352735Y11947D01*
X353105Y12873D01*
X353428Y13817D01*
X353702Y14776D01*
X353928Y15747D01*
X354104Y16729D01*
X354230Y17719D01*
X354306Y18713D01*
X354331Y19710D01*
X374016Y39395D02*
X373019Y39370D01*
X372024Y39294D01*
X371035Y39168D01*
X370053Y38992D01*
X369082Y38767D01*
X368123Y38492D01*
X367179Y38170D01*
X366253Y37800D01*
X365347Y37383D01*
X364463Y36922D01*
X363603Y36416D01*
X362770Y35867D01*
X361966Y35276D01*
X361193Y34646D01*
X360453Y33978D01*
X359748Y33272D01*
X359080Y32532D01*
X358449Y31759D01*
X357859Y30955D01*
X357310Y30123D01*
X356804Y29263D01*
X356342Y28379D01*
X355926Y27473D01*
X355556Y26547D01*
X355234Y25603D01*
X354959Y24644D01*
X354734Y23673D01*
X354558Y22691D01*
X354432Y21701D01*
X354356Y20707D01*
X354331Y19710D01*
X374016Y39395D02*
X375013Y39420D01*
X376007Y39496D01*
X376997Y39622D01*
X377978Y39798D01*
X378950Y40023D01*
X379909Y40298D01*
X380853Y40620D01*
X381779Y40990D01*
X382685Y41407D01*
X383569Y41869D01*
X384428Y42375D01*
X385261Y42923D01*
X386065Y43514D01*
X386838Y44144D01*
X387578Y44813D01*
X388283Y45518D01*
X388952Y46258D01*
X389582Y47031D01*
X390173Y47835D01*
X390721Y48667D01*
X391227Y49527D01*
X391689Y50411D01*
X392106Y51317D01*
X392476Y52243D01*
X392798Y53187D01*
X393072Y54146D01*
X393298Y55118D01*
X393474Y56099D01*
X393600Y57089D01*
X393675Y58083D01*
X393701Y59080D01*
Y275616D02*
X393688Y276613D01*
X393650Y277610D01*
X393587Y278605D01*
X393499Y279599D01*
X393385Y280590D01*
X393247Y281577D01*
X393083Y282561D01*
X392895Y283541D01*
X392682Y284515D01*
X392444Y285484D01*
X392182Y286446D01*
X391895Y287402D01*
X391585Y288349D01*
X391250Y289289D01*
X390892Y290220D01*
X390510Y291141D01*
X390105Y292053D01*
X389677Y292954D01*
X389227Y293844D01*
X388754Y294722D01*
X388259Y295588D01*
X387742Y296441D01*
X387204Y297281D01*
X386644Y298106D01*
X386064Y298918D01*
X385464Y299714D01*
X384843Y300495D01*
X384203Y301260D01*
X383544Y302009D01*
X382866Y302740D01*
X382170Y303454D01*
X381455Y304151D01*
X380724Y304829D01*
X379975Y305488D01*
X379210Y306128D01*
X378429Y306749D01*
X377633Y307349D01*
X376822Y307929D01*
X375996Y308488D01*
X375156Y309027D01*
X374303Y309544D01*
X373437Y310039D01*
X372559Y310512D01*
X371669Y310962D01*
X370768Y311390D01*
X369857Y311795D01*
X368935Y312177D01*
X368004Y312535D01*
X367064Y312870D01*
X366117Y313180D01*
X365161Y313467D01*
X364199Y313729D01*
X363230Y313967D01*
X362256Y314180D01*
X361276Y314368D01*
X360292Y314532D01*
X359305Y314670D01*
X358314Y314784D01*
X357320Y314872D01*
X356325Y314935D01*
X355328Y314973D01*
X354331Y314986D01*
X39620D02*
X38623Y314973D01*
X37626Y314935D01*
X36631Y314872D01*
X35637Y314784D01*
X34646Y314670D01*
X33658Y314532D01*
X32674Y314368D01*
X31695Y314180D01*
X30720Y313967D01*
X29752Y313729D01*
X28789Y313467D01*
X27834Y313180D01*
X26886Y312870D01*
X25947Y312535D01*
X25016Y312177D01*
X24094Y311795D01*
X23183Y311390D01*
X22282Y310962D01*
X21392Y310512D01*
X20514Y310039D01*
X19648Y309544D01*
X18795Y309027D01*
X17955Y308488D01*
X17129Y307929D01*
X16318Y307349D01*
X15521Y306748D01*
X14740Y306128D01*
X13975Y305488D01*
X13227Y304829D01*
X12495Y304151D01*
X11781Y303454D01*
X11085Y302740D01*
X10407Y302009D01*
X9748Y301260D01*
X9108Y300495D01*
X8487Y299714D01*
X7887Y298918D01*
X7306Y298106D01*
X6747Y297281D01*
X6209Y296441D01*
X5692Y295588D01*
X5197Y294722D01*
X4724Y293844D01*
X4273Y292954D01*
X3845Y292053D01*
X3441Y291141D01*
X3059Y290220D01*
X2701Y289289D01*
X2366Y288349D01*
X2056Y287402D01*
X1769Y286446D01*
X1507Y285484D01*
X1269Y284515D01*
X1056Y283541D01*
X867Y282561D01*
X704Y281577D01*
X565Y280589D01*
X452Y279598D01*
X364Y278605D01*
X301Y277609D01*
X263Y276613D01*
X250Y275616D01*
Y59080D02*
X275Y58083D01*
X351Y57089D01*
X477Y56099D01*
X653Y55118D01*
X878Y54146D01*
X1153Y53187D01*
X1475Y52243D01*
X1845Y51317D01*
X2262Y50411D01*
X2723Y49527D01*
X3229Y48667D01*
X3778Y47835D01*
X4369Y47031D01*
X4999Y46258D01*
X5667Y45518D01*
X6373Y44813D01*
X7113Y44144D01*
X7886Y43514D01*
X8690Y42923D01*
X9522Y42375D01*
X10382Y41869D01*
X11266Y41407D01*
X12172Y40990D01*
X13098Y40620D01*
X14042Y40298D01*
X15001Y40023D01*
X15972Y39798D01*
X16954Y39622D01*
X17944Y39496D01*
X18938Y39420D01*
X19935Y39395D01*
X59305Y25D02*
X334646D01*
X393701Y59080D02*
Y275616D01*
X39620Y314986D02*
X354331D01*
X250Y59080D02*
Y275616D01*
M02*
