M48
;Layer_Color=9474304
;FILE_FORMAT=2:5
INCH,TZ
;TYPE=PLATED
T1F00S00C0.02756
T2F00S00C0.02800
T3F00S00C0.03937
T4F00S00C0.04016
T5F00S00C0.04331
T6F00S00C0.05118
%
T01
X378012Y168366
X368012Y198366
X378012Y218366
T02
X136600Y40100
X176900Y24800
X223700Y36500
X219700Y76400
X237300Y95400
X178800Y137200
X192400Y151300
T03
X65945Y89567
Y107283
X91535
Y89567
X125000
Y107283
X150591
Y89567
X243110
Y107283
X268701
Y89567
X302165
Y107283
X327756
Y89567
T04
X313032Y157480
X323032
X303032
X293032
X283032
X273032
X263032
X253032
X243032
X233032
X223032
X213032
X203032
X193032
X183032
X173032
T05
X151850Y18622
Y28622
X161850
X171850
X181850
X191850
Y18622
X201850
X211850
Y28622
X201850
X221850
X231850
X241850
Y18622
X231850
X221850
X181850
X171850
X161850
T06
X21654Y98425
X41339
M30
