G04*
G04 #@! TF.GenerationSoftware,Altium Limited,Altium Designer,21.3.2 (30)*
G04*
G04 Layer_Color=255*
%FSLAX25Y25*%
%MOIN*%
G70*
G04*
G04 #@! TF.SameCoordinates,3DC595B4-C491-417C-8E84-26B3D1DC1506*
G04*
G04*
G04 #@! TF.FilePolarity,Positive*
G04*
G01*
G75*
%ADD13R,0.04724X0.04724*%
%ADD14C,0.04724*%
%ADD15C,0.06181*%
%ADD16R,0.06181X0.06181*%
%ADD23C,0.06299*%
G04:AMPARAMS|DCode=24|XSize=62.99mil|YSize=62.99mil|CornerRadius=15.75mil|HoleSize=0mil|Usage=FLASHONLY|Rotation=0.000|XOffset=0mil|YOffset=0mil|HoleType=Round|Shape=RoundedRectangle|*
%AMROUNDEDRECTD24*
21,1,0.06299,0.03150,0,0,0.0*
21,1,0.03150,0.06299,0,0,0.0*
1,1,0.03150,0.01575,-0.01575*
1,1,0.03150,-0.01575,-0.01575*
1,1,0.03150,-0.01575,0.01575*
1,1,0.03150,0.01575,0.01575*
%
%ADD24ROUNDEDRECTD24*%
%ADD25C,0.07677*%
G04:AMPARAMS|DCode=26|XSize=76.77mil|YSize=76.77mil|CornerRadius=19.19mil|HoleSize=0mil|Usage=FLASHONLY|Rotation=180.000|XOffset=0mil|YOffset=0mil|HoleType=Round|Shape=RoundedRectangle|*
%AMROUNDEDRECTD26*
21,1,0.07677,0.03839,0,0,180.0*
21,1,0.03839,0.07677,0,0,180.0*
1,1,0.03839,-0.01919,0.01919*
1,1,0.03839,0.01919,0.01919*
1,1,0.03839,0.01919,-0.01919*
1,1,0.03839,-0.01919,-0.01919*
%
%ADD26ROUNDEDRECTD26*%
%ADD27C,0.05906*%
D13*
X378012Y168366D02*
D03*
D14*
X368012Y198366D02*
D03*
X378012Y218366D02*
D03*
D15*
X173032Y157480D02*
D03*
X183032D02*
D03*
X193032D02*
D03*
X203032D02*
D03*
X213032D02*
D03*
X223032D02*
D03*
X233032D02*
D03*
X243032D02*
D03*
X253032D02*
D03*
X263032D02*
D03*
X273032D02*
D03*
X283032D02*
D03*
X293032D02*
D03*
X303032D02*
D03*
X313032D02*
D03*
D16*
X323032D02*
D03*
D23*
X211850Y18622D02*
D03*
Y28622D02*
D03*
X201850Y18622D02*
D03*
X191850D02*
D03*
X201850Y28622D02*
D03*
X191850D02*
D03*
X181850Y18622D02*
D03*
Y28622D02*
D03*
X171850Y18622D02*
D03*
Y28622D02*
D03*
X161850Y18622D02*
D03*
Y28622D02*
D03*
X151850Y18622D02*
D03*
X221850Y28622D02*
D03*
X231850D02*
D03*
X241850D02*
D03*
X221850Y18622D02*
D03*
X231850D02*
D03*
X241850D02*
D03*
D24*
X151850Y28622D02*
D03*
D25*
X21654Y98425D02*
D03*
D26*
X41339D02*
D03*
D27*
X65945Y107283D02*
D03*
Y89567D02*
D03*
X91535Y107283D02*
D03*
Y89567D02*
D03*
X243110Y107283D02*
D03*
Y89567D02*
D03*
X268701Y107283D02*
D03*
Y89567D02*
D03*
X302165Y107283D02*
D03*
Y89567D02*
D03*
X327756Y107283D02*
D03*
Y89567D02*
D03*
X125000Y107283D02*
D03*
Y89567D02*
D03*
X150591Y107283D02*
D03*
Y89567D02*
D03*
M02*
