G04*
G04 #@! TF.GenerationSoftware,Altium Limited,Altium Designer,21.3.2 (30)*
G04*
G04 Layer_Color=32768*
%FSLAX25Y25*%
%MOIN*%
G70*
G04*
G04 #@! TF.SameCoordinates,3DC595B4-C491-417C-8E84-26B3D1DC1506*
G04*
G04*
G04 #@! TF.FilePolarity,Positive*
G04*
G01*
G75*
%ADD11C,0.00787*%
%ADD40C,0.00197*%
D11*
X329429Y151831D02*
Y163130D01*
X166634D02*
X329429D01*
X166634Y151831D02*
Y163130D01*
Y151831D02*
X329429D01*
D40*
X62205Y111417D02*
X95276D01*
Y85433D02*
Y111417D01*
X62205Y85433D02*
X95276D01*
X62205D02*
Y111417D01*
X76772Y98425D02*
X80709D01*
X78740Y96457D02*
Y100394D01*
X239370Y111417D02*
X272441D01*
Y85433D02*
Y111417D01*
X239370Y85433D02*
X272441D01*
X239370D02*
Y111417D01*
X253937Y98425D02*
X257874D01*
X255906Y96457D02*
Y100394D01*
X298425Y111417D02*
X331496D01*
Y85433D02*
Y111417D01*
X298425Y85433D02*
X331496D01*
X298425D02*
Y111417D01*
X312992Y98425D02*
X316929D01*
X314961Y96457D02*
Y100394D01*
X121260Y111417D02*
X154331D01*
Y85433D02*
Y111417D01*
X121260Y85433D02*
X154331D01*
X121260D02*
Y111417D01*
X135827Y98425D02*
X139764D01*
X137795Y96457D02*
Y100394D01*
M02*
