G04*
G04 #@! TF.GenerationSoftware,Altium Limited,Altium Designer,21.3.2 (30)*
G04*
G04 Layer_Color=16711935*
%FSLAX25Y25*%
%MOIN*%
G70*
G04*
G04 #@! TF.SameCoordinates,3DC595B4-C491-417C-8E84-26B3D1DC1506*
G04*
G04*
G04 #@! TF.FilePolarity,Negative*
G04*
G01*
G75*
%ADD13R,0.04724X0.04724*%
%ADD14C,0.04724*%
%ADD15C,0.06181*%
%ADD16R,0.06181X0.06181*%
%ADD17C,0.07099*%
G04:AMPARAMS|DCode=18|XSize=70.99mil|YSize=70.99mil|CornerRadius=19.75mil|HoleSize=0mil|Usage=FLASHONLY|Rotation=0.000|XOffset=0mil|YOffset=0mil|HoleType=Round|Shape=RoundedRectangle|*
%AMROUNDEDRECTD18*
21,1,0.07099,0.03150,0,0,0.0*
21,1,0.03150,0.07099,0,0,0.0*
1,1,0.03950,0.01575,-0.01575*
1,1,0.03950,-0.01575,-0.01575*
1,1,0.03950,-0.01575,0.01575*
1,1,0.03950,0.01575,0.01575*
%
%ADD18ROUNDEDRECTD18*%
%ADD19C,0.08477*%
G04:AMPARAMS|DCode=20|XSize=84.77mil|YSize=84.77mil|CornerRadius=23.19mil|HoleSize=0mil|Usage=FLASHONLY|Rotation=180.000|XOffset=0mil|YOffset=0mil|HoleType=Round|Shape=RoundedRectangle|*
%AMROUNDEDRECTD20*
21,1,0.08477,0.03839,0,0,180.0*
21,1,0.03839,0.08477,0,0,180.0*
1,1,0.04639,-0.01919,0.01919*
1,1,0.04639,0.01919,0.01919*
1,1,0.04639,0.01919,-0.01919*
1,1,0.04639,-0.01919,-0.01919*
%
%ADD20ROUNDEDRECTD20*%
%ADD21C,0.06706*%
%ADD22C,0.05800*%
%ADD30R,0.26378X0.26378*%
%ADD31R,0.06299X0.11811*%
%ADD33R,0.02572X0.02572*%
D13*
X378012Y168366D02*
D03*
D14*
X368012Y198366D02*
D03*
X378012Y218366D02*
D03*
D15*
X173032Y157480D02*
D03*
X183032D02*
D03*
X193032D02*
D03*
X203032D02*
D03*
X213032D02*
D03*
X223032D02*
D03*
X233032D02*
D03*
X243032D02*
D03*
X253032D02*
D03*
X263032D02*
D03*
X273032D02*
D03*
X283032D02*
D03*
X293032D02*
D03*
X303032D02*
D03*
X313032D02*
D03*
D16*
X323032D02*
D03*
D17*
X211850Y18622D02*
D03*
Y28622D02*
D03*
X201850Y18622D02*
D03*
X191850D02*
D03*
X201850Y28622D02*
D03*
X191850D02*
D03*
X181850Y18622D02*
D03*
Y28622D02*
D03*
X171850Y18622D02*
D03*
Y28622D02*
D03*
X161850Y18622D02*
D03*
Y28622D02*
D03*
X151850Y18622D02*
D03*
X221850Y28622D02*
D03*
X231850D02*
D03*
X241850D02*
D03*
X221850Y18622D02*
D03*
X231850D02*
D03*
X241850D02*
D03*
D18*
X151850Y28622D02*
D03*
D19*
X21654Y98425D02*
D03*
D20*
X41339D02*
D03*
D21*
X65945Y107283D02*
D03*
Y89567D02*
D03*
X91535Y107283D02*
D03*
Y89567D02*
D03*
X243110Y107283D02*
D03*
Y89567D02*
D03*
X268701Y107283D02*
D03*
Y89567D02*
D03*
X302165Y107283D02*
D03*
Y89567D02*
D03*
X327756Y107283D02*
D03*
Y89567D02*
D03*
X125000Y107283D02*
D03*
Y89567D02*
D03*
X150591Y107283D02*
D03*
Y89567D02*
D03*
D22*
X223700Y36500D02*
D03*
X192400Y151300D02*
D03*
X219700Y76400D02*
D03*
X136600Y40100D02*
D03*
X237300Y95400D02*
D03*
X176900Y24800D02*
D03*
X178800Y137200D02*
D03*
D30*
X354331Y123573D02*
D03*
D31*
X345276Y97392D02*
D03*
X363386D02*
D03*
D33*
X376378Y118110D02*
D03*
X379528D02*
D03*
M02*
